<svg xmlns="http://www.w3.org/2000/svg" xmlns:xlink="http://www.w3.org/1999/xlink" viewBox="0 0 60.55 60.56"><defs><linearGradient id="a" x1="15.79" x2="44.79" y1="4.99" y2="55.61" gradientUnits="userSpaceOnUse"><stop offset="0" stop-color="#dbdfde"/><stop offset=".47" stop-color="#81a0b1"/><stop offset="1" stop-color="#3c525d"/></linearGradient><linearGradient id="c" x1="28.07" x2="32.43" y1="14.47" y2="47.19" xlink:href="#a"/><linearGradient id="d" x1="37.51" x2="23.37" y1="43.99" y2="15.34" xlink:href="#a"/><linearGradient id="e" x1="19.29" x2="41.81" y1="32.47" y2="32.47" gradientUnits="userSpaceOnUse"><stop offset=".28" stop-color="#debd83"/><stop offset="1" stop-color="#795c2a"/></linearGradient><linearGradient id="b" x1="30.37" x2="30.37" y1="14.51" y2="27.11" gradientUnits="userSpaceOnUse"><stop offset="0" stop-color="#919393"/><stop offset="1"/></linearGradient><linearGradient id="f" x1="30.41" x2="30.41" y1="37.7" y2="43.17" xlink:href="#b"/></defs><path fill="url(#a)" d="M60.55 30.28l-13.59-6.91 4.73-14.5-14.5 4.72L30.28 0l-6.92 13.59L8.87 8.87l4.72 14.5L0 30.28l13.59 6.91-4.72 14.5 14.49-4.73 6.92 13.6 6.91-13.6 14.5 4.73-4.73-14.5 13.59-6.91"/><circle cx="30.21" cy="30.48" r="17.56" fill="url(#c)"/><path fill="url(#d)" d="M27.21 12.85l-.28.05a10.2 10.2 0 0 0-4 2 11.47 11.47 0 0 0-4.05 5 13.85 13.85 0 0 0-1.1 6.15 24.71 24.71 0 0 1-.17 3.16l-.1.72a6.89 6.89 0 0 0 .71 5.12 11.4 11.4 0 0 1 .85 3.7l.15 1.15a8.2 8.2 0 0 0 3.61 5.44 17.76 17.76 0 0 1 1.38 1.16c1.4 1.26 3.14 2.82 5.77 2.82 2.82 0 5.34-2 7.36-3.65l1.13-.89.15-.12c1.39-1 3-2.23 3.34-4.77l.15-1.15a11.39 11.39 0 0 1 .85-3.7 6.9 6.9 0 0 0 .71-5.12l-.1-.72a24.3 24.3 0 0 1-.16-3.16 13.86 13.86 0 0 0-1.11-6.16 11.47 11.47 0 0 0-4-5 10.15 10.15 0 0 0-4-2 25.85 25.85 0 0 0-3.57-.42 15.71 15.71 0 0 0-3.52.39zm13.35 16.74z" opacity=".38"/><path d="M42.71 29.31c-.5-4 .35-5.89-1.23-9.56a10.6 10.6 0 0 0-3.77-4.62 9.27 9.27 0 0 0-3.56-1.83 26.16 26.16 0 0 0-3.6-.42 17 17 0 0 0-3.59.42 9.3 9.3 0 0 0-3.56 1.83 10.59 10.59 0 0 0-3.77 4.62c-1.58 3.68-.73 5.58-1.23 9.56-.25 2-.67 3.35.4 5.1.91 1.49 1.05 4.06 1.33 5.94A7.1 7.1 0 0 0 23.27 45c2.1 1.52 3.71 3.94 6.62 3.94s5.8-2.83 8-4.52c1.48-1.12 2.74-2 3-4.05.28-1.88.43-4.45 1.34-5.94 1.14-1.77.77-3.13.48-5.12z"/><path fill="url(#e)" d="M30.55 36.32s-8.33.4-11.26-7.7h22.52c-2.41 8.03-11.26 7.7-11.26 7.7z"/><path d="M21.8 29.77L29.7 32s-2.5 2.1-4.87 1.71-3.03-3.94-3.03-3.94zm17.49 0L31.4 32s2.5 2.1 4.87 1.71 3.02-3.94 3.02-3.94z"/><path fill="url(#b)" d="M38.92 22.16c0 4.72-3.54 5-8.26 5s-8.84-.3-8.84-5a8.55 8.55 0 0 1 17.1 0z"/><path fill="url(#f)" d="M26.07 43.2s.51-5.9 4.15-5.9 4.52 5.82 4.52 5.82" opacity=".38"/></svg>