<svg xmlns="http://www.w3.org/2000/svg" xmlns:xlink="http://www.w3.org/1999/xlink" viewBox="0 0 61.86 58.9"><defs><linearGradient id="a" x1="27.31" x2="32.57" y1="5.4" y2="50.52" gradientUnits="userSpaceOnUse"><stop offset="0" stop-color="#dbdfde"/><stop offset=".47" stop-color="#9eacb2"/><stop offset="1" stop-color="#50595c"/></linearGradient><linearGradient id="c" x1="15.16" x2="38.67" y1="4.08" y2="38.12" xlink:href="#a"/><linearGradient id="d" x1="21.92" x2="38.15" y1="7.57" y2="46.12" xlink:href="#a"/><linearGradient id="b" x1="37.12" x2="39.13" y1="8.45" y2="16.33" gradientUnits="userSpaceOnUse"><stop offset="0" stop-color="#6aa243"/><stop offset="1" stop-color="#496c32"/></linearGradient><linearGradient id="e" x1="30.66" x2="32.66" y1="10.1" y2="17.97" xlink:href="#b"/><linearGradient id="f" x1="23.53" x2="25.53" y1="11.92" y2="19.79" xlink:href="#b"/><linearGradient id="g" x1="17.36" x2="19.37" y1="13.48" y2="21.35" xlink:href="#b"/><linearGradient id="h" x1="31.17" x2="31.3" y1="25.55" y2="32.31" xlink:href="#b"/></defs><path fill="url(#a)" d="M11.68.14l19.17 13.82L49.91 0l-7.22 22.5 19.17 13.82-23.63.08-7.22 22.5-7.38-22.45L0 36.54l19.07-13.96L11.68.14"/><path fill="url(#c)" d="M49.54.28v.29l.37-.57zM31 22.61L30.86 14 11.92.31 28.52 23a3.68 3.68 0 0 0-.46.29 3.76 3.76 0 0 0-1.26 1.61L19 22.35l.08.24L0 36.54h.21l26.47-9.09a3.75 3.75 0 0 0 1.62 2.09l-4.65 7L31 58.9l.17-.55-.51-28.26a3.76 3.76 0 0 0 1.87-.71l.24-.2 5.36 7.52.1-.3 23.63-.08L34 27.22a3.78 3.78 0 0 0-.11-2.16c2.6-.77 6.23-1.78 8.89-2.52h-.05L49.27 2l.22-1.45C47.29 3.5 37 17.28 32.56 23.3a3.81 3.81 0 0 0-1.56-.69z"/><path d="M21.34 37.23l-.79 6.93h18.46l-.98-7.43 7.8-7.59-2.73-12.01-12.2-.45-.51 3.9 4.36 2.65 2.58.18 2.46-2.08-1.74 2.43-.39 1.44 1.79 2.47-2.24-1.5-4.72.28-2.35 5.61.36 2.98-.77-2.73-3.04.48 3.02-1.08 1.18-5.99-7.24-.72-4.36 1.6-3.3-7.25.55 9.34 4.8 8.54" style="isolation:isolate"/><path fill="url(#d)" d="M49.15 30.06l-3.5-15.42h-.93L42.57 5l-3.79-1.8-.63.14-3.4.53-.91.77-2.11-.92-.73.22-3.88 1.27-.81 1.86-1.74-1.3-1.16.54-4.61 2.17-.39 1.12-.69-.76-1.21.49-3.15 1.27-1.51 4.25 1.85 3.91-.77.24.61 10.5s4 8.17 4.52 9.11l-1 9h25.46l-1.21-9.23c1.14-1.12 7.84-8.32 7.84-8.32z"/><path fill="#1c2515" d="M47.71 29.7l-3.23-14.23h-.86l-2-8.87-3.47-1.7-.59.1-3.21.73-.29.76-2.41-1.1-.65.21-3.62 1.16-.69 2.12L25 7.28l-1 .5-4.26 2-.36 1-.64-.71-1.11.45-2.91 1.17-1.4 3.92L15 19.27l-.71.18.57 9.73 4.72 8.4-1 8.29H41l-1.12-8.52z"/><path fill="#496c32" d="M40.15 7.75L42 16.02l-6.33-.04-.81-6.74.77-2 2.31-.53 2.21 1.04m-6.33.56l1.12 7.33-4.77.4-.43 4.68 4.43 3.12.44.95-4.98-.77-1.85-12.91.96-2.98 2.79-.9 2.29 1.08m-7.04 3.03l1.9 12.86-2.82-.29-2.33-.07-3.11-10.93.66-1.88 3.61-1.69 2.09 2m-7.38 2.1l3.4 10.63-3.08 1.2-4.58-9.7.9-2.53 2.19-.89 1.17 1.29"/><path fill="#496c32" d="M21.34 37.23l-.79 6.93h18.46l-.98-7.43 7.8-7.59-2.73-12.01-12.2-.45-.51 3.9 4.36 2.65 2.58.18 2.46-2.08-1.74 2.43-.39 1.44 1.79 2.47-2.24-1.5-4.72.28-2.35 5.61.36 2.98-.77-2.73-3.04.48 3.02-1.08 1.18-5.99-7.24-.72-4.36 1.6-3.3-7.25.55 9.34 4.8 8.54"/><path fill="url(#b)" d="M36.9 8.7l.84-.19.91.43 1.2 5.35h-2.67c-.18-1.68-.5-4.29-.57-4.83z"/><path fill="url(#e)" d="M30.1 9.49l1.31-.42.86.4.73 4.61-3 .25-.44-3.08z"/><path fill="url(#f)" d="M22.46 12.28l1.89-.89.81.78 1.49 10.1-.65-.07h-1.14L22.22 13z"/><path fill="url(#g)" d="M17.39 14.34l.37-.15.12.13 2.8 8.73h-.09L17 15.48z"/><path fill="url(#h)" d="M22.47 42.45l.64-5.57-4.59-8.17 5.35-2 5 .5-.62 3.18-2.11.75.86 3.35 1.54-.24.36 1.27 3.35-.68-.36-2.54 1.77-4.2 3.07-.19 1.77 1.19 2.35-2.43-1.31-1.81.1-.35 1.56-2.17L38.68 20l-1.93 1.63-1.46-.1-3.05-1.83.16-1.24 9.32.34 2.22 9.79-7.72 7.51.83 6.35H22.47z"/><path fill="#dbdfde" d="M45.21 19.12l2.12 10.47-7.85 7.64 1.09 8.33H20.06l-1.45.31H41l-.75-8.39 7.5-7.79-2.5-10.58z"/></svg>