<svg xmlns="http://www.w3.org/2000/svg" xmlns:xlink="http://www.w3.org/1999/xlink" viewBox="0 0 59.21 59.21"><defs><linearGradient id="a" x1="29.3" x2="29.3" y1="3.36" y2="57.27" gradientUnits="userSpaceOnUse"><stop offset="0" stop-color="#fff"/><stop offset=".39" stop-color="#baced6"/><stop offset="1" stop-color="#749dc7"/></linearGradient><linearGradient id="c" x1="302.31" x2="345.42" y1="466.65" y2="466.65" xlink:href="#a"/><linearGradient id="d" x1="316.44" x2="339.89" y1="451.25" y2="508.87" xlink:href="#a"/><linearGradient id="e" x1="310.8" x2="337.55" y1="437.05" y2="507.58" gradientUnits="userSpaceOnUse"><stop offset="0" stop-color="#e3af24"/><stop offset="1" stop-color="#c67a29"/></linearGradient><linearGradient id="b" x1="310.19" x2="336.94" y1="436.44" y2="506.97" gradientUnits="userSpaceOnUse"><stop offset="0" stop-color="#fff"/><stop offset=".39" stop-color="#ffe300"/><stop offset="1" stop-color="#c67a29"/></linearGradient><linearGradient id="f" x1="328.85" x2="337.36" y1="441.48" y2="499.54" xlink:href="#b"/><linearGradient id="g" x1="305.53" x2="325.78" y1="473.78" y2="473.78" gradientUnits="userSpaceOnUse"><stop offset="0" stop-color="#fff"/><stop offset="1" stop-color="#bdbdbd"/></linearGradient><linearGradient id="h" x1="20.01" x2="27.29" y1="37.35" y2="37.35" gradientUnits="userSpaceOnUse"><stop offset="0" stop-color="#ee3d3c"/><stop offset="1" stop-color="#ba2f2d"/></linearGradient></defs><g style="isolation:isolate"><path fill="url(#a)" d="M17.67 57.39L1.22 40.94V17.67L17.67 1.22h23.26l16.46 16.45v23.27L40.93 57.39H17.67"/><path fill="url(#c)" d="M345.42 458.64l-6.41-3 2.45-6.62-6.62 2.45-2.95-6.41-.76 1.65-2.19 4.77-6.62-2.45 2.45 6.62-6.41 3 5.47 2.52-.49.49a14.15 14.15 0 1 0 5.64 5.72l.48-.48 2.44 5.29 2.95-6.41 6.63 2.45-2.48-6.64zm-11.46 5l-2.08 4.52-1.18-2.56 2.38-2.38-2.14-2.14.15-.39a5.31 5.31 0 0 1 1.24-2.16c.86-.75 1.57-.48 2.92.46l.7-1c-1-.71-2.71-1.89-4.44-.38a6.2 6.2 0 0 0-1.53 2.52l-2.58-2.58-2.33 2.33-2.74-1.26 4.52-2.08-1.73-4.67 4.67 1.72.32-.7 1.76-3.82 2.08 4.52 4.67-1.72-1.73 4.67 4.52 2.08-4.52 2.08 1.73 4.67z" transform="translate(-292 -436.44)" style="mix-blend-mode:multiply"/><path fill="url(#d)" d="M344.21 457.42l-6.41-3 2.45-6.62-6.62 2.45-3-6.41-.76 1.65-2.2 4.77-6.62-2.45 2.45 6.62-6.41 3 5.47 2.52-.49.49a14.15 14.15 0 1 0 5.64 5.72l.48-.48 2.44 5.29 3-6.41 6.62 2.45-2.45-6.62zm-11.46 5l-2.08 4.58-1.18-2.56 2.38-2.37-2.14-2.14.15-.39a5.32 5.32 0 0 1 1.23-2.16c.86-.76 1.57-.48 2.93.46l.7-1c-1-.71-2.71-1.89-4.44-.38a6.15 6.15 0 0 0-1.53 2.52l-2.58-2.58-2.33 2.33-2.74-1.26 4.52-2.08-1.73-4.67 4.67 1.72.32-.7 1.76-3.82 2.08 4.52 4.67-1.72-1.73 4.67 4.52 2.08-4.52 2.08 1.73 4.67z" transform="translate(-292 -436.44)"/><path fill="url(#e)" d="M333.54 437h-23.76l-17.16 17.17v24.27l17.16 17.17H334l17.16-17.17v-24.23L334 437h-.5zm-.5 2.43l15.74 15.74v22.26L333 493.22h-22.22L295 477.48v-22.26l15.74-15.74H333z" transform="translate(-292 -436.44)" style="mix-blend-mode:multiply"/><path fill="url(#b)" d="M332.94 436.44h-23.77L292 453.61v24.27L309.17 495h24.27l17.17-17.17v-24.22l-17.17-17.17h-.5zm-.5 2.43l15.74 15.74v22.26l-15.74 15.74h-22.27l-15.74-15.74v-22.26l15.74-15.74h22.26z" transform="translate(-292 -436.44)"/><path fill="none" stroke="#fff" stroke-width=".77" d="M18.17 56.17h22.26l15.74-15.74V18.17" opacity=".43"/><path fill="#010101" d="M52.81 21.56l-6.41-3 2.45-6.62-6.62 2.44-2.95-6.41-.76 1.64-2.19 4.77-6.62-2.44 2.45 6.62-6.41 3 5.48 2.52-.49.49a14.15 14.15 0 1 0 5.64 5.72l.48-.48 2.44 5.29 2.95-6.41 6.62 2.45-2.47-6.58z"/><path fill="url(#f)" d="M333.36 463.06l-2.08 4.52-1.18-2.58 2.38-2.38-2.14-2.14.15-.39a5.37 5.37 0 0 1 1.23-2.16c.86-.75 1.57-.48 2.93.47l.7-1c-1-.71-2.71-1.89-4.44-.38a6.19 6.19 0 0 0-1.53 2.52L326.8 457l-2.33 2.33-2.74-1.33 4.52-2.08-1.73-4.67 4.67 1.73.32-.7 1.76-3.82 2.08 4.52 4.67-1.73-1.73 4.67 4.52 2.08-4.52 2.08 1.73 4.67z" transform="translate(-292 -436.44)"/><path fill="url(#g)" d="M315.66 467.75a6.06 6.06 0 1 0 6.56 6 6.32 6.32 0 0 0-6.56-6zm0 15.35c-5.59 0-10.12-4.17-10.12-9.31s4.53-9.31 10.12-9.31 10.12 4.17 10.12 9.31-4.53 9.31-10.12 9.31z" transform="translate(-292 -436.44)"/><ellipse cx="23.65" cy="37.35" fill="url(#h)" rx="3.64" ry="3.35"/></g></svg>