<svg xmlns="http://www.w3.org/2000/svg" xmlns:xlink="http://www.w3.org/1999/xlink" viewBox="0 0 58.08 44.17"><defs><linearGradient id="c" x1="366.76" x2="422.16" y1="439.36" y2="479.95" gradientUnits="userSpaceOnUse"><stop offset="0" stop-color="#fff"/><stop offset=".39" stop-color="#baced6"/><stop offset="1" stop-color="#749dc7"/></linearGradient><linearGradient id="a" x1="370.55" x2="416.5" y1="443.76" y2="475.16" gradientUnits="userSpaceOnUse"><stop offset="0" stop-color="#fff"/><stop offset=".39" stop-color="#f26857"/><stop offset="1" stop-color="#b13148"/></linearGradient><linearGradient id="d" x1="400.23" x2="391.99" y1="468.2" y2="452.73" gradientUnits="userSpaceOnUse"><stop offset="0" stop-color="#f26857"/><stop offset="1" stop-color="#b13148"/></linearGradient><linearGradient id="b" x1="35.12" x2="38.73" y1="6.65" y2="18.04" gradientUnits="userSpaceOnUse"><stop offset="0" stop-color="#f9b19e"/><stop offset=".39" stop-color="#f26857"/><stop offset="1" stop-color="#b13148"/></linearGradient><linearGradient id="e" x1="406.21" x2="402.56" y1="462.96" y2="452.55" xlink:href="#a"/><linearGradient id="f" x1="38.8" x2="45.38" y1="12.38" y2="20.52" xlink:href="#b"/><linearGradient id="g" x1="389.76" x2="403" y1="450.72" y2="473.42" xlink:href="#c"/></defs><path fill="url(#c)" d="M365.8 452.58l.09.18c1.6 3 25.33 36.49 25.39 36.55a4.07 4.07 0 0 0 6.46 0c.05-.07 22.46-32.52 24.92-36a4.08 4.08 0 0 0-3.29-6.49h-49.9a4.08 4.08 0 0 0-3.67 5.76z" transform="translate(-365.38 -446.71)"/><path fill="url(#a)" d="M397.17 486.41c.05-.06 21.15-30.33 22.46-32.23s2.06-2.64 1.52-4-1.42-1.42-3.4-1.42h-46.42c-2 0-2.87.06-3.4 1.42s.22 2.09 1.52 4 22.41 32.18 22.46 32.23c.65.86 1.29 1.95 2.63 1.95s1.78-.77 2.43-1.64z" transform="translate(-365.38 -446.71)"/><path fill="#fff" d="M45.77 11.29l-4.15-1.87 1.59-4.3-4.3 1.59-1.92-4.17-.49 1.07-1.42 3.1-4.3-1.59 1.59 4.3-4.18 1.87 3.56 1.64-.32.32a9.19 9.19 0 1 0 3.66 3.71l.31-.31 1.58 3.44 1.92-4.17 4.3 1.59-1.58-4.22zm-7.44 3.27l-1.35 2.94-.76-1.66 1.54-1.54-1.39-1.39.1-.25a3.47 3.47 0 0 1 .8-1.4c.56-.49 1-.31 1.9.3l.46-.66c-.66-.46-1.76-1.23-2.88-.25a4.06 4.06 0 0 0-1 1.64l-1.68-1.68-1.51 1.51-1.78-.82 2.94-1.35-1.12-3 3 1.12.21-.45 1.14-2.48 1.35 2.94 3-1.12-1.12 3 2.94 1.35-2.94 1.35 1.12 3z" style="isolation:isolate"/><path fill="url(#d)" d="M401.62 448.91L400 452.4l-5.25-1.94 1.94 5.25-5.06 2.29.13.06a9.91 9.91 0 0 0-9.42 9.94 10 10 0 0 0 10 10 10 10 0 0 0 10-9.38l.05.11 2.34-5.08 5.25 1.94-1.98-5.2 5.08-2.34-5.08-2.34 1.45-3.91.41-1.45s-4.5 1.8-5.16 2c-.44-1-1.63-3.5-1.63-3.5h-1.45z" transform="translate(-365.38 -446.71)"/><path fill="url(#b)" d="M32.87 12.67l-2.66-1.43 3.21-1.43-1.17-3.15L35.6 7.7l1.33-3.21 1.72 3.02 2.89-.72-1.55 1.53-2.08.77-.93-2.02-.93 2.02-2.09-.77.63 1.69-1.72 2.66"/><path fill="url(#e)" d="M404.81 456.56a3.75 3.75 0 0 0-1.81-.44 3.33 3.33 0 0 0-2.1 1.53l.25 1.47 1-1.46 1.33-.45 1.4.42 1-1 .16-.13.62-2.76-1.32 1.3z" transform="translate(-365.38 -446.71)"/><path fill="url(#f)" d="M35.71 15.76l1.28 2.1 1.69-2.84 3.55 1.35-1.59-3.65 3.45-1.51-.91.12h-1.94l-1.34.62-.52.75.61 1.65-1.69-.63-2.59 2.04"/><path fill="url(#g)" d="M411.15 458l-4.15-1.87 1.59-4.3-4.3 1.59-1.92-4.17-.49 1.07-1.42 3.1-4.3-1.59 1.59 4.3-4.18 1.87 3.56 1.64-.32.32a9.19 9.19 0 1 0 3.66 3.71l.31-.31 1.58 3.44 1.92-4.17 4.3 1.59L407 460zm-7.44 3.27l-1.35 2.94-.76-1.66 1.54-1.54-1.39-1.39.1-.25a3.47 3.47 0 0 1 .8-1.4c.56-.49 1-.31 1.9.3l.46-.66c-.66-.46-1.76-1.23-2.88-.25a4.06 4.06 0 0 0-1 1.64l-1.68-1.68-1.51 1.51-1.78-.82 2.94-1.35-1.12-3 3 1.12.21-.45 1.14-2.48 1.35 2.94 3-1.12-1.12 3 2.94 1.35-2.94 1.35 1.12 3z" transform="translate(-365.38 -446.71)"/><path fill="none" stroke="#707688" stroke-width=".55" d="M55.78 3.47c-.53-1.35-1.42-1.42-3.4-1.42H5.95c-2 0-2.87.06-3.4 1.42s.22 2.09 1.52 4S26.48 39.65 26.53 39.7s1.14 2 2.5 2" opacity=".43"/><path fill="none" stroke="#fff" stroke-width=".55" d="M29.16 41.65c1.38 0 1.78-.77 2.43-1.64l.2-.31c.05-.06 21.15-30.33 22.46-32.23s2.06-2.64 1.52-4" opacity=".43"/></svg>