<svg xmlns="http://www.w3.org/2000/svg" xmlns:xlink="http://www.w3.org/1999/xlink" viewBox="0 0 60.49 58.44"><defs><linearGradient id="c" x1="-74.94" x2="-26.05" y1="-186.16" y2="-173.06" gradientTransform="rotate(90 -114.99 -35.28)" gradientUnits="userSpaceOnUse"><stop offset="0" stop-color="#fafdff"/><stop offset=".47" stop-color="#cecbdd"/><stop offset="1" stop-color="#898dbd"/></linearGradient><linearGradient id="d" x1="-68" x2="-32.98" y1="-197.12" y2="-162.1" gradientTransform="rotate(90 -114.99 -35.28)" gradientUnits="userSpaceOnUse"><stop offset="0" stop-color="#ba8337"/><stop offset=".47" stop-color="#9e6127"/><stop offset="1" stop-color="#743918"/></linearGradient><linearGradient id="e" x1="8.67" x2="11.93" y1="11.36" y2="23.52" gradientUnits="userSpaceOnUse"><stop offset="0" stop-color="#a9812d"/><stop offset=".15" stop-color="#eab51f"/><stop offset=".52" stop-color="#ffdd17"/><stop offset="1" stop-color="#fff38a"/></linearGradient><linearGradient id="f" x1="-614.06" x2="-621.93" y1="12.64" y2="22.01" gradientTransform="matrix(-1 0 0 1 -567.51 0)" gradientUnits="userSpaceOnUse"><stop offset="0" stop-color="#fff"/><stop offset=".11" stop-color="#fffffd"/><stop offset=".15" stop-color="#fffef6"/><stop offset=".18" stop-color="#fffcea"/><stop offset=".2" stop-color="#fffada"/><stop offset=".22" stop-color="#fff7c4"/><stop offset=".24" stop-color="#fff4a8"/><stop offset=".25" stop-color="#fff088"/><stop offset=".27" stop-color="#ffeb62"/><stop offset=".28" stop-color="#ffe639"/><stop offset=".29" stop-color="#ffe21d"/><stop offset=".52" stop-color="#f9ce1f"/><stop offset="1" stop-color="#e4ab23"/></linearGradient><linearGradient id="g" x1="30.16" x2="30.16" y1="16.01" y2="43.95" gradientUnits="userSpaceOnUse"><stop offset="0" stop-color="#c5cdcd"/><stop offset=".15" stop-color="#d3d8d8"/><stop offset=".52" stop-color="#c9d3d8"/><stop offset="1" stop-color="#8b969d"/></linearGradient><linearGradient id="h" x1="30.42" x2="30.42" y1="16.6" y2="42.93" gradientUnits="userSpaceOnUse"><stop offset="0" stop-color="#c5cdcd"/><stop offset=".15" stop-color="#b3bdc1"/><stop offset=".52" stop-color="#98a5ac"/><stop offset="1" stop-color="#7c868c"/></linearGradient><linearGradient id="i" x1="25.38" x2="35.41" y1="38.02" y2="48.04" gradientUnits="userSpaceOnUse"><stop offset="0" stop-color="#ffdd17"/><stop offset=".38" stop-color="#fde533"/><stop offset=".38" stop-color="#fde84f"/><stop offset=".39" stop-color="#feeb6e"/><stop offset=".39" stop-color="#feed8a"/><stop offset=".4" stop-color="#feefa0"/><stop offset=".4" stop-color="#fff1b1"/><stop offset=".41" stop-color="#fff2bc"/><stop offset=".42" stop-color="#fff3c3"/><stop offset=".46" stop-color="#fff3c5"/><stop offset=".48" stop-color="#fff3c3"/><stop offset=".49" stop-color="#fff2bc"/><stop offset=".5" stop-color="#fff2b1"/><stop offset=".51" stop-color="#fef1a0"/><stop offset=".51" stop-color="#feef8a"/><stop offset=".52" stop-color="#feed6f"/><stop offset=".52" stop-color="#fdeb50"/><stop offset=".52" stop-color="#fdeb4d"/><stop offset="1" stop-color="#cf8c29"/></linearGradient><linearGradient id="a" x1="24.41" x2="24.41" y1="36.22" y2="40.04" gradientUnits="userSpaceOnUse"><stop offset="0" stop-color="#444748"/><stop offset="1" stop-color="#6e777b"/></linearGradient><linearGradient id="j" x1="-495.21" x2="-495.21" y1="36.22" y2="40.04" gradientTransform="matrix(-1 0 0 1 -459.18 0)" xlink:href="#a"/><linearGradient id="b" x1="23.38" x2="29.87" y1="38.86" y2="32.37" gradientUnits="userSpaceOnUse"><stop offset="0" stop-color="#5b6368"/><stop offset=".25" stop-color="#838b92"/><stop offset="1" stop-color="#b1bcc1"/></linearGradient><linearGradient id="k" x1="-491.62" x2="-485.13" y1="38.86" y2="32.37" gradientTransform="matrix(-1 0 0 1 -454.77 0)" xlink:href="#b"/></defs><g style="isolation:isolate"><path fill="url(#c)" d="M8.67 8.56h41.32v41.33H8.67z" transform="rotate(-45 29.333 29.22)"/><path fill="url(#d)" d="M11.82 11.71h35.02v35.02H11.82z" transform="rotate(-45 29.333 29.22)"/><path fill="url(#e)" d="M18 17.18s-12.08-.08-14-.92-1-2.66 3.92-4.16c-3.58.08-8 1.25-7.92 3.67 0 5 16.92 6.42 16.92 6.42s7.25-4.34 1.08-5.01z"/><path fill="#231f20" d="M41.73 27.2c1.08-.25 6.92-2.92 6.92-2.92s-6.5-.17-7.08-.5 2.08-1.67 3-1.75-.82-4.58-1.5-4.33-4.17-1.5-5.42-1.5-1.32 1.25-2.17 1.5-1.01-1.7-3.92-1.7h-.47a3.24 3.24 0 0 0-.45 0h-.24c-1.69.35-2.81 1.81-3.55 1.59s-.92-1.5-2.17-1.5-4.74 1.75-5.42 1.5-2.42 4.25-1.5 4.33 3.58 1.42 3 1.75-7.08.5-7.08.5 5.83 2.67 6.92 2.92-.33 2.58 1.25 3.17 3.92.75 4 2.25-1.31 2.69-3.17 3.08c-1.53.41-1.85 6.51 1.4 4.41.43-.28.79-.5 1.11-.68a7.76 7.76 0 0 0-.86 4c0 3.59 3.19 6.5 7.13 6.5s7.13-2.91 7.13-6.5a7.59 7.59 0 0 0-.89-3.65l.53.33c3.25 2.08 2.9-3.89 1.42-4.33-2.44-.73-3.06-1.85-3-3.35s2.58-1.42 4.17-2-.17-2.87.91-3.12zM31.21 47.35c-3 0-4.87-3-4.87-5.58a4.55 4.55 0 0 1 .73-2.3c0 .23.05.5.1.8.25 1.5 1.17 3.67 4 3.67s3.75-2.17 4-3.67a3 3 0 0 1 .33-1.41l.44 2.72c-.02 2.64-.19 5.77-4.73 5.77z" opacity=".43"/><path fill="url(#f)" d="M42.49 17.18s12.08-.08 14-.92 1-2.67-3.92-4.17c3.58.08 8 1.25 7.92 3.67 0 5-16.92 6.42-16.92 6.42s-7.25-4.33-1.08-5z"/><path fill="url(#g)" d="M30.15 44c2.83 0 3.75-2.17 4-3.67S34 38 37.23 40s2.9-3.89 1.42-4.33c-2.44-.73-3.06-1.85-3-3.35s2.58-1.42 4.17-2-.19-2.9.9-3.15 6.92-2.92 6.92-2.92-6.5-.17-7.08-.5 2.08-1.67 3-1.75-.82-4.58-1.5-4.33-4.17-1.5-5.42-1.5-1.32 1.25-2.17 1.5-1-1.81-4.25-1.67 1.94 0-.15 0-3.41 1.92-4.25 1.67-.92-1.5-2.17-1.5-4.74 1.75-5.42 1.5-2.42 4.25-1.5 4.33 3.58 1.42 3 1.75-7.08.5-7.08.5 5.83 2.67 6.92 2.92-.33 2.58 1.25 3.17 3.92.75 4 2.25-1.31 2.69-3.17 3.08c-1.5.33-1.82 6.43 1.43 4.33s2.83-1.25 3.08.25 1.17 3.67 4 3.67z"/><path fill="#444b4e" d="M16.92 25.26s2.33-.5 2.67.33.49 2.34-2.67-.33z" opacity=".49"/><path fill="#444b4e" d="M25.82 28.49s-3.42-.91-3.31-2.23.91-3.43 3.31 2.23zm8.69 0s3.42-.91 3.31-2.23-.91-3.43-3.31 2.23z" opacity=".74"/><path fill="#444b4e" d="M41.09 25.6c-.33.83-.5 2.33 2.67-.33 0 0-2.33-.5-2.67.33" opacity=".49"/><path fill="url(#h)" d="M18.58 18.26c2 2.17 10.42 4.83 10.58 6.83s-.08-8.5-.08-8.5h1.83l.33 7.5s6.83-3 8.67-4.17 2.5-1.67 2.5-1.67l1 3.5-4 1.83s.33-1.67-2.5-1.17-5.75 2.52-5.42 5c.58 4.42.58 15.5.58 15.5H28.5s-.5-11 .25-15.58c.57-3.49-4.67-4.92-5.83-4.92s-5.5 1.67-5.5-.67.41-3.4 1.16-3.48z" opacity=".44"/><path fill="url(#i)" d="M34.92 41.6c0 2.62-.17 5.75-4.71 5.75-3 0-4.87-3-4.87-5.58 0-2.2 2.08-3.33.5-3.42s-2.5 1.92-2.5 5c0 3.59 3.19 6.5 7.13 6.5s7.13-2.91 7.13-6.5-2.27-6-3.17-4.83z"/><path fill="url(#a)" d="M22.77 40S20 35.66 24 36.28s3.19 3.5 2.38 3.44-1.3.38-3.61.28z" opacity=".6" style="mix-blend-mode:multiply"/><path fill="url(#j)" d="M37.67 40s2.75-4.37-1.19-3.75-3.19 3.5-2.37 3.44 1.25.41 3.56.31z" opacity=".6" style="mix-blend-mode:multiply"/><path fill="url(#b)" d="M25.92 28.76c-.58.33.67 6.33.58 7.05s-.58 3.35-.33 4.25.92 3.08 1.08 2.44.42-9-.08-10.94-.67-3.13-1.25-2.8z" opacity=".83"/><path fill="url(#k)" d="M34.31 28.76c.58.33-.67 6.33-.58 7.05s.58 3.35.33 4.25-.92 3.08-1.06 2.44-.42-9 .08-10.94.64-3.13 1.23-2.8z" opacity=".83"/><path fill="#b1bcc1" d="M23.08 40s-.75.92-1.33.67-2.83-3.25-.08-5A3.47 3.47 0 0 1 27 37.26c1.17 2.42-.16 3.44-.25 2.58-.58-5.24-8.17-4.33-3.67.16zm14.31 0s.75.92 1.33.67 2.83-3.25.08-5a3.47 3.47 0 0 0-5.33 1.58c-1.17 2.42.16 3.44.25 2.58.59-5.23 8.17-4.32 3.67.17z"/></g></svg>