<svg xmlns="http://www.w3.org/2000/svg" xmlns:xlink="http://www.w3.org/1999/xlink" viewBox="0 0 60.53 60.53"><defs><linearGradient id="c" x1="39.54" x2="15.76" y1="68.21" y2="-29.07" gradientUnits="userSpaceOnUse"><stop offset="0" stop-color="#fcfade"/><stop offset=".39" stop-color="#fef07c"/><stop offset="1" stop-color="#c79b5f"/></linearGradient><linearGradient id="d" x1="16.18" x2="47.94" y1="226.86" y2="276.18" gradientUnits="userSpaceOnUse"><stop offset="0" stop-color="#fff"/><stop offset=".39" stop-color="#d2b34e"/><stop offset="1" stop-color="#804f20"/></linearGradient><linearGradient id="a" x1="22.11" x2="22.11" y1="225.94" y2="256.57" gradientUnits="userSpaceOnUse"><stop offset="0" stop-color="#eccc55"/><stop offset=".54" stop-color="#d2b34e"/><stop offset="1" stop-color="#804f20"/></linearGradient><linearGradient id="b" x1="20.38" x2="20.38" y1="7.77" y2="32.36" gradientUnits="userSpaceOnUse"><stop offset=".01" stop-color="#9898cb"/><stop offset="1" stop-color="#283789"/></linearGradient><linearGradient id="e" x1="41.59" x2="41.59" y1="244.71" y2="275.34" xlink:href="#a"/><linearGradient id="f" x1="39.86" x2="39.86" y1="26.53" y2="51.12" xlink:href="#b"/></defs><circle cx="30.27" cy="30.27" r="30" fill="url(#c)"/><path fill="#feebad" d="M30.12 56.79a1.54 1.54 0 0 1 1.46-1.62h.36a1.54 1.54 0 0 1 1.64 1.44 1.54 1.54 0 0 1-1.44 1.64h-.47a1.54 1.54 0 0 1-1.54-1.46zm-4.85 1.06l-.4-.08a1.54 1.54 0 0 1-1.21-1.81 1.54 1.54 0 0 1 1.81-1.22l.36.07a1.54 1.54 0 0 1 1.24 1.8 1.55 1.55 0 0 1-1.55 1.24h-.25zm11.4-1.82a1.54 1.54 0 0 1 1-1.94l.34-.11a1.55 1.55 0 0 1 2 1 1.55 1.55 0 0 1-1 2l-.39.12a1.56 1.56 0 0 1-.46.07 1.54 1.54 0 0 1-1.47-1.08zm-18-.27l-.4-.19a1.54 1.54 0 0 1-.72-2.06 1.54 1.54 0 0 1 2.06-.72l.33.15a1.54 1.54 0 0 1 .75 2.05 1.55 1.55 0 0 1-1.4.9 1.54 1.54 0 0 1-.65-.14zm24.13-2.1a1.54 1.54 0 0 1 .5-2.13l.31-.19a1.54 1.54 0 0 1 2.13.47 1.55 1.55 0 0 1-.47 2.14l-.35.22a1.54 1.54 0 0 1-.81.23 1.54 1.54 0 0 1-1.31-.73zm-30-1.57l-.37-.24a1.54 1.54 0 0 1-.19-2.18 1.54 1.54 0 0 1 2.18-.19l.28.23a1.55 1.55 0 0 1 .22 2.17 1.55 1.55 0 0 1-1.2.57 1.54 1.54 0 0 1-1-.35zm35.28-2.24a1.55 1.55 0 0 1 0-2.19l.25-.26a1.54 1.54 0 0 1 2.18-.07 1.55 1.55 0 0 1 .08 2.18l-.28.3a1.54 1.54 0 0 1-1.11.47 1.54 1.54 0 0 1-1.07-.43zM7.95 47.06l-.24-.33a1.54 1.54 0 0 1 .35-2.16 1.55 1.55 0 0 1 2.16.35l.21.29a1.55 1.55 0 0 1-.32 2.16 1.54 1.54 0 0 1-.92.3 1.54 1.54 0 0 1-1.24-.62zm44.32-2.21a1.55 1.55 0 0 1-.58-2.11l.18-.32a1.55 1.55 0 0 1 2.1-.61 1.54 1.54 0 0 1 .61 2.1l-.2.36a1.55 1.55 0 0 1-1.35.78 1.53 1.53 0 0 1-.76-.2zM4.55 41.02l-.15-.38a1.54 1.54 0 0 1 .88-2h-.01a1.54 1.54 0 0 1 2 .88l.14.33a1.54 1.54 0 0 1-.85 2 1.55 1.55 0 0 1-.58.11 1.54 1.54 0 0 1-1.43-1zm50.61-2.17a1.54 1.54 0 0 1-1.09-1.9l.09-.35a1.54 1.54 0 0 1 1.88-1.12 1.54 1.54 0 0 1 1.11 1.88l-.1.39a1.55 1.55 0 0 1-1.49 1.14 1.54 1.54 0 0 1-.4-.05zm-52.4-4.58c0-.14 0-.27-.05-.41a1.55 1.55 0 0 1 1.35-1.72 1.54 1.54 0 0 1 1.72 1.35v.36a1.55 1.55 0 0 1-1.32 1.74h-.19a1.55 1.55 0 0 1-1.53-1.34zm53.69-1.85a1.55 1.55 0 0 1-1.52-1.57v-.92a1.54 1.54 0 0 1 1.51-1.58 1.55 1.55 0 0 1 1.58 1.51v1.04a1.55 1.55 0 0 1-1.54 1.52zM4.04 29.1a1.55 1.55 0 0 1-1.36-1.71c0-.14 0-.27.05-.41a1.54 1.54 0 0 1 1.73-1.34 1.54 1.54 0 0 1 1.34 1.73v.36a1.54 1.54 0 0 1-1.53 1.37h-.23zm50.07-4.87l-.1-.35a1.55 1.55 0 0 1 1.07-1.91 1.55 1.55 0 0 1 1.9 1.07l.11.39a1.55 1.55 0 0 1-1.1 1.89 1.54 1.54 0 0 1-.39.05 1.55 1.55 0 0 1-1.49-1.15zm-48.9-1.59a1.54 1.54 0 0 1-.89-2h-.05l.15-.38a1.55 1.55 0 0 1 2-.86 1.55 1.55 0 0 1 .86 2l-.13.34a1.55 1.55 0 0 1-1.44 1 1.54 1.54 0 0 1-.55-.1zm46.6-4.13l-.18-.32a1.54 1.54 0 0 1 .56-2.11 1.54 1.54 0 0 1 2.11.56l.2.35a1.54 1.54 0 0 1-.59 2.1 1.54 1.54 0 0 1-.75.2 1.54 1.54 0 0 1-1.35-.79zM7.95 16.68a1.54 1.54 0 0 1-.37-2.15l.24-.33a1.55 1.55 0 0 1 2.16-.34 1.55 1.55 0 0 1 .34 2.16l-.21.3a1.55 1.55 0 0 1-1.26.65 1.53 1.53 0 0 1-.89-.28zm40.2-3.12l-.25-.26a1.55 1.55 0 0 1 0-2.19 1.55 1.55 0 0 1 2.19 0l.28.3a1.55 1.55 0 0 1-.06 2.18 1.54 1.54 0 0 1-1.06.42 1.54 1.54 0 0 1-1.12-.48zm-36.07-2a1.54 1.54 0 0 1 .17-2.18l.31-.26a1.54 1.54 0 0 1 2.17.2 1.55 1.55 0 0 1-.2 2.18l-.28.23a1.54 1.54 0 0 1-1 .37 1.54 1.54 0 0 1-1.18-.54zm31.3-1.94l-.31-.19a1.55 1.55 0 0 1-.52-2.12 1.54 1.54 0 0 1 2.12-.52l.35.22a1.54 1.54 0 0 1 .48 2.13 1.54 1.54 0 0 1-1.31.72 1.54 1.54 0 0 1-.82-.24zm-26-2a1.55 1.55 0 0 1 .71-2.07l.37-.18a1.55 1.55 0 0 1 2.06.74 1.55 1.55 0 0 1-.74 2.06l-.33.16a1.53 1.53 0 0 1-.68.16 1.55 1.55 0 0 1-1.39-.87zm20.46-.63l-.35-.11a1.55 1.55 0 0 1-1-1.93 1.55 1.55 0 0 1 1.93-1l.39.12a1.54 1.54 0 0 1 1 1.94 1.55 1.55 0 0 1-1.54 1.11 1.55 1.55 0 0 1-.47-.07zM23.45 5.13a1.54 1.54 0 0 1 1.2-1.82l.4-.08a1.54 1.54 0 0 1 1.81 1.23 1.55 1.55 0 0 1-1.23 1.81l-.36.07a1.57 1.57 0 0 1-.31 0 1.54 1.54 0 0 1-1.51-1.23zm8.33.73h-.36a1.55 1.55 0 0 1-1.47-1.61 1.54 1.54 0 0 1 1.57-1.4h.41a1.55 1.55 0 0 1 1.45 1.63 1.55 1.55 0 0 1-1.54 1.46h-.09z" opacity=".36"/><path fill="url(#d)" d="M1.73 251.42A30.27 30.27 0 1 0 32 221.15a30.3 30.3 0 0 0-30.27 30.27zm.92 0A29.35 29.35 0 1 1 32 280.77a29.38 29.38 0 0 1-29.36-29.35z" transform="translate(-1.73 -221.15)"/><path fill="#010101" d="M20.38 8.05l2.97 9.13h9.6l-7.77 5.64 2.97 9.13-7.77-5.64-7.77 5.64 2.97-9.13-7.77-5.64h9.6l2.97-9.13" style="isolation:isolate"/><path fill="url(#a)" d="M21.38 229l-2.8 8.61H7.21l9.21 6.69-3.52 10.79 9.21-6.69 9.21 6.69-3.52-10.83 9.2-6.69H25.62l-3.52-10.83z" transform="translate(-1.73 -221.15)"/><path fill="url(#b)" stroke="#000" stroke-width=".77" d="M20.38 8.05l2.97 9.13h9.6l-7.77 5.64 2.97 9.13-7.77-5.64-7.77 5.64 2.97-9.13-7.77-5.64h9.6l2.97-9.13z"/><path fill="#010101" d="M39.86 26.82l2.97 9.13h9.6l-7.77 5.64 2.97 9.13-7.77-5.64-7.77 5.64 2.97-9.13-7.77-5.64h9.6l2.97-9.13" style="isolation:isolate"/><path fill="url(#e)" d="M40.86 247.73l-2.8 8.61H26.69l9.2 6.66-3.52 10.83 9.21-6.69 9.21 6.69L47.28 263l9.21-6.69H45.1l-3.52-10.83z" transform="translate(-1.73 -221.15)"/><path fill="url(#f)" stroke="#000" stroke-width=".77" d="M39.86 26.82l2.97 9.13h9.6l-7.77 5.64 2.97 9.13-7.77-5.64-7.77 5.64 2.97-9.13-7.77-5.64h9.6l2.97-9.13z"/></svg>