<svg xmlns="http://www.w3.org/2000/svg" xmlns:xlink="http://www.w3.org/1999/xlink" viewBox="0 0 59 59"><defs><linearGradient id="a" x1="746.22" x2="758.26" y1="483.05" y2="511.61" gradientTransform="rotate(135 816.6 -.1)" gradientUnits="userSpaceOnUse"><stop offset="0" stop-color="#dfe0d0"/><stop offset=".47" stop-color="#9fb0b3"/><stop offset="1" stop-color="#4a5050"/></linearGradient><linearGradient id="b" x1="743.62" x2="776.27" y1="502.76" y2="515.41" gradientTransform="matrix(-.7 .7 .7 .7 207.5 -859.5)" xlink:href="#a"/><linearGradient id="c" x1="753.65" x2="767.32" y1="480.54" y2="485.84" gradientTransform="matrix(-.7 .7 .7 .7 207.5 -859.5)" xlink:href="#a"/><linearGradient id="d" x1="756.34" x2="764.43" y1="520.42" y2="520.42" gradientTransform="matrix(-.7 .7 .7 .7 207.5 -859.5)" xlink:href="#a"/><linearGradient id="e" x1="711.89" x2="733.47" y1="514.19" y2="514.19" gradientTransform="matrix(-.7 .7 .7 .7 207.5 -859.5)" xlink:href="#a"/><linearGradient id="f" x1="754.51" x2="754.51" y1="491.48" y2="510.49" gradientTransform="matrix(-.7 .7 .7 .7 207.5 -859.5)" xlink:href="#a"/><linearGradient id="g" x1="754.51" x2="754.51" y1="530.45" y2="501.98" gradientTransform="matrix(-.7 .7 .7 .7 207.5 -859.5)" xlink:href="#a"/><linearGradient id="h" x1="745.46" x2="764.31" y1="471.81" y2="536.3" gradientTransform="matrix(-.7 .7 .7 .7 207.5 -859.5)" xlink:href="#a"/><linearGradient id="i" x1="790.15" x2="753.42" y1="475.03" y2="511.76" gradientTransform="matrix(-.7 .7 .7 .7 207.5 -859.5)" xlink:href="#a"/><linearGradient id="j" x1="1204.31" x2="1239.05" y1="309.23" y2="309.23" xlink:href="#a"/><linearGradient id="k" x1="1217.07" x2="1217.07" y1="292.4" y2="323.57" gradientTransform="translate(4.7 1.5)" gradientUnits="userSpaceOnUse"><stop offset="0" stop-color="#e07d7d"/><stop offset=".47" stop-color="#b22726"/><stop offset="1" stop-color="#4b1212"/></linearGradient><radialGradient id="l" cx="29.79" cy="11.6" r="13.7" gradientUnits="userSpaceOnUse"><stop offset="0" stop-color="#fff"/><stop offset="1" stop-color="#010101"/></radialGradient></defs><g style="isolation:isolate"><path fill="url(#a)" d="M1205 292.49a23.51 23.51 0 1 1 0 33.24 23.51 23.51 0 0 1 0-33.24z" transform="translate(-1192.2 -279.7)"/><path fill="#010101" d="M29.82 9.73c-5.41-.42-12.33 1.54-15.69 8.29a15.35 15.35 0 0 0-1.67 6.8 12.25 12.25 0 0 0 .17 2 11.48 11.48 0 0 0 1.75 4.42 6.66 6.66 0 0 0 1.21 1.24 3.32 3.32 0 0 1 1.15 1.33 2.67 2.67 0 0 0-.21.19 3.12 3.12 0 0 0-1 1.42 5.72 5.72 0 0 0 .56 3.9l.08.2c.8 2 1.48 2.86 2.41 3.16a2.43 2.43 0 0 0 2.11-.44 2 2 0 0 1 .42-.23c.9.41 1.69 2.07 1.86 3.81v.16c.19 1.92.4 4.09 3.1 4.62l.39.07a2.68 2.68 0 0 0 .74.88 2.29 2.29 0 0 0 2.13.26.57.57 0 0 1 1 0 2.28 2.28 0 0 0 2.13-.26 2.64 2.64 0 0 0 .72-.84l.41-.11c2.7-.53 2.91-2.71 3.1-4.62v-.16c.17-1.74 1-3.4 1.79-3.78a1 1 0 0 1 .49.2 2.44 2.44 0 0 0 2.11.44c.93-.3 1.6-1.19 2.41-3.16l.08-.2a5.72 5.72 0 0 0 .55-3.9 3.11 3.11 0 0 0-1-1.42l-.22-.22a3.43 3.43 0 0 1 1.16-1.32 6.6 6.6 0 0 0 1.2-1.24 11.45 11.45 0 0 0 1.75-4.42 14.68 14.68 0 0 0-1.51-8.85c-3.31-6.68-10.24-8.62-15.68-8.22z"/><path fill="url(#b)" d="M25.76 47.28l-3.09 4.51 1.62.51 2.79-4.82-1.32-.2"/><path fill="url(#c)" d="M6.98 22.52l-.46 1.57 4.96 3.04.26-1.37-4.76-3.24"/><path fill="url(#d)" d="M33.16 47.38l-1.12.21 2.69 4.71 1.72-.51-3.29-4.41"/><path fill="url(#e)" d="M47.39 25.96l4.5-3.29.51 1.83-4.91 2.68-.1-1.22"/><path fill="url(#f)" d="M23.69 23.46L0 40.39l11.09 7.7 7.52 10.92 16.81-23.59L59 18.62l-10.78-7.41L40.39 0l-16.7 23.46"/><path fill="url(#g)" d="M48.22 11.21L59 18.62l-23.58 16.8-16.81 23.59-7.47-10.84 37.03-37.03.05.07"/><path fill="url(#h)" d="M35.54 23.69L18.61 0l-7.7 11.09L0 18.62l23.58 16.8 16.81 23.59 7.4-10.79L59 40.39l-23.46-16.7"/><path fill="url(#i)" d="M47.79 48.22l-7.4 10.79-16.81-23.59L0 18.62l10.83-7.48 37.03 37.03-.07.05"/><path fill="#010101" d="M33.63 50.22s2.66-1.47 2.89-2.18.59-2.77 1-3.89.95-1.66 1.71-1.66 1.42-1.35 1.42-1.35 2.66-1.54 3.25-3.49a10.9 10.9 0 0 0 .29-4.07l2.42-1.83-2.77-1.89-2.66 1.48-7.68 12.52-1.12 4.55z" opacity=".13"/><path fill="url(#j)" d="M1221.68 288.1c-5.41-.41-12.33 1.54-15.69 8.29a15.4 15.4 0 0 0-1.68 6.8 12.23 12.23 0 0 0 .17 2 11.45 11.45 0 0 0 1.75 4.42 6.44 6.44 0 0 0 1.2 1.24 3.32 3.32 0 0 1 1.15 1.33 2.71 2.71 0 0 0-.21.19 3.12 3.12 0 0 0-1 1.42 5.72 5.72 0 0 0 .56 3.9l.07.31c.8 2 1.48 2.86 2.41 3.16a2.43 2.43 0 0 0 2.11-.44 2 2 0 0 1 .42-.22c.9.41 1.69 2.07 1.86 3.81v.16c.19 1.92.4 4.09 3.1 4.62l.39.08a2.65 2.65 0 0 0 .74.88 2.28 2.28 0 0 0 2.13.26 2.07 2.07 0 0 0 .49-.28 2 2 0 0 0 .49.28 2.28 2.28 0 0 0 2.13-.26 2.64 2.64 0 0 0 .72-.85l.41-.11c2.71-.53 2.92-2.7 3.1-4.62v-.16c.17-1.74 1-3.4 1.79-3.78a1 1 0 0 1 .49.2 2.43 2.43 0 0 0 2.12.44c.93-.3 1.6-1.19 2.41-3.16l.08-.2a5.71 5.71 0 0 0 .55-3.9 3.14 3.14 0 0 0-1-1.42l-.22-.22a3.42 3.42 0 0 1 1.16-1.32 6.42 6.42 0 0 0 1.21-1.24 11.4 11.4 0 0 0 1.75-4.42 14.68 14.68 0 0 0-1.51-8.85c-3.33-6.8-10.24-8.76-15.65-8.34z" transform="translate(-1192.2 -279.7)"/><path fill="url(#k)" d="M1236.34 297c-3-6-9.06-8-14.52-7.56-5.46-.45-11.55 1.59-14.52 7.56a13.4 13.4 0 0 0-1.39 8 10 10 0 0 0 1.55 3.91c.63.95 2.72 1.94 2.57 3.46-.09.92-1 1-1.26 1.86-.34 1.06.23 2.29.6 3.21 1.94 4.76 2.35.92 4.34 1.83 1.51.69 2.37 3 2.55 4.85s.27 3.27 2.06 3.62a17.49 17.49 0 0 1 0-2.88.82.82 0 0 1 .69.16c0 1.35.08 4.61 1.85 4 1.38-.48-.38-3.24.93-3.37 1.31.13-.46 2.89.93 3.37 1.77.62 1.86-2.64 1.85-4a.82.82 0 0 1 .69-.16 17.43 17.43 0 0 1 0 2.88c1.8-.35 1.87-1.66 2.06-3.62s1-4.16 2.55-4.85c2-.91 2.4 2.94 4.34-1.83.37-.92.94-2.15.6-3.21-.27-.84-1.16-.94-1.26-1.86-.16-1.52 1.93-2.51 2.57-3.46a10 10 0 0 0 1.55-3.91 13.43 13.43 0 0 0-1.33-8zm-20.59 17.52c-2.35-.45-4.09-.63-4.69-3h.17c-1.7-2.13 2.18-3.58 3.92-3 .93.33 1.59 1.55 2.32 2.19.53.46 2.47 1.3 2.75 1.81.93 1.7-3.22 2.21-4.47 1.98zm5.61 7.43a1.48 1.48 0 0 1-.38-.12h-.12.07c-1.47-.76-.44-3.88.06-4.89-.14.84 1.08 5.07-.06 4.89h.05zm1.59-.15h.05-.13a1.49 1.49 0 0 1-.38.12l.38-.12h.05c-1.14.18.08-4-.06-4.89.54.99 1.57 4.09.14 4.87zm9.7-10.33h.17c-.6 2.42-2.34 2.59-4.69 3-1.21.23-5.4-.28-4.47-2 .27-.51 2.22-1.35 2.75-1.81.73-.64 1.39-1.86 2.32-2.19 1.75-.6 5.62.85 3.93 2.98z" transform="translate(-1192.2 -279.7)"/><ellipse cx="29.79" cy="21.29" fill="url(#l)" rx="11.17" ry="9.68" opacity=".81" style="mix-blend-mode:screen"/></g></svg>