<svg xmlns="http://www.w3.org/2000/svg" xmlns:xlink="http://www.w3.org/1999/xlink" viewBox="0 0 59.21 59.21"><defs><linearGradient id="a" x1="29.3" x2="29.3" y1="3.36" y2="57.27" gradientUnits="userSpaceOnUse"><stop offset="0" stop-color="#fff"/><stop offset=".39" stop-color="#baced6"/><stop offset="1" stop-color="#749dc7"/></linearGradient><linearGradient id="c" x1="10.08" x2="29.03" y1="35.76" y2="35.76" xlink:href="#a"/><linearGradient id="b" x1="13.04" x2="16.64" y1="452.93" y2="452.93" gradientTransform="rotate(21.9 14.9 452.8)" gradientUnits="userSpaceOnUse"><stop offset="0" stop-color="#e3af24"/><stop offset="1" stop-color="#c67a29"/></linearGradient><linearGradient id="d" x1="17.43" x2="60.25" y1="464.64" y2="464.64" xlink:href="#a"/><linearGradient id="e" x1="21.2" x2="53.94" y1="455.18" y2="490.75" xlink:href="#a"/><linearGradient id="f" x1="22.92" x2="49.67" y1="437.93" y2="508.46" xlink:href="#b"/><linearGradient id="g" x1="22.31" x2="49.06" y1="437.33" y2="507.85" gradientUnits="userSpaceOnUse"><stop offset="0" stop-color="#fff"/><stop offset=".39" stop-color="#ffe300"/><stop offset="1" stop-color="#c67a29"/></linearGradient><linearGradient id="h" x1="29.61" x2="47.43" y1="463.3" y2="463.3" gradientUnits="userSpaceOnUse"><stop offset="0" stop-color="#fff"/><stop offset="1" stop-color="#bdbdbd"/></linearGradient><linearGradient id="i" x1="31.19" x2="37.6" y1="25.98" y2="25.98" gradientUnits="userSpaceOnUse"><stop offset="0" stop-color="#ee3d3c"/><stop offset="1" stop-color="#ba2f2d"/></linearGradient></defs><g style="isolation:isolate"><path fill="url(#a)" d="M17.67 57.39L1.22 40.94V17.67L17.67 1.22h23.27l16.45 16.45v23.27L40.94 57.39H17.67"/><path fill="url(#c)" d="M29.03 56.45l-5.6.03-13.36-40.99 1.19-.45 17.77 41.41" style="mix-blend-mode:multiply"/><circle cx="14.84" cy="452.93" r="1.8" fill="url(#b)" transform="rotate(-21.9 -1119.5 244.9)" style="mix-blend-mode:multiply"/><path fill="url(#d)" d="M27.14 478.4s1.82-17.13-9.69-24.2v.07s9.09-3.38 12.36-3.38c5.15 0 8.29 3.7 19 1.76l11.48 21.19C48.82 476.35 44.91 475 39.65 475c-4.12 0-12.51 3.4-12.51 3.4z" transform="translate(-4.1 -437.3)" style="mix-blend-mode:multiply"/><path fill="url(#e)" d="M16.51 452.25a1.8 1.8 0 1 1-2.35-1 1.8 1.8 0 0 1 2.35 1zm-.92-.93a1.8 1.8 0 1 0-1.69 2.47l12.46 39.36 5.87-.32-17-39.61a1.79 1.79 0 0 0 .36-1.89zm32 .11c-10.69 1.93-13.83-1.77-19-1.77-2.71 0-9.66 2.7-12 3.6l-.21.56c10.94 7.27 9.73 24.2 9.73 24.2s8.17-4.24 12.29-4.24c5.26 0 9.17 1.34 20.6-1.18z" transform="translate(-4.1 -437.3)"/><path fill="url(#f)" d="M45.66 437.93H21.89L4.73 455.1v24.27l17.16 17.17h24.28l17.16-17.17V455.1l-17.16-17.17h-.5zm-.5 2.43L60.9 456.1v22.26L45.16 494.1H22.9L7.16 478.36V456.1l15.74-15.74h22.26z" transform="translate(-4.1 -437.3)" style="mix-blend-mode:multiply"/><path fill="url(#g)" d="M45.06 437.32H21.29L4.12 454.49v24.27l17.16 17.17h24.28l17.17-17.17v-24.27l-17.17-17.17h-.5zm-.51 2.43l15.74 15.74v22.26l-15.74 15.74H22.29L6.55 477.75v-22.26l15.74-15.74h22.26z" transform="translate(-4.1 -437.3)"/><path fill="none" stroke="#fff" stroke-width=".77" d="M18.17 56.17h22.26l15.74-15.74V18.17" opacity=".43"/><path fill="#2b318b" stroke="#010101" stroke-width=".39" d="M28.42 55.84l-17-39.61a1.8 1.8 0 1 0-1.33.57l12.73 39.07z"/><path fill="#2b318b" stroke="#010101" stroke-width=".39" d="M22.41 40.47s1.82-17.13-9.69-24.2c0 0 9.06-3.32 12.33-3.32 5.15 0 8.29 3.7 19 1.77l11.48 21.19c-11.43 2.51-15.34 1.18-20.6 1.18-4.13 0-12.52 3.38-12.52 3.38z"/><path fill="url(#h)" d="M38.52 458a5.33 5.33 0 1 0 0 10.63 5.33 5.33 0 1 0 0-10.63zm0 13.51c-4.92 0-8.91-3.67-8.91-8.19s4-8.2 8.91-8.2 8.91 3.67 8.91 8.2-3.99 8.17-8.91 8.17z" transform="translate(-4.1 -437.3)"/><ellipse cx="34.4" cy="25.98" fill="url(#i)" rx="3.21" ry="2.95"/></g></svg>