<svg xmlns="http://www.w3.org/2000/svg" xmlns:xlink="http://www.w3.org/1999/xlink" viewBox="0 0 60.55 60.55"><defs><linearGradient id="a" x1="464.13" x2="490.62" y1="274.66" y2="331.29" gradientUnits="userSpaceOnUse"><stop offset="0" stop-color="#fff"/><stop offset=".48" stop-color="#dad8e5"/><stop offset="1" stop-color="#9599c6"/></linearGradient><linearGradient id="d" x1="457.71" x2="476.67" y1="297.06" y2="337.58" xlink:href="#a"/><linearGradient id="e" x1="467.71" x2="491.44" y1="278.52" y2="329.26" xlink:href="#a"/><linearGradient id="f" x1="456.46" x2="482.94" y1="278.27" y2="334.87" xlink:href="#a"/><linearGradient id="g" x1="441.65" x2="465.34" y1="315.11" y2="371.32" xlink:href="#a"/><linearGradient id="h" x1="455.95" x2="472.85" y1="309.83" y2="349.91" xlink:href="#a"/><linearGradient id="i" x1="450.58" x2="474.27" y1="311.35" y2="367.55" xlink:href="#a"/><linearGradient id="j" x1="441.81" x2="462.82" y1="317.11" y2="366.95" xlink:href="#a"/><linearGradient id="k" x1="441.7" x2="468.18" y1="285.16" y2="341.78" xlink:href="#a"/><linearGradient id="l" x1="470.74" x2="489.49" y1="309.44" y2="353.94" xlink:href="#a"/><linearGradient id="m" x1="430.74" x2="457.22" y1="290.3" y2="346.91" xlink:href="#a"/><linearGradient id="n" x1="427.76" x2="454.24" y1="291.69" y2="348.3" xlink:href="#a"/><linearGradient id="o" x1="464.44" x2="488.13" y1="305.51" y2="361.71" xlink:href="#a"/><linearGradient id="p" x1="441.97" x2="462.86" y1="293.09" y2="337.73" xlink:href="#a"/><linearGradient id="q" x1="479.58" x2="503.27" y1="299.13" y2="355.33" xlink:href="#a"/><linearGradient id="r" x1="476.04" x2="499.73" y1="300.61" y2="356.82" xlink:href="#a"/><linearGradient id="s" x1="21.13" x2="39.22" y1="15.62" y2="45.07" xlink:href="#a"/><linearGradient id="t" x1="-125.73" x2="-109.29" y1="607.41" y2="634.16" gradientTransform="rotate(-90 -338.9 251.7)" xlink:href="#a"/><linearGradient id="b" x1="454.91" x2="466.68" y1="328.23" y2="328.23" gradientUnits="userSpaceOnUse"><stop offset="0" stop-color="#fff"/><stop offset=".39" stop-color="#d6d1bb"/><stop offset="1" stop-color="#c7b674"/></linearGradient><linearGradient id="u" x1="457.41" x2="481.64" y1="323.17" y2="323.17" xlink:href="#b"/><linearGradient id="v" x1="449.3" x2="440.56" y1="320.07" y2="313.31" xlink:href="#a"/><linearGradient id="w" x1="454.82" x2="446.08" y1="312.93" y2="306.18" xlink:href="#a"/><radialGradient id="c" cx="466.44" cy="324.54" r="19.55" gradientUnits="userSpaceOnUse"><stop offset="0" stop-color="#e07d7d"/><stop offset=".47" stop-color="#b22726"/><stop offset="1" stop-color="#4b1212"/></radialGradient><radialGradient id="x" cx="466.44" cy="324.54" r="19.55" xlink:href="#c"/></defs><g style="isolation:isolate"><path fill="url(#a)" d="M481.45 332.11l15.43-7.87h-13.43a17.08 17.08 0 0 1-2 7.87z" transform="translate(-436.3 -294)"/><path fill="url(#d)" d="M471.82 340.3l13.49 2.64-6.81-6.81a16.9 16.9 0 0 1-6.68 4.17z" transform="translate(-436.3 -294)"/><path fill="url(#e)" d="M485.31 305.53l-6.76 6.77a15 15 0 0 1 4.06 6.92z" transform="translate(-436.3 -294)"/><path fill="url(#f)" d="M466.6 294v13.33a16.93 16.93 0 0 1 7.84 2.07z" transform="translate(-436.3 -294)"/><path fill="url(#g)" d="M436.32 324.24h13.33a16.81 16.81 0 0 1 1.79-7.69z" transform="translate(-436.3 -294)"/><path fill="url(#h)" d="M447.89 305.53l6.71 6.71a15.36 15.36 0 0 1 6.88-4.13z" transform="translate(-436.3 -294)"/><path fill="url(#i)" d="M458.92 339.39l7.68 15.13v-13.43a17.25 17.25 0 0 1-7.68-1.7z" transform="translate(-436.3 -294)"/><path fill="url(#j)" d="M450.45 329.64l-2.56 13.3 6.77-6.76a14.82 14.82 0 0 1-4.21-6.54z" transform="translate(-436.3 -294)"/><path fill="url(#k)" d="M466.59 341.09v13.43l7.87-15.43a17.07 17.07 0 0 1-7.87 2z" transform="translate(-436.3 -294)"/><path fill="url(#l)" d="M478.5 336.14l6.81 6.81-2.64-13.49a16.93 16.93 0 0 1-4.17 6.68z" transform="translate(-436.3 -294)"/><path fill="url(#m)" d="M461.58 340.25a15.07 15.07 0 0 1-6.91-4.06l-6.77 6.76z" transform="translate(-436.3 -294)"/><path fill="url(#n)" d="M451.73 332.09a16.93 16.93 0 0 1-2.07-7.84h-13.34z" transform="translate(-436.3 -294)"/><path fill="url(#o)" d="M458.92 309.08a16.79 16.79 0 0 1 7.69-1.78V294z" transform="translate(-436.3 -294)"/><path fill="url(#p)" d="M450.48 319.13a15.37 15.37 0 0 1 4.13-6.88l-6.71-6.71z" transform="translate(-436.3 -294)"/><path fill="url(#q)" d="M483.45 324.22h13.43l-15.13-7.68a17.23 17.23 0 0 1 1.7 7.68z" transform="translate(-436.3 -294)"/><path fill="url(#r)" d="M478.54 312.3l6.76-6.77-13.3 2.56a14.84 14.84 0 0 1 6.54 4.21z" transform="translate(-436.3 -294)"/><circle cx="30.15" cy="30.31" r="17.9" fill="url(#s)"/><circle cx="30.15" cy="30.31" r="16.26" fill="url(#t)"/><g style="mix-blend-mode:multiply"><path fill="url(#b)" d="M464.89 340.8l1.79.16-10-23.72a1 1 0 1 0-.75.32l7.49 22.9z" transform="translate(-436.3 -294)"/><path fill="url(#u)" d="M462.89 331s1-9.7-5.48-13.7c0 0 5.13-1.88 7-1.88 2.92 0 4.69 2.09 10.75 1l6.5 12c-6.49 1.38-8.66.58-11.66.58-2.36 0-7.11 2-7.11 2z" transform="translate(-436.3 -294)"/></g><path fill="url(#v)" d="M463.31 339.81l1.79.16-10-23.72a1 1 0 1 0-.76.32l7.49 22.9z" transform="translate(-436.3 -294)"/><path fill="url(#w)" d="M461.31 330s1-9.7-5.48-13.7c0 0 5.13-1.88 7-1.88 2.92 0 4.69 2.1 10.75 1l6.5 12c-6.47 1.42-8.68.67-11.66.67-2.36-.03-7.11 1.91-7.11 1.91z" transform="translate(-436.3 -294)"/><path fill="url(#c)" stroke="#010101" stroke-width=".39" d="M463.85 340.35l1.79.16-10-23.72a1 1 0 1 0-.75.32l7.49 22.9z" transform="translate(-436.3 -294)"/><path fill="url(#x)" stroke="#010101" stroke-width=".39" d="M461.85 330.51s1-9.7-5.48-13.7c0 0 5.13-1.88 7-1.88 2.92 0 4.69 2.09 10.75 1l6.5 12c-6.47 1.42-8.69.67-11.66.67-2.36 0-7.11 1.91-7.11 1.91z" transform="translate(-436.3 -294)"/></g></svg>