<svg xmlns="http://www.w3.org/2000/svg" xmlns:xlink="http://www.w3.org/1999/xlink" viewBox="0 0 58.08 44.17"><defs><linearGradient id="b" x1="79.88" x2="135.28" y1="439.04" y2="479.63" gradientUnits="userSpaceOnUse"><stop offset="0" stop-color="#fff"/><stop offset=".39" stop-color="#baced6"/><stop offset="1" stop-color="#749dc7"/></linearGradient><linearGradient id="c" x1="83.66" x2="129.62" y1="443.44" y2="474.84" gradientUnits="userSpaceOnUse"><stop offset="0" stop-color="#fff"/><stop offset=".39" stop-color="#f26857"/><stop offset="1" stop-color="#b13148"/></linearGradient><linearGradient id="a" x1="120.3" x2="98.32" y1="472.51" y2="451.26" gradientUnits="userSpaceOnUse"><stop offset="0" stop-color="#f8a692"/><stop offset=".51" stop-color="#f26857"/><stop offset="1" stop-color="#b13148"/></linearGradient><linearGradient id="d" x1="99.7" x2="98" y1="466.34" y2="466.74" xlink:href="#a"/><linearGradient id="e" x1="92.55" x2="106.15" y1="466.14" y2="466.14" xlink:href="#b"/><linearGradient id="f" x1="95.34" x2="122.29" y1="460" y2="460" xlink:href="#b"/><linearGradient id="g" x1="97.82" x2="107.46" y1="466.2" y2="481.59" xlink:href="#b"/><linearGradient id="h" x1="101.85" x2="114.59" y1="455.61" y2="464.99" xlink:href="#b"/></defs><path fill="url(#b)" d="M78.91 452.26l.09.18c1.6 3 25.33 36.49 25.39 36.55a4.07 4.07 0 0 0 6.46 0c.05-.07 22.46-32.52 24.92-36a4.08 4.08 0 0 0-3.29-6.49H82.59a4.08 4.08 0 0 0-3.68 5.76z" transform="translate(-78.5 -446.4)"/><path fill="url(#c)" d="M110.29 486.09c.05-.06 21.16-30.33 22.46-32.23s2.06-2.64 1.52-4-1.42-1.42-3.4-1.42H84.45c-2 0-2.87.06-3.4 1.42s.22 2.09 1.52 4S105 486 105 486.09c.66.86 1.29 1.95 2.63 1.95s1.78-.77 2.43-1.64z" transform="translate(-78.5 -446.4)"/><path fill="none" stroke="#707688" stroke-width=".55" d="M55.77 3.47c-.53-1.35-1.42-1.42-3.4-1.42H5.95c-2 0-2.87.06-3.4 1.42s.22 2.09 1.52 4S26.5 39.61 26.5 39.7s1.14 2 2.5 2" opacity=".43"/><path fill="none" stroke="#fff" stroke-width=".55" d="M29.16 41.61c1.38 0 1.78-.77 2.43-1.64l.2-.31c.05-.06 21.16-30.33 22.46-32.23s2.06-2.64 1.52-4" opacity=".43"/><path fill="#fff" d="M27.94 35.08L16.02 7a1.13 1.13 0 1 0-.84.36l8.93 27.55z" style="isolation:isolate"/><path fill="url(#a)" d="M103.11 450.76c-2.14 0-7.73 2-8 2.13l-1.11.41 1 .62c6.85 4.21 5.84 14.59 5.83 14.69l-.1 1 .88-.36c.05 0 5.21-2.09 7.66-2.09.8 0 1.55 0 2.34.11a33 33 0 0 0 10.75-.86l.73-.14-.33-.67-7.44-13.73-.41.07a15.94 15.94 0 0 1-8.46-.48 11.66 11.66 0 0 0-3.34-.7z" transform="translate(-78.5 -446.4)"/><path fill="url(#d)" d="M93.05 451a1.7 1.7 0 0 0-.93.91 1.72 1.72 0 0 0-.14.67 1.7 1.7 0 0 0 1.26 1.64l8.75 27 5 .28-11.83-28.07a1.7 1.7 0 0 0 .24-.82 1.65 1.65 0 0 0-.12-.63 1.71 1.71 0 0 0-2.23-.98z" transform="translate(-78.5 -446.4)"/><path fill="#fff" d="M22.94 22.28s1.15-10.79-6.1-15.24c0 0 5.71-2.09 7.77-2.09 3.24 0 5.22 2.33 12 1.11l7.23 13.34c-7.2 1.58-9.66.74-13 .74-2.62 0-7.9 2.14-7.9 2.14z" style="isolation:isolate"/><path fill="url(#e)" d="M106.15 480.79l-11.64-27.4a1.13 1.13 0 1 0-.84.36l8.87 26.87z" transform="translate(-78.5 -446.4)"/><path fill="url(#f)" d="M101.44 468.67s1.15-10.79-6.1-15.24c0 0 5.71-2.09 7.77-2.09 3.24 0 5.22 2.33 12 1.11l7.23 13.34c-7.2 1.58-9.66.74-13 .74-2.62 0-7.9 2.14-7.9 2.14z" transform="translate(-78.5 -446.4)"/><path fill="url(#g)" d="M95.07 456.17c1.68 4 9.54 22.71 10.18 24.23-.89-.11-1.73-.06-2.14-.11-.19-.6-6.71-20.04-8.04-24.12z" transform="translate(-78.5 -446.4)"/><path fill="url(#h)" d="M103.11 451.91a10.53 10.53 0 0 1 3.07.59 17.15 17.15 0 0 0 8.57.57l6.67 12.32a31.35 31.35 0 0 1-9.68.68c-.81-.05-1.58-.11-2.42-.11-2.07 0-5.63 1.24-7.25 1.85v-.86c0-3.14-.64-9.66-5.5-13.36a30.56 30.56 0 0 1 6.54-1.68z" transform="translate(-78.5 -446.4)"/></svg>