<svg xmlns="http://www.w3.org/2000/svg" viewBox="0 0 61.82 61.82"><defs><radialGradient id="a" cx="-129.09" cy="391.18" r="37.5" gradientTransform="matrix(.8 0 0 .8 212.2 72.7)" gradientUnits="userSpaceOnUse"><stop offset=".53" stop-color="#fff"/><stop offset=".6" stop-color="#f8f8f9"/><stop offset=".69" stop-color="#e4e4ea"/><stop offset=".8" stop-color="#c3c3d0"/><stop offset=".92" stop-color="#9696ac"/><stop offset="1" stop-color="#757592"/></radialGradient><linearGradient id="b" x1="-126.51" x2="-101.15" y1="355.06" y2="396.47" gradientTransform="translate(145.1 -344.3)" gradientUnits="userSpaceOnUse"><stop offset="0" stop-color="#c1c1c3"/><stop offset=".39" stop-color="#9898aa"/><stop offset="1" stop-color="#757699"/></linearGradient><linearGradient id="c" x1="85.6" x2="128.3" y1="383.19" y2="408.29" gradientUnits="userSpaceOnUse"><stop offset="0" stop-color="#f4f4f5"/><stop offset=".39" stop-color="#d2d1de"/><stop offset="1" stop-color="#9092bb"/></linearGradient></defs><path fill="url(#a)" d="M136.72 395.18l-13.88-7.05 4.82-14.8-14.8 4.82-7.06-13.88-7.05 13.88L84 373.32l4.82 14.8-13.92 7.06 13.88 7.06L84 417l14.8-4.82 7.05 13.88 7.06-13.88 14.8 4.82-4.82-14.8zM124.59 414l-12.72-4.15-6.06 11.93-6.06-11.93L87 414l4.15-12.72-11.93-6.06 11.93-6.06L87 376.39l12.72 4.14 6.06-11.93 6.06 11.93 12.72-4.14-4.14 12.72 11.93 6.06-11.93 6.06z" transform="translate(-74.9 -364.3)"/><path fill="url(#b)" d="M59.91 30.91l-13.02-6.62 4.52-13.89-13.88 4.53-6.62-13.02-6.62 13.02-13.88-4.53 4.52 13.89-13.02 6.62 13.02 6.62-4.52 13.88 13.88-4.52 6.62 13.02 6.62-13.02 13.88 4.52-4.52-13.88 13.02-6.62"/><path fill="url(#c)" d="M107.31 395.7l14.46 6.07 13.08-6.5s-24.23-.16-27.42-.17a1.5 1.5 0 0 0-.12-.56l14.49-6 4.59-13.87S109.21 391.76 107 394a1.51 1.51 0 0 0-.48-.31l5.95-14.51-6.62-13s0 24.23.07 27.42a1.49 1.49 0 0 0-.56.12l-6-14.47-13.96-4.55s17.15 17.12 19.42 19.37a1.5 1.5 0 0 0-.31.47l-14.49-6-13 6.57s24.23.05 27.42 0a1.49 1.49 0 0 0 .12.56l-14.47 6.05-4.53 13.88s17.11-17.16 19.35-19.43a1.51 1.51 0 0 0 .47.31l-6 14.48 6.56 13.05s.07-24.23.06-27.42a1.54 1.54 0 0 0 .55-.11l5.87 14.54 13.83 4.71s-17.01-17.29-19.25-19.55a1.51 1.51 0 0 0 .31-.48z" transform="translate(-74.9 -364.3)"/><path fill="#010101" d="M18.93 24.23l11.17 5.5s-12 7-11.17-5.5zm12.96 5.5s12 7 11.17-5.5l-11.17 5.5m-1.46 3l-.5 5.33s-3.33-2.5.5-5.33zm2.03 5.33s3.33-2.5-.5-5.33l.5 5.33"/></svg>