<svg xmlns="http://www.w3.org/2000/svg" xmlns:xlink="http://www.w3.org/1999/xlink" viewBox="0 0 60.61 60.56"><defs><linearGradient id="a" x1="30.78" x2="30.03" y1="7.57" y2="45.72" gradientUnits="userSpaceOnUse"><stop offset="0" stop-color="#e0c77c"/><stop offset=".47" stop-color="#b2732a"/><stop offset="1" stop-color="#4d1a0d"/></linearGradient><linearGradient id="d" x1="234.76" x2="262.09" y1="302.56" y2="342.45" xlink:href="#a"/><radialGradient id="c" cx="30.53" cy="30.51" r="9.64" gradientUnits="userSpaceOnUse"><stop offset="0" stop-color="#fafdff"/><stop offset=".21" stop-color="#f7fcff"/><stop offset=".36" stop-color="#eef7fd"/><stop offset=".49" stop-color="#def0fa"/><stop offset=".61" stop-color="#c8e6f6"/><stop offset=".73" stop-color="#abd9f2"/><stop offset=".84" stop-color="#87c9ec"/><stop offset=".94" stop-color="#5eb7e5"/><stop offset="1" stop-color="#42aae0"/></radialGradient><linearGradient id="e" x1="247.45" x2="246.98" y1="235.74" y2="259.67" gradientTransform="rotate(-11 -996.2 1260.4)" xlink:href="#a"/><linearGradient id="b" x1="246.63" x2="246.16" y1="234.67" y2="258.59" gradientTransform="rotate(-11 -996.2 1260.4)" gradientUnits="userSpaceOnUse"><stop offset="0" stop-color="#c5dcf2"/><stop offset=".32" stop-color="#82afdd"/><stop offset="1" stop-color="#3156a6"/></linearGradient><linearGradient id="f" x1="236.91" x2="254.05" y1="235.17" y2="260.19" gradientTransform="rotate(-11 639.7 268.8)" xlink:href="#b"/><linearGradient id="g" x1="21.78" x2="40.16" y1="31.09" y2="31.09" xlink:href="#b"/><radialGradient id="h" cx="29.34" cy="27.32" r="9.91" xlink:href="#c"/></defs><g style="isolation:isolate"><path fill="url(#a)" d="M30.33 0l3.81 11.11 7.78-8.8-.73 11.71 10.55-5.15-5.15 10.55 11.71-.73-8.8 7.77 11.11 3.82-11.11 3.81 8.8 7.78-11.71-.73 5.15 10.55-10.55-5.16.73 11.72-7.78-8.8-3.81 11.11-3.81-11.11-7.78 8.8.73-11.72-10.55 5.16 5.16-10.55-11.72.73 8.8-7.78L.05 30.28l11.11-3.82-8.8-7.77 11.72.73L8.92 8.87l10.55 5.15-.73-11.71 7.78 8.8L30.33 0"/><path fill="url(#d)" d="M266 335.33l11.72.7L252 325.39a2.5 2.5 0 0 0 .14-.47L269 328.2l11-3.89-27.82.13a2.32 2.32 0 0 0 0-.46l16.82-3.25 8.81-7.76L252 323.53a2.64 2.64 0 0 0-.23-.44l14.23-9.55 5.08-10.54-19.59 19.75a2.54 2.54 0 0 0-.37-.3l9.5-14.22.69-11.72-10.61 25.68a2.2 2.2 0 0 0-.45-.14l3.38-16.76-3.81-11.1-.05 27.81a2.54 2.54 0 0 0-.47 0l-3.3-16.73-7.79-8.79 10.65 25.7a2.32 2.32 0 0 0-.41.22L239 308.15 228.44 303 248 322.71a2.55 2.55 0 0 0-.31.37l-14.19-9.54-11.72-.73 25.68 10.69a2.36 2.36 0 0 0-.14.46l-16.77-3.32-11.09 3.85h27.82a2.27 2.27 0 0 0 0 .48l-16.77 3.35-8.78 7.8 25.77-10.72a2.87 2.87 0 0 0 .23.43l-14.19 9.53-5.1 10.58L248 326.2a2.43 2.43 0 0 0 .37.3l-9.46 14.24-.66 11.72 10.55-25.74a2.4 2.4 0 0 0 .46.14L246 343.64l3.86 11.09-.06-27.82a2.32 2.32 0 0 0 .47 0l3.31 16.78 7.78 8.79-10.66-25.76a2.34 2.34 0 0 0 .43-.23l9.49 14.23 10.56 5.13-19.68-19.66a2.3 2.3 0 0 0 .3-.37z" transform="translate(-219.5 -294.2)"/><circle cx="30.53" cy="30.51" r="9.64" fill="url(#c)"/><path fill="url(#e)" d="M27.67 12.49l3.67 6.38 3.74-6.35.95 7.3 5.88-4.43L40 22.5l7.13-1.85-4.49 5.84 7.3 1.02-6.39 3.67 6.35 3.74-7.3.95 4.44 5.88-7.12-1.91 1.86 7.13-5.84-4.49-1.02 7.29-3.68-6.38-3.73 6.35-.96-7.3-5.88 4.44 1.92-7.11-7.13 1.85 4.49-5.85-7.3-1.01 6.38-3.68-6.35-3.73 7.3-.96-4.43-5.88 7.11 1.92-1.85-7.14 5.84 4.49 1.02-7.29" style="mix-blend-mode:multiply"/><path fill="url(#b)" d="M26.66 11.59l3.68 6.38 3.73-6.35.95 7.31 5.88-4.44-1.91 7.11 7.13-1.85-4.49 5.84 7.29 1.02-6.37 3.68 6.35 3.73-7.31.95 4.44 5.88-7.11-1.91 1.85 7.13-5.84-4.49-1.02 7.3-3.68-6.39-3.73 6.35-.96-7.3-5.88 4.44 1.92-7.11-7.13 1.85 4.48-5.84-7.29-1.02 6.38-3.68-6.35-3.73 7.31-.95-4.44-5.88 7.11 1.91-1.85-7.13 5.84 4.49 1.02-7.3"/><path fill="url(#f)" d="M261 329.17l7.3-1-17.1-3.47a1.46 1.46 0 0 0 0-.31H262l6.36-3.72-17.11 3.41a1.68 1.68 0 0 0-.08-.28l9.95-4 4.5-5.83-14.62 9.61a1.3 1.3 0 0 0-.2-.24l7.6-7.58 1.87-7.12-9.7 14.51a1.39 1.39 0 0 0-.26-.14l4.15-9.89-1-7.3-3.46 17.09a1.6 1.6 0 0 0-.29 0l.08-10.72-3.68-6.38 3.3 17.14a1.45 1.45 0 0 0-.29.09l-4.05-9.93-5.85-4.48 9.63 14.55-.23.19-7.52-7.65-7.1-1.98 14.43 9.81a1.45 1.45 0 0 0-.14.27l-9.88-4.18-7.3 1 17.09 3.51a1.6 1.6 0 0 0 0 .31h-10.73l-6.37 3.7 17.12-3.36a1.37 1.37 0 0 0 .08.29l-9.92 4.07-4.47 5.86 14.54-9.65a1.84 1.84 0 0 0 .19.24l-7.6 7.57-1.87 7.12 9.71-14.5a1.58 1.58 0 0 0 .27.14l-4.12 9.9 1 7.3 3.41-17.11a1.66 1.66 0 0 0 .3 0v10.72l3.7 6.37-3.44-17.19.28-.09 4 9.93 5.85 4.48-9.62-14.56a1.38 1.38 0 0 0 .23-.19l7.55 7.62 7.12 1.89-14.41-9.73a1.51 1.51 0 0 0 .14-.27z" transform="translate(-219.5 -294.2)"/><circle cx="30.97" cy="31.09" r="9.19" fill="url(#g)" opacity=".48" style="mix-blend-mode:multiply"/><circle cx="30.43" cy="30.41" r="9.19" fill="url(#h)"/></g></svg>