<svg xmlns="http://www.w3.org/2000/svg" xmlns:xlink="http://www.w3.org/1999/xlink" viewBox="0 0 54.32 54.27"><defs><linearGradient id="a" x1="355.18" x2="378.91" y1="467.46" y2="506.21" gradientTransform="translate(111.68 -576.02) rotate(45)" gradientUnits="userSpaceOnUse"><stop offset="0" stop-color="#dce0df"/><stop offset=".47" stop-color="#9facb3"/><stop offset="1" stop-color="#51595d"/></linearGradient><linearGradient id="b" x1="78.56" x2="131.79" y1="521.88" y2="551.54" gradientTransform="matrix(1, 0, 0, 1, 0, 0)" xlink:href="#a"/><linearGradient id="c" x1="21.54" x2="37.08" y1="11.36" y2="54.59" gradientTransform="matrix(1, 0, 0, 1, 0, 0)" xlink:href="#a"/><linearGradient id="d" x1="97.3" x2="131.65" y1="524.77" y2="574.8" gradientTransform="matrix(1, 0, 0, 1, 0, 0)" xlink:href="#a"/><linearGradient id="e" x1="98.08" x2="113.91" y1="531.21" y2="545.39" gradientUnits="userSpaceOnUse"><stop offset="0" stop-color="#fff"/><stop offset=".39" stop-color="#48a3da"/><stop offset="1" stop-color="#404ca0"/></linearGradient><linearGradient id="f" x1="94.14" x2="116.7" y1="535.42" y2="535.42" gradientUnits="userSpaceOnUse"><stop offset="0" stop-color="#077e74"/><stop offset=".32" stop-color="#84d1e1"/><stop offset=".67" stop-color="#39a1a3"/><stop offset=".99" stop-color="#077e74"/></linearGradient></defs><path fill="url(#a)" d="M42.09 20.94l-5.53-3.3-3.23-5.46L27.13 0l-6.19 12.18-3.28 5.76-5.48 3L0 27.13l12.18 6.2 5.59 3.4 3.17 5.35 6.19 12.19 6.2-12.19 3.3-5.09 5.46-3.66 12.18-6.2-12.18-6.19"/><path fill="url(#b)" d="M106.93 540.07c1.8 4.38 6.32 4.38 1.16-.79a3.48 3.48 0 0 0 .73-1.1c4.37 1.81 9.09 6.34 9.09 6.34l14.77-7.64s-16.3-.11-23.61-.08a3.49 3.49 0 0 0-.27-1.29c4.37-1.83 4.33-6.36-.8-1.15a3.47 3.47 0 0 0-1.09-.71c1.8-4.38 6.37-8.92 6.37-8.92l-7.74-14.93s-.06 16.3 0 23.61a3.46 3.46 0 0 0-1.27.27c-1.82-4.37-6.34-4.35-1.16.79a3.48 3.48 0 0 0-.72 1.1c-4.38-1.79-9.13-6.28-9.13-6.28l-14.72 7.67h23.61a3.46 3.46 0 0 0 .27 1.26c-4.38 1.81-4.36 6.34.79 1.16a3.42 3.42 0 0 0 1.07.7c-1.85 4.36-6.23 9.32-6.23 9.32l7.32 14.56s.25-16.3.29-23.6a3.46 3.46 0 0 0 1.27-.29z" transform="translate(-78.36 -509.7)"/><circle cx="27.19" cy="27.09" r="14.08" fill="url(#c)"/><path fill="url(#d)" d="M120.39 536.79A14.83 14.83 0 1 1 105.55 522a14.83 14.83 0 0 1 14.84 14.79zm-14.84-13.5a13.5 13.5 0 1 0 13.5 13.5 13.5 13.5 0 0 0-13.5-13.5z" transform="translate(-78.36 -509.7)"/><path fill="#fff" fill-rule="evenodd" d="M36.45 25.4a.9.9 0 0 0-.8.33 3.86 3.86 0 0 0-.51 1.66 4.21 4.21 0 0 1-.72 2 1.79 1.79 0 0 1-1.37.53c-.71-.17-.68-1.13-.68-2s0-1.88.08-2.82a3.84 3.84 0 0 1 .16-1.29c.13-.13.46-.07.61-.21a1.06 1.06 0 0 0 .14-1 1.21 1.21 0 0 0-1.62-.49 1.52 1.52 0 0 0-.43 1.37 11.3 11.3 0 0 1-.25 3.19 4.41 4.41 0 0 1-.55 1 2.15 2.15 0 0 1-.84.72 1.27 1.27 0 0 1-1.7-1 19.29 19.29 0 0 1-.51-2.88c-.09-.69-.21-1.5-.25-2.29a2.47 2.47 0 0 1 0-.8 1.21 1.21 0 0 1 .39-.31.63.63 0 0 0 .27-.45 1 1 0 0 0-.66-.92 2 2 0 0 0-1-.2 1.43 1.43 0 0 0-1.47 1c-.05.63.53.56.65.9a2.55 2.55 0 0 1 0 .82 36.77 36.77 0 0 1-.49 3.81 9.12 9.12 0 0 1-.29 1.45 1.27 1.27 0 0 1-1.66.92 2.17 2.17 0 0 1-.88-.74 4.63 4.63 0 0 1-.57-1.06 8.51 8.51 0 0 1-.21-2.11 5.77 5.77 0 0 0-.16-2.07 1.17 1.17 0 0 0-1.78 0 1 1 0 0 0 0 1.13 4.55 4.55 0 0 1 .63.25 3.53 3.53 0 0 1 .14 1.29c.06 1 .1 1.81.1 2.76s0 1.9-.68 2.07a1.69 1.69 0 0 1-1.23-.39 3.26 3.26 0 0 1-.86-2c-.16-.82-.32-2.15-1.29-2.07a1 1 0 0 0-.49 1.6c.18.17.54.21.7.37a2.08 2.08 0 0 1 .33 1 39.36 39.36 0 0 0 1.13 5 1.07 1.07 0 0 0 .39.63 1.09 1.09 0 0 0 .41-.47 4.16 4.16 0 0 1 1.27-1.37 7.2 7.2 0 0 1 2.5-1 20.31 20.31 0 0 1 3.58-.22 32.52 32.52 0 0 1 3.64.16 7.08 7.08 0 0 1 2.82 1 4.51 4.51 0 0 1 1.41 1.45.91.91 0 0 0 .45.51 1.2 1.2 0 0 0 .37-.67 33.86 33.86 0 0 0 1-4.32 4.27 4.27 0 0 1 .47-1.66 2.24 2.24 0 0 0 .84-.55 1 1 0 0 0-.53-1.56zm-3.28-4.1a.93.93 0 0 0 .57-1.21.9.9 0 0 0-1-.59.82.82 0 0 0-.74.59 1 1 0 0 0 1.17 1.21zm4.46 2.6a.73.73 0 0 0-.88-.57.74.74 0 0 0 0 1.45.76.76 0 0 0 .89-.84zm-11.07-5.26a1.32 1.32 0 0 0 1.17-1.49 1.29 1.29 0 0 0-1.43-1.13 1.27 1.27 0 0 0-1.21 1.31 1.33 1.33 0 0 0 1.47 1.35zm-10 5.34a.72.72 0 0 0-.82-.72.68.68 0 0 0-.65.74.74.74 0 0 0 1.46.03zm4.08-3.68a.87.87 0 0 0-1-.9.86.86 0 0 0-.84.92.92005435.92005435 0 0 0 1.84-.02z" opacity=".49"/><path fill="url(#e)" fill-rule="evenodd" d="M116.21 536.5a.9.9 0 0 0-.8.33 3.83 3.83 0 0 0-.51 1.66 4.21 4.21 0 0 1-.72 2 1.79 1.79 0 0 1-1.37.53c-.71-.17-.67-1.13-.67-2s0-1.88.08-2.82a3.86 3.86 0 0 1 .16-1.29c.13-.13.46-.07.61-.21a1.05 1.05 0 0 0 .14-1 1.22 1.22 0 0 0-1.62-.49 1.53 1.53 0 0 0-.43 1.37 11.26 11.26 0 0 1-.25 3.19 4.42 4.42 0 0 1-.55 1 2.17 2.17 0 0 1-.84.72 1.27 1.27 0 0 1-1.7-1 19.31 19.31 0 0 1-.51-2.89c-.09-.69-.21-1.5-.25-2.29a2.46 2.46 0 0 1 0-.8 1.21 1.21 0 0 1 .39-.31.62.62 0 0 0 .27-.45 1 1 0 0 0-.65-.92 2 2 0 0 0-1-.2 1.44 1.44 0 0 0-1.47 1c-.05.63.53.56.65.9a2.56 2.56 0 0 1 0 .82 36.91 36.91 0 0 1-.49 3.81 8.83 8.83 0 0 1-.29 1.45 1.27 1.27 0 0 1-1.66.92 2.18 2.18 0 0 1-.88-.74 4.64 4.64 0 0 1-.57-1.06 8.55 8.55 0 0 1-.21-2.11 5.75 5.75 0 0 0-.16-2.07 1.17 1.17 0 0 0-1.78 0 1 1 0 0 0 0 1.13 4.55 4.55 0 0 1 .63.25 3.55 3.55 0 0 1 .14 1.29c.06 1 .1 1.81.1 2.76s0 1.89-.68 2.07a1.69 1.69 0 0 1-1.23-.39 3.26 3.26 0 0 1-.86-2c-.16-.82-.32-2.15-1.29-2.07a1 1 0 0 0-.49 1.6c.18.17.54.21.7.37a2.07 2.07 0 0 1 .33 1 39.12 39.12 0 0 0 1.13 5 1.06 1.06 0 0 0 .39.63 1.09 1.09 0 0 0 .41-.47 4.15 4.15 0 0 1 1.27-1.37 7.21 7.21 0 0 1 2.5-1 20.4 20.4 0 0 1 3.58-.22 32.75 32.75 0 0 1 3.64.16 7.07 7.07 0 0 1 2.83 1 4.48 4.48 0 0 1 1.41 1.45.92.92 0 0 0 .45.51 1.19 1.19 0 0 0 .37-.67 33.88 33.88 0 0 0 1-4.32 4.25 4.25 0 0 1 .47-1.66 2.23 2.23 0 0 0 .84-.55 1 1 0 0 0-.56-1.55zm-3.28-4.05a.93.93 0 0 0 .57-1.21.91.91 0 0 0-1-.59.81.81 0 0 0-.74.59 1 1 0 0 0 1.17 1.2zm4.46 2.6a.73.73 0 0 0-.88-.57.74.74 0 0 0 0 1.45.77.77 0 0 0 .88-.93zm-11.07-5.26a1.32 1.32 0 0 0 1.17-1.49 1.29 1.29 0 0 0-1.43-1.12 1.27 1.27 0 0 0-1.21 1.31 1.33 1.33 0 0 0 1.47 1.29zm-10 5.34a.72.72 0 0 0-.82-.72.68.68 0 0 0-.66.74.74.74 0 0 0 1.47-.02zm4.13-3.68a.87.87 0 0 0-1-.9.86.86 0 0 0-.84.92.92.92 0 0 0 1.84-.03z" transform="translate(-78.36 -509.7)" opacity=".58"/><path fill="url(#f)" fill-rule="evenodd" stroke="#000" stroke-width=".5" d="M115.51 535.8a.9.9 0 0 0-.8.33 3.85 3.85 0 0 0-.51 1.66 4.22 4.22 0 0 1-.72 2 1.79 1.79 0 0 1-1.37.53c-.71-.17-.67-1.13-.67-2s0-1.88.08-2.82a3.85 3.85 0 0 1 .16-1.29c.13-.13.46-.07.61-.2a1.06 1.06 0 0 0 .14-1 1.21 1.21 0 0 0-1.62-.49 1.53 1.53 0 0 0-.43 1.37 11.26 11.26 0 0 1-.25 3.19 4.36 4.36 0 0 1-.55 1 2.14 2.14 0 0 1-.84.72 1.27 1.27 0 0 1-1.7-1 19.32 19.32 0 0 1-.51-2.89c-.09-.69-.21-1.5-.25-2.29a2.52 2.52 0 0 1 0-.8 1.21 1.21 0 0 1 .39-.31.63.63 0 0 0 .33-.51 1 1 0 0 0-.66-.92 2.05 2.05 0 0 0-1-.21 1.44 1.44 0 0 0-1.47 1c-.05.63.53.56.66.9a2.57 2.57 0 0 1 0 .82 36.94 36.94 0 0 1-.49 3.81 9 9 0 0 1-.29 1.45 1.27 1.27 0 0 1-1.66.92 2.18 2.18 0 0 1-.88-.74 4.58 4.58 0 0 1-.57-1.06 8.57 8.57 0 0 1-.21-2.11 5.75 5.75 0 0 0-.16-2.07 1.17 1.17 0 0 0-1.78 0 1 1 0 0 0 0 1.12 4.68 4.68 0 0 1 .63.25 3.51 3.51 0 0 1 .14 1.29c.06 1 .1 1.81.1 2.76s0 1.89-.68 2.07a1.69 1.69 0 0 1-1.23-.39 3.26 3.26 0 0 1-.86-2c-.16-.82-.32-2.15-1.29-2.07a1 1 0 0 0-.49 1.6c.18.17.54.21.7.37a2.08 2.08 0 0 1 .33 1 39.12 39.12 0 0 0 1.13 5 1.07 1.07 0 0 0 .39.63 1.08 1.08 0 0 0 .41-.47 4.17 4.17 0 0 1 1.23-1.4 7.19 7.19 0 0 1 2.5-1 20.31 20.31 0 0 1 3.58-.22 32.53 32.53 0 0 1 3.64.16 7.08 7.08 0 0 1 2.83 1 4.49 4.49 0 0 1 1.41 1.45.92.92 0 0 0 .45.51 1.21 1.21 0 0 0 .37-.68 33.66 33.66 0 0 0 1-4.32 4.26 4.26 0 0 1 .47-1.66 2.24 2.24 0 0 0 .84-.55 1 1 0 0 0-.58-1.44zm-3.28-4.05a.93.93 0 0 0 .57-1.21.91.91 0 0 0-1-.59.81.81 0 0 0-.74.59 1 1 0 0 0 1.17 1.2zm4.46 2.6a.73.73 0 0 0-.88-.57.74.74 0 0 0 0 1.45.76.76 0 0 0 .88-.89zm-11.07-5.26a1.32 1.32 0 0 0 1.17-1.49 1.29 1.29 0 0 0-1.43-1.13 1.27 1.27 0 0 0-1.21 1.31 1.33 1.33 0 0 0 1.47 1.3zm-10 5.34a.72.72 0 0 0-.82-.72.68.68 0 0 0-.65.74.74.74 0 0 0 1.46-.02zm4.13-3.68a.87.87 0 0 0-1-.9.86.86 0 0 0-.84.92.92.92 0 0 0 1.84-.03z" transform="translate(-78.36 -509.7)"/></svg>