<svg xmlns="http://www.w3.org/2000/svg" viewBox="0 0 61.9 58.8"><style>.st0{fill:url(#SVGID_1_);} .st1{fill:url(#SVGID_2_);} .st2{fill:url(#SVGID_3_);} .st3{fill:url(#SVGID_4_);} .st4{fill:url(#SVGID_5_);stroke:#010101;} .st5{opacity:0.4;} .st6{fill:#FAF2E5;} .st7{fill:#D2C3B4;} .st8{fill:#E7DBCF;} .st9{fill:#81776D;} .st10{fill:#80776D;} .st11{fill:#988D82;} .st12{fill:#9E9387;} .st13{fill:#685F57;} .st14{fill:#675F57;} .st15{fill:#B5A89B;} .st16{fill:#B6A99C;} .st17{fill:#B7AA9C;} .st18{fill:#696058;} .st19{fill:#7F756C;} .st20{fill:#968B80;} .st21{fill:#E6DACC;} .st22{fill:#E5DACC;} .st23{fill:#FEF8EE;} .st24{fill:#655D55;} .st25{fill:#B3A699;} .st26{fill:#80786F;} .st27{fill:#82796F;} .st28{fill:#797066;} .st29{fill:#988C81;}</style><g id="Layer_1"><linearGradient id="SVGID_1_" x1="29.0675" x2="33.5675" y1="54.3797" y2="13.6697" gradientUnits="userSpaceOnUse" gradientTransform="matrix(1 0 0 -1 0 60)"><stop offset="0" stop-color="#E0C77C"/><stop offset=".47" stop-color="#B2732A"/><stop offset="1" stop-color="#4D1A0D"/></linearGradient><path d="M30.9 0l7.3 22.5h23.7L42.7 36.4 50 58.8 30.9 45 11.8 58.8l7.3-22.4L0 22.5h23.6z" class="st0"/><linearGradient id="SVGID_2_" x1="434.09" x2="495.94" y1="-478.305" y2="-478.305" gradientUnits="userSpaceOnUse" gradientTransform="matrix(1 0 0 -1 -434.1 -448.7)"><stop offset="0" stop-color="#E0C77C"/><stop offset=".47" stop-color="#B2732A"/><stop offset="1" stop-color="#4D1A0D"/></linearGradient><path d="M61.4 22.5l-.2.2.7-.2h-.5zm-28.2 7l5-7.1L31 .3v28.1h-.5c-.7 0-1.4.2-2 .6l-4.8-6.7-.1.2H0l.2.1L26.9 31c-.1.4-.2.8-.2 1.2 0 .5.1 1 .3 1.4l-7.9 2.9-7.3 22.4.5-.3 16.3-23.1c.6.3 1.3.5 1.9.5h.3l-.1 9.2.3-.2 19 13.9L32.9 35c.6-.5 1-1.1 1.2-1.8 2.5.9 6.1 2.2 8.7 3.2v-.1l17.4-12.7 1-1c-3.5 1.1-20 6.1-27.1 8.3-.2-.4-.5-.9-.9-1.4z" class="st1"/><linearGradient id="SVGID_3_" x1="24.6212" x2="41.2212" y1="44.5004" y2="-1.7096" gradientUnits="userSpaceOnUse" gradientTransform="matrix(1 0 0 -1 0 60)"><stop offset="0" stop-color="#E0C77C"/><stop offset=".47" stop-color="#B2732A"/><stop offset="1" stop-color="#4D1A0D"/></linearGradient><circle cx="30.7" cy="32.3" r="15" class="st2"/><linearGradient id="SVGID_4_" x1="460.6821" x2="487.9821" y1="-471.6991" y2="-534.1191" gradientUnits="userSpaceOnUse" gradientTransform="matrix(1 0 0 -1 -434.1 -448.7)"><stop offset="0" stop-color="#E0C77C"/><stop offset=".47" stop-color="#B2732A"/><stop offset="1" stop-color="#4D1A0D"/></linearGradient><path d="M46.5 32.3c0 8.8-7.1 15.9-15.8 15.9s-15.9-7.1-15.9-15.8c0-8.7 7.1-15.8 15.8-15.9 8.8 0 15.9 7.1 15.9 15.8zM30.7 17.9c-8 0-14.4 6.5-14.4 14.4 0 8 6.5 14.4 14.4 14.4 8 0 14.4-6.5 14.4-14.4s-6.5-14.4-14.4-14.4z" class="st3"/><linearGradient id="SVGID_5_" x1="36.5625" x2="27.2025" y1="17.5715" y2="33.7815" gradientUnits="userSpaceOnUse" gradientTransform="matrix(1 0 0 -1 0 60)"><stop offset="0" stop-color="#9FCF75"/><stop offset=".19" stop-color="#9BCD72"/><stop offset=".37" stop-color="#91C767"/><stop offset=".54" stop-color="#7EBD56"/><stop offset=".59" stop-color="#77B94F"/><stop offset=".73" stop-color="#74B74E"/><stop offset=".84" stop-color="#6AB14C"/><stop offset=".93" stop-color="#5AA749"/><stop offset="1" stop-color="#499C45"/></linearGradient><circle cx="30.9" cy="32.6" r="13.8" class="st4"/></g><g id="Layer_2"><path d="M36.7 22.5l1.3.9c.7.5 1.2 1.2 1.6 1.9.8 1.7.9 3.5.5 5.3-.1.4-.3.8-.5 1.1-.2.3-.3.7-.3 1.1v1.5c0 .5-.1.9-.4 1.3-.5.7-1 1.4-1.4 2.2-.2.5-.4 1-.4 1.6 0 .7 0 1.4-.1 2s-.4 1.2-1 1.5c-.9.5-2 .8-3 .8l-.6.3c-1.1.1-2.3.1-3.4-.1-1-.1-1.9-.4-2.8-.8-.1-.1-.2-.1-.3-.2-.7-.4-.8-1.1-.8-1.8v-1.6c0-.8-.3-1.5-.7-2.2l-.6-.9c-.2-.3-.3-.5-.5-.8-.2-.3-.3-.7-.4-1.1v-2c0-.2-.1-.5-.3-.6-.4-.6-.6-1.3-.7-2 0-1.1 0-2.2.3-3.2.6-2.1 2.1-3.5 4-4.4 1.6-.7 3.4-1.1 5.2-1.1 2 .1 3.7.5 5.3 1.3z" class="st5"/><path d="M36 22.1l1.3 1c.7.5 1.3 1.2 1.6 2 .8 1.7 1 3.5.5 5.4-.1.4-.3.8-.5 1.1-.2.3-.3.7-.3 1.1v1.5c0 .5-.1.9-.4 1.3-.5.7-1 1.5-1.4 2.3-.2.5-.4 1-.4 1.6 0 .7 0 1.4-.1 2.1-.1.7-.4 1.2-1.1 1.6-.9.5-2 .8-3.1.8l-.4.1c-1.1.1-2.3.1-3.4-.1-1-.1-2-.4-2.9-.8-.1-.1-.2-.1-.3-.2-.7-.4-.8-1.1-.8-1.8v-1.6c0-.8-.3-1.6-.7-2.3l-.6-.9c-.2-.3-.3-.5-.5-.8-.2-.3-.3-.7-.4-1.1v-2.1c0-.2-.1-.5-.3-.7-.4-.6-.7-1.3-.7-2.1 0-1.1 0-2.2.3-3.3.6-2.2 2.1-3.6 4.1-4.5 1.7-.8 3.5-1.1 5.3-1.1 1.8.2 3.5.7 5.2 1.5z" class="st6"/><path d="M37.4 29.6c.2.8 0 1.5-.5 1.9-.3.2-.2.6-.2.9.1.5.2.9.4 1.3.5 1.3.2 2.5-.5 3.7-.5.9-1.3 1.6-2.1 2.2-.5.4-.7.9-.8 1.5-.8.6-2.3.8-3.1.3-.2-.3-.4-.3-.6 0-.3.2-.6.3-1 .2-.6 0-1.2-.1-1.7-.3-.2 0-.3-.1-.4-.2 0-.6-.3-1.1-.8-1.5-1.1-.8-2.1-1.8-2.6-3.2-.3-.8-.4-1.6-.1-2.5.2-.7.5-1.3.5-2 0-.2-.1-.3-.2-.4-.6-.4-.7-1.1-.5-1.9 0 0 .1 0 .1.1.2.7.9 1.2 1.6 1.1 1-.2 2-.6 2.8-1.2.5-.3.6-1.1.3-1.7l-.1-.1c-.1-.1-.2-.2-.3-.2-.9-.6-2.4-.3-3.3.5-.3.3-.6.6-.8 1h-.1c.4-1.3 1-2.5 2.3-3.1 1.1-.5 2.2-.4 3.3.1 1 .4 1.8.4 2.8 0 1.3-.5 2.6-.6 3.8.2.7.5 1.2 1.3 1.5 2.1.1.2.2.4.2.7h-.1c-.4-.6-.8-1.1-1.5-1.4-.9-.4-1.8-.6-2.7-.1-.1.1-.2.1-.3.2-.1.1-.1.2-.2.2-.2.7-.1 1.2.5 1.6.7.5 1.6.9 2.5 1.1.5.1.9 0 1.3-.2.3-.2.5-.5.6-.9z" class="st7"/><path d="M22.3 27.4c0-.7.3-1.2.6-1.6 1.2-1.6 2.7-2.8 4.6-3.3.7-.2 1.4-.2 2.2-.1.6.1 1.2 0 1.9-.1s1.3 0 1.9.2c1.2.3 2.1 1 3 1.7.7.6 1.3 1.3 1.6 2.1.1.3.2.7.3 1l-.6-.9c-1-1.1-2.2-2-3.7-2.6-.6-.2-1.1-.2-1.6.2s-1.1.6-1.8.6-1.4.1-2.1-.3c-.2-.1-.4-.2-.5-.3-.4-.4-.9-.4-1.4-.2-1 .3-1.8.8-2.5 1.4-.6.5-1.2.9-1.6 1.6-.1.2-.2.3-.3.6z" class="st8"/><path d="M32.7 27.7c0-.1.1-.2.2-.2h.1c.2.5.6.6 1 .8l1.5.6c.4.2.9.2 1.4.1.1 0 .3-.1.4 0h.1l.1.3c.1.2 0 .3-.2.4-.6.3-1.2.5-1.8.3-.8-.3-1.6-.6-2.3-1-.6-.4-.7-.8-.5-1.3z" class="st9"/><path d="M27.6 27.5c.1 0 .2.1.3.2.1.7 0 .9-.6 1.2-.7.4-1.5.7-2.2 1-.6.2-1.2 0-1.7-.3-.1-.1-.2-.1-.1-.3l.1-.3h.1c.1-.1.2 0 .3 0 .5.2 1 .2 1.5-.1.5-.2.9-.4 1.4-.6.4-.2.8-.3.9-.8z" class="st10"/><path d="M23.2 29.3c.2.4 1.2.7 1.7.6.8-.3 1.7-.6 2.4-1 .3-.2.6-.4.5-.9 0-.1 0-.2.1-.2l.1.1c.3.9.1 1.3-.7 1.7-.5.3-1.1.5-1.7.7-.7.3-1.4.2-2-.1-.2-.1-.3-.2-.4-.4v-.5z" class="st11"/><path d="M32.7 27.7c-.1.6.1.9.7 1.2.8.4 1.6.8 2.5 1 .5.1 1-.2 1.5-.4 0 0 0-.1.1-.2.1.1.1.2.1.3v.1c-.3.7-1 .8-1.6.8-1 0-1.8-.6-2.6-1-.2-.1-.3-.2-.4-.3-.4-.3-.3-.8-.2-1.2-.3-.2-.2-.3-.1-.3z" class="st12"/><path d="M37.2 29c-.3.1-.6.2-.9.2-.6.1-1-.3-1.5-.5-.4-.2-.9-.3-1.3-.5-.4-.1-.5-.4-.6-.8.6-.5 1.3-.5 2-.3 1 .3 1.8.9 2.3 1.9z" class="st13"/><path d="M27.6 27.5c0 .4-.1.6-.5.7l-2.1.9c-.5.2-1.1.1-1.6-.1.6-1.1 1.5-1.7 2.7-1.9.5 0 1.1 0 1.5.4z" class="st14"/><path d="M23.2 29.6c.8.7 1.6.8 2.6.4.5-.2 1-.5 1.6-.7.5-.2.8-.5.7-1.1v-.5c.4.6.3 1.5-.3 2-.8.5-1.8.9-2.7 1.1-.5.1-1.4-.2-1.7-.9-.2 0-.2-.1-.2-.3z" class="st15"/><path d="M32.5 27.9c0 .2.1.3 0 .5 0 .3.2.6.4.7.7.4 1.4.8 2.3 1.1.8.2 1.6.1 2.2-.6.1.5-.2.7-.6.9-.5.3-1 .3-1.5.2-1-.3-1.9-.6-2.7-1.4-.3-.3-.3-1-.1-1.4z" class="st16"/><path d="M30.3 27.7c.9.1 1.5.3 1.6 1.2.1.3.2.6.2.9v.4c-.1.2-.2.3-.3.1-.1-.1-.2-.3-.3-.4-.6-1.1-1.7-1.1-2.3 0-.1.2-.2.3-.3.4-.2.2-.3.1-.4-.1v-.1c0-.7.2-1.4.6-1.9.2-.4.7-.5 1.2-.5z" class="st6"/><path d="M32.2 31.6c.2.4.2.9.2 1.4 0 .2-.1.2-.2.1-.3-.1-.5-.4-.6-.6-.5-1-1.6-1-2.3-.1l-.3.6c-.1.2-.3.2-.5.2s-.1-.2-.1-.3c0-.3 0-.6.1-.9.2.2.3.1.4 0 .4-.3.8-.5 1.3-.6.5-.1 1 .1 1.5.2h.5z" class="st17"/><path d="M28.8 30.8c.1-.4.4-.8.7-1 .6-.5 1.1-.5 1.6 0 .2.2.4.4.5.6 0 .2-.3.2-.4.2-.5 0-.9 0-1.4.1-.2.1-.5.2-.7.2 0 .1-.2.2-.3-.1z" class="st18"/><path d="M28.8 30.8c.1.2.3.1.3 0 .7-.3 1.4-.4 2.1-.4.1 0 .3.1.4-.1l.3.6c-.1.2-.3.2-.4.2-.9-.1-1.8 0-2.6.4-.1.1-.3.1-.4 0 .1-.2.2-.4.3-.7z" class="st19"/><path d="M28.6 31.6c.1 0 .3 0 .4-.1.8-.4 1.6-.6 2.5-.4.2 0 .4.1.5-.1.1.2.2.4.2.6 0 .2-.1.1-.2.1-.3-.2-.7-.2-1.1-.3-.6-.1-1.1 0-1.6.3-.2.1-.4.2-.5.3-.2.1-.3.1-.3-.2l.1-.2z" class="st20"/><path d="M26.9 41.1c.7.3 1.4.4 2.2.4.3 0 .6-.2.9-.1-.5.6-1.1.7-1.8.7-.2 0-.4-.1-.7-.1-.5-.2-.6-.3-.6-.9z" class="st21"/><path d="M30.6 41.3c.5.1.9.2 1.4.2.5 0 .9-.2 1.3-.4.1-.1.2-.1.4-.1 0 .6 0 .6-.6.9-.8.3-1.5.1-2.2-.2-.1-.1-.2-.2-.3-.4z" class="st22"/><path d="M26.5 35.7l.4-.4c.7-.6 1.5-.7 2.3-.8 1.1-.1 2.3-.1 3.4.2.5.1.9.3 1.2.6l.4.4c.2.1.3.3.3.6.1.6.1 1.3-.1 1.9-.1.3-.3.5-.6.5s-.5-.2-.7-.2c-.8-.4-1.7-.6-2.6-.6-1 0-2 .1-2.9.5-.2.1-.4.2-.6.2-.3.1-.6.2-.9-.2-.2-.3 0-.6-.1-.8-.1-.4 0-.9 0-1.3.2-.3.3-.5.5-.6z" class="st23"/><path d="M34.4 38.2c.1-.5.1-1.1.1-1.6 0-.3-.1-.6-.3-.9.1 0 .1 0 .1.1.2.2.5.2.7 0 .4-.3.8-.7 1.2-.9.1-.1.3-.2.4-.1.2.1.1.3.1.4-.3 1.1-.6 2.2-1.4 3.1-.2.1-.5.2-.7.2-.1-.1-.2-.1-.2-.3zm-7.9-2.5c-.3.4-.3.8-.3 1.3v.6c0 .4 0 .5-.4.5-.2 0-.5.1-.7-.2-.6-.9-.8-1.8-1.1-2.8 0-.1-.1-.3.1-.4s.3 0 .4.1c.3.2.7.4.9.7.3.4.7.5 1.1.2z" class="st24"/><path d="M34.4 38.2c.1.3.3.1.5.1.1 0 .3-.1.5-.1-.2.3-.4.4-.7.5-.9.4-1.8.2-2.8 0-1.2-.2-2.4-.2-3.5.1-.6.1-1.2.1-1.8-.1l-.9-.3c-.2 0-.3-.1-.3-.3.3-.1.7 0 1 .1.2.3.5.2.8.1.4.2.7.1 1.1.1.7-.1 1.4-.3 2.1-.3.7 0 1.3.1 2 .2.5.1 1 .2 1.5.1.3.2.4 0 .5-.2z" class="st25"/><path d="M33.8 35.3c-2.3-1.1-4.6-1.1-6.9 0 .1-.2.3-.3.5-.4 2-.8 3.9-.8 5.9 0 .2.1.4.2.5.4z" class="st26"/><path d="M26.3 38.3c-.3.1-.7 0-1-.1-.1-.1-.2-.2-.2-.4.2.1.4.1.6.1.3 0 .5-.1.5-.4.1.3 0 .6.1.8z" class="st27"/><path d="M27.6 38.3c1-.5 2.2-.6 3.3-.6.8 0 1.6.3 2.3.6.1.2-.1.2-.2.2-.2 0-.5 0-.7-.1-1.3-.2-2.5-.3-3.8 0-.3.1-.5.1-.8 0 0 .1-.3.1-.1-.1z" class="st28"/><path d="M27.6 38.3c-.1.1 0 .1.1.1.3.1.7 0 1-.1 1.2-.3 2.5-.2 3.7 0 .2 0 .5 0 .7.1.1 0 .1-.1.1-.1l.6.2c-.1.2-.3.2-.5.2-1.2-.1-2.3-.4-3.5-.3-.5 0-1.1.2-1.6.2-.3 0-.7.1-1 0-.1 0-.2 0-.1-.2l.5-.1z" class="st29"/></g></svg>