<svg xmlns="http://www.w3.org/2000/svg" xmlns:xlink="http://www.w3.org/1999/xlink" viewBox="0 0 59.57 59.57"><defs><linearGradient id="a" x1="169.97" x2="182.53" y1="375.6" y2="405.39" gradientUnits="userSpaceOnUse"><stop offset="0" stop-color="#e0c77c"/><stop offset=".47" stop-color="#b2732a"/><stop offset="1" stop-color="#4d1a0d"/></linearGradient><linearGradient id="d" x1="18.43" x2="52.47" y1="29.75" y2="42.94" xlink:href="#a"/><linearGradient id="e" x1="28.88" x2="43.14" y1="6.58" y2="12.11" xlink:href="#a"/><linearGradient id="f" x1="31.69" x2="40.13" y1="48.17" y2="48.17" xlink:href="#a"/><linearGradient id="g" x1="-14.66" x2="7.84" y1="41.67" y2="41.67" xlink:href="#a"/><linearGradient id="h" x1="29.78" x2="29.78" y1="17.99" y2="37.81" xlink:href="#a"/><linearGradient id="i" x1="29.78" x2="29.78" y1="58.62" y2="28.94" xlink:href="#a"/><linearGradient id="b" x1="194.72" x2="203.25" y1="407.38" y2="396.54" gradientUnits="userSpaceOnUse"><stop offset="0" stop-color="#fffffc"/><stop offset="1" stop-color="#4d1a0d"/></linearGradient><linearGradient id="j" x1="20.34" x2="40" y1="-2.52" y2="64.73" xlink:href="#a"/><linearGradient id="k" x1="66.97" x2="28.66" y1=".82" y2="39.13" xlink:href="#a"/><linearGradient id="l" x1="188.38" x2="179.27" y1="414.26" y2="420.69" xlink:href="#b"/><linearGradient id="m" x1="182.46" x2="189.62" y1="368.42" y2="387.5" xlink:href="#a"/><linearGradient id="n" x1="167.22" x2="194.18" y1="365.81" y2="437.68" gradientUnits="userSpaceOnUse"><stop offset="0" stop-color="#fff"/><stop offset=".61" stop-color="#ffe300"/><stop offset="1" stop-color="#c67a29"/></linearGradient><linearGradient id="c" x1="166.6" x2="188.03" y1="383.45" y2="406.17" gradientUnits="userSpaceOnUse"><stop offset="0" stop-color="#6b6962"/><stop offset="1" stop-color="#292929"/></linearGradient><linearGradient id="o" x1="168.42" x2="191.32" y1="384.86" y2="406.29" xlink:href="#c"/><linearGradient id="p" x1="14.94" x2="37.84" y1="23.43" y2="44.85" xlink:href="#c"/></defs><g style="isolation:isolate"><path fill="url(#a)" d="M203.13 396.11a24.51 24.51 0 1 1-24.52-24.51 24.52 24.52 0 0 1 24.52 24.51z" transform="translate(-148.8 -366.4)"/><path fill="url(#d)" d="M45.65 40.14l5.6 1.05-.82 1.56-5.6-1.49.82-1.12" opacity=".8"/><path fill="url(#e)" d="M41.25 8.03l1.49.82-1.42 5.9-1.19-.82 1.12-5.9" opacity=".43" style="mix-blend-mode:multiply"/><path fill="url(#f)" d="M40.28 45.67l.97-.68 1.49 5.45-1.64.9-.82-5.67"/><path fill="url(#g)" d="M13.99 40.36l-5.75.9.97 1.72 5.6-1.65-.82-.97" opacity=".35"/><path fill="url(#h)" d="M29.62 21.05l29.95-4.99-2.5 13.85 2.5 13.6-29.79-4.99L0 43.51 2.5 30.1 0 16.06l29.62 4.99"/><path fill="url(#i)" d="M2.5 30.1L0 43.51l29.78-4.99 29.79 4.99-2.48-13.5H2.48l.02.09"/><path fill="url(#b)" d="M196.81 407.64l5.1-6.68s2-3.37 2-3.57a4.07 4.07 0 0 0-.07-1L201 397l-7.87 9.53" transform="translate(-148.8 -366.4)" opacity=".43" style="mix-blend-mode:multiply"/><path fill="url(#j)" d="M21.05 29.95L16.06 0l13.85 2.5L43.51 0l-4.99 29.78 4.99 29.79-13.41-2.5-14.04 2.5 4.99-29.62"/><path fill="url(#k)" d="M30.1 57.07l13.41 2.5-4.99-29.79L43.51 0l-13.5 2.48v54.61l.09-.02"/><path fill="url(#l)" d="M190.18 415.14l-8.11 5.18a7.14 7.14 0 0 1-3.18 1.19l.06-1.88 8.86-7.11" transform="translate(-148.8 -366.4)" opacity=".91" style="mix-blend-mode:multiply"/><path fill="url(#m)" d="M180 371.79a3.82 3.82 0 0 1 2.25.93c.86.86 7.94 6.41 7.94 6.41l-.46 2.52z" transform="translate(-148.8 -366.4)" opacity=".43" style="mix-blend-mode:multiply"/><path fill="url(#n)" d="M180.73 420.55a3 3 0 0 1-4.23 0l-22.24-22.24a3 3 0 0 1 0-4.23l22.24-22.24a3 3 0 0 1 4.23 0L203 394.07a3 3 0 0 1 0 4.23z" transform="translate(-148.8 -366.4)"/><path fill="url(#c)" d="M176.22 375.15l-18.64 18.65a3.39 3.39 0 0 0 0 4.79l18.65 18.65a3.39 3.39 0 0 0 4.79 0l18.65-18.65a3.39 3.39 0 0 0 0-4.79L181 375.15a3.39 3.39 0 0 0-4.78 0zm1.24 40.85l-18.65-18.65a1.64 1.64 0 0 1 0-2.32l18.65-18.65a1.63 1.63 0 0 1 2.32 0L198.42 395a1.64 1.64 0 0 1 0 2.32L179.78 416a1.64 1.64 0 0 1-2.32 0z" transform="translate(-148.8 -366.4)"/><path fill="url(#o)" d="M169.69 393.32V399h4.81v-5.67a4 4 0 1 1 7.91 0v12.55h4.81v-12.56a8.77 8.77 0 1 0-17.53 0z" transform="translate(-148.8 -366.4)"/><path fill="url(#p)" d="M23.64 39.28l-6.77-9.09h13.54l-6.77 9.09"/></g></svg>