<svg xmlns="http://www.w3.org/2000/svg" viewBox="0 0 58.41 58.36"><defs><linearGradient id="a" x1="29.66" x2="28.94" y1="7.3" y2="44.06" gradientUnits="userSpaceOnUse"><stop offset="0" stop-color="#fff"/><stop offset=".48" stop-color="#a8c4d6"/><stop offset="1" stop-color="#5d8abb"/></linearGradient><linearGradient id="b" x1="597.15" x2="623.5" y1="302.17" y2="340.61" gradientUnits="userSpaceOnUse"><stop offset="0" stop-color="#f7fafc"/><stop offset=".48" stop-color="#9bbbd9"/><stop offset="1" stop-color="#5e8cba"/></linearGradient><linearGradient id="c" x1="611.81" x2="611.81" y1="299.25" y2="341" gradientUnits="userSpaceOnUse"><stop offset="0" stop-color="#ad1f23"/><stop offset=".09" stop-color="#bb2923"/><stop offset=".27" stop-color="#e04223"/><stop offset=".34" stop-color="#f04d23"/><stop offset=".39" stop-color="#f15722"/><stop offset=".54" stop-color="#f47420"/><stop offset=".7" stop-color="#f6881e"/><stop offset=".85" stop-color="#f8951d"/><stop offset="1" stop-color="#f8991d"/></linearGradient><radialGradient id="d" cx="587.14" cy="327.78" r="11.69" gradientTransform="translate(-627.06 -297.99) scale(1.12 1.02)" gradientUnits="userSpaceOnUse"><stop offset=".29" stop-color="#fee32d"/><stop offset=".44" stop-color="#fdd52b"/><stop offset=".72" stop-color="#fab027"/><stop offset="1" stop-color="#f68723"/></radialGradient><radialGradient id="e" cx="282.07" cy="303.06" r="14.33" gradientTransform="translate(422.73 20) scale(0.67 1)" gradientUnits="userSpaceOnUse"><stop offset="0" stop-color="#f2692c"/><stop offset=".47" stop-color="#e21f26"/><stop offset="1" stop-color="#991b1f"/></radialGradient><radialGradient id="f" cx="629.82" cy="315.63" r="8.55" gradientTransform="translate(-563.61 -294.09) scale(0.94 1)" gradientUnits="userSpaceOnUse"><stop offset="0" stop-color="#fff"/><stop offset="1" stop-color="#010101"/></radialGradient></defs><g style="isolation:isolate"><path fill="url(#a)" d="M29.23 0l3.68 10.7 7.49-8.48-.7 11.3 10.16-4.97-4.97 10.16 11.3-.7-8.48 7.49 10.7 3.68-10.7 3.67 8.48 7.5-11.3-.7 4.97 10.16-10.16-4.97.7 11.3-7.49-8.48-3.68 10.7-3.68-10.7-7.49 8.48.7-11.3L8.6 49.81l4.97-10.16-11.3.7 8.48-7.5-10.7-3.67 10.7-3.68-8.48-7.49 11.3.7L8.6 8.55l10.16 4.97-.7-11.3 7.49 8.48L29.23 0"/><path fill="url(#b)" d="M627.28 333.74l11.3.67-24.78-10.24a2.36 2.36 0 0 0 .13-.45l16.18 3.15 10.68-3.75-26.81.13a2.71 2.71 0 0 0 0-.44l16.18-3.14 8.49-7.48-24.85 10.18a2.29 2.29 0 0 0-.22-.42l13.67-9.2 4.91-10.2-18.88 19a2.37 2.37 0 0 0-.35-.29l9.15-13.7.67-11.3-10.23 24.78a2.19 2.19 0 0 0-.43-.13l3.26-16.15-3.68-10.7v26.81a2.37 2.37 0 0 0-.46 0L608 304.78l-7.51-8.47 10.26 24.77a2.37 2.37 0 0 0-.4.21l-9.09-13.75-10.16-5 18.89 19a2.38 2.38 0 0 0-.3.36L596 312.75l-11.3-.7 24.75 10.31a2.31 2.31 0 0 0-.14.45l-16.17-3.21-10.69 3.71h26.81a2.3 2.3 0 0 0 0 .46L593.13 327l-8.46 7.52 24.75-10.3a2.36 2.36 0 0 0 .22.41L596 333.77 591.05 344l18.89-19a2.39 2.39 0 0 0 .36.29L601.19 339l-.64 11.3 10.17-24.81a2.27 2.27 0 0 0 .44.13L608 341.75l3.72 10.69-.06-26.81a2.28 2.28 0 0 0 .45 0l3.19 16.17 7.5 8.47-10.24-24.78a2.42 2.42 0 0 0 .41-.22l9.15 13.71 10.18 4.95-19-19a2.32 2.32 0 0 0 .29-.36z" transform="translate(-582.44 -294.09)"/><circle cx="29.13" cy="33.85" r="14.06" fill="#35526c" opacity=".42"/><path fill="url(#c)" d="M623.21 319.39c.2-1.59-.21-3.35-.21-5.39 0-2.75-.75-4.75-3.25-5 .5 7-3.25 3.25-4 2s1.88-3.62 1.63-5.12-4.39-5.42-3.37-3.62c1.63 2.88 0 5.5-3.5 3.5s4.25-6.5 4.25-6.5-11 2.75-7.5 8 1.5 5.5-.5 5.5-.25-1.75-2-3.5-5.5 1.75-5.5 1.75c3-1.5 2.5.5 2.75 2.5s-2.5 7.25-2.5 7.25h.09a13.81 13.81 0 1 0 23.61-1.37z" transform="translate(-582.44 -294.09)"/><ellipse cx="29.13" cy="35.04" fill="url(#d)" rx="13.06" ry="11.88"/><path fill="url(#e)" d="M621 320.38a10.36 10.36 0 0 0-18.28 0 8.09 8.09 0 0 0-.87 4.94 6.11 6.11 0 0 0 1 2.41c.4.58 1.71 1.19 1.61 2.13-.06.57-.62.63-.79 1.14a3 3 0 0 0 .38 2c1.22 2.93 1.48.57 2.73 1.13.95.43 1.49 1.86 1.6 3s.17 2 1.3 2.23a10.32 10.32 0 0 1 0-1.77.52.52 0 0 1 .43.09c0 .83.05 2.83 1.17 2.45.87-.3-.24-2 .58-2.07.82.08-.29 1.77.58 2.07 1.12.38 1.17-1.62 1.17-2.45a.51.51 0 0 1 .43-.09 10.5 10.5 0 0 1 0 1.77c1.13-.22 1.18-1 1.3-2.23s.66-2.56 1.6-3c1.25-.56 1.51 1.8 2.73-1.12a3 3 0 0 0 .38-2c-.17-.52-.73-.58-.79-1.14-.1-.93 1.22-1.54 1.62-2.13a6.11 6.11 0 0 0 1-2.41 8.07 8.07 0 0 0-.88-4.95zm-13 10.78c-1.48-.28-2.58-.39-3-1.87h.11c-1.07-1.31 1.37-2.2 2.47-1.82a5.88 5.88 0 0 1 1.46 1.35 12.29 12.29 0 0 1 1.73 1.11c.63 1.07-2 1.37-2.77 1.23zm3.26 4.48c-.92-.47-.27-2.39 0-3-.05.5.74 3.12 0 2.99zm1.29 0c-.72.13 0-2.49 0-3 .27.61.92 2.52 0 2.99zm6.1-6.35h.11c-.38 1.48-1.47 1.59-3 1.87-.76.14-3.4-.17-2.81-1.24a12.15 12.15 0 0 1 1.73-1.11 5.85 5.85 0 0 1 1.46-1.35c1.14-.38 3.58.54 2.51 1.82z" transform="translate(-582.44 -294.09)" opacity=".65"/><ellipse cx="29.55" cy="27.59" fill="url(#f)" rx="6.57" ry="6.04" opacity=".81" style="mix-blend-mode:screen"/></g></svg>