<svg xmlns="http://www.w3.org/2000/svg" xmlns:xlink="http://www.w3.org/1999/xlink" viewBox="0 0 58 57.99"><defs><linearGradient id="a" x1="550.36" x2="575.72" y1="-80.29" y2="-121.7" gradientTransform="matrix(.7 .7 .7 -.7 -297.9 -439.9)" gradientUnits="userSpaceOnUse"><stop offset="0" stop-color="#dce0df"/><stop offset=".47" stop-color="#9facb3"/><stop offset="1" stop-color="#51595d"/></linearGradient><linearGradient id="b" x1="219.72" x2="276.61" y1="-462.59" y2="-494.29" gradientTransform="matrix(1 0 0 -1 -219.5 -449.6)" xlink:href="#a"/><linearGradient id="c" x1="23.02" x2="39.62" y1="47.86" y2="1.66" gradientTransform="matrix(1 0 0 -1 0 60)" xlink:href="#a"/><linearGradient id="d" x1="239.74" x2="276.45" y1="-465.7" y2="-519.17" gradientTransform="matrix(1 0 0 -1 -219.5 -449.6)" xlink:href="#a"/><linearGradient id="e" x1="34.65" x2="25.29" y1="21.32" y2="37.53" gradientTransform="matrix(1 0 0 -1 0 60)" gradientUnits="userSpaceOnUse"><stop offset="0" stop-color="#7bcbda"/><stop offset=".17" stop-color="#77c9d7"/><stop offset=".32" stop-color="#6dc2ce"/><stop offset=".47" stop-color="#5ab6be"/><stop offset=".59" stop-color="#45a9ac"/><stop offset=".73" stop-color="#42a7a9"/><stop offset=".84" stop-color="#38a1a1"/><stop offset=".94" stop-color="#289693"/><stop offset="1" stop-color="#198c86"/></linearGradient></defs><g style="isolation:isolate"><path fill="url(#a)" d="M44.98 22.38l-5.91-3.53-3.45-5.83L29 0l-6.62 13.02-3.51 6.15-5.85 3.21L0 29l13.02 6.62 5.97 3.63 3.39 5.73L29 57.99l6.62-13.01 3.53-5.45 5.83-3.91L57.99 29l-13.01-6.62"/><path fill="url(#b)" d="M30.5 32.41c1.92 4.68 6.76 4.69 1.24-.84a3.7 3.7 0 0 0 .76-1.16c4.68 1.93 9.71 6.78 9.71 6.78L58 29s-17.42-.12-25.23-.09a3.68 3.68 0 0 0-.29-1.38c4.67-2 4.63-6.8-.85-1.23a3.7 3.7 0 0 0-1.17-.76c1.92-4.66 6.81-9.54 6.81-9.54L29 0s-.06 17.42 0 25.23a3.69 3.69 0 0 0-1.36.29c-1.94-4.67-6.78-4.65-1.24.85a3.71 3.71 0 0 0-.77 1.18c-4.68-1.92-9.76-6.71-9.76-6.71L.13 29h25.23a3.64 3.64 0 0 0 .28 1.35c-4.68 1.94-4.66 6.77.85 1.24a3.72 3.72 0 0 0 1.14.75c-2 4.66-6.65 10-6.65 10l7.82 15.61s.27-17.42.31-25.23a3.69 3.69 0 0 0 1.39-.31z"/><circle cx="29.06" cy="28.95" r="15.05" fill="url(#c)"/><path fill="url(#d)" d="M44.91 28.95A15.85 15.85 0 1 1 29.06 13.1a15.85 15.85 0 0 1 15.85 15.85zM29.06 14.52A14.43 14.43 0 1 0 43.5 28.95a14.43 14.43 0 0 0-14.44-14.43z"/><circle cx="28.96" cy="28.82" r="13.83" fill="url(#e)" stroke="#010101"/><path d="M35.3 19l1.31 1a4.48 4.48 0 0 1 1.58 1.94 8.14 8.14 0 0 1 .52 5.3 3.31 3.31 0 0 1-.47 1.09 2 2 0 0 0-.31 1.1v1.52a2.19 2.19 0 0 1-.38 1.26 19.46 19.46 0 0 0-1.36 2.22 3.67 3.67 0 0 0-.37 1.57 15.78 15.78 0 0 1-.07 2 2 2 0 0 1-1 1.54 6.51 6.51 0 0 1-3 .82l-.63.07a15.78 15.78 0 0 1-3.37-.08 9.66 9.66 0 0 1-2.83-.81l-.28-.18a2.08 2.08 0 0 1-.83-1.81V36a4 4 0 0 0-.68-2.22c-.19-.31-.4-.61-.59-.91s-.31-.52-.49-.77a2 2 0 0 1-.42-1.1v-2a1.49 1.49 0 0 0-.26-.64 4.25 4.25 0 0 1-.69-2 10.2 10.2 0 0 1 .27-3.36 6.77 6.77 0 0 1 4-4.37 12.15 12.15 0 0 1 5.23-1.07A13.44 13.44 0 0 1 35.3 19z" opacity=".4" style="mix-blend-mode:hard-light"/><path fill="#faf2e5" d="M34.58 18.64l1.34 1a4.56 4.56 0 0 1 1.62 2 8.28 8.28 0 0 1 .53 5.4 3.37 3.37 0 0 1-.48 1.12 2 2 0 0 0-.32 1.12v1.54a2.23 2.23 0 0 1-.39 1.18 19.83 19.83 0 0 0-1.39 2.26 3.74 3.74 0 0 0-.38 1.59A16.07 16.07 0 0 1 35 38a2 2 0 0 1-1 1.54 6.64 6.64 0 0 1-3.07.84l-.65.07a16.1 16.1 0 0 1-3.44-.09 9.86 9.86 0 0 1-2.84-.82l-.29-.19a2.12 2.12 0 0 1-.85-1.84v-1.58a4 4 0 0 0-.69-2.26c-.19-.32-.4-.62-.61-.93s-.38-.53-.56-.74a2.06 2.06 0 0 1-.36-1.14v-2.08a1.51 1.51 0 0 0-.26-.66 4.33 4.33 0 0 1-.7-2.09 10.39 10.39 0 0 1 .32-3.34 6.9 6.9 0 0 1 4.12-4.46 12.4 12.4 0 0 1 5.33-1.09 13.71 13.71 0 0 1 5.13 1.5z"/><path fill="#d2c3b4" d="M36 26.06a1.64 1.64 0 0 1-.52 1.86.75.75 0 0 0-.18.89 6.52 6.52 0 0 0 .37 1.34 3.93 3.93 0 0 1-.45 3.68A7.54 7.54 0 0 1 33.14 36a1.86 1.86 0 0 0-.78 1.52 3.15 3.15 0 0 1-3.09.29c-.22-.25-.43-.3-.65 0a1.88 1.88 0 0 1-1 .25 5.38 5.38 0 0 1-1.71-.29.72.72 0 0 1-.38-.25 1.76 1.76 0 0 0-.79-1.48 7 7 0 0 1-2.65-3.22 3.55 3.55 0 0 1-.09-2.43 6 6 0 0 0 .48-2 .45.45 0 0 0-.21-.43 1.62 1.62 0 0 1-.52-1.86.18.18 0 0 1 .07.08 1.51 1.51 0 0 0 1.63 1.09 7.19 7.19 0 0 0 2.84-1.17 1.37 1.37 0 0 0 .27-1.7l-.09-.12a1 1 0 0 0-.29-.28 3 3 0 0 0-3.33.53 5.39 5.39 0 0 0-.81 1 .08.08 0 0 1-.1 0 4.39 4.39 0 0 1 2.3-3.12 4 4 0 0 1 3.27.09 3.38 3.38 0 0 0 2.81 0 3.84 3.84 0 0 1 3.83.22 4.45 4.45 0 0 1 1.51 2.09 1.83 1.83 0 0 1 .23.71.08.08 0 0 1-.1 0 3.86 3.86 0 0 0-1.48-1.42 2.77 2.77 0 0 0-2.71-.1 1.06 1.06 0 0 0-.27.22.79.79 0 0 0-.16.25 1.25 1.25 0 0 0 .46 1.58 6.88 6.88 0 0 0 2.48 1.09 1.91 1.91 0 0 0 1.28-.21 1 1 0 0 0 .61-.8.17.17 0 0 1 0-.07z"/><path fill="#e7dbcf" d="M20.93 23.85a2.9 2.9 0 0 1 .58-1.63 8 8 0 0 1 4.65-3.3 5.32 5.32 0 0 1 2.18-.07 6.69 6.69 0 0 0 1.85-.06 4.77 4.77 0 0 1 1.89.2 8 8 0 0 1 3 1.75 6.4 6.4 0 0 1 1.65 2.09 2.72 2.72 0 0 1 .26 1c-.23-.32-.38-.61-.6-.85a9.58 9.58 0 0 0-3.68-2.57 1.47 1.47 0 0 0-1.6.21 2.58 2.58 0 0 1-1.8.56 4.36 4.36 0 0 1-2.1-.29 2.44 2.44 0 0 1-.52-.31 1.3 1.3 0 0 0-1.4-.22 7.84 7.84 0 0 0-2.54 1.43 6.37 6.37 0 0 0-1.56 1.55z"/><path fill="#81776d" d="M31.28 24.2a.4.4 0 0 1 .22-.2.09.09 0 0 1 .06 0 1.34 1.34 0 0 0 1 .79 11.81 11.81 0 0 1 1.48.63 1.79 1.79 0 0 0 1.35.08.42.42 0 0 1 .4 0h.06l.15.27a.26.26 0 0 1-.17.37 2.2 2.2 0 0 1-1.83.26 10.63 10.63 0 0 1-2.28-1 .87.87 0 0 1-.44-1.2z"/><path fill="#80776d" d="M26.26 24a.45.45 0 0 1 .28.23.94.94 0 0 1-.6 1.22 11.41 11.41 0 0 1-2.23 1 2.16 2.16 0 0 1-1.71-.39.2.2 0 0 1-.13-.29l.07-.28H22a.32.32 0 0 1 .34 0 1.82 1.82 0 0 0 1.52-.12 10.83 10.83 0 0 1 1.41-.61 1.25 1.25 0 0 0 .99-.76z"/><path fill="#988d82" d="M21.86 25.78a2 2 0 0 0 1.67.55 11.58 11.58 0 0 0 2.43-1 .78.78 0 0 0 .5-.86.63.63 0 0 1 .06-.24l.07.07a1.19 1.19 0 0 1-.7 1.7c-.54.28-1.1.52-1.66.75a2.16 2.16 0 0 1-2-.14.85.85 0 0 1-.41-.43v-.07a.43.43 0 0 1 .04-.33z"/><path fill="#9e9387" d="M31.28 24.2a1.09 1.09 0 0 0 .66 1.21 9 9 0 0 0 2.48 1 2.24 2.24 0 0 0 1.47-.41.39.39 0 0 0 .06-.2.43.43 0 0 1 .08.29v.08a1.58 1.58 0 0 1-1.62.76 6.05 6.05 0 0 1-2.59-1 1.85 1.85 0 0 1-.44-.31 1.21 1.21 0 0 1-.24-1.2.22.22 0 0 1 .14-.22z"/><path fill="#685f57" d="M35.81 25.49a6.81 6.81 0 0 1-.89.23 3.2 3.2 0 0 1-1.51-.46c-.43-.16-.86-.35-1.3-.5a.88.88 0 0 1-.61-.76 2.29 2.29 0 0 1 2-.3 3.19 3.19 0 0 1 2.31 1.79z"/><path fill="#675f57" d="M26.26 24a.64.64 0 0 1-.49.73c-.77.27-1.44.54-2.14.87a2 2 0 0 1-1.63-.11 3.27 3.27 0 0 1 2.73-1.87 2 2 0 0 1 1.53.38z"/><path fill="#b5a89b" d="M21.8 26.13a2.18 2.18 0 0 0 2.58.41c.52-.24 1-.46 1.56-.72a1 1 0 0 0 .67-1.09 3.39 3.39 0 0 1 0-.47 1.4 1.4 0 0 1-.35 2 8.13 8.13 0 0 1-2.73 1.11 1.81 1.81 0 0 1-1.7-.85.63.63 0 0 1-.03-.39z"/><path fill="#b6a99c" d="M31.13 24.41a1.51 1.51 0 0 1 0 .52.76.76 0 0 0 .41.74 8.81 8.81 0 0 0 2.26 1.06 2 2 0 0 0 2.17-.6.87.87 0 0 1-.57.9 1.93 1.93 0 0 1-1.52.18 6.19 6.19 0 0 1-2.67-1.36 1.29 1.29 0 0 1-.08-1.44z"/><path fill="#faf2e5" d="M28.88 24.19a1.49 1.49 0 0 1 1.64 1.21c.07.31.16.62.23.93a.62.62 0 0 1 0 .39c-.08.19-.18.25-.34.07a2.33 2.33 0 0 1-.32-.43 1.23 1.23 0 0 0-2.32 0 2.53 2.53 0 0 1-.32.43c-.17.2-.28.12-.36-.08a.19.19 0 0 1 0-.07 3.62 3.62 0 0 1 .56-1.93 1.59 1.59 0 0 1 1.23-.52z"/><path fill="#b7aa9c" d="M30.77 28.15a4.19 4.19 0 0 1 .23 1.39c0 .17-.07.2-.23.14a1.12 1.12 0 0 1-.6-.63A1.23 1.23 0 0 0 27.9 29c-.12.19-.23.39-.35.58a.4.4 0 0 1-.48.16c-.18 0-.11-.22-.1-.34a3.33 3.33 0 0 1 .14-.94c.15.18.3.08.43 0a3.21 3.21 0 0 1 1.28-.59 4.14 4.14 0 0 1 1.54.22 2.78 2.78 0 0 0 .41.06z"/><path fill="#696058" d="M27.45 27.34a2.29 2.29 0 0 1 .69-1 1.12 1.12 0 0 1 1.64 0 1.65 1.65 0 0 1 .49.61c0 .25-.25.18-.4.18a6.36 6.36 0 0 0-1.35.1c-.25.06-.47.18-.71.25s-.3.12-.36-.14z"/><path fill="#7f756c" d="M27.45 27.34c.11.16.25.06.35 0a4.17 4.17 0 0 1 2.08-.34.44.44 0 0 0 .4-.08 1.53 1.53 0 0 1 .28.58c-.05.25-.26.19-.4.17a4.32 4.32 0 0 0-2.57.42.33.33 0 0 1-.4 0 2.1 2.1 0 0 1 .26-.75z"/><path fill="#968b80" d="M27.19 28.08a.7.7 0 0 0 .41-.08 4 4 0 0 1 2.45-.41.56.56 0 0 0 .51-.06 1.53 1.53 0 0 1 .21.65c0 .15-.1.13-.2.08a5.26 5.26 0 0 0-1.07-.29 2 2 0 0 0-1.56.32l-.54.35c-.22.14-.33.1-.3-.18z"/><path fill="#e6dacc" d="M25.53 37.56a5.71 5.71 0 0 0 2.18.44c.32 0 .6-.16.91-.15a2 2 0 0 1-1.8.7 3.91 3.91 0 0 1-.66-.12c-.55-.1-.64-.23-.63-.87z"/><path fill="#e5dacc" d="M29.27 37.85c.47.07.93.17 1.4.2a2.81 2.81 0 0 0 1.33-.36.86.86 0 0 1 .4-.13c0 .65 0 .64-.59.86a2.77 2.77 0 0 1-2.17-.22.57.57 0 0 1-.37-.35z"/><path fill="#fef8ee" d="M25.1 32.17l.43-.39a4.09 4.09 0 0 1 2.29-.78 8.93 8.93 0 0 1 3.38.2 3.06 3.06 0 0 1 1.24.61l.43.39a.73.73 0 0 1 .34.56 5.47 5.47 0 0 1-.06 1.92.57.57 0 0 1-.62.49 2.86 2.86 0 0 1-.72-.23 6.73 6.73 0 0 0-2.59-.62 6.89 6.89 0 0 0-2.9.53c-.2.05-.38.17-.58.24a.63.63 0 0 1-.85-.21 3.67 3.67 0 0 1-.15-.88 4.74 4.74 0 0 1 0-1.29.75.75 0 0 1 .36-.54z"/><path fill="#655d55" d="M33.07 34.69a11.29 11.29 0 0 0 .06-1.69 1.45 1.45 0 0 0-.27-.87c.08 0 .11 0 .14.06a.44.44 0 0 0 .69 0 8 8 0 0 1 1.21-.95.38.38 0 0 1 .4-.09.35.35 0 0 1 .06.43A9.82 9.82 0 0 1 34 34.76a1 1 0 0 1-.73.17c-.12-.03-.27-.04-.2-.24zm-7.97-2.52a1.9 1.9 0 0 0-.28 1.25v.6c0 .41 0 .5-.4.54a.71.71 0 0 1-.7-.16 10.72 10.72 0 0 1-1.13-2.78.35.35 0 0 1 .06-.43.41.41 0 0 1 .43.1A4.21 4.21 0 0 1 24 32a.7.7 0 0 0 1.1.17z"/><path fill="#b3a699" d="M33.07 34.69c.1.27.32.14.48.13s.3-.06.45-.06a1.31 1.31 0 0 1-.73.52 5.39 5.39 0 0 1-2.75 0 9.58 9.58 0 0 0-3.54.11 3 3 0 0 1-1.8-.12 2.74 2.74 0 0 0-.89-.27.45.45 0 0 1-.35-.28 1.79 1.79 0 0 1 1 .07.6.6 0 0 0 .79.15 2.16 2.16 0 0 0 1.13.07A13.43 13.43 0 0 1 29 34.8c.66 0 1.31.1 2 .2a3.83 3.83 0 0 0 1.52.07.54.54 0 0 0 .55-.38z"/><path fill="#80786f" d="M32.43 31.78a7.38 7.38 0 0 0-6.9 0 .72.72 0 0 1 .47-.38 8 8 0 0 1 5.92 0 .71.71 0 0 1 .51.38z"/><path fill="#82796f" d="M25 34.83a3.12 3.12 0 0 1-1-.07.87.87 0 0 1-.23-.35 1.46 1.46 0 0 0 .63.06.37.37 0 0 0 .42-.47 6.56 6.56 0 0 0 .18.83z"/><path fill="#797066" d="M26.25 34.77a6.46 6.46 0 0 1 3.3-.55 5.83 5.83 0 0 1 2.31.63c.07.2-.08.19-.19.19A5.1 5.1 0 0 1 31 35a8.78 8.78 0 0 0-3.79 0 1.67 1.67 0 0 1-.81 0c-.12 0-.34 0-.15-.23z"/><path fill="#988c81" d="M26.25 34.77c-.06.12 0 .13.11.14a2.55 2.55 0 0 0 1-.08 8.42 8.42 0 0 1 3.7 0 4.93 4.93 0 0 1 .71.08c.07 0 .09-.05.1-.12l.64.22a.48.48 0 0 1-.5.17 20 20 0 0 0-3.5-.32c-.54 0-1.08.17-1.61.25a2.53 2.53 0 0 1-1 0c-.09 0-.17 0-.1-.16z"/></g></svg>