<svg xmlns="http://www.w3.org/2000/svg" xmlns:xlink="http://www.w3.org/1999/xlink" viewBox="0 0 59.09 51.18"><defs><linearGradient id="b" x1="374.14" x2="418.46" y1="97.49" y2="123.07" gradientUnits="userSpaceOnUse"><stop offset="0" stop-color="#92a2a6"/><stop offset=".31" stop-color="#555e60"/><stop offset="1" stop-color="#020202"/></linearGradient><linearGradient id="a" x1="381.53" x2="411.07" y1="84.69" y2="135.87" gradientUnits="userSpaceOnUse"><stop offset="0" stop-color="#8b999d"/><stop offset=".48" stop-color="#555e60"/><stop offset="1" stop-color="#020202"/></linearGradient><linearGradient id="c" x1="14.04" x2="45.91" y1="9.89" y2="41.76" gradientUnits="userSpaceOnUse"><stop offset="0" stop-color="#657175"/><stop offset=".56" stop-color="#3d4345"/><stop offset="1" stop-color="#020202"/></linearGradient><linearGradient id="d" x1="372.7" x2="387.98" y1="78.46" y2="98.54" xlink:href="#a"/><linearGradient id="e" x1="5.95" x2="21.23" y1="-6.23" y2="13.85" xlink:href="#a"/><linearGradient id="f" x1="405.19" x2="420.76" y1="121.39" y2="141.62" xlink:href="#b"/><linearGradient id="g" x1="38.44" x2="54.01" y1="36.7" y2="56.93" xlink:href="#b"/><radialGradient id="h" cx="396.87" cy="110.42" r="13.95" gradientUnits="userSpaceOnUse"><stop offset="0" stop-color="#f5fbfd"/><stop offset=".09" stop-color="#f3fafd"/><stop offset=".13" stop-color="#ebf6fb"/><stop offset=".17" stop-color="#ddf0f9"/><stop offset=".2" stop-color="#cae7f6"/><stop offset=".23" stop-color="#b1dbf2"/><stop offset=".26" stop-color="#92cdec"/><stop offset=".28" stop-color="#78c1e8"/><stop offset=".37" stop-color="#7ac2e8"/><stop offset=".42" stop-color="#82c6ea"/><stop offset=".46" stop-color="#8fccec"/><stop offset=".5" stop-color="#a2d5ef"/><stop offset=".53" stop-color="#bbe0f3"/><stop offset=".55" stop-color="#d8eef8"/><stop offset=".57" stop-color="#f5fbfd"/><stop offset=".63" stop-color="#d8eef8"/><stop offset=".76" stop-color="#a1d5f0"/><stop offset=".86" stop-color="#78c2e9"/><stop offset=".95" stop-color="#5fb7e5"/><stop offset="1" stop-color="#56b3e4"/></radialGradient></defs><path fill="url(#b)" d="M411.07 84.69h-.25l-14.7 27.25 1.92 2.45 27.72-4 .08-.13zm-13.72 27.86l-15.72-27.86h-.1l-14.77 25.59.19.32 28.84.28-14.34 24.83.08.15h29.34l-13.52-23.41v.09z" transform="translate(-366.8 -84.7)"/><path fill="url(#a)" d="M381.52 84.69l-.12.22 15.33 26.33 4-.42 10.42-26-.08-.13h-29.55zm17.27 25.82l-32-.32-.05.09 14.77 25.59h.38L396.56 111l14.34 24.83h.17l14.67-25.41h-27z" transform="translate(-366.8 -84.7)"/><path fill="url(#c)" d="M18.31 46.02L6.65 25.82l11.66-20.2h23.33l11.66 20.2-11.66 20.2H18.31"/><path fill="url(#d)" d="M397.46 102.34c-5.2 0-9.42 3.88-9.42 8.66s4.22 8.66 9.42 8.66 9.41-3.88 9.41-8.66-4.21-8.66-9.41-8.66zm0 22c-8 0-14.52-6-14.52-13.36s6.5-13.36 14.52-13.36S412 103.63 412 111s-6.53 13.36-14.54 13.36z" transform="translate(-366.8 -84.7)"/><ellipse cx="30.7" cy="26.31" fill="url(#e)" rx="5.23" ry="4.81"/><path fill="url(#f)" d="M396.29 101.18c-5.2 0-9.42 3.88-9.42 8.66s4.22 8.66 9.42 8.66 9.41-3.88 9.41-8.66-4.21-8.66-9.41-8.66zm0 22c-8 0-14.52-6-14.52-13.35s6.5-13.36 14.52-13.36 14.52 6 14.52 13.36-6.5 13.36-14.52 13.36z" transform="translate(-366.8 -84.7)"/><ellipse cx="29.54" cy="25.15" fill="url(#g)" rx="5.23" ry="4.81"/><path fill="url(#h)" stroke="#010101" stroke-width=".77" d="M396.88 97.06c-8 0-14.52 6-14.52 13.36s6.5 13.35 14.52 13.35 14.51-6 14.51-13.35-6.5-13.36-14.51-13.36zm0 22c-5.2 0-9.42-3.88-9.42-8.66s4.21-8.66 9.42-8.66 9.41 3.88 9.41 8.66-4.22 8.68-9.41 8.68zm0-13.47a4.82 4.82 0 1 0 5.22 4.81 5 5 0 0 0-5.22-4.79z" transform="translate(-366.8 -84.7)"/></svg>