<svg xmlns="http://www.w3.org/2000/svg" xmlns:xlink="http://www.w3.org/1999/xlink" viewBox="0 0 58.05 57.99"><defs><linearGradient id="a" x1="508.33" x2="533.69" y1="315.56" y2="356.97" gradientTransform="translate(-101.8 -576.51) rotate(45)" gradientUnits="userSpaceOnUse"><stop offset="0" stop-color="#dce0df"/><stop offset="0.47" stop-color="#9facb3"/><stop offset="1" stop-color="#51595d"/></linearGradient><linearGradient id="b" x1="292.06" x2="348.94" y1="523.21" y2="554.91" gradientTransform="matrix(1, 0, 0, 1, 0, 0)" xlink:href="#a"/><linearGradient id="c" x1="23.02" x2="39.62" y1="12.14" y2="58.34" gradientTransform="matrix(1, 0, 0, 1, 0, 0)" xlink:href="#a"/><linearGradient id="d" x1="312.09" x2="348.79" y1="526.3" y2="579.76" gradientTransform="matrix(1, 0, 0, 1, 0, 0)" xlink:href="#a"/><linearGradient id="e" x1="307.75" x2="334.75" y1="538.33" y2="538.33" gradientUnits="userSpaceOnUse"><stop offset="0" stop-color="#fff"/><stop offset="0.39" stop-color="#48a3da"/><stop offset="1" stop-color="#404ca0"/></linearGradient><linearGradient id="f" x1="307.25" x2="334.25" y1="538.33" y2="538.33" gradientUnits="userSpaceOnUse"><stop offset="0" stop-color="#077e74"/><stop offset="0.32" stop-color="#84d1e1"/><stop offset="0.67" stop-color="#39a1a3"/><stop offset="0.99" stop-color="#077e74"/></linearGradient><linearGradient id="g" x1="313.83" x2="327.81" y1="538.04" y2="538.04" gradientUnits="userSpaceOnUse"><stop offset="0.32" stop-color="#84d1e1"/><stop offset="0.67" stop-color="#39a1a3"/></linearGradient></defs><path fill="url(#a)" d="M44.98 22.38l-5.91-3.53-3.45-5.83L29 0l-6.62 13.02-3.51 6.15-5.85 3.21L0 29l13.02 6.62 5.97 3.63 3.39 5.73L29 57.99l6.62-13.01 3.53-5.45 5.83-3.91L57.99 29l-13.01-6.62"/><path fill="url(#b)" d="M322.37 542.64c1.92 4.68 6.76 4.68 1.24-.84a3.7 3.7 0 0 0 .78-1.18c4.68 1.93 9.71 6.78 9.71 6.78l15.79-8.17s-17.42-.12-25.23-.09a3.67 3.67 0 0 0-.29-1.38c4.67-2 4.63-6.8-.85-1.23a3.68 3.68 0 0 0-1.17-.76c1.92-4.68 6.81-9.54 6.81-9.54l-8.27-16s-.06 17.42 0 25.23a3.7 3.7 0 0 0-1.36.29c-1.94-4.67-6.78-4.65-1.24.85a3.72 3.72 0 0 0-.77 1.18c-4.68-1.92-9.76-6.71-9.76-6.71L292 539.31h25.23a3.64 3.64 0 0 0 .28 1.35c-4.68 1.94-4.66 6.77.85 1.24a3.69 3.69 0 0 0 1.14.75c-2 4.66-6.65 10-6.65 10l7.82 15.56s.27-17.42.31-25.23a3.67 3.67 0 0 0 1.39-.34z" transform="translate(-291.84 -510.19)"/><circle cx="29.06" cy="28.95" r="15.05" fill="url(#c)"/><path fill="url(#d)" d="M336.75 539.14a15.85 15.85 0 1 1-15.85-15.85 15.85 15.85 0 0 1 15.85 15.85zm-15.85-14.43a14.43 14.43 0 1 0 14.43 14.43 14.43 14.43 0 0 0-14.43-14.43z" transform="translate(-291.84 -510.19)"/><path fill="#fff" d="M19.16 27.2l-4.26.92 4.22 1.43zm6.15-7.87l-2.63-3.47.49 4.43zm-3.05 1.8l-3.74-2.23 2.11 3.92zm-2 2.53l-4.28-.82 3.33 3zm7.9-9l-1.35 4.24h2.35zm4.77.76l-2.45 3.61 2.19.84zm4.36 10.08l3.38-2.9-4.3.74zm.36 3.85l4.27-1.28L37.69 27zm-.12-11.13l-3.66 2.36 1.69 1.63zm-2.15 10.8l-.81-.72.09-4-1-.9s-.72-2.44-1.17-2.62a28.06 28.06 0 0 0-4.24-.72s-3.61.18-4 1-1.17 2.17-1.17 2.17l-1 .72v4.37l-.67.75.06 2.2 5.1 5.05h3.33l5.29-5.14zm-1.71-.44l-2 2.75-2.08.92h-2.83l-2-.67-1.92-3.17v-1.6l1.08-1.33h8.92l.83 1.33v1.75zm.65 6.74l4 2-2.36-3.66zm-3.16 1.66l3 3.33-.82-4.28zm5.24-4.14l4.43.49-3.47-2.64zm-16.9-1.79l-3.52 2.57 4.43-.41zm4.26 9.76l2.79-3.48-2.19-.84zm-4.6-2.8l3.92-2.11-1.69-1.63zm9.54 3.64l1-4.24h-2.35z" opacity="0.49"/><path fill="url(#e)" d="M312 537.39l-4.26.92 4.22 1.43zm6.15-7.87l-2.63-3.47.49 4.43zm-3.05 1.8l-3.74-2.23 2.11 3.92zm-2 2.53l-4.28-.82 3.33 3zm7.9-9l-1.35 4.24H322zm4.77.76l-2.45 3.61 2.19.84zm4.36 10.08l3.38-2.9-4.3.74zm.36 3.85l4.27-1.28-4.23-1.07zm-.12-11.13l-3.66 2.36 1.69 1.63zm-2.15 10.8l-.81-.72.09-4-1-.9s-.72-2.44-1.17-2.62a28.06 28.06 0 0 0-4.24-.72s-3.61.18-4 1-1.17 2.17-1.17 2.17l-1 .72v4.37l-.67.75.06 2.2 5.1 5.05h3.33l5.29-5.14zm-1.71-.44l-2 2.75-2.08.92h-2.83l-2-.67-1.92-3.17V537l1.08-1.33h8.92l.83 1.33v1.75zm.65 6.74l4 2-2.36-3.66zm-3.16 1.66l3 3.33-.82-4.28zm5.24-4.14l4.43.49-3.47-2.64zm-16.9-1.79l-3.52 2.57 4.43-.41zm4.26 9.76l2.79-3.48-2.19-.84zm-4.6-2.8l3.92-2.11-1.69-1.63zm9.54 3.64l1-4.24h-2.35z" transform="translate(-291.84 -510.19)" opacity="0.58"/><path fill="url(#f)" d="M311.51 537.39l-4.26.92 4.22 1.43zm6.15-7.87l-2.66-3.47.49 4.43zm-3.05 1.8l-3.74-2.23L313 533zm-2 2.53l-4.28-.82 3.33 3zm7.9-9l-1.35 4.24h2.35zm4.77.76l-2.45 3.61 2.17.78zm4.36 10.08l3.38-2.9-4.3.74zm.36 3.85l4.27-1.28-4.27-1.09zm-.12-11.13l-3.66 2.36 1.69 1.63zm-2.15 10.8l-.81-.72.09-4-1-.9s-.72-2.44-1.17-2.62a28.06 28.06 0 0 0-4.24-.72s-3.61.18-4 1-1.17 2.17-1.17 2.17l-1 .72v4.37l-.67.75.06 2.2 5.1 5.05h3.33l5.29-5.14zm-1.71-.44l-2 2.75-2.08.92h-2.84l-2-.67-1.92-3.17V537l1.08-1.33h8.92L326 537v1.75zm.65 6.74l4 2-2.36-3.66zm-3.13 1.69l3 3.33-.82-4.28zm5.24-4.14l4.43.49-3.47-2.64zm-16.9-1.79l-3.52 2.57 4.43-.41zm4.22 9.73l2.79-3.48-2.19-.84zm-4.6-2.8l3.92-2.11-1.69-1.63zm9.54 3.64l1-4.24h-2.35z" transform="translate(-291.84 -510.19)"/><path fill="url(#g)" stroke="#010101" stroke-width="0.25" d="M327.81 538.86l-.81-.72.09-4-1-.9s-.72-2.44-1.17-2.62a28.06 28.06 0 0 0-4.24-.72s-3.61.18-4 1-1.17 2.17-1.17 2.17l-1 .72v4.37l-.67.75.06 2.2 5.1 5.05h3.33l5.29-5.14zm-1.71-.44l-2 2.75-2.08.92h-2.83l-2-.67-1.92-3.17v-1.58l1.08-1.33h8.92l.83 1.33v1.75z" transform="translate(-291.84 -510.19)"/></svg>