<svg xmlns="http://www.w3.org/2000/svg" xmlns:xlink="http://www.w3.org/1999/xlink" viewBox="0 0 60.39 60.38"><defs><linearGradient id="a" x1="29.88" x2="29.88" y1="3.43" y2="58.4" gradientUnits="userSpaceOnUse"><stop offset="0" stop-color="#fff"/><stop offset="0.39" stop-color="#baced6"/><stop offset="1" stop-color="#749dc7"/></linearGradient><linearGradient id="b" x1="166.22" x2="193.5" y1="437.71" y2="509.63" gradientUnits="userSpaceOnUse"><stop offset="0" stop-color="#e3af24"/><stop offset="1" stop-color="#c67a29"/></linearGradient><linearGradient id="c" x1="165.6" x2="192.88" y1="437.09" y2="509.01" gradientUnits="userSpaceOnUse"><stop offset="0" stop-color="#fff"/><stop offset="0.39" stop-color="#ffe300"/><stop offset="1" stop-color="#c67a29"/></linearGradient><linearGradient id="d" x1="160.33" x2="195.55" y1="449.87" y2="485.09" xlink:href="#a"/><linearGradient id="e" x1="151.58" x2="201.42" y1="466.5" y2="466.5" xlink:href="#a"/><linearGradient id="f" x1="159.83" x2="195.05" y1="449.29" y2="484.51" gradientUnits="userSpaceOnUse"><stop offset="0" stop-color="#319e48"/><stop offset="0.5" stop-color="#1b6433"/><stop offset="0.58" stop-color="#1b5d2f"/><stop offset="1" stop-color="#1a3b1d"/></linearGradient><linearGradient id="g" x1="167.73" x2="186.66" y1="467.99" y2="467.99" gradientUnits="userSpaceOnUse"><stop offset="0" stop-color="#fff"/><stop offset="1" stop-color="#bdbdbd"/></linearGradient><linearGradient id="h" x1="26.73" x2="33.55" y1="30.91" y2="30.91" gradientUnits="userSpaceOnUse"><stop offset="0" stop-color="#ee3d3c"/><stop offset="1" stop-color="#ba2f2d"/></linearGradient></defs><g style="isolation:isolate"><path fill="url(#a)" d="M18.02 58.52L1.24 41.75V18.02L18.02 1.24h23.73l16.78 16.78v23.73L41.75 58.52H18.02"/><path fill="url(#b)" d="M189.42 437.7h-24.24l-17.51 17.51V480l17.51 17.51h24.75L207.44 480v-24.79l-17.51-17.51h-.51zm-.51 2.48L205 456.23v22.7L188.9 495h-22.7l-16.05-16v-22.7l16.05-16.05h22.7z" transform="translate(-147.1 -437.1)" style="mix-blend-mode:multiply"/><path fill="url(#c)" d="M188.8 437.08h-24.25L147 454.59v24.75l17.5 17.5h24.76l17.51-17.5v-24.75l-17.51-17.51h-.46zm-.51 2.48l16.05 16v22.7l-16.05 16h-22.7l-16.05-16v-22.7l16.05-16h22.7z" transform="translate(-147.1 -437.1)"/><path fill="none" stroke="#fff" stroke-width="0.77" d="M18.53 57.28h22.7l16.05-16.05v-22.7" opacity="0.43"/><path fill="url(#d)" d="M190.87 469.08l-1.5-1.33.17-7.33-1.83-1.67s-1.33-4.5-2.17-4.83a51.32 51.32 0 0 0-7.83-1.33s-6.67.33-7.33 1.83-2.17 4-2.17 4l-1.83 1.33-.17 7.5-1.17 1.5.17 4.5 9.83 9h6l9.5-9.17zM163 459.23l-7.9-1.51 6.14 5.47zm3.7-4.66l-6.91-4.12 3.9 7.24zm10.87-12l-2.5 7.83h4.33zm17.29 6.57l-6.76 4.36 3.12 3zm-8.52-5.14l-4.52 6.66 4 1.55zm8 18.6l6.23-5.36-7.93 1.37zm.66 7.1l7.88-2.36-7.8-2zm-22.75-18.45l-4.86-6.41.9 8.17zm16.63 29.45l7.37 3.64-4.36-6.76zm-5.78 3.12l5.47 6.14-1.51-7.9zm-4.61 8.6l1.83-7.83H176zm14.28-16.24l8.17.9-6.41-4.86zm-31.88 9.52l7.24-3.89-3.12-3zm.7-12.82l-6.49 4.75 8.19-.76zm7.78 18l5.14-6.41-4-1.55zm-8.48-25.09l-7.86 1.7 7.79 2.64z" transform="translate(-147.1 -437.1)" style="mix-blend-mode:multiply"/><path fill="url(#e)" d="M189.37 468.08l-1.5-1.33.17-7.33-1.83-1.67s-1.33-4.5-2.17-4.83a51.32 51.32 0 0 0-7.83-1.33s-6.67.33-7.33 1.83-2.17 4-2.17 4l-1.83 1.33-.17 7.5-1.17 1.5.17 4.5 9.83 9h6l9.5-9.17zm-27.91-9.85l-7.9-1.51 6.14 5.47zm3.7-4.66l-6.91-4.12 3.9 7.24zm10.87-12l-2.5 7.83h4.33zm17.29 6.57l-6.76 4.36 3.12 3zm-8.48-5.14l-4.52 6.66 4 1.55zm8 18.6l6.23-5.36-7.93 1.37zm.66 7.11l7.88-2.36-7.8-2zm-22.75-18.45l-4.86-6.41.9 8.17zm16.63 29.45l7.37 3.64-4.36-6.76zm-5.78 3.12l5.47 6.14-1.51-7.9zm-4.61 8.6l1.83-7.83h-4.33zm14.28-16.24l8.17.9-6.41-4.86zm-31.88 9.52l7.24-3.89-3.12-3zm.7-12.82l-6.49 4.75 8.19-.76zm7.78 18l5.14-6.41-4-1.55zm-8.48-25.09l-7.86 1.7 7.79 2.64z" transform="translate(-147.1 -437.1)"/><path fill="url(#f)" d="M190.37 468.5l-1.5-1.33.17-7.33-1.83-1.67s-1.33-4.5-2.17-4.83a51.29 51.29 0 0 0-7.84-1.34s-6.67.33-7.33 1.83-2.17 4-2.17 4l-1.83 1.33-.17 7.5-1.17 1.5.17 4.5 9.83 9h6l9.5-9.17zm-27.91-9.85l-7.9-1.51 6.14 5.47zm3.7-4.66l-6.91-4.12 3.9 7.24zM177 442l-2.5 7.83h4.33zm17.29 6.57l-6.76 4.36 3.12 3zm-8.49-5.17l-4.52 6.66 4 1.55zm8 18.6l6.23-5.36-7.84 1.36zm.66 7.11l7.88-2.36-7.8-2zm-22.75-18.45l-4.86-6.41.9 8.17zm16.63 29.45l7.37 3.64-4.28-6.75zm-5.78 3.12l5.47 6.14-1.51-7.9zm-4.61 8.6l1.83-7.83h-4.33zm14.28-16.25l8.17.9-6.41-4.86zm-31.88 9.52l7.24-3.9-3.12-3zm.7-12.82l-6.41 4.72 8.19-.76zm7.78 18l5.14-6.41-4-1.55zm-8.48-25.09l-7.86 1.7 7.79 2.64z" transform="translate(-147.1 -437.1)"/><path fill="url(#g)" d="M177.19 462.34a5.67 5.67 0 1 0 6.13 5.65 5.9 5.9 0 0 0-6.13-5.65zm0 14.35c-5.23 0-9.46-3.9-9.46-8.7s4.23-8.71 9.46-8.71 9.46 3.9 9.46 8.71-4.23 8.7-9.46 8.7z" transform="translate(-147.1 -437.1)"/><ellipse cx="30.14" cy="30.91" fill="url(#h)" rx="3.41" ry="3.13"/></g></svg>