<svg xmlns="http://www.w3.org/2000/svg" xmlns:xlink="http://www.w3.org/1999/xlink" viewBox="0 0 60.53 60.53"><defs><linearGradient id="c" x1="521.69" x2="553.44" y1="227.16" y2="276.48" gradientUnits="userSpaceOnUse"><stop offset="0" stop-color="#fac6c6"/><stop offset="0.39" stop-color="#ef7e7e"/><stop offset="1" stop-color="#ee6867"/></linearGradient><linearGradient id="a" x1="39.35" x2="16.06" y1="67.43" y2="-27.85" gradientUnits="userSpaceOnUse"><stop offset="0" stop-color="#fabfc0"/><stop offset="0.48" stop-color="#ed6c6c"/><stop offset="1" stop-color="#ec5f5f"/></linearGradient><linearGradient id="d" x1="27.66" x2="35.47" y1="19.25" y2="48.42" xlink:href="#a"/><linearGradient id="b" x1="28.09" x2="34.46" y1="21.18" y2="44.96" gradientUnits="userSpaceOnUse"><stop offset="0" stop-color="#e8cfe0"/><stop offset="0.39" stop-color="#fce2ed"/><stop offset="1" stop-color="#fceff6"/></linearGradient><linearGradient id="e" x1="35.19" x2="43.01" y1="3.49" y2="32.66" xlink:href="#a"/><linearGradient id="f" x1="35.63" x2="41.99" y1="5.42" y2="29.2" xlink:href="#b"/><linearGradient id="g" x1="21.2" x2="29.02" y1="3.49" y2="32.66" xlink:href="#a"/><linearGradient id="h" x1="21.63" x2="28" y1="5.42" y2="29.2" xlink:href="#b"/><linearGradient id="i" x1="20.12" x2="27.94" y1="35.01" y2="64.18" xlink:href="#a"/><linearGradient id="j" x1="20.55" x2="26.92" y1="36.94" y2="60.72" xlink:href="#b"/><linearGradient id="k" x1="35.19" x2="43.01" y1="35.01" y2="64.18" xlink:href="#a"/><linearGradient id="l" x1="35.63" x2="41.99" y1="36.94" y2="60.72" xlink:href="#b"/><linearGradient id="m" x1="43.42" x2="51.23" y1="13.08" y2="42.26" xlink:href="#a"/><linearGradient id="n" x1="43.85" x2="50.22" y1="15.01" y2="38.79" xlink:href="#b"/><linearGradient id="o" x1="43.42" x2="51.23" y1="25.42" y2="54.59" xlink:href="#a"/><linearGradient id="p" x1="43.85" x2="50.22" y1="27.35" y2="51.12" xlink:href="#b"/><linearGradient id="q" x1="12.58" x2="20.4" y1="13.08" y2="42.26" xlink:href="#a"/><linearGradient id="r" x1="13.02" x2="19.38" y1="15.01" y2="38.79" xlink:href="#b"/><linearGradient id="s" x1="12.58" x2="20.4" y1="25.42" y2="54.59" xlink:href="#a"/><linearGradient id="t" x1="13.02" x2="19.38" y1="27.35" y2="51.12" xlink:href="#b"/></defs><path fill="url(#c)" d="M507.23 251.72a30.27 30.27 0 1 0 30.27-30.27 30.3 30.3 0 0 0-30.27 30.27zm.92 0a29.35 29.35 0 1 1 29.35 29.35 29.38 29.38 0 0 1-29.35-29.35z" transform="translate(-507.2 -221.4)"/><circle cx="30.27" cy="30.27" r="29.38" fill="url(#a)"/><path fill="#fafdff" d="M30.37 56.77a1.55 1.55 0 0 1 1.46-1.62h.36a1.55 1.55 0 0 1 1.65 1.44 1.55 1.55 0 0 1-1.44 1.64h-.49a1.55 1.55 0 0 1-1.54-1.46zm-4.89 1l-.4-.08a1.54 1.54 0 0 1-1.21-1.82 1.54 1.54 0 0 1 1.82-1.21l.36.07a1.55 1.55 0 0 1 1.24 1.8 1.55 1.55 0 0 1-1.52 1.27h-.28zm11.4-1.81a1.54 1.54 0 0 1 1-1.93l.35-.11a1.54 1.54 0 0 1 1.95 1 1.54 1.54 0 0 1-1 2l-.39.12a1.56 1.56 0 0 1-.46.07 1.55 1.55 0 0 1-1.47-1.08zm-18-.29l-.37-.18a1.55 1.55 0 0 1-.72-2.06 1.55 1.55 0 0 1 2.06-.72l.33.16a1.55 1.55 0 0 1 .75 2.05 1.55 1.55 0 0 1-1.4.89 1.54 1.54 0 0 1-.65-.14zm24.13-2.08a1.55 1.55 0 0 1 .5-2.13l.31-.19a1.54 1.54 0 0 1 2.13.47 1.55 1.55 0 0 1-.47 2.13l-.34.22a1.55 1.55 0 0 1-.81.23 1.54 1.54 0 0 1-1.31-.73zm-30-1.6l-.32-.26a1.54 1.54 0 0 1-.19-2.18 1.54 1.54 0 0 1 2.18-.19l.28.23a1.54 1.54 0 0 1 .22 2.17 1.55 1.55 0 0 1-1.2.57 1.54 1.54 0 0 1-1-.35zm35.34-2.21a1.54 1.54 0 0 1 0-2.18l.25-.26a1.55 1.55 0 0 1 2.18-.07 1.54 1.54 0 0 1 .07 2.18l-.28.3a1.54 1.54 0 0 1-1.11.47 1.54 1.54 0 0 1-1.07-.43zM8.23 46.97l-.24-.33a1.55 1.55 0 0 1 .36-2.16 1.55 1.55 0 0 1 2.16.36l.21.29a1.55 1.55 0 0 1-.32 2.16 1.54 1.54 0 0 1-.92.3 1.54 1.54 0 0 1-1.24-.63zm44.35-2.21a1.55 1.55 0 0 1-.58-2.11l.18-.32a1.55 1.55 0 0 1 2.1-.61 1.55 1.55 0 0 1 .61 2.1l-.2.36a1.55 1.55 0 0 1-1.35.78 1.54 1.54 0 0 1-.76-.2zm-47.81-3.8l-.1-.41a1.54 1.54 0 0 1 .88-2 1.54 1.54 0 0 1 2 .88l.13.34a1.54 1.54 0 0 1-.85 2 1.53 1.53 0 0 1-.58.11 1.55 1.55 0 0 1-1.43-1zm50.59-2.07a1.54 1.54 0 0 1-1.09-1.9l.09-.35a1.54 1.54 0 0 1 1.88-1.11 1.54 1.54 0 0 1 1.12 1.88c0 .13-.07.27-.1.4a1.54 1.54 0 0 1-1.49 1.14 1.55 1.55 0 0 1-.41-.05zM2.98 34.26c0-.13 0-.27-.05-.4a1.55 1.55 0 0 1 1.35-1.72A1.55 1.55 0 0 1 6 33.49v.36a1.54 1.54 0 0 1-1.23 1.7h-.21a1.55 1.55 0 0 1-1.53-1.34zm53.67-1.8a1.55 1.55 0 0 1-1.53-1.57v-.83a1.55 1.55 0 0 1 1.52-1.57 1.55 1.55 0 0 1 1.58 1.52v.94a1.55 1.55 0 0 1-1.55 1.52zM4.28 29.04a1.54 1.54 0 0 1-1.36-1.71v-.41a1.54 1.54 0 0 1 1.85-1.37 1.54 1.54 0 0 1 1.33 1.73v.36a1.55 1.55 0 0 1-1.53 1.37h-.18zm50.06-4.73l-.09-.35a1.54 1.54 0 0 1 1.08-1.9 1.55 1.55 0 0 1 1.9 1.08l.11.39a1.55 1.55 0 0 1-1.11 1.89 1.54 1.54 0 0 1-.39 0 1.54 1.54 0 0 1-1.5-1.16zM5.51 22.55a1.55 1.55 0 0 1-.89-2l.15-.38a1.54 1.54 0 0 1 2-.86 1.55 1.55 0 0 1 .86 2l-.13.34a1.55 1.55 0 0 1-1.45 1 1.54 1.54 0 0 1-.55-.1zm46.59-4l-.18-.32a1.54 1.54 0 0 1 .57-2.11 1.55 1.55 0 0 1 2.11.57l.2.36a1.55 1.55 0 0 1-.6 2.1 1.53 1.53 0 0 1-.75.19 1.55 1.55 0 0 1-1.35-.8zm-43.84-2a1.55 1.55 0 0 1-.36-2.16l.24-.33a1.54 1.54 0 0 1 2.16-.33 1.54 1.54 0 0 1 .33 2.16l-.21.29a1.54 1.54 0 0 1-1.26.65 1.53 1.53 0 0 1-.89-.29zm40.2-3l-.25-.26a1.54 1.54 0 0 1 0-2.18 1.54 1.54 0 0 1 2.18 0l.28.3a1.55 1.55 0 0 1-.07 2.18 1.54 1.54 0 0 1-1.06.42 1.55 1.55 0 0 1-1.12-.48zm-36.05-2a1.55 1.55 0 0 1 .18-2.18l.31-.26a1.54 1.54 0 0 1 2.18.21 1.54 1.54 0 0 1-.21 2.17l-.28.23a1.54 1.54 0 0 1-1 .37 1.54 1.54 0 0 1-1.18-.55zm31.3-1.85l-.31-.19a1.55 1.55 0 0 1-.51-2.12 1.54 1.54 0 0 1 2.13-.51l.35.22a1.54 1.54 0 0 1 .48 2.13 1.55 1.55 0 0 1-1.31.72 1.53 1.53 0 0 1-.82-.24zm-26-2.05a1.54 1.54 0 0 1 .71-2.07l.37-.18a1.55 1.55 0 0 1 2.05.74 1.54 1.54 0 0 1-.74 2.05l-.33.16a1.54 1.54 0 0 1-.68.16 1.54 1.54 0 0 1-1.39-.87zm20.46-.57l-.35-.11a1.54 1.54 0 0 1-1-1.93 1.54 1.54 0 0 1 1.93-1l.39.12a1.55 1.55 0 0 1 1 1.95 1.54 1.54 0 0 1-1.47 1.07 1.55 1.55 0 0 1-.48-.08zm-14.4-1.91a1.54 1.54 0 0 1 1.21-1.82l.4-.08a1.54 1.54 0 0 1 1.8 1.23 1.55 1.55 0 0 1-1.23 1.81l-.36.07a1.56 1.56 0 0 1-.31 0 1.55 1.55 0 0 1-1.51-1.24zm8.33.76h-.36a1.55 1.55 0 0 1-1.47-1.62 1.54 1.54 0 0 1 1.62-1.47h.41a1.55 1.55 0 0 1 1.45 1.64 1.55 1.55 0 0 1-1.54 1.45h-.09z" opacity="0.36"/><path fill="url(#d)" d="M29.99 22.37l1.82 5.58h5.87l-4.75 3.46L34.74 37l-4.75-3.46L25.23 37l1.82-5.59-4.75-3.46h5.87l1.82-5.58"/><path fill="url(#b)" stroke="#000" stroke-width="0.5" d="M29.99 23.72l1.48 4.55h4.79l-3.88 2.82 1.48 4.56-3.87-2.82-3.88 2.82 1.49-4.56-3.88-2.82h4.79l1.48-4.55z"/><path fill="url(#e)" d="M37.53 6.61l1.81 5.59h5.88l-4.75 3.45 1.81 5.59-4.75-3.45-4.76 3.45 1.82-5.59-4.76-3.45h5.88l1.82-5.59"/><path fill="url(#f)" stroke="#000" stroke-width="0.5" d="M37.53 7.96l1.48 4.56h4.79l-3.88 2.81 1.48 4.56-3.87-2.82-3.88 2.82 1.48-4.56-3.87-2.81h4.79l1.48-4.56z"/><path fill="url(#g)" d="M23.54 6.61l1.81 5.59h5.88l-4.76 3.45 1.82 5.59-4.75-3.45-4.76 3.45 1.82-5.59-4.76-3.45h5.88l1.82-5.59"/><path fill="url(#h)" stroke="#000" stroke-width="0.5" d="M23.54 7.96l1.48 4.56h4.78l-3.87 2.81 1.48 4.56-3.87-2.82-3.88 2.82 1.48-4.56-3.88-2.81h4.79l1.49-4.56z"/><path fill="url(#i)" d="M22.45 38.13l1.82 5.59h5.87l-4.75 3.45 1.82 5.59-4.76-3.46-4.75 3.46 1.82-5.59-4.76-3.45h5.88l1.81-5.59"/><path fill="url(#j)" stroke="#000" stroke-width="0.5" d="M22.45 39.48l1.48 4.55h4.79l-3.87 2.82 1.48 4.56-3.88-2.82-3.87 2.82 1.48-4.56-3.88-2.82h4.79l1.48-4.55z"/><path fill="url(#k)" d="M37.53 38.13l1.81 5.59h5.88l-4.75 3.45 1.81 5.59-4.75-3.46-4.76 3.46 1.82-5.59-4.76-3.45h5.88l1.82-5.59"/><path fill="url(#l)" stroke="#000" stroke-width="0.5" d="M37.53 39.48l1.48 4.55h4.79l-3.88 2.82 1.48 4.56-3.87-2.82-3.88 2.82 1.48-4.56-3.87-2.82h4.79l1.48-4.55z"/><path fill="url(#m)" d="M45.75 16.2l1.81 5.59h5.88l-4.75 3.45 1.81 5.59-4.75-3.45-4.76 3.45 1.82-5.59-4.75-3.45h5.87l1.82-5.59"/><path fill="url(#n)" stroke="#000" stroke-width="0.5" d="M45.75 17.55l1.48 4.56h4.79l-3.87 2.81 1.47 4.56-3.87-2.82-3.88 2.82 1.48-4.56-3.87-2.81h4.79l1.48-4.56z"/><path fill="url(#o)" d="M45.75 28.53l1.81 5.59h5.88l-4.75 3.46 1.81 5.58-4.75-3.45-4.76 3.45 1.82-5.58-4.75-3.46h5.87l1.82-5.59"/><path fill="url(#p)" stroke="#000" stroke-width="0.5" d="M45.75 29.89l1.48 4.55h4.79l-3.87 2.82 1.47 4.55L45.75 39l-3.88 2.81 1.48-4.55-3.87-2.82h4.79l1.48-4.55z"/><path fill="url(#q)" d="M14.92 16.2l1.81 5.59h5.88l-4.76 3.45 1.82 5.59-4.75-3.45-4.76 3.45 1.82-5.59-4.76-3.45h5.88l1.82-5.59"/><path fill="url(#r)" stroke="#000" stroke-width="0.5" d="M14.92 17.55l1.48 4.56h4.79l-3.88 2.81 1.48 4.56-3.87-2.82-3.88 2.82 1.48-4.56-3.87-2.81h4.79l1.48-4.56z"/><path fill="url(#s)" d="M14.92 28.53l1.81 5.59h5.88l-4.76 3.46 1.82 5.58-4.75-3.45-4.76 3.45 1.82-5.58-4.76-3.46h5.88l1.82-5.59"/><path fill="url(#t)" stroke="#000" stroke-width="0.5" d="M14.92 29.89l1.48 4.55h4.79l-3.88 2.82 1.48 4.55L14.92 39l-3.88 2.81 1.48-4.55-3.87-2.82h4.79l1.48-4.55z"/></svg>