<svg xmlns="http://www.w3.org/2000/svg" xmlns:xlink="http://www.w3.org/1999/xlink" viewBox="0 0 60.53 60.53"><defs><linearGradient id="a" x1="39.54" x2="15.76" y1="68.21" y2="-29.07" gradientUnits="userSpaceOnUse"><stop offset="0" stop-color="#fff"/><stop offset="0.39" stop-color="#ffe300"/><stop offset="1" stop-color="#c67a29"/></linearGradient><linearGradient id="c" x1="304.98" x2="336.74" y1="227.49" y2="276.8" xlink:href="#a"/><linearGradient id="d" x1="304.82" x2="319.14" y1="254.7" y2="282.67" xlink:href="#a"/><linearGradient id="b" x1="58.33" x2="67.53" y1="221.41" y2="255.78" gradientTransform="translate(-44.2 -200.4)" gradientUnits="userSpaceOnUse"><stop offset="0" stop-color="#e39e4f"/><stop offset="0.99" stop-color="#8f4f21"/></linearGradient><linearGradient id="e" x1="317.54" x2="347.54" y1="249.63" y2="285.7" xlink:href="#a"/><linearGradient id="f" x1="78.61" x2="87.81" y1="216.67" y2="251.04" xlink:href="#b"/><linearGradient id="g" x1="54.02" x2="67.79" y1="216.15" y2="246.02" gradientTransform="translate(246.3 21.3)" xlink:href="#a"/><linearGradient id="h" x1="54.62" x2="63.83" y1="211.85" y2="246.22" xlink:href="#b"/><linearGradient id="i" x1="71.45" x2="85.23" y1="203.67" y2="233.54" gradientTransform="translate(246.3 21.3)" xlink:href="#a"/><linearGradient id="j" x1="72.06" x2="81.26" y1="199.37" y2="233.74" xlink:href="#b"/><linearGradient id="k" x1="71.45" x2="85.23" y1="221.51" y2="251.37" gradientTransform="translate(246.3 21.3)" xlink:href="#a"/><linearGradient id="l" x1="72.06" x2="81.26" y1="217.2" y2="251.57" xlink:href="#b"/><linearGradient id="m" x1="88.54" x2="102.32" y1="216.15" y2="246.02" gradientTransform="translate(246.3 21.3)" xlink:href="#a"/><linearGradient id="n" x1="89.15" x2="98.35" y1="211.85" y2="246.22" xlink:href="#b"/></defs><circle cx="30.27" cy="30.27" r="30" fill="url(#a)"/><path fill="#fffffb" d="M30.39 56.8a1.54 1.54 0 0 1 1.46-1.62h.36a1.54 1.54 0 0 1 1.64 1.44 1.54 1.54 0 0 1-1.38 1.61h-.5a1.54 1.54 0 0 1-1.54-1.46zm-4.89 1l-.4-.08a1.55 1.55 0 0 1-1.22-1.81 1.55 1.55 0 0 1 1.82-1.21l.36.07a1.55 1.55 0 0 1 1.24 1.8 1.54 1.54 0 0 1-1.52 1.27h-.28zm11.4-1.82a1.54 1.54 0 0 1 1-1.94l.35-.11a1.55 1.55 0 0 1 2 1 1.55 1.55 0 0 1-1 2l-.39.13a1.55 1.55 0 0 1-.46.07 1.55 1.55 0 0 1-1.48-1.08zm-18-.27l-.37-.17a1.54 1.54 0 0 1-.72-2.06 1.54 1.54 0 0 1 2.06-.72l.33.15a1.55 1.55 0 0 1 .75 2.05 1.55 1.55 0 0 1-1.4.9 1.54 1.54 0 0 1-.65-.14zm24.13-2.1a1.54 1.54 0 0 1 .5-2.13l.31-.19a1.54 1.54 0 0 1 2.13.47 1.54 1.54 0 0 1-.47 2.13l-.34.22a1.54 1.54 0 0 1-.81.23 1.55 1.55 0 0 1-1.31-.73zm-30-1.57l-.31-.26a1.55 1.55 0 0 1-.19-2.18 1.54 1.54 0 0 1 2.18-.19l.28.23a1.55 1.55 0 0 1 .22 2.17 1.54 1.54 0 0 1-1.2.57 1.54 1.54 0 0 1-1-.35zm35.34-2.24a1.55 1.55 0 0 1 0-2.19l.25-.26a1.54 1.54 0 0 1 2.18-.07 1.55 1.55 0 0 1 .07 2.18l-.28.3a1.54 1.54 0 0 1-1.12.47 1.54 1.54 0 0 1-1.07-.43zM8.24 47.03L8 46.7a1.55 1.55 0 0 1 .35-2.16 1.55 1.55 0 0 1 2.16.35l.21.29a1.55 1.55 0 0 1-.32 2.16 1.54 1.54 0 0 1-.92.3 1.54 1.54 0 0 1-1.24-.62zm44.35-2.25a1.54 1.54 0 0 1-.58-2.11l.18-.32a1.55 1.55 0 0 1 2.1-.61 1.54 1.54 0 0 1 .61 2.1l-.2.36a1.55 1.55 0 0 1-1.35.78 1.54 1.54 0 0 1-.76-.2zM4.83 40.99l-.15-.38a1.55 1.55 0 0 1 .88-2 1.55 1.55 0 0 1 2 .88l.14.34a1.54 1.54 0 0 1-.85 2 1.53 1.53 0 0 1-.58.11 1.55 1.55 0 0 1-1.43-1zm50.64-2.09a1.55 1.55 0 0 1-1.09-1.9l.09-.35a1.55 1.55 0 0 1 1.88-1.11 1.55 1.55 0 0 1 1.12 1.88l-.11.39a1.55 1.55 0 0 1-1.49 1.14 1.56 1.56 0 0 1-.4-.05zm-52.4-4.58c0-.13 0-.27-.05-.4a1.54 1.54 0 0 1 1.35-1.72 1.54 1.54 0 0 1 1.72 1.35v.36a1.55 1.55 0 0 1-1.32 1.74h-.21a1.54 1.54 0 0 1-1.53-1.34zm53.69-1.85a1.55 1.55 0 0 1-1.52-1.57v-.93a1.55 1.55 0 0 1 1.51-1.58 1.54 1.54 0 0 1 1.58 1.51v1.05a1.55 1.55 0 0 1-1.54 1.52zM4.35 29.1a1.54 1.54 0 0 1-1.36-1.71v-.41a1.54 1.54 0 0 1 1.73-1.33 1.54 1.54 0 0 1 1.34 1.73v.36a1.55 1.55 0 0 1-1.53 1.37h-.17zm50.03-4.87l-.1-.35a1.55 1.55 0 0 1 1.07-1.9 1.55 1.55 0 0 1 1.9 1.07l.11.39a1.54 1.54 0 0 1-1.1 1.89 1.54 1.54 0 0 1-.4.05 1.55 1.55 0 0 1-1.49-1.15zM5.47 22.64a1.55 1.55 0 0 1-.89-2l.15-.38a1.55 1.55 0 0 1 2-.86 1.55 1.55 0 0 1 .86 2l-.13.34a1.54 1.54 0 0 1-1.44 1 1.55 1.55 0 0 1-.55-.1zm46.6-4.12l-.18-.32a1.54 1.54 0 0 1 .56-2.11 1.55 1.55 0 0 1 2.11.56l.2.35a1.55 1.55 0 0 1-.6 2.1 1.54 1.54 0 0 1-.75.2 1.54 1.54 0 0 1-1.35-.79zM8.22 16.68a1.54 1.54 0 0 1-.37-2.15l.24-.33a1.54 1.54 0 0 1 2.16-.34 1.54 1.54 0 0 1 .34 2.16l-.21.29a1.55 1.55 0 0 1-1.27.65 1.54 1.54 0 0 1-.89-.28zm40.2-3.12l-.25-.26a1.54 1.54 0 0 1 0-2.18 1.54 1.54 0 0 1 2.18 0l.29.29a1.55 1.55 0 0 1-.06 2.19 1.54 1.54 0 0 1-1.06.42 1.54 1.54 0 0 1-1.12-.48zm-36.07-2a1.55 1.55 0 0 1 .17-2.18l.31-.26a1.54 1.54 0 0 1 2.18.2 1.55 1.55 0 0 1-.2 2.17l-.28.23a1.54 1.54 0 0 1-1 .37 1.54 1.54 0 0 1-1.18-.54zm31.3-1.94l-.31-.19a1.54 1.54 0 0 1-.51-2.12 1.54 1.54 0 0 1 2.12-.52l.35.22a1.55 1.55 0 0 1 .48 2.13 1.55 1.55 0 0 1-1.31.72 1.54 1.54 0 0 1-.82-.24zm-26-2a1.54 1.54 0 0 1 .7-2.07l.37-.18a1.54 1.54 0 0 1 2.06.74 1.55 1.55 0 0 1-.74 2.06l-.33.16a1.54 1.54 0 0 1-.68.16 1.54 1.54 0 0 1-1.39-.86zm20.46-.63l-.35-.11a1.54 1.54 0 0 1-1-1.93 1.54 1.54 0 0 1 1.93-1l.39.12a1.55 1.55 0 0 1 1 1.94 1.55 1.55 0 0 1-1.47 1.07 1.54 1.54 0 0 1-.47-.07zM23.68 5.23a1.54 1.54 0 0 1 1.2-1.82l.4-.08a1.54 1.54 0 0 1 1.81 1.23 1.55 1.55 0 0 1-1.23 1.81l-.36.07a1.57 1.57 0 0 1-.31 0 1.54 1.54 0 0 1-1.51-1.23zm8.33.73h-.36a1.55 1.55 0 0 1-1.48-1.61 1.55 1.55 0 0 1 1.61-1.47h.41a1.55 1.55 0 0 1 1.45 1.63 1.55 1.55 0 0 1-1.54 1.45h-.09z" opacity="0.36"/><path fill="url(#c)" d="M290.53 252a30.27 30.27 0 1 0 30.27-30.27A30.3 30.3 0 0 0 290.53 252zm.92 0a29.35 29.35 0 1 1 29.35 29.35A29.38 29.38 0 0 1 291.44 252z" transform="translate(-290.5 -221.8)"/><path fill="#010101" d="M19.63 35.01l2.14 6.58h6.92l-5.6 4.07 2.14 6.58-5.6-4.07-5.6 4.07 2.14-6.58-5.6-4.07h6.92l2.14-6.58" style="isolation:isolate"/><path fill="url(#d)" d="M309.64 256.61l-2 6.21h-8.21l6.64 4.83-2.54 7.81 6.64-4.82 6.64 4.82-2.54-7.81 6.64-4.83h-8.21l-2.54-7.82z" transform="translate(-290.5 -221.8)"/><path fill="url(#b)" stroke="#000" stroke-width="0.58" d="M19.63 35.01l2.14 6.58h6.92l-5.6 4.07 2.14 6.58-5.6-4.07-5.6 4.07 2.14-6.58-5.6-4.07h6.92l2.14-6.58z"/><path fill="#010101" d="M41.18 35.01l2.14 6.58h6.92l-5.6 4.07 2.14 6.58-5.6-4.07-5.6 4.07 2.14-6.58-5.6-4.07h6.92l2.14-6.58" style="isolation:isolate"/><path fill="url(#e)" d="M331.19 256.61l-2 6.21H321l6.64 4.83-2.54 7.81 6.64-4.83 6.64 4.83-2.54-7.81 6.64-4.83h-8.21l-2.56-7.82z" transform="translate(-290.5 -221.8)"/><path fill="url(#f)" stroke="#000" stroke-width="0.58" d="M41.18 35.01l2.14 6.58h6.92l-5.6 4.07 2.14 6.58-5.6-4.07-5.6 4.07 2.14-6.58-5.6-4.07h6.92l2.14-6.58z"/><path fill="#010101" d="M13.15 15.09l2.14 6.58h6.93l-5.6 4.07 2.14 6.58-5.61-4.07-5.6 4.07 2.14-6.58-5.6-4.07h6.93l2.13-6.58" style="isolation:isolate"/><path fill="url(#g)" d="M303.16 236.69l-2 6.21h-8.21l6.64 4.82-2.59 7.81 6.64-4.83 6.64 4.83-2.54-7.81 6.64-4.82h-8.21l-2.54-7.81z" transform="translate(-290.5 -221.8)"/><path fill="url(#h)" stroke="#000" stroke-width="0.58" d="M13.15 15.09l2.14 6.58h6.93l-5.6 4.07 2.14 6.58-5.61-4.07-5.6 4.07 2.14-6.58-5.6-4.07h6.93l2.13-6.58z"/><path fill="#010101" d="M30.59 2.6l2.14 6.59h6.92l-5.6 4.07 2.14 6.58-5.6-4.07-5.6 4.07 2.14-6.58-5.6-4.07h6.92l2.14-6.59" style="isolation:isolate"/><path fill="url(#i)" d="M320.6 224.21l-2 6.21h-8.21l6.64 4.82-2.55 7.76 6.64-4.82 6.64 4.82-2.54-7.81 6.64-4.82h-8.21l-2.54-7.81z" transform="translate(-290.5 -221.8)"/><path fill="url(#j)" stroke="#000" stroke-width="0.58" d="M30.59 2.6l2.14 6.59h6.92l-5.6 4.07 2.14 6.58-5.6-4.07-5.6 4.07 2.14-6.58-5.6-4.07h6.92l2.14-6.59z"/><path fill="#010101" d="M30.59 20.44l2.14 6.58h6.92l-5.6 4.07 2.14 6.59-5.6-4.07-5.6 4.07 2.14-6.59-5.6-4.07h6.92l2.14-6.58" style="isolation:isolate"/><path fill="url(#k)" d="M320.6 242l-2 6.21h-8.21l6.64 4.83-2.54 7.81 6.64-4.82 6.64 4.82-2.54-7.81 6.64-4.83h-8.21l-2.54-7.81z" transform="translate(-290.5 -221.8)"/><path fill="url(#l)" stroke="#000" stroke-width="0.58" d="M30.59 20.44l2.14 6.58h6.92l-5.6 4.07 2.14 6.59-5.6-4.07-5.6 4.07 2.14-6.59-5.6-4.07h6.92l2.14-6.58z"/><path fill="#010101" d="M47.68 15.09l2.14 6.58h6.92l-5.6 4.07 2.14 6.58-5.6-4.07-5.6 4.07 2.14-6.58-5.6-4.07h6.92l2.14-6.58" style="isolation:isolate"/><path fill="url(#m)" d="M337.69 236.69l-2 6.21h-8.21l6.64 4.82-2.54 7.81 6.64-4.83 6.64 4.83-2.54-7.81 6.68-4.82h-8.21l-2.54-7.81z" transform="translate(-290.5 -221.8)"/><path fill="url(#n)" stroke="#000" stroke-width="0.58" d="M47.68 15.09l2.14 6.58h6.92l-5.6 4.07 2.14 6.58-5.6-4.07-5.6 4.07 2.14-6.58-5.6-4.07h6.92l2.14-6.58z"/></svg>