<svg xmlns="http://www.w3.org/2000/svg" xmlns:xlink="http://www.w3.org/1999/xlink" viewBox="0 0 60.53 60.53"><defs><linearGradient id="a" x1="39.54" x2="15.76" y1="68.21" y2="-29.07" gradientUnits="userSpaceOnUse"><stop offset="0" stop-color="#fff"/><stop offset="0.39" stop-color="#baced6"/><stop offset="1" stop-color="#749dc7"/></linearGradient><linearGradient id="c" x1="235.96" x2="267.71" y1="226.11" y2="275.43" xlink:href="#a"/><linearGradient id="d" x1="258.58" x2="268.31" y1="229.68" y2="246.17" xlink:href="#a"/><linearGradient id="b" x1="348.18" x2="357.39" y1="-270.36" y2="-235.99" gradientTransform="rotate(180 197.5 -115.4)" gradientUnits="userSpaceOnUse"><stop offset="0" stop-color="#9783bd"/><stop offset="0.99" stop-color="#7a2675"/></linearGradient><linearGradient id="e" x1="236.4" x2="245.59" y1="228.67" y2="244.08" xlink:href="#a"/><linearGradient id="f" x1="368.46" x2="377.67" y1="-275.1" y2="-240.73" xlink:href="#b"/><linearGradient id="g" x1="263.54" x2="274.48" y1="246.86" y2="265.91" xlink:href="#a"/><linearGradient id="h" x1="344.48" x2="353.69" y1="-279.93" y2="-245.55" xlink:href="#b"/><linearGradient id="i" x1="244.51" x2="259.38" y1="258.54" y2="278.95" xlink:href="#a"/><linearGradient id="j" x1="361.91" x2="371.12" y1="-292.4" y2="-258.04" xlink:href="#b"/><linearGradient id="k" x1="228.19" x2="238.59" y1="244.17" y2="265.11" xlink:href="#a"/><linearGradient id="l" x1="379" x2="388.21" y1="-279.93" y2="-245.55" xlink:href="#b"/></defs><circle cx="30.27" cy="30.27" r="30" fill="url(#a)"/><path fill="#fafdff" d="M30.4 56.8a1.55 1.55 0 0 1 1.46-1.62h.36a1.54 1.54 0 0 1 1.64 1.44 1.54 1.54 0 0 1-1.44 1.64h-.49a1.55 1.55 0 0 1-1.54-1.46zm-4.88 1l-.4-.08a1.55 1.55 0 0 1-1.21-1.82 1.54 1.54 0 0 1 1.82-1.21l.36.07a1.55 1.55 0 0 1 1.24 1.8 1.55 1.55 0 0 1-1.52 1.27h-.28zm11.4-1.82a1.54 1.54 0 0 1 1-1.94l.34-.11a1.55 1.55 0 0 1 2 1 1.55 1.55 0 0 1-1 2l-.39.13a1.55 1.55 0 0 1-.46.07 1.55 1.55 0 0 1-1.48-1.08zm-18-.27l-.42-.11a1.55 1.55 0 0 1-.72-2.06 1.54 1.54 0 0 1 2.06-.72l.33.16a1.55 1.55 0 0 1 .75 2.05 1.55 1.55 0 0 1-1.4.9 1.53 1.53 0 0 1-.65-.14zm24.13-2.1a1.54 1.54 0 0 1 .5-2.13l.31-.19a1.54 1.54 0 0 1 2.13.47 1.55 1.55 0 0 1-.47 2.14l-.34.22a1.54 1.54 0 0 1-.81.23 1.54 1.54 0 0 1-1.31-.73zm-30-1.57l-.32-.26a1.55 1.55 0 0 1-.23-2.18 1.55 1.55 0 0 1 2.18-.19l.28.23a1.55 1.55 0 0 1 .22 2.17 1.54 1.54 0 0 1-1.2.57 1.54 1.54 0 0 1-1-.35zm35.34-2.24a1.55 1.55 0 0 1 0-2.18l.25-.27a1.55 1.55 0 0 1 2.18-.07 1.55 1.55 0 0 1 .07 2.18l-.28.3a1.54 1.54 0 0 1-1.11.47 1.54 1.54 0 0 1-1.07-.43zM8.26 47.03l-.24-.33a1.54 1.54 0 0 1 .35-2.16 1.54 1.54 0 0 1 2.16.35l.21.29a1.55 1.55 0 0 1-.32 2.16 1.54 1.54 0 0 1-.92.3 1.54 1.54 0 0 1-1.24-.62zm44.36-2.25a1.54 1.54 0 0 1-.58-2.11l.18-.32a1.54 1.54 0 0 1 2.1-.61 1.55 1.55 0 0 1 .61 2.1l-.2.36a1.54 1.54 0 0 1-1.34.78 1.54 1.54 0 0 1-.76-.2zM4.86 40.99l-.15-.38a1.54 1.54 0 0 1 .88-2 1.54 1.54 0 0 1 2 .88l.14.34a1.55 1.55 0 0 1-.85 2 1.54 1.54 0 0 1-.58.11 1.54 1.54 0 0 1-1.43-1zm50.61-2.12a1.54 1.54 0 0 1-1.09-1.89l.09-.35a1.54 1.54 0 0 1 1.88-1.12 1.54 1.54 0 0 1 1.12 1.88l-.1.39a1.55 1.55 0 0 1-1.49 1.14 1.54 1.54 0 0 1-.4-.05zm-52.4-4.58c0-.13 0-.27-.05-.41a1.54 1.54 0 0 1 1.35-1.72 1.54 1.54 0 0 1 1.72 1.35v.36a1.54 1.54 0 0 1-1.32 1.74h-.21a1.54 1.54 0 0 1-1.53-1.34zm53.69-1.85a1.55 1.55 0 0 1-1.52-1.57v-.92a1.55 1.55 0 0 1 1.51-1.58 1.55 1.55 0 0 1 1.58 1.51v1.05a1.55 1.55 0 0 1-1.55 1.52zm-52.4-3.37A1.54 1.54 0 0 1 3 27.36v-.41a1.54 1.54 0 0 1 1.73-1.34 1.54 1.54 0 0 1 1.34 1.73v.36a1.54 1.54 0 0 1-1.53 1.37h-.18zm50.07-4.87l-.1-.35a1.54 1.54 0 0 1 1.07-1.9 1.54 1.54 0 0 1 1.9 1.07l.11.39a1.54 1.54 0 0 1-1.1 1.89 1.53 1.53 0 0 1-.4.05 1.55 1.55 0 0 1-1.49-1.15zM5.5 22.6a1.55 1.55 0 0 1-.89-2l.15-.38a1.54 1.54 0 0 1 2-.86 1.54 1.54 0 0 1 .86 2l-.13.34a1.54 1.54 0 0 1-1.44 1 1.55 1.55 0 0 1-.55-.1zm46.59-4.12l-.18-.32a1.54 1.54 0 0 1 .56-2.11 1.54 1.54 0 0 1 2.11.56l.2.35a1.54 1.54 0 0 1-.59 2.1 1.54 1.54 0 0 1-.75.2 1.54 1.54 0 0 1-1.35-.79zM8.24 16.64a1.54 1.54 0 0 1-.37-2.15l.24-.33a1.54 1.54 0 0 1 2.16-.34 1.54 1.54 0 0 1 .34 2.16l-.21.3a1.54 1.54 0 0 1-1.26.65 1.54 1.54 0 0 1-.89-.28zm40.2-3.12l-.25-.26a1.54 1.54 0 0 1 0-2.19 1.55 1.55 0 0 1 2.18 0l.28.29a1.55 1.55 0 0 1-.06 2.18 1.54 1.54 0 0 1-1.06.42 1.54 1.54 0 0 1-1.12-.48zm-36.07-2a1.54 1.54 0 0 1 .17-2.18l.31-.26a1.54 1.54 0 0 1 2.17.21 1.54 1.54 0 0 1-.2 2.17l-.28.23a1.54 1.54 0 0 1-1 .37 1.54 1.54 0 0 1-1.18-.54zm31.3-1.94l-.31-.19a1.54 1.54 0 0 1-.51-2.12 1.55 1.55 0 0 1 2.12-.52l.35.22a1.54 1.54 0 0 1 .48 2.13 1.54 1.54 0 0 1-1.31.72 1.55 1.55 0 0 1-.82-.24zm-26-2a1.54 1.54 0 0 1 .71-2.07l.37-.18a1.54 1.54 0 0 1 2.06.74 1.54 1.54 0 0 1-.74 2.06l-.33.16a1.54 1.54 0 0 1-.68.16 1.54 1.54 0 0 1-1.39-.86zm20.46-.63l-.35-.11a1.54 1.54 0 0 1-1-1.93 1.55 1.55 0 0 1 1.93-1l.39.12a1.54 1.54 0 0 1 1 1.94 1.55 1.55 0 0 1-1.47 1.07 1.55 1.55 0 0 1-.47-.07zM23.74 5.09a1.54 1.54 0 0 1 1.2-1.83l.4-.08a1.54 1.54 0 0 1 1.81 1.23 1.55 1.55 0 0 1-1.23 1.81l-.35.07a1.57 1.57 0 0 1-.31 0 1.55 1.55 0 0 1-1.51-1.23zm8.33.73h-.36a1.54 1.54 0 0 1-1.47-1.61 1.54 1.54 0 0 1 1.61-1.47h.41a1.54 1.54 0 0 1 1.45 1.63 1.55 1.55 0 0 1-1.54 1.45h-.09z" opacity="0.36"/><path fill="url(#c)" d="M221.5 250.67a30.27 30.27 0 1 0 30.27-30.27 30.3 30.3 0 0 0-30.27 30.27zm.92 0A29.35 29.35 0 1 1 251.77 280a29.38 29.38 0 0 1-29.35-29.33z" transform="translate(-221.5 -220.4)"/><path fill="#010101" d="M41.38 25.45l-2.14-6.58h-6.92l5.6-4.07-2.14-6.59 5.6 4.07 5.6-4.07-2.14 6.59 5.61 4.07h-6.93l-2.14 6.58" style="isolation:isolate"/><path fill="url(#d)" d="M263.4 246l2-6.21h8.21L267 235l2.54-7.81-6.66 4.81-6.64-4.82 2.54 7.81-6.64 4.83h8.21l2.54 7.81z" transform="translate(-221.5 -220.4)"/><path fill="url(#b)" stroke="#000" stroke-width="0.58" d="M41.38 25.45l-2.14-6.58h-6.92l5.6-4.07-2.14-6.59 5.6 4.07 5.6-4.07-2.14 6.59 5.61 4.07h-6.93l-2.14 6.58z"/><path fill="#010101" d="M19.83 25.45l-2.14-6.58h-6.92l5.6-4.07-2.14-6.59 5.6 4.07 5.6-4.07-2.13 6.59 5.6 4.07h-6.93l-2.14 6.58" style="isolation:isolate"/><path fill="url(#e)" d="M241.85 246l2-6.21h8.21l-6.62-4.79 2.54-7.81-6.65 4.81-6.64-4.83 2.54 7.81-6.64 4.83h8.21l2.54 7.81z" transform="translate(-221.5 -220.4)"/><path fill="url(#f)" stroke="#000" stroke-width="0.58" d="M19.83 25.45l-2.14-6.58h-6.92l5.6-4.07-2.14-6.59 5.6 4.07 5.6-4.07-2.13 6.59 5.6 4.07h-6.93l-2.14 6.58z"/><path fill="#010101" d="M47.86 45.37l-2.14-6.58H38.8l5.6-4.07-2.14-6.59 5.6 4.07 5.6-4.07-2.14 6.59 5.6 4.07H50l-2.14 6.58" style="isolation:isolate"/><path fill="url(#g)" d="M269.88 265.94l2-6.21h8.21l-6.64-4.83 2.54-7.81-6.64 4.83-6.64-4.83 2.54 7.81-6.64 4.83h8.21l2.54 7.81z" transform="translate(-221.5 -220.4)"/><path fill="url(#h)" stroke="#000" stroke-width="0.58" d="M47.86 45.37l-2.14-6.58H38.8l5.6-4.07-2.14-6.59 5.6 4.07 5.6-4.07-2.14 6.59 5.6 4.07H50l-2.14 6.58z"/><path fill="#010101" d="M30.42 57.85l-2.13-6.58h-6.93l5.6-4.07-2.14-6.59 5.6 4.07 5.6-4.07-2.14 6.59 5.61 4.07h-6.93l-2.14 6.58" style="isolation:isolate"/><path fill="url(#i)" d="M252.44 278.42l2-6.21h8.21l-6.65-4.82 2.54-7.81-6.64 4.83-6.64-4.83 2.54 7.81-6.64 4.83h8.21l2.54 7.81z" transform="translate(-221.5 -220.4)"/><path fill="url(#j)" stroke="#000" stroke-width="0.58" d="M30.42 57.85l-2.13-6.58h-6.93l5.6-4.07-2.14-6.59 5.6 4.07 5.6-4.07-2.14 6.59 5.61 4.07h-6.93l-2.14 6.58z"/><path fill="#010101" d="M13.33 45.37l-2.13-6.58H4.27l5.6-4.07-2.14-6.59 5.6 4.07 5.61-4.07-2.14 6.59 5.6 4.07h-6.93l-2.14 6.58" style="isolation:isolate"/><path fill="url(#k)" d="M235.36 265.94l2-6.21h8.21l-6.64-4.83 2.54-7.81-6.64 4.83-6.64-4.83 2.54 7.81-6.64 4.83h8.21l2.54 7.81z" transform="translate(-221.5 -220.4)"/><path fill="url(#l)" stroke="#000" stroke-width="0.58" d="M13.33 45.37l-2.13-6.58H4.27l5.6-4.07-2.14-6.59 5.6 4.07 5.61-4.07-2.14 6.59 5.6 4.07h-6.93l-2.14 6.58z"/></svg>