<svg xmlns="http://www.w3.org/2000/svg" xmlns:xlink="http://www.w3.org/1999/xlink" viewBox="0 0 59.09 51.18"><defs><linearGradient id="b" x1="588.37" x2="632.69" y1="239.96" y2="265.55" gradientUnits="userSpaceOnUse"><stop offset="0" stop-color="#92a2a6"/><stop offset="0.31" stop-color="#555e60"/><stop offset="1" stop-color="#020202"/></linearGradient><linearGradient id="c" x1="595.76" x2="625.3" y1="227.16" y2="278.34" gradientUnits="userSpaceOnUse"><stop offset="0" stop-color="#8b999d"/><stop offset="0.48" stop-color="#555e60"/><stop offset="1" stop-color="#020202"/></linearGradient><linearGradient id="a" x1="14.04" x2="45.91" y1="9.89" y2="41.76" gradientUnits="userSpaceOnUse"><stop offset="0" stop-color="#657175"/><stop offset="0.56" stop-color="#3d4345"/><stop offset="1" stop-color="#020202"/></linearGradient><linearGradient id="d" x1="619.36" x2="598.1" y1="283.85" y2="204.51" xlink:href="#a"/><radialGradient id="e" cx="610.99" cy="253.91" r="18.55" gradientUnits="userSpaceOnUse"><stop offset="0" stop-color="#f5fbfd"/><stop offset="0.49" stop-color="#f5fbfd"/><stop offset="0.57" stop-color="#f5fbfd"/><stop offset="0.63" stop-color="#d7eef9"/><stop offset="0.76" stop-color="#a0d5f1"/><stop offset="0.86" stop-color="#77c3eb"/><stop offset="0.95" stop-color="#5eb8e7"/><stop offset="1" stop-color="#55b4e6"/></radialGradient></defs><path fill="url(#b)" d="M625.3 227.16h-.25l-14.7 27.25 1.92 2.45 27.72-4 .08-.13zM611.58 255l-15.72-27.86h-.1L581 252.75l.19.32 28.81.29-14.33 24.83.08.15h29.34l-13.52-23.41v.07z" transform="translate(-581 -227.2)"/><path fill="url(#c)" d="M595.76 227.16l-.13.22L611 253.71l4-.42 10.42-26-.08-.13h-29.58zM613 253l-32-.32-.05.09 14.77 25.59h.37l14.67-24.83 14.33 24.83h.17L640 252.93h-27z" transform="translate(-581 -227.2)"/><path fill="url(#a)" d="M18.31 46.02L6.65 25.82l11.66-20.2h23.33l11.66 20.2-11.66 20.2H18.31"/><path fill="url(#d)" d="M599.4 245.72l3.54-2.57 3.54 2.57-1.35-4.16 3.54-2.57h-4.37l-1.35-4.16-1.36 4.17h-4.38l3.54 2.57zm13.29 0l3.54-2.57 3.41 2.48-.57 1.75h-4.37l3.54 2.57-1.35 4.16 3.54-2.57 3.54 2.57-1.35-4.16 3.54-2.57h-4.38l-1.35-4.16-.74 2.27-1.27-3.92L622 239h-4.38l-1.35-4.16-1.39 4.16h-4.38l3.54 2.57zm18.37 9.35h-4.38l-1.35-4.16-1.33 4.16h-4.4l3.54 2.57-1.35 4.16 3.54-2.57 3.54 2.57-1.35-4.16zm-30.22 7.66l3.54 2.57-1.38-4.16 3.54-2.58h-4.34l-1.35-4.16-.73 2.26-1.27-3.92 3.54-2.58H598l-1.35-4.16-1.35 4.16h-4.38l3.54 2.58-1.35 4.16 3.54-2.57 3.41 2.48-.57 1.75h-4.38l3.54 2.58-1.35 4.16zm6.25 3.53l-1.35-4.16-1.35 4.16H600l3.54 2.57-1.34 4.17 3.54-2.57 3.54 2.57-1.35-4.16 3.54-2.57h-4.37zm12.59 0l-1.35-4.16-1.33 4.16h-4.4l3.54 2.57-1.35 4.17 3.54-2.57 3.54 2.57-1.35-4.16 3.54-2.57h-4.38zm-13.2-18.19h-4.38l3.54 2.57-1.35 4.16 3.54-2.57 3.54 2.57-1.37-4.15 3.54-2.57h-4.38l-1.35-4.16zm8.3 9.79l-1.35-4.16-1.35 4.16h-4.38l3.54 2.58-1.35 4.16 3.54-2.57 3.54 2.57-1.35-4.16 3.54-2.58h-4.38z" transform="translate(-581 -227.2)"/><path fill="url(#e)" stroke="#010101" stroke-width="0.77" d="M600.06 244.71l2.89-2.1 2.88 2.1-1.1-3.39 2.89-2.1H604l-1.1-3.39-1.1 3.39h-3.57l2.89 2.1zm13.29 0l2.89-2.1 2.88 2.1-1.1-3.39 2.89-2.1h-3.57l-1.1-3.39-1.1 3.39h-3.57l2.89 2.1zm6 2.91h-3.57l2.89 2.1-1.1 3.39 2.89-2.1 2.89 2.1-1.1-3.39 2.89-2.1h-3.57l-1.1-3.39zm10.65 7.69h-3.57l-1.1-3.39-1.1 3.39h-3.57l2.89 2.1-1.1 3.39 2.89-2.1 2.88 2.1-1.1-3.39zm-33.35-1.5l2.89 2.1-1.1-3.4 2.89-2.1h-3.57l-1.1-3.39-1.1 3.39H592l2.89 2.1-1.1 3.4zm6 7.1l2.89-2.1h-3.57l-1.1-3.39-1.1 3.39h-3.57l2.89 2.1-1.09 3.39 2.89-2.1 2.89 2.1zm4.21 5.6l-1.1-3.39-1.1 3.39h-3.57l2.89 2.1-1.1 3.39 2.89-2.1 2.88 2.1-1.1-3.39 2.89-2.1h-3.57zm12.59 0l-1.1-3.39-1.1 3.39h-3.57l2.89 2.1-1.1 3.39 2.89-2.1 2.88 2.1-1.1-3.39 2.89-2.1h-3.57zm-16.27-18.19l2.89 2.1-1.07 3.38 2.89-2.1 2.88 2.1-1.1-3.39 2.89-2.1h-3.57l-1.1-3.4-1.1 3.4h-3.57zm12.05 11.89l2.88-2.1h-3.57l-1.1-3.39-1.1 3.39h-3.57l2.89 2.1-1.1 3.39 2.89-2.1 2.88 2.1z" transform="translate(-581 -227.2)"/></svg>