<svg xmlns="http://www.w3.org/2000/svg" xmlns:xlink="http://www.w3.org/1999/xlink" viewBox="0 0 60.53 60.53"><defs><linearGradient id="c" x1="39.54" x2="15.76" y1="68.21" y2="-29.07" gradientUnits="userSpaceOnUse"><stop offset="0" stop-color="#fff"/><stop offset="0.48" stop-color="#dad8e5"/><stop offset="1" stop-color="#9599c6"/></linearGradient><linearGradient id="d" x1="376.64" x2="408.39" y1="228.07" y2="277.39" gradientUnits="userSpaceOnUse"><stop offset="0" stop-color="#fff"/><stop offset="0.39" stop-color="#d8d5e0"/><stop offset="1" stop-color="#bfbdc7"/></linearGradient><linearGradient id="a" x1="404.1" x2="391.28" y1="273.8" y2="226.6" gradientUnits="userSpaceOnUse"><stop offset="0"/><stop offset="1" stop-color="#9599c6"/></linearGradient><linearGradient id="e" x1="395.17" x2="382.35" y1="279.19" y2="231.99" xlink:href="#a"/><linearGradient id="f" x1="382.29" x2="369.47" y1="281.28" y2="234.08" xlink:href="#a"/><linearGradient id="g" x1="385.84" x2="373.02" y1="278.69" y2="231.49" xlink:href="#a"/><linearGradient id="h" x1="412.42" x2="399.6" y1="273.99" y2="226.79" xlink:href="#a"/><linearGradient id="i" x1="417.1" x2="404.28" y1="271.53" y2="224.33" xlink:href="#a"/><linearGradient id="j" x1="399.86" x2="387.05" y1="276.48" y2="229.28" xlink:href="#a"/><linearGradient id="b" x1="28.08" x2="35.62" y1="0.83" y2="28.97" gradientUnits="userSpaceOnUse"><stop offset="0" stop-color="#fff"/><stop offset="0.39" stop-color="#ffe300"/><stop offset="1" stop-color="#c67a29"/></linearGradient><linearGradient id="k" x1="28.08" x2="35.62" y1="39.12" y2="67.25" xlink:href="#b"/><linearGradient id="l" x1="11.87" x2="19.41" y1="28.94" y2="57.08" xlink:href="#b"/><linearGradient id="m" x1="11.33" x2="18.87" y1="11.28" y2="39.42" xlink:href="#b"/><linearGradient id="n" x1="44.03" x2="51.56" y1="29.12" y2="57.26" xlink:href="#b"/><linearGradient id="o" x1="44.66" x2="52.19" y1="11.74" y2="39.87" xlink:href="#b"/><linearGradient id="p" x1="28.08" x2="35.62" y1="19.12" y2="47.26" xlink:href="#b"/></defs><circle cx="30.26" cy="30.27" r="30" fill="url(#c)"/><path fill="#fafdff" d="M30.4 56.79a1.55 1.55 0 0 1 1.46-1.62h.36a1.54 1.54 0 0 1 1.65 1.44 1.54 1.54 0 0 1-1.44 1.64h-.5a1.54 1.54 0 0 1-1.54-1.46zm-4.89 1l-.4-.08a1.55 1.55 0 0 1-1.22-1.82 1.55 1.55 0 0 1 1.82-1.22l.36.07a1.54 1.54 0 0 1 1.24 1.8 1.54 1.54 0 0 1-1.52 1.27h-.28zm11.4-1.82a1.54 1.54 0 0 1 1-1.94l.35-.11a1.54 1.54 0 0 1 2 1 1.55 1.55 0 0 1-1 2l-.39.13a1.54 1.54 0 0 1-.46.07 1.54 1.54 0 0 1-1.47-1.08zm-18-.27l-.37-.17a1.55 1.55 0 0 1-.72-2.06 1.54 1.54 0 0 1 2.06-.72l.33.15a1.55 1.55 0 0 1 .75 2.05 1.55 1.55 0 0 1-1.4.9 1.54 1.54 0 0 1-.65-.14zm24.13-2.1a1.54 1.54 0 0 1 .5-2.13l.3-.19a1.54 1.54 0 0 1 2.13.47 1.55 1.55 0 0 1-.46 2.13l-.35.22a1.54 1.54 0 0 1-.81.23 1.54 1.54 0 0 1-1.31-.73zm-30-1.57l-.32-.26a1.55 1.55 0 0 1-.19-2.18 1.54 1.54 0 0 1 2.18-.19l.28.23a1.55 1.55 0 0 1 .22 2.17 1.54 1.54 0 0 1-1.2.57 1.54 1.54 0 0 1-1-.35zm35.34-2.24a1.54 1.54 0 0 1 0-2.18l.25-.26a1.54 1.54 0 0 1 2.18-.07 1.55 1.55 0 0 1 .07 2.18l-.28.3a1.55 1.55 0 0 1-1.11.47 1.54 1.54 0 0 1-1.07-.43zM8.25 47.02l-.24-.33a1.54 1.54 0 0 1 .35-2.16 1.54 1.54 0 0 1 2.16.35l.21.29a1.54 1.54 0 0 1-.32 2.16 1.54 1.54 0 0 1-.92.3 1.54 1.54 0 0 1-1.24-.62zm44.35-2.25a1.54 1.54 0 0 1-.58-2.11l.18-.32a1.54 1.54 0 0 1 2.1-.61 1.54 1.54 0 0 1 .61 2.1l-.2.36a1.55 1.55 0 0 1-1.35.78 1.53 1.53 0 0 1-.76-.2zM4.82 41.01l-.15-.38a1.55 1.55 0 0 1 .88-2 1.54 1.54 0 0 1 2 .88l.14.34a1.55 1.55 0 0 1-.85 2 1.55 1.55 0 0 1-.58.11 1.55 1.55 0 0 1-1.43-1zm50.61-2.12A1.54 1.54 0 0 1 54.35 37l.09-.35a1.54 1.54 0 0 1 1.88-1.11 1.54 1.54 0 0 1 1.11 1.88c0 .13-.07.27-.1.39a1.54 1.54 0 0 1-1.49 1.14 1.55 1.55 0 0 1-.41-.05zm-52.4-4.58c0-.14 0-.27-.05-.4a1.55 1.55 0 0 1 1.35-1.72 1.55 1.55 0 0 1 1.72 1.35v.36a1.55 1.55 0 0 1-1.23 1.74h-.21a1.55 1.55 0 0 1-1.53-1.34zm53.69-1.85a1.55 1.55 0 0 1-1.52-1.57v-.93a1.55 1.55 0 0 1 1.51-1.58 1.55 1.55 0 0 1 1.58 1.51v1.04a1.55 1.55 0 0 1-1.55 1.52zM4.31 29.09a1.54 1.54 0 0 1-1.36-1.71v-.4a1.54 1.54 0 0 1 1.73-1.34 1.54 1.54 0 0 1 1.34 1.73v.36a1.55 1.55 0 0 1-1.54 1.37h-.16zm50.07-4.87l-.09-.35a1.54 1.54 0 0 1 1.07-1.9 1.55 1.55 0 0 1 1.91 1.07l.11.4a1.55 1.55 0 0 1-1.1 1.89 1.57 1.57 0 0 1-.39.05 1.55 1.55 0 0 1-1.49-1.15zM5.49 22.64a1.55 1.55 0 0 1-.89-2l.15-.38a1.54 1.54 0 0 1 2-.86 1.54 1.54 0 0 1 .86 2l-.13.34a1.54 1.54 0 0 1-1.44 1 1.55 1.55 0 0 1-.55-.1zm46.6-4.12l-.18-.31a1.54 1.54 0 0 1 .56-2.11 1.54 1.54 0 0 1 2.11.56l.2.35a1.55 1.55 0 0 1-.59 2.1 1.55 1.55 0 0 1-.75.2 1.55 1.55 0 0 1-1.35-.79zM8.23 16.64a1.54 1.54 0 0 1-.37-2.15l.24-.33a1.54 1.54 0 0 1 2.16-.34 1.54 1.54 0 0 1 .34 2.16l-.21.3a1.55 1.55 0 0 1-1.26.65 1.53 1.53 0 0 1-.89-.28zm40.2-3.12l-.25-.26a1.54 1.54 0 0 1 0-2.19 1.55 1.55 0 0 1 2.19 0l.28.29a1.54 1.54 0 0 1-.06 2.18 1.54 1.54 0 0 1-1.06.42 1.55 1.55 0 0 1-1.12-.48zm-36.06-2a1.54 1.54 0 0 1 .17-2.18l.31-.26a1.55 1.55 0 0 1 2.18.2 1.54 1.54 0 0 1-.2 2.18l-.28.23a1.54 1.54 0 0 1-1 .37 1.54 1.54 0 0 1-1.18-.54zm31.3-1.94l-.31-.19a1.55 1.55 0 0 1-.52-2.12 1.54 1.54 0 0 1 2.12-.52l.35.21a1.54 1.54 0 0 1 .48 2.13 1.54 1.54 0 0 1-1.31.72 1.55 1.55 0 0 1-.82-.24zm-26-2a1.55 1.55 0 0 1 .71-2.07l.37-.18a1.55 1.55 0 0 1 2.06.74 1.55 1.55 0 0 1-.74 2.06l-.33.16a1.55 1.55 0 0 1-.68.16 1.55 1.55 0 0 1-1.39-.86zm20.46-.63l-.35-.11a1.55 1.55 0 0 1-1-1.93 1.55 1.55 0 0 1 1.93-1l.39.12a1.55 1.55 0 0 1 1 1.94 1.55 1.55 0 0 1-1.47 1.07 1.55 1.55 0 0 1-.47-.07zM23.74 5.09a1.54 1.54 0 0 1 1.2-1.83l.4-.08a1.55 1.55 0 0 1 1.81 1.23 1.55 1.55 0 0 1-1.23 1.81l-.36.07a1.57 1.57 0 0 1-.31 0 1.55 1.55 0 0 1-1.51-1.23zm8.33.73h-.36a1.54 1.54 0 0 1-1.47-1.61 1.54 1.54 0 0 1 1.61-1.47h.41a1.55 1.55 0 0 1 1.45 1.63 1.55 1.55 0 0 1-1.54 1.46h-.15z" opacity="0.36"/><path fill="url(#d)" d="M362.18 252.62a30.26 30.26 0 1 0 30.26-30.27 30.3 30.3 0 0 0-30.26 30.27zm.92 0A29.35 29.35 0 1 1 392.45 282a29.38 29.38 0 0 1-29.35-29.38z" transform="translate(-362.2 -222.4)"/><path fill="#010101" d="M30.33 3.84l1.75 5.39h5.67l-4.58 3.33 1.75 5.39-4.59-3.33-4.58 3.33 1.75-5.39-4.59-3.33h5.67l1.75-5.39" style="isolation:isolate"/><path fill="url(#a)" d="M392.09 226.06l-1.65 5.08h-6.72l5.44 3.95-2.08 6.39 5.44-4 5.44 4-2.08-6.39 5.44-3.95h-6.72l-2.08-6.39z" transform="translate(-362.2 -222.4)"/><path fill="#fff" d="M30.24 3.92L28.59 9h-6.77l5.44 4-2.08 6.39 5.44-4 5.44 4L33.98 13l5.44-4H32.7l-2.03-6.36zm0 38.29l-1.65 5.08h-6.77l5.44 3.95-2.03 6.4 5.44-4 5.44 4-2.08-6.39 5.44-3.95h-6.72l-2.08-6.39zM14.03 32.03l-1.65 5.08H5.66l5.44 3.95-2.08 6.39 5.44-4 5.44 4-2.08-6.39 5.44-3.95h-6.72l-2.08-6.39zm-.54-17.66l-1.67 5.08H5.1l5.44 3.95-2.08 6.39 5.44-4 5.44 4-2.08-6.39 5.44-3.95h-6.72l-2.08-6.39zm32.69 17.84l-1.65 5.08h-6.71l5.44 4-2.09 6.35 5.44-3.95 5.44 3.95-2.08-6.39 5.44-4h-6.72l-2.08-6.39zm.64-17.39l-1.65 5.08h-6.72l5.44 4-2.07 6.35 5.44-3.95 5.44 3.95-2.08-6.39 5.44-4h-6.74l-2.08-6.39zm-16.58 7.39l-1.65 5.08h-6.77l5.44 4-2.03 6.35 5.44-3.95 5.44 3.95-2.08-6.39 5.44-4h-6.72l-2.08-6.39z"/><path fill="#fff" d="M30.24 42.21l-1.65 5.08h-6.77l5.44 3.95-2.03 6.4 5.44-4 5.44 4-2.08-6.39 5.44-3.95h-6.72l-2.08-6.39zM14.03 32.03l-1.65 5.08H5.66l5.44 3.95-2.08 6.39 5.44-4 5.44 4-2.08-6.39 5.44-3.95h-6.72l-2.08-6.39zm-.54-17.66l-1.67 5.08H5.1l5.44 3.95-2.08 6.39 5.44-4 5.44 4-2.08-6.39 5.44-3.95h-6.72l-2.08-6.39zm32.69 17.84l-1.65 5.08h-6.71l5.44 4-2.09 6.35 5.44-3.95 5.44 3.95-2.08-6.39 5.44-4h-6.72l-2.08-6.39zm.64-17.39l-1.65 5.08h-6.72l5.44 4-2.07 6.35 5.44-3.95 5.44 3.95-2.08-6.39 5.44-4h-6.74l-2.08-6.39zm-16.58 7.39l-1.65 5.08h-6.77l5.44 4-2.03 6.35 5.44-3.95 5.44 3.95-2.08-6.39 5.44-4h-6.72l-2.08-6.39z"/><path fill="#fff" d="M30.24 42.21l-1.65 5.08h-6.77l5.44 3.95-2.03 6.4 5.44-4 5.44 4-2.08-6.39 5.44-3.95h-6.72l-2.08-6.39zM14.03 32.03l-1.65 5.08H5.66l5.44 3.95-2.08 6.39 5.44-4 5.44 4-2.08-6.39 5.44-3.95h-6.72l-2.08-6.39zm-.54-17.66l-1.67 5.08H5.1l5.44 3.95-2.08 6.39 5.44-4 5.44 4-2.08-6.39 5.44-3.95h-6.72l-2.08-6.39zm32.69 17.84l-1.65 5.08h-6.71l5.44 4-2.09 6.35 5.44-3.95 5.44 3.95-2.08-6.39 5.44-4h-6.72l-2.08-6.39zm.64-17.39l-1.65 5.08h-6.72l5.44 4-2.07 6.35 5.44-3.95 5.44 3.95-2.08-6.39 5.44-4h-6.74l-2.08-6.39zm-16.58 7.39l-1.65 5.08h-6.77l5.44 4-2.03 6.35 5.44-3.95 5.44 3.95-2.08-6.39 5.44-4h-6.72l-2.08-6.39z"/><path fill="url(#e)" d="M392.09 264.34l-1.65 5.08h-6.72l5.44 3.95-2.08 6.39 5.44-3.95 5.44 3.95-2.08-6.39 5.44-3.95h-6.72l-2.08-6.42z" transform="translate(-362.2 -222.4)"/><path fill="url(#f)" d="M375.88 254.16l-1.65 5.08h-6.72l5.44 3.95-2.08 6.39 5.44-3.95 5.44 3.95-2.08-6.39 5.44-3.95h-6.72l-2.08-6.39z" transform="translate(-362.2 -222.4)"/><path fill="url(#g)" d="M375.34 236.51l-1.65 5.08H367l5.44 4-2.08 6.39 5.44-3.95 5.44 3.95-2.08-6.39 5.44-4h-6.72l-2.08-6.39z" transform="translate(-362.2 -222.4)"/><path fill="url(#h)" d="M408 254.35l-1.65 5.08h-6.72l5.44 4-2.07 6.34 5.44-3.95 5.44 3.95-2.08-6.39 5.44-4h-6.72l-2.06-6.38z" transform="translate(-362.2 -222.4)"/><path fill="url(#i)" d="M408.67 237l-1.67 5h-6.72l5.44 4-2.08 6.39 5.44-3.95 5.44 3.95-2.07-6.39 5.44-4h-6.72l-2.08-6.39z" transform="translate(-362.2 -222.4)"/><path fill="url(#j)" d="M392.09 244.35l-1.65 5.08h-6.72l5.44 4-2.08 6.39 5.44-4 5.44 4-2.08-6.39 5.44-4h-6.72l-2.08-6.43z" transform="translate(-362.2 -222.4)"/><path fill="url(#a)" d="M392.09 226.06l-1.65 5.08h-6.72l5.44 3.95-2.08 6.39 5.44-4 5.44 4-2.08-6.39 5.44-3.95h-6.72l-2.08-6.39z" transform="translate(-362.2 -222.4)"/><path fill="url(#b)" d="M30.33 3.84l1.75 5.39h5.67l-4.58 3.33 1.75 5.39-4.59-3.33-4.58 3.33 1.75-5.39-4.59-3.33h5.67l1.75-5.39"/><path fill="#010101" d="M30.33 42.12l1.75 5.39h5.67l-4.58 3.33 1.75 5.39-4.59-3.33-4.58 3.33 1.75-5.39-4.59-3.33h5.67l1.75-5.39" style="isolation:isolate"/><path fill="url(#k)" d="M30.33 42.12l1.75 5.39h5.67l-4.58 3.33 1.75 5.39-4.59-3.33-4.58 3.33 1.75-5.39-4.59-3.33h5.67l1.75-5.39"/><path fill="#010101" d="M14.12 31.95l1.75 5.39h5.67l-4.59 3.33 1.75 5.39-4.58-3.33-4.59 3.33 1.75-5.39-4.58-3.33h5.67l1.75-5.39" style="isolation:isolate"/><path fill="url(#l)" d="M14.12 31.95l1.75 5.39h5.67l-4.59 3.33 1.75 5.39-4.58-3.33-4.59 3.33 1.75-5.39-4.58-3.33h5.67l1.75-5.39"/><path fill="#010101" d="M13.58 14.29l1.75 5.39H21l-4.59 3.33 1.75 5.39-4.58-3.33-4.59 3.33 1.75-5.39-4.58-3.33h5.67l1.75-5.39" style="isolation:isolate"/><path fill="url(#m)" d="M13.58 14.29l1.75 5.39H21l-4.59 3.33 1.75 5.39-4.58-3.33-4.59 3.33 1.75-5.39-4.58-3.33h5.67l1.75-5.39"/><path fill="#010101" d="M46.27 32.12l1.76 5.4h5.67l-4.59 3.33 1.75 5.39-4.59-3.33-4.58 3.33 1.75-5.39-4.58-3.33h5.66l1.75-5.4" style="isolation:isolate"/><path fill="url(#n)" d="M46.27 32.12l1.76 5.4h5.67l-4.59 3.33 1.75 5.39-4.59-3.33-4.58 3.33 1.75-5.39-4.58-3.33h5.66l1.75-5.4"/><path fill="#010101" d="M46.91 14.74l1.75 5.39h5.67l-4.59 3.33 1.75 5.39-4.58-3.33-4.59 3.33 1.75-5.39-4.58-3.33h5.67l1.75-5.39" style="isolation:isolate"/><path fill="url(#o)" d="M46.91 14.74l1.75 5.39h5.67l-4.59 3.33 1.75 5.39-4.58-3.33-4.59 3.33 1.75-5.39-4.58-3.33h5.67l1.75-5.39"/><path fill="#010101" d="M30.33 22.13l1.75 5.39h5.67l-4.58 3.33 1.75 5.39-4.59-3.33-4.58 3.33 1.75-5.39-4.59-3.33h5.67l1.75-5.39" style="isolation:isolate"/><path fill="url(#p)" d="M30.33 22.13l1.75 5.39h5.67l-4.58 3.33 1.75 5.39-4.59-3.33-4.58 3.33 1.75-5.39-4.59-3.33h5.67l1.75-5.39"/></svg>