<svg xmlns="http://www.w3.org/2000/svg" xmlns:xlink="http://www.w3.org/1999/xlink" viewBox="0 0 58.05 57.99"><defs><linearGradient id="a" x1="878.19" x2="903.56" y1="-477.44" y2="-436.03" gradientTransform="translate(-924.06 -277.31) rotate(45)" gradientUnits="userSpaceOnUse"><stop offset="0" stop-color="#dce0df"/><stop offset="0.47" stop-color="#9facb3"/><stop offset="1" stop-color="#51595d"/></linearGradient><linearGradient id="e" x1="1352.5" x2="1409.39" y1="15.16" y2="46.86" gradientTransform="matrix(1, 0, 0, 1, 0, 0)" xlink:href="#a"/><linearGradient id="f" x1="23.02" x2="39.62" y1="12.14" y2="58.35" gradientTransform="matrix(1, 0, 0, 1, 0, 0)" xlink:href="#a"/><linearGradient id="g" x1="1372.53" x2="1409.24" y1="18.25" y2="71.72" gradientTransform="matrix(1, 0, 0, 1, 0, 0)" xlink:href="#a"/><linearGradient id="b" x1="1356.26" x2="1375.72" y1="-5.32" y2="22.65" gradientUnits="userSpaceOnUse"><stop offset="0" stop-color="#fff"/><stop offset="0.39" stop-color="#48a3da"/><stop offset="1" stop-color="#404ca0"/></linearGradient><linearGradient id="h" x1="1105.61" x2="1125.07" y1="-1001.3" y2="-973.33" gradientTransform="matrix(0, 1, -1, 0, 417.07, -1099.35)" xlink:href="#b"/><linearGradient id="c" x1="1388.81" x2="1413.83" y1="37.59" y2="62.18" gradientUnits="userSpaceOnUse"><stop offset="0" stop-color="#fff"/><stop offset="0.39" stop-color="#ffe300"/><stop offset="1" stop-color="#c67a29"/></linearGradient><linearGradient id="i" x1="35.61" x2="59.66" y1="35.27" y2="58.92" xlink:href="#c"/><linearGradient id="d" x1="1367.9" x2="1394.85" y1="31.02" y2="31.02" gradientUnits="userSpaceOnUse"><stop offset="0" stop-color="#84d1e1"/><stop offset="0.99" stop-color="#077e74"/></linearGradient><linearGradient id="j" x1="24.24" x2="33.94" y1="28.87" y2="28.87" xlink:href="#d"/></defs><path fill="url(#a)" d="M44.98 22.38l-5.91-3.53-3.45-5.83L29 0l-6.62 13.02-3.51 6.15-5.85 3.21L0 29l13.02 6.62 5.97 3.63 3.39 5.73L29 57.99l6.62-13.01 3.53-5.45 5.83-3.91L57.99 29l-13.01-6.62"/><path fill="url(#e)" d="M1382.82 34.6c1.92 4.68 6.76 4.68 1.24-.84a3.69 3.69 0 0 0 .78-1.18c4.68 1.93 9.72 6.78 9.72 6.78l15.79-8.17s-17.42-.11-25.23-.09a3.72 3.72 0 0 0-.29-1.38c4.67-2 4.63-6.8-.85-1.23a3.71 3.71 0 0 0-1.17-.76c1.92-4.68 6.8-9.53 6.8-9.53l-8.27-16s-.06 17.42 0 25.23a3.67 3.67 0 0 0-1.35.29c-1.94-4.67-6.78-4.65-1.24.85a3.66 3.66 0 0 0-.77 1.18c-4.68-1.92-9.76-6.71-9.76-6.71l-15.73 8.19h25.23a3.71 3.71 0 0 0 .29 1.35c-4.67 1.94-4.66 6.77.85 1.24a3.69 3.69 0 0 0 1.14.75c-2 4.66-6.66 10-6.66 10l7.82 15.56s.27-17.42.31-25.23a3.72 3.72 0 0 0 1.35-.3z" transform="translate(-1352.29 -2.15)"/><circle cx="29.06" cy="28.95" r="15.05" fill="url(#f)"/><path fill="url(#g)" d="M1397.2 31.09a15.85 15.85 0 1 1-15.85-15.85 15.85 15.85 0 0 1 15.85 15.85zm-15.85-14.43a14.43 14.43 0 1 0 14.43 14.43 14.43 14.43 0 0 0-14.43-14.42z" transform="translate(-1352.29 -2.15)"/><path fill="url(#b)" d="M1381.92 23.52c-4.83 0-8.74 3.6-8.74 8s3.91 8 8.74 8 8.74-3.6 8.74-8-3.92-8-8.74-8zm0 20.44c-7.44 0-13.48-5.55-13.48-12.4s6-12.4 13.48-12.4 13.48 5.55 13.48 12.4S1389.36 44 1381.92 44z" transform="translate(-1352.29 -2.15)"/><ellipse cx="1381.47" cy="31.9" fill="url(#h)" rx="4.46" ry="4.85" transform="translate(-970.22 984.05) rotate(-45)"/><path fill="url(#c)" d="M1380.84 22.44c-4.83 0-8.74 3.6-8.74 8s3.91 8 8.74 8 8.74-3.6 8.74-8-3.92-8-8.74-8zm-8.13 16.7c-5.26-5.26-5.6-13.46-.76-18.3s13-4.5 18.3.76 5.6 13.46.76 18.3-13.01 4.5-18.3-.76z" transform="translate(-1352.29 -2.15)"/><ellipse cx="28.55" cy="28.33" fill="url(#i)" rx="4.85" ry="4.46"/><path fill="url(#d)" stroke="#000" stroke-width="0.77" d="M1381.38 23c-4.83 0-8.74 3.6-8.74 8s3.91 8 8.74 8 8.74-3.6 8.74-8-3.92-8-8.74-8zm0 20.44c-7.44 0-13.48-5.55-13.48-12.4s6-12.4 13.48-12.4 13.48 5.55 13.48 12.4-6.04 12.38-13.48 12.38z" transform="translate(-1352.29 -2.15)"/><ellipse cx="29.09" cy="28.87" fill="url(#j)" stroke="#000" stroke-width="0.77" rx="4.85" ry="4.46"/></svg>