<svg xmlns="http://www.w3.org/2000/svg" xmlns:xlink="http://www.w3.org/1999/xlink" viewBox="0 0 58.64 58.63"><defs><linearGradient id="a" x1="29.02" x2="29.02" y1="3.33" y2="56.71" gradientUnits="userSpaceOnUse"><stop offset="0" stop-color="#fff"/><stop offset="0.39" stop-color="#baced6"/><stop offset="1" stop-color="#749dc7"/></linearGradient><linearGradient id="d" x1="22.11" x2="48.61" y1="368.56" y2="438.4" gradientUnits="userSpaceOnUse"><stop offset="0" stop-color="#e3af24"/><stop offset="1" stop-color="#c67a29"/></linearGradient><linearGradient id="b" x1="21.51" x2="48" y1="367.96" y2="437.8" gradientUnits="userSpaceOnUse"><stop offset="0" stop-color="#fff"/><stop offset="0.39" stop-color="#ffe300"/><stop offset="1" stop-color="#c67a29"/></linearGradient><linearGradient id="e" x1="15.61" x2="99.15" y1="380.63" y2="461.16" xlink:href="#a"/><linearGradient id="f" x1="-1.72" x2="11.22" y1="368.03" y2="379.01" xlink:href="#a"/><radialGradient id="g" cx="27.66" cy="386.81" r="26.62" xlink:href="#b"/><radialGradient id="c" cx="24.16" cy="18.23" r="26.39" gradientUnits="userSpaceOnUse"><stop offset="0" stop-color="#62605f"/><stop offset="1" stop-color="#010101"/></radialGradient><radialGradient id="h" cx="24.16" cy="18.23" r="26.38" xlink:href="#c"/><radialGradient id="i" cx="27.66" cy="386.18" r="26.39" xlink:href="#c"/><radialGradient id="j" cx="24.2" cy="382.03" r="41.56" gradientUnits="userSpaceOnUse"><stop offset="0" stop-color="#f8a285"/><stop offset="0.51" stop-color="#ed2224"/><stop offset="1" stop-color="#c62127"/></radialGradient></defs><g style="isolation:isolate"><path fill="url(#a)" d="M17.5 56.83L1.2 40.54V17.5L17.5 1.21h23.04L56.83 17.5v23.04L40.54 56.83H17.5"/><path fill="url(#d)" d="M44.64 368.56H21.1l-17 17v24l17 17h24l17-17v-24l-17-17h-.5zm-.5 2.44l15.59 15.59v22l-15.59 15.59h-22L6.51 408.59v-22L22.1 371h22z" transform="translate(-3.5 -367.9)" style="mix-blend-mode:multiply"/><path fill="url(#b)" d="M44 368H20.5l-17 17v24l17 17h24l17-17v-24l-17-17H44zm-.5 2.41L59.09 386v22l-15.55 15.58h-22L5.91 408v-22l15.59-15.64h22z" transform="translate(-3.5 -367.9)"/><path fill="none" stroke="#fff" stroke-width="0.77" d="M18 55.62h22.04l15.59-15.58V17.99" opacity="0.43"/><path fill="url(#e)" d="M32.27 372.38a24.32 24.32 0 1 0 24.31 24.32 24.34 24.34 0 0 0-24.31-24.32zm-18.9 24.32a18.89 18.89 0 0 1 30.85-14.62L43 383.31a17.15 17.15 0 0 0-24.11 24.11l-1.22 1.22a18.82 18.82 0 0 1-4.3-11.94zm18.9 18.9a18.76 18.76 0 0 1-10.63-3.28l1.26-1.25a17.15 17.15 0 0 0 23.71-23.71l1.28-1.28a18.89 18.89 0 0 1-15.62 29.51z" transform="translate(-3.5 -367.9)"/><path fill="url(#f)" d="M33.47 373.58a24.32 24.32 0 1 0 24.32 24.32 24.34 24.34 0 0 0-24.32-24.32zM14.58 397.9a18.88 18.88 0 0 1 30.85-14.62l-1.24 1.24a17.15 17.15 0 0 0-24.11 24.11l-1.22 1.22a18.79 18.79 0 0 1-4.28-11.95zm18.9 18.9a18.76 18.76 0 0 1-10.63-3.28l1.26-1.26a17.14 17.14 0 0 0 23.7-23.71l1.28-1.28a18.88 18.88 0 0 1-15.62 29.53z" transform="translate(-3.5 -367.9)"/><path fill="url(#g)" d="M32.83 380.42a16.78 16.78 0 1 0 16.78 16.78 16.78 16.78 0 0 0-16.78-16.78z" transform="translate(-3.5 -367.9)"/><ellipse cx="32.94" cy="22.67" fill="url(#c)" rx="2.25" ry="3.13"/><ellipse cx="26.09" cy="22.67" fill="url(#h)" rx="2.25" ry="3.13"/><path fill="url(#i)" d="M46.48 399.45a3.93 3.93 0 0 0-.44-1.94c-5.89 6.9-8.55 8.13-13.27 8.13s-7.38-1.23-13.27-8.13a3.94 3.94 0 0 0-.45 1.94l-.71-.93a3.07 3.07 0 0 1 .71-2.85 5 5 0 0 1 2.63-1.7l1.1.6a8.17 8.17 0 0 0-2.38 1.69c.31.4 5 6.32 12.36 6.47 7.31-.15 12.05-6.07 12.37-6.47a8.22 8.22 0 0 0-2.38-1.69l1.1-.6a5 5 0 0 1 2.63 1.7 3.07 3.07 0 0 1 .71 2.85z" transform="translate(-3.5 -367.9)"/><path fill="url(#j)" d="M32.89 372.93a24.31 24.31 0 1 0 24.31 24.32 24.34 24.34 0 0 0-24.31-24.32zM14 397.25a18.89 18.89 0 0 1 30.85-14.62L18.26 409.2A18.81 18.81 0 0 1 14 397.25zm18.9 18.9a18.77 18.77 0 0 1-10.63-3.28l26.23-26.25a18.88 18.88 0 0 1-15.61 29.52z" transform="translate(-3.5 -367.9)"/></g></svg>