<svg xmlns="http://www.w3.org/2000/svg" xmlns:xlink="http://www.w3.org/1999/xlink" viewBox="0 0 60.53 60.53"><defs><linearGradient id="a" x1="39.54" x2="15.76" y1="68.21" y2="-29.07" gradientUnits="userSpaceOnUse"><stop offset="0" stop-color="#dbf1fd"/><stop offset="0.48" stop-color="#99cde7"/><stop offset="1" stop-color="#88c1e0"/></linearGradient><linearGradient id="c" x1="450.73" x2="482.49" y1="226.25" y2="275.57" gradientUnits="userSpaceOnUse"><stop offset="0" stop-color="#8ecbeb"/><stop offset="0.39" stop-color="#6abce9"/><stop offset="1" stop-color="#6abce9"/></linearGradient><linearGradient id="d" x1="26.32" x2="18.13" y1="26.32" y2="-4.22" xlink:href="#a"/><linearGradient id="b" x1="20.65" x2="27.32" y1="5.5" y2="30.38" gradientUnits="userSpaceOnUse"><stop offset="0" stop-color="#e2f4fd"/><stop offset="0.39" stop-color="#e2f4fd"/><stop offset="1" stop-color="#e1eff4"/></linearGradient><linearGradient id="e" x1="41.71" x2="33.53" y1="26.32" y2="-4.22" xlink:href="#a"/><linearGradient id="f" x1="36.04" x2="42.71" y1="5.5" y2="30.38" xlink:href="#b"/><linearGradient id="g" x1="34.01" x2="25.83" y1="42.41" y2="11.87" xlink:href="#a"/><linearGradient id="h" x1="28.34" x2="35.01" y1="21.59" y2="46.48" xlink:href="#b"/><linearGradient id="i" x1="34.01" x2="25.83" y1="59.2" y2="28.66" xlink:href="#a"/><linearGradient id="j" x1="28.34" x2="35.01" y1="38.38" y2="63.27" xlink:href="#b"/><linearGradient id="k" x1="17.92" x2="9.74" y1="37.51" y2="6.97" xlink:href="#a"/><linearGradient id="l" x1="12.25" x2="18.92" y1="16.69" y2="41.58" xlink:href="#b"/><linearGradient id="m" x1="50.1" x2="41.92" y1="37.51" y2="6.97" xlink:href="#a"/><linearGradient id="n" x1="44.44" x2="51.1" y1="16.69" y2="41.58" xlink:href="#b"/><linearGradient id="o" x1="48" x2="39.82" y1="51.5" y2="20.97" xlink:href="#a"/><linearGradient id="p" x1="42.34" x2="49" y1="30.68" y2="55.57" xlink:href="#b"/><linearGradient id="q" x1="20.02" x2="11.84" y1="51.5" y2="20.97" xlink:href="#a"/><linearGradient id="r" x1="14.35" x2="21.02" y1="30.68" y2="55.57" xlink:href="#b"/></defs><circle cx="30.27" cy="30.27" r="30" fill="url(#a)"/><path fill="#fafdff" d="M30.39 56.79a1.55 1.55 0 0 1 1.46-1.62h.36a1.55 1.55 0 0 1 1.64 1.44 1.55 1.55 0 0 1-1.44 1.64h-.49a1.55 1.55 0 0 1-1.54-1.46zm-4.88 1l-.4-.08a1.54 1.54 0 0 1-1.22-1.82 1.54 1.54 0 0 1 1.82-1.21l.36.07a1.55 1.55 0 0 1 1.24 1.8 1.55 1.55 0 0 1-1.52 1.27h-.28zm11.4-1.82a1.54 1.54 0 0 1 1-1.94l.35-.11a1.55 1.55 0 0 1 2 1 1.55 1.55 0 0 1-1 2l-.39.12a1.56 1.56 0 0 1-.46.07 1.55 1.55 0 0 1-1.47-1.08zm-18-.27l-.37-.18a1.54 1.54 0 0 1-.72-2.06 1.54 1.54 0 0 1 2.06-.72l.33.16a1.55 1.55 0 0 1 .76 2 1.55 1.55 0 0 1-1.41.9 1.54 1.54 0 0 1-.65-.14zm24.13-2.1a1.55 1.55 0 0 1 .5-2.13l.31-.19a1.54 1.54 0 0 1 2.13.47 1.54 1.54 0 0 1-.47 2.13l-.35.22a1.53 1.53 0 0 1-.81.23 1.55 1.55 0 0 1-1.31-.73zm-30-1.57l-.32-.26a1.55 1.55 0 0 1-.19-2.18 1.54 1.54 0 0 1 2.19-.13l.28.23a1.55 1.55 0 0 1 .22 2.17 1.54 1.54 0 0 1-1.2.57 1.54 1.54 0 0 1-1-.35zm35.34-2.24a1.55 1.55 0 0 1 0-2.19l.25-.26a1.54 1.54 0 0 1 2.18-.07 1.55 1.55 0 0 1 .07 2.18l-.28.3a1.54 1.54 0 0 1-1.11.47 1.54 1.54 0 0 1-1.07-.43zM8.22 47.06l-.24-.33a1.54 1.54 0 0 1 .35-2.16 1.54 1.54 0 0 1 2.16.35l.21.29a1.54 1.54 0 0 1-.32 2.16 1.53 1.53 0 0 1-.92.3 1.54 1.54 0 0 1-1.24-.62zm44.35-2.25a1.55 1.55 0 0 1-.58-2.11l.18-.32a1.55 1.55 0 0 1 2.1-.61 1.54 1.54 0 0 1 .61 2.1l-.2.36a1.55 1.55 0 0 1-1.35.78 1.54 1.54 0 0 1-.76-.2zM4.82 41.02l-.15-.38a1.54 1.54 0 0 1 .88-2 1.55 1.55 0 0 1 2 .88l.13.34a1.54 1.54 0 0 1-.85 2 1.53 1.53 0 0 1-.58.11 1.54 1.54 0 0 1-1.43-1zm50.61-2.12a1.55 1.55 0 0 1-1.09-1.9l.09-.35a1.54 1.54 0 0 1 1.88-1.12 1.55 1.55 0 0 1 1.11 1.88l-.1.39a1.55 1.55 0 0 1-1.49 1.14 1.54 1.54 0 0 1-.4-.05zm-52.4-4.58l-.05-.4a1.54 1.54 0 0 1 1.35-1.72 1.54 1.54 0 0 1 1.72 1.35v.36a1.55 1.55 0 0 1-1.32 1.74h-.21a1.55 1.55 0 0 1-1.53-1.34zm53.69-1.86a1.55 1.55 0 0 1-1.52-1.57v-.92a1.54 1.54 0 0 1 1.51-1.58 1.55 1.55 0 0 1 1.58 1.51v1.04a1.55 1.55 0 0 1-1.57 1.52zm-52.4-3.37a1.54 1.54 0 0 1-1.36-1.71v-.41a1.55 1.55 0 0 1 1.73-1.34 1.55 1.55 0 0 1 1.34 1.73v.36a1.54 1.54 0 0 1-1.53 1.37h-.18zm50.07-4.87l-.1-.35a1.54 1.54 0 0 1 1.07-1.9 1.54 1.54 0 0 1 1.9 1.07l.11.39a1.55 1.55 0 0 1-1.1 1.89 1.54 1.54 0 0 1-.39.05 1.55 1.55 0 0 1-1.49-1.15zm-48.9-1.59a1.54 1.54 0 0 1-.89-2l.15-.38a1.54 1.54 0 0 1 2-.86 1.55 1.55 0 0 1 .86 2l-.13.34a1.55 1.55 0 0 1-1.45 1 1.53 1.53 0 0 1-.55-.1zm46.6-4.12l-.18-.31a1.54 1.54 0 0 1 .56-2.11 1.54 1.54 0 0 1 2.11.56l.2.35a1.54 1.54 0 0 1-.6 2.1 1.53 1.53 0 0 1-.75.2 1.54 1.54 0 0 1-1.35-.79zM8.24 16.67a1.54 1.54 0 0 1-.37-2.15l.24-.33a1.54 1.54 0 0 1 2.16-.34 1.54 1.54 0 0 1 .34 2.16l-.21.3a1.55 1.55 0 0 1-1.26.65 1.53 1.53 0 0 1-.89-.28zm40.2-3.12l-.25-.26a1.55 1.55 0 0 1 0-2.19 1.55 1.55 0 0 1 2.19 0l.28.29a1.54 1.54 0 0 1-.06 2.19 1.54 1.54 0 0 1-1.06.42 1.54 1.54 0 0 1-1.12-.48zm-36.07-2a1.55 1.55 0 0 1 .17-2.18l.31-.26a1.54 1.54 0 0 1 2.18.2 1.54 1.54 0 0 1-.2 2.17l-.28.23a1.54 1.54 0 0 1-1 .37 1.55 1.55 0 0 1-1.18-.54zm31.3-1.94l-.31-.19a1.54 1.54 0 0 1-.52-2.12 1.54 1.54 0 0 1 2.12-.52l.35.22a1.54 1.54 0 0 1 .49 2.13 1.55 1.55 0 0 1-1.31.72 1.54 1.54 0 0 1-.82-.24zm-26-2a1.55 1.55 0 0 1 .71-2.07l.34-.08a1.54 1.54 0 0 1 2.06.74 1.55 1.55 0 0 1-.73 2.06l-.33.16a1.54 1.54 0 0 1-.68.16 1.55 1.55 0 0 1-1.39-.87zm20.46-.63l-.35-.11a1.55 1.55 0 0 1-1-1.93 1.54 1.54 0 0 1 1.93-1l.39.12a1.54 1.54 0 0 1 1 1.94 1.54 1.54 0 0 1-1.47 1.07 1.55 1.55 0 0 1-.47-.07zm-14.41-1.8a1.54 1.54 0 0 1 1.2-1.82l.4-.08a1.54 1.54 0 0 1 1.81 1.23 1.55 1.55 0 0 1-1.23 1.81l-.36.07a1.54 1.54 0 0 1-.31 0 1.54 1.54 0 0 1-1.51-1.23zm8.33.73h-.36a1.55 1.55 0 0 1-1.47-1.61 1.54 1.54 0 0 1 1.61-1.47h.41a1.55 1.55 0 0 1 1.45 1.63 1.54 1.54 0 0 1-1.54 1.45h-.13z" opacity="0.36"/><path fill="url(#c)" d="M436.28 250.81a30.27 30.27 0 1 0 30.27-30.27 30.3 30.3 0 0 0-30.27 30.27zm.92 0a29.35 29.35 0 1 1 29.35 29.35 29.38 29.38 0 0 1-29.36-29.35z" transform="translate(-436.3 -220.5)"/><path fill="url(#d)" d="M22.64 6.74l1.9 5.85h6.15l-4.98 3.61 1.9 5.85-4.97-3.61-4.98 3.61 1.9-5.85-4.97-3.61h6.15l1.9-5.85"/><path fill="url(#b)" stroke="#000" stroke-width="0.5" d="M22.64 8.15l1.55 4.77h5.01l-4.06 2.95 1.55 4.77-4.05-2.95-4.06 2.95 1.55-4.77-4.05-2.95h5.01l1.55-4.77z"/><path fill="url(#e)" d="M38.03 6.74l1.9 5.85h6.15L41.1 16.2l1.91 5.85-4.98-3.61-4.98 3.61 1.9-5.85-4.97-3.61h6.15l1.9-5.85"/><path fill="url(#f)" stroke="#000" stroke-width="0.5" d="M38.03 8.15l1.55 4.77h5.01l-4.05 2.95 1.55 4.77-4.06-2.95-4.06 2.95 1.55-4.77-4.05-2.95h5.01l1.55-4.77z"/><path fill="url(#g)" d="M30.33 22.83l1.91 5.85h6.15l-4.98 3.61 1.9 5.85-4.98-3.61-4.97 3.61 1.9-5.85-4.98-3.61h6.15l1.9-5.85"/><path fill="url(#h)" stroke="#000" stroke-width="0.5" d="M30.33 24.25l1.56 4.76h5.01l-4.06 2.95 1.55 4.77-4.06-2.95-4.05 2.95 1.55-4.77-4.06-2.95h5.02l1.54-4.76z"/><path fill="url(#i)" d="M30.33 39.62l1.91 5.85h6.15l-4.98 3.62 1.9 5.85-4.98-3.62-4.97 3.62 1.9-5.85-4.98-3.62h6.15l1.9-5.85"/><path fill="url(#j)" stroke="#000" stroke-width="0.5" d="M30.33 41.03l1.56 4.77h5.01l-4.06 2.95 1.55 4.77-4.06-2.95-4.05 2.95 1.55-4.77-4.06-2.95h5.02l1.54-4.77z"/><path fill="url(#k)" d="M14.24 17.93l1.9 5.85h6.16l-4.98 3.62 1.9 5.85-4.98-3.62-4.97 3.62 1.9-5.85-4.98-3.62h6.15l1.9-5.85"/><path fill="url(#l)" stroke="#000" stroke-width="0.5" d="M14.24 19.35l1.55 4.77h5.01l-4.05 2.94 1.55 4.77-4.06-2.95-4.05 2.95 1.55-4.77-4.06-2.94h5.01l1.55-4.77z"/><path fill="url(#m)" d="M46.43 17.93l1.9 5.85h6.15L49.5 27.4l1.9 5.85-4.97-3.62-4.98 3.62 1.9-5.85-4.98-3.62h6.15l1.91-5.85"/><path fill="url(#n)" stroke="#000" stroke-width="0.5" d="M46.43 19.35l1.55 4.77h5.01l-4.06 2.94 1.55 4.77-4.05-2.95-4.06 2.95 1.55-4.77-4.06-2.94h5.02l1.55-4.77z"/><path fill="url(#o)" d="M44.33 31.92l1.9 5.85h6.15l-4.98 3.62 1.9 5.85-4.97-3.62-4.98 3.62 1.9-5.85-4.98-3.62h6.16l1.9-5.85"/><path fill="url(#p)" stroke="#000" stroke-width="0.5" d="M44.33 33.34l1.55 4.77h5.01l-4.06 2.94 1.55 4.77-4.05-2.94-4.06 2.94 1.55-4.77-4.06-2.94h5.02l1.55-4.77z"/><path fill="url(#q)" d="M16.34 31.92l1.9 5.85h6.15l-4.97 3.62 1.9 5.85-4.98-3.62-4.97 3.62 1.9-5.85-4.98-3.62h6.15l1.9-5.85"/><path fill="url(#r)" stroke="#000" stroke-width="0.5" d="M16.34 33.34l1.55 4.77h5.01l-4.05 2.94 1.55 4.77-4.06-2.94-4.05 2.94 1.55-4.77-4.06-2.94h5.01l1.55-4.77z"/></svg>