<svg xmlns="http://www.w3.org/2000/svg" xmlns:xlink="http://www.w3.org/1999/xlink" viewBox="0 0 61.86 58.83"><defs><linearGradient id="a" x1="29.07" x2="33.57" y1="5.62" y2="46.33" gradientUnits="userSpaceOnUse"><stop offset="0" stop-color="#e0c77c"/><stop offset="0.47" stop-color="#b2732a"/><stop offset="1" stop-color="#4d1a0d"/></linearGradient><linearGradient id="b" x1="1866.83" x2="1928.69" y1="308.77" y2="308.77" xlink:href="#a"/><linearGradient id="c" x1="24.62" x2="41.22" y1="15.5" y2="61.71" xlink:href="#a"/><linearGradient id="d" x1="1893.43" x2="1920.72" y1="302.23" y2="364.66" xlink:href="#a"/><linearGradient id="e" x1="1879.42" x2="1898.85" y1="284.97" y2="313.14" xlink:href="#a"/><linearGradient id="f" x1="12.6" x2="32.03" y1="5.76" y2="33.93" xlink:href="#a"/><linearGradient id="g" x1="1891.4" x2="1915.16" y1="303.84" y2="333.95" xlink:href="#a"/><linearGradient id="h" x1="24.57" x2="48.34" y1="24.63" y2="54.74" xlink:href="#a"/></defs><path fill="url(#a)" d="M30.93 0l7.3 22.47h23.63L42.74 36.36l7.31 22.47-19.12-13.89-19.12 13.89 7.31-22.47L0 22.47h23.63L30.93 0"/><path fill="url(#b)" d="M1928.22 301.68l-.2.2.67-.2h-.47zm-28.16 7.07l5-7.07-7.21-22.19v28.11a3.69 3.69 0 0 0-2.51.51l-4.81-6.66-.08.23h-23.63l.17.13 26.73 8.31a3.76 3.76 0 0 0 .07 2.64l-7.88 2.89-7.28 22.4.46-.34 16.27-23.12a3.75 3.75 0 0 0 1.93.53h.31l-.12 9.23.25-.18 19.14 13.83-17.13-23.81a3.79 3.79 0 0 0 1.19-1.81c2.55.92 6.08 2.25 8.66 3.22v-.06l17.41-12.62 1-1c-3.51 1.07-20 6.09-27.09 8.35a3.77 3.77 0 0 0-.85-1.52z" transform="translate(-1866.8 -279.2)"/><circle cx="30.66" cy="32.31" r="15.05" fill="url(#c)"/><path fill="url(#d)" d="M1913.34 311.52a15.85 15.85 0 1 1-15.85-15.85 15.86 15.86 0 0 1 15.85 15.85zm-15.85-14.43a14.43 14.43 0 1 0 14.43 14.43 14.43 14.43 0 0 0-14.43-14.43z" transform="translate(-1866.8 -279.2)"/><path fill="url(#e)" d="M1898.06 303.95c-4.83 0-8.74 3.6-8.74 8s3.91 8 8.74 8 8.74-3.6 8.74-8-3.92-8-8.74-8zm0 20.44c-7.44 0-13.48-5.55-13.48-12.4s6-12.4 13.48-12.4 13.48 5.55 13.48 12.4-6.04 12.39-13.48 12.39z" transform="translate(-1866.8 -279.2)"/><ellipse cx="31.23" cy="32.78" fill="url(#f)" rx="4.85" ry="4.46"/><path fill="url(#g)" d="M1897 302.87c-4.83 0-8.74 3.6-8.74 8s3.91 8 8.74 8 8.74-3.6 8.74-8-3.94-8-8.74-8zm0 20.44c-7.44 0-13.48-5.55-13.48-12.4s6-12.4 13.48-12.4 13.48 5.55 13.48 12.4-6.06 12.39-13.48 12.39z" transform="translate(-1866.8 -279.2)"/><ellipse cx="30.15" cy="31.69" fill="url(#h)" rx="4.85" ry="4.46"/><path fill="#74c15d" stroke="#000" stroke-width="0.58" d="M30.69 24.2c-4.83 0-8.74 3.6-8.74 8s3.91 8 8.74 8 8.74-3.6 8.74-8-3.92-8-8.74-8zm0 20.44c-7.44 0-13.48-5.55-13.48-12.4s6-12.4 13.48-12.4 13.48 5.55 13.48 12.4-6 12.39-13.48 12.39z"/><ellipse cx="30.69" cy="32.24" fill="#74c15d" stroke="#000" stroke-width="0.58" rx="4.85" ry="4.46"/></svg>