<svg xmlns="http://www.w3.org/2000/svg" xmlns:xlink="http://www.w3.org/1999/xlink" viewBox="0 0 60.63 60.63"><defs><linearGradient id="a" x1="300.07" x2="350.21" y1="301.89" y2="352.03" gradientUnits="userSpaceOnUse"><stop offset="0" stop-color="#dce0df"/><stop offset="0.47" stop-color="#82a1b2"/><stop offset="1" stop-color="#3c535d"/></linearGradient><clipPath id="b" transform="translate(-291.3 -293.1)"><path fill="url(#a)" d="M335.6 337.42a19.79 19.79 0 1 1 0-28 19.78 19.78 0 0 1 0 28zm16.33-7.52V317l-4.15-1.28a27.21 27.21 0 0 0-2.19-5.27l2-3.84-9.14-9.15-3.84 2a27 27 0 0 0-5.27-2.19l-1.28-4.15h-12.92l-1.28 4.15a27.06 27.06 0 0 0-5.27 2.19l-3.84-2-9.14 9.14 2 3.84a26.91 26.91 0 0 0-2.19 5.27L291.3 317v12.9l4.15 1.28a27 27 0 0 0 2.19 5.28l-2 3.84 9.14 9.15 3.84-2a27.12 27.12 0 0 0 5.27 2.19l1.28 4.15h12.94l1.28-4.15a27.06 27.06 0 0 0 5.27-2.19l3.84 2 9.14-9.15-2-3.84a27.12 27.12 0 0 0 2.19-5.28z"/></clipPath><linearGradient id="c" x1="85.17" x2="29.24" y1="57.56" y2="1.63" xlink:href="#a"/><linearGradient id="d" x1="71.41" x2="15.48" y1="71.32" y2="15.39" xlink:href="#a"/><linearGradient id="e" x1="57.63" x2="1.7" y1="85.11" y2="29.17" xlink:href="#a"/><linearGradient id="f" x1="5" x2="35.3" y1="42.45" y2="72.76" xlink:href="#a"/><linearGradient id="g" x1="42.45" x2="72.76" y1="5" y2="35.3" xlink:href="#a"/><linearGradient id="h" x1="52.64" x2="-3.29" y1="90.09" y2="34.16" xlink:href="#a"/><linearGradient id="i" x1="56.3" x2="0.36" y1="83.9" y2="27.96" xlink:href="#a"/><linearGradient id="j" x1="70.05" x2="14.12" y1="70.14" y2="14.21" xlink:href="#a"/><linearGradient id="k" x1="83.84" x2="27.9" y1="56.36" y2="0.42" xlink:href="#a"/><linearGradient id="l" x1="90.1" x2="34.16" y1="52.64" y2="-3.3" xlink:href="#a"/><linearGradient id="m" x1="23.05" x2="59.15" y1="-4.56" y2="31.54" xlink:href="#a"/><linearGradient id="n" x1="9.29" x2="45.39" y1="9.2" y2="45.3" xlink:href="#a"/><linearGradient id="o" x1="-4.49" x2="31.6" y1="22.98" y2="59.08" xlink:href="#a"/><linearGradient id="p" x1="-9.48" x2="26.61" y1="27.98" y2="64.07" xlink:href="#a"/><linearGradient id="q" x1="-4.55" x2="31.54" y1="23.05" y2="59.14" xlink:href="#a"/><linearGradient id="r" x1="9.19" x2="45.3" y1="9.28" y2="45.39" xlink:href="#a"/><linearGradient id="s" x1="22.98" x2="59.08" y1="-4.5" y2="31.6" xlink:href="#a"/><linearGradient id="t" x1="27.97" x2="64.07" y1="-9.49" y2="26.62" xlink:href="#a"/><linearGradient id="u" x1="16.44" x2="43.94" y1="16.43" y2="43.93" xlink:href="#a"/><linearGradient id="v" x1="334.09" x2="309.67" y1="335.91" y2="311.48" xlink:href="#a"/><radialGradient id="w" cx="30.32" cy="30.31" r="17.78" gradientUnits="userSpaceOnUse"><stop offset="0" stop-color="#ee2c24"/><stop offset="0.38" stop-color="#491410"/><stop offset="1" stop-color="#010101"/></radialGradient></defs><path fill="url(#a)" d="M335.6 337.42a19.79 19.79 0 1 1 0-28 19.78 19.78 0 0 1 0 28zm16.33-7.52V317l-4.15-1.28a27.21 27.21 0 0 0-2.19-5.27l2-3.84-9.14-9.15-3.84 2a27 27 0 0 0-5.27-2.19l-1.28-4.15h-12.92l-1.28 4.15a27.06 27.06 0 0 0-5.27 2.19l-3.84-2-9.14 9.14 2 3.84a26.91 26.91 0 0 0-2.19 5.27L291.3 317v12.9l4.15 1.28a27 27 0 0 0 2.19 5.28l-2 3.84 9.14 9.15 3.84-2a27.12 27.12 0 0 0 5.27 2.19l1.28 4.15h12.94l1.28-4.15a27.06 27.06 0 0 0 5.27-2.19l3.84 2 9.14-9.15-2-3.84a27.12 27.12 0 0 0 2.19-5.28z" transform="translate(-291.3 -293.1)"/><g clip-path="url(#b)"><path fill="url(#c)" d="M23.21 4.78l3.51 3.51h8.72l3.38-3.38-1.4-4.28H24.48l-1.27 4.15"/><path fill="url(#d)" d="M6.97 17.92h4.97l6.16-6.16V6.97l-4.01-2.03-9.15 9.15 2.03 3.83"/><path fill="url(#e)" d="M4.78 38.69l3.52-3.51v-8.72l-3.39-3.38-4.27 1.4v12.94l4.14 1.27"/><path fill="url(#f)" d="M16.66 53.66v-4.97l-6.17-6.16H5.7l-2.03 4.01 9.15 9.15 3.84-2.03"/><path fill="url(#g)" d="M42.71 5.7v4.96l6.16 6.17h4.79l2.03-4.01-9.15-9.15-3.83 2.03"/><path fill="url(#h)" d="M17.93 54.93v-4.97l-6.17-6.16H6.97l-2.03 4.01 9.15 9.15 3.84-2.03"/><path fill="url(#i)" d="M37.43 55.85l-3.52-3.51H25.2l-3.39 3.38 1.4 4.27h12.94l1.28-4.14"/><path fill="url(#j)" d="M53.66 42.71H48.7l-6.17 6.16v4.79l4.01 2.03 9.15-9.15-2.03-3.83"/><path fill="url(#k)" d="M55.85 21.93l-3.51 3.52v8.71l3.38 3.39 4.28-1.4V23.21l-4.15-1.28"/><path fill="url(#l)" d="M43.98 6.97v4.97l6.16 6.16h4.79l2.03-4.01-9.15-9.15-3.83 2.03"/></g><path fill="url(#m)" d="M22.57 4.15l3.52 3.51h8.71l3.39-3.39L36.79 0H23.85l-1.28 4.15"/><path fill="url(#n)" d="M6.34 17.29h4.96l6.17-6.17V6.33L13.45 4.3l-9.14 9.15 2.03 3.84"/><path fill="url(#o)" d="M4.15 38.06l3.51-3.51v-8.72l-3.38-3.39L0 23.85v12.93l4.15 1.28"/><path fill="url(#p)" d="M17.29 54.29v-4.96l-6.16-6.17H6.34l-2.03 4.02 9.14 9.15 3.84-2.04"/><path fill="url(#q)" d="M38.06 56.48l-3.51-3.51h-8.72l-3.38 3.39 1.4 4.27h12.94l1.27-4.15"/><path fill="url(#r)" d="M54.3 43.34h-4.97l-6.17 6.17v4.78l4.02 2.04 9.15-9.15-2.03-3.84"/><path fill="url(#s)" d="M56.48 22.57l-3.51 3.51v8.72l3.39 3.39 4.27-1.41V23.85l-4.15-1.28"/><path fill="url(#t)" d="M43.34 6.33v4.97l6.17 6.17h4.79l2.03-4.02-9.15-9.15-3.84 2.03"/><circle cx="30.32" cy="30.31" r="20.3" fill="url(#u)"/><path fill="url(#v)" d="M302.8 323.42a18.81 18.81 0 1 0 18.8-18.8 18.83 18.83 0 0 0-18.8 18.8zm1.31 0a17.5 17.5 0 1 1 17.49 17.5 17.51 17.51 0 0 1-17.49-17.5z" transform="translate(-291.3 -293.1)"/><circle cx="30.32" cy="30.31" r="17.78" fill="url(#w)"/></svg>