<svg xmlns="http://www.w3.org/2000/svg" xmlns:xlink="http://www.w3.org/1999/xlink" viewBox="0 0 60.56 60.55"><defs><linearGradient id="g" x1="-170.89" x2="-148.27" y1="421.29" y2="458.22" gradientTransform="rotate(20.5 1070.5 760.8)" gradientUnits="userSpaceOnUse"><stop offset="0" stop-color="#c4c4d0"/><stop offset="0.39" stop-color="#9ab7d4"/><stop offset="1" stop-color="#747596"/></linearGradient><linearGradient id="a" x1="31.81" x2="58.3" y1="486.95" y2="543.58" gradientUnits="userSpaceOnUse"><stop offset="0" stop-color="#fff"/><stop offset="0.48" stop-color="#805020"/><stop offset="0.7" stop-color="#8c5f24"/><stop offset="1" stop-color="#a37a2c"/></linearGradient><linearGradient id="h" x1="25.39" x2="44.35" y1="509.35" y2="549.87" xlink:href="#a"/><linearGradient id="d" x1="35.38" x2="59.12" y1="490.81" y2="541.56" gradientUnits="userSpaceOnUse"><stop offset="0" stop-color="#fff"/><stop offset="0.48" stop-color="#d8b94e"/><stop offset="1" stop-color="#805020"/></linearGradient><linearGradient id="i" x1="24.14" x2="50.62" y1="490.56" y2="547.17" gradientUnits="userSpaceOnUse"><stop offset="0.28" stop-color="#d2b54f"/><stop offset="0.36" stop-color="#cfb24d"/><stop offset="0.43" stop-color="#c7a748"/><stop offset="0.49" stop-color="#b9963f"/><stop offset="0.55" stop-color="#a57e32"/><stop offset="0.58" stop-color="#996f2a"/></linearGradient><linearGradient id="b" x1="9.33" x2="33.02" y1="527.41" y2="583.61" gradientUnits="userSpaceOnUse"><stop offset="0" stop-color="#d9bb4f"/><stop offset="0.48" stop-color="#d8b94e"/><stop offset="1" stop-color="#996f2a"/></linearGradient><linearGradient id="j" x1="23.63" x2="40.53" y1="522.12" y2="562.2" xlink:href="#b"/><linearGradient id="c" x1="18.26" x2="41.95" y1="523.64" y2="579.85" gradientUnits="userSpaceOnUse"><stop offset="0" stop-color="#d8b94e"/><stop offset="0.18" stop-color="#d2b149"/><stop offset="0.44" stop-color="#c09c3b"/><stop offset="0.48" stop-color="#bd9939"/><stop offset="1" stop-color="#9599c6"/></linearGradient><linearGradient id="e" x1="9.49" x2="30.49" y1="529.41" y2="579.24" gradientUnits="userSpaceOnUse"><stop offset="0" stop-color="#cdac49"/><stop offset="0.48" stop-color="#c9a746"/><stop offset="1" stop-color="#c5a543"/></linearGradient><linearGradient id="k" x1="9.38" x2="35.86" y1="497.46" y2="554.07" xlink:href="#a"/><linearGradient id="l" x1="38.42" x2="57.17" y1="521.74" y2="566.24" xlink:href="#c"/><linearGradient id="m" x1="-1.59" x2="24.9" y1="502.58" y2="559.21" xlink:href="#a"/><linearGradient id="n" x1="-4.56" x2="21.92" y1="503.98" y2="560.6" xlink:href="#d"/><linearGradient id="o" x1="30.44" x2="30.44" y1="506.26" y2="521.37" gradientUnits="userSpaceOnUse"><stop offset="0" stop-color="#dbbe4f"/><stop offset="0.48" stop-color="#d8b94e"/><stop offset="1" stop-color="#d2be73"/></linearGradient><linearGradient id="p" x1="9.65" x2="30.54" y1="505.38" y2="550.03" gradientUnits="userSpaceOnUse"><stop offset="0" stop-color="#d8b94e"/><stop offset="0.48" stop-color="#ba9636"/><stop offset="1" stop-color="#835422"/></linearGradient><linearGradient id="q" x1="47.26" x2="70.95" y1="511.42" y2="567.63" xlink:href="#c"/><linearGradient id="r" x1="43.72" x2="67.41" y1="512.91" y2="569.12" xlink:href="#e"/><linearGradient id="f" x1="21.13" x2="39.23" y1="15.62" y2="45.07" gradientUnits="userSpaceOnUse"><stop offset="0" stop-color="#cdd5d9"/><stop offset="0.48" stop-color="#7996a6"/><stop offset="1" stop-color="#465c66"/></linearGradient><linearGradient id="s" x1="38.84" x2="21.42" y1="44.21" y2="16.33" xlink:href="#f"/><linearGradient id="t" x1="-318.75" x2="-340.95" y1="177.36" y2="199.56" gradientTransform="rotate(-90 -228.9 -70.6)" gradientUnits="userSpaceOnUse"><stop offset="0" stop-color="#e0ca77"/><stop offset="0.59" stop-color="#d6b861"/><stop offset="1" stop-color="#a47b2c"/></linearGradient><linearGradient id="u" x1="27.2" x2="33.75" y1="26.98" y2="33.53" gradientUnits="userSpaceOnUse"><stop offset="0" stop-color="#996f2a"/><stop offset="1" stop-color="#edd16e"/></linearGradient><radialGradient id="v" cx="30.07" cy="29.13" r="3.62" gradientUnits="userSpaceOnUse"><stop offset="0" stop-color="#cdd5d9"/><stop offset="0.24" stop-color="#cad2d7"/><stop offset="0.41" stop-color="#c1cacf"/><stop offset="0.57" stop-color="#b1bcc1"/><stop offset="0.71" stop-color="#9ba8af"/><stop offset="0.84" stop-color="#7e8f96"/><stop offset="0.97" stop-color="#5b6f79"/><stop offset="1" stop-color="#506670"/></radialGradient><linearGradient id="w" x1="23.6" x2="44.51" y1="526.06" y2="546.97" gradientUnits="userSpaceOnUse"><stop offset="0" stop-color="#7ebc4d"/><stop offset="0.27" stop-color="#74b243"/><stop offset="0.59" stop-color="#589541"/><stop offset="0.6" stop-color="#559240"/><stop offset="0.73" stop-color="#447f3a"/><stop offset="0.86" stop-color="#3a7437"/><stop offset="1" stop-color="#377036"/></linearGradient></defs><path fill="url(#g)" d="M54.35 38.47l-11.22-9.51 10.51-10.28-14.65 1.21.17-14.7-9.51 11.21L19.37 5.89l1.21 14.65-14.7-.16 11.21 9.51L6.58 40.16l14.65-1.21-.16 14.71 9.51-11.22 10.27 10.51-1.2-14.65 14.7.17"/><path fill="url(#a)" d="M49.12 544.4l15.43-7.87H51.12a17.07 17.07 0 0 1-2 7.87z" transform="translate(-4 -506.3)"/><path fill="url(#h)" d="M39.49 552.6L53 555.24l-6.81-6.81a16.9 16.9 0 0 1-6.7 4.17z" transform="translate(-4 -506.3)"/><path fill="url(#d)" d="M53 517.83l-6.76 6.77a15 15 0 0 1 4.06 6.92z" transform="translate(-4 -506.3)"/><path fill="url(#i)" d="M34.28 506.26v13.33a17 17 0 0 1 7.84 2.07z" transform="translate(-4 -506.3)"/><path fill="url(#b)" d="M4 536.53h13.33a16.81 16.81 0 0 1 1.79-7.69z" transform="translate(-4 -506.3)"/><path fill="url(#j)" d="M15.57 517.83l6.71 6.71a15.37 15.37 0 0 1 6.88-4.13z" transform="translate(-4 -506.3)"/><path fill="url(#c)" d="M26.6 551.68l7.68 15.13v-13.43a17.2 17.2 0 0 1-7.68-1.7z" transform="translate(-4 -506.3)"/><path fill="url(#e)" d="M18.13 541.94l-2.56 13.3 6.77-6.76a14.83 14.83 0 0 1-4.21-6.54z" transform="translate(-4 -506.3)"/><path fill="url(#k)" d="M34.26 553.38v13.43l7.87-15.43a17.08 17.08 0 0 1-7.87 2z" transform="translate(-4 -506.3)"/><path fill="url(#l)" d="M46.18 548.43l6.82 6.81-2.64-13.49a16.93 16.93 0 0 1-4.18 6.68z" transform="translate(-4 -506.3)"/><path fill="url(#m)" d="M29.26 552.54a15.1 15.1 0 0 1-6.91-4.06l-6.77 6.76z" transform="translate(-4 -506.3)"/><path fill="url(#n)" d="M19.41 544.38a16.93 16.93 0 0 1-2.07-7.84H4z" transform="translate(-4 -506.3)"/><path fill="url(#o)" d="M26.6 521.37a16.86 16.86 0 0 1 7.69-1.79v-13.32z" transform="translate(-4 -506.3)"/><path fill="url(#p)" d="M18.16 531.42a15.37 15.37 0 0 1 4.13-6.88l-6.71-6.71z" transform="translate(-4 -506.3)"/><path fill="url(#q)" d="M51.13 536.52h13.43l-15.13-7.68a17.23 17.23 0 0 1 1.7 7.68z" transform="translate(-4 -506.3)"/><path fill="url(#r)" d="M46.22 524.6l6.78-6.77-13.3 2.56a14.83 14.83 0 0 1 6.52 4.21z" transform="translate(-4 -506.3)"/><circle cx="30.15" cy="30.31" r="17.91" fill="url(#f)"/><circle cx="30.15" cy="30.31" r="17.03" fill="url(#s)"/><circle cx="30.15" cy="30.31" r="16.26" fill="url(#t)"/><circle cx="30.47" cy="30.25" r="4.63" fill="url(#u)"/><circle cx="30.47" cy="30.25" r="3.36" fill="url(#v)"/><path fill="url(#w)" stroke="#010101" stroke-width="0.5" d="M31.82 521.41l2.23 9.21v.11l2.12-9.43a15.69 15.69 0 0 0-1.79-.11 16.44 16.44 0 0 0-2.56.22zm2.23 21l-2.23 9.21a16.44 16.44 0 0 0 2.6.23 15.69 15.69 0 0 0 1.79-.11l-2.12-9.43zm-10.58-17a16.38 16.38 0 0 0-1.68 2l8.09 4.93.1.05-5.17-8.17a15.57 15.57 0 0 0-1.34 1.17zm14.73 15.22l4.93 8.09a16.12 16.12 0 0 0 2-1.68 15.61 15.61 0 0 0 1.19-1.35l-8.17-5.16zm-9.91-4.19l-9.43-2.13a15.49 15.49 0 0 0-.11 1.79 16.45 16.45 0 0 0 .23 2.6l9.21-2.23zm21-2.13l-9.43 2.13h.11l9.21 2.23a16.34 16.34 0 0 0 .23-2.6 15.86 15.86 0 0 0-.15-1.75zm-26.35 12.75a16.3 16.3 0 0 0 2 1.68l4.93-8.09.05-.1-8.17 5.17a15.36 15.36 0 0 0 1.19 1.34zm23.34-19.66a16.34 16.34 0 0 0-1.68-2 15.7 15.7 0 0 0-1.35-1.19l-5.17 8.17.1-.05z" transform="translate(-4 -506.3)"/></svg>