<svg xmlns="http://www.w3.org/2000/svg" xmlns:xlink="http://www.w3.org/1999/xlink" viewBox="0 0 61.86 58.93"><defs><linearGradient id="a" x1="29.07" x2="33.57" y1="54.38" y2="13.67" gradientTransform="matrix(1 0 0 -1 0 60)" gradientUnits="userSpaceOnUse"><stop offset="0" stop-color="#e0c77c"/><stop offset=".47" stop-color="#b2732a"/><stop offset="1" stop-color="#4d1a0d"/></linearGradient><linearGradient id="b" x1="434.09" x2="495.94" y1="-478.3" y2="-478.3" gradientTransform="matrix(1 0 0 -1 -434.1 -448.7)" xlink:href="#a"/><linearGradient id="c" x1="24.62" x2="41.22" y1="44.5" y2="-1.71" xlink:href="#a"/><linearGradient id="d" x1="460.68" x2="487.98" y1="-471.7" y2="-534.12" gradientTransform="matrix(1 0 0 -1 -434.1 -448.7)" xlink:href="#a"/><linearGradient id="e" x1="36.56" x2="27.2" y1="17.57" y2="33.78" gradientTransform="matrix(1 0 0 -1 0 60)" gradientUnits="userSpaceOnUse"><stop offset="0" stop-color="#9fcf75"/><stop offset=".19" stop-color="#9bcd72"/><stop offset=".37" stop-color="#91c767"/><stop offset=".54" stop-color="#7ebd56"/><stop offset=".59" stop-color="#77b94f"/><stop offset=".73" stop-color="#74b74e"/><stop offset=".84" stop-color="#6ab14c"/><stop offset=".93" stop-color="#5aa749"/><stop offset="1" stop-color="#499c45"/></linearGradient></defs><g style="isolation:isolate"><path fill="url(#a)" d="M30.93 0l7.3 22.47h23.63L42.74 36.36l7.31 22.47-19.12-13.88-19.12 13.88 7.3-22.47L0 22.47h23.63L30.93 0"/><path fill="url(#b)" d="M61.39 22.47l-.21.21.67-.21h-.46zm-28.16 7.07l5-7.07L31 .32v28.11a3.93 3.93 0 0 0-.54 0 3.76 3.76 0 0 0-2 .56l-4.81-6.66-.08.24H0l.17.13L26.9 31a3.74 3.74 0 0 0-.21 1.22 3.8 3.8 0 0 0 .31 1.42l-7.88 2.88-7.28 22.4.46-.34 16.24-23.12a3.77 3.77 0 0 0 1.93.53h.31l-.12 9.23.25-.22L50 58.93 32.91 35a3.77 3.77 0 0 0 1.19-1.81c2.55.92 6.08 2.24 8.66 3.22v-.05l17.41-12.65 1-1c-3.51 1.07-20 6.09-27.09 8.35a3.78 3.78 0 0 0-.85-1.52z"/><circle cx="30.66" cy="32.31" r="15.04" fill="url(#c)"/><path fill="url(#d)" d="M46.51 32.32a15.85 15.85 0 1 1-15.86-15.85 15.85 15.85 0 0 1 15.86 15.85zM30.65 17.89a14.43 14.43 0 1 0 14.43 14.43 14.42 14.42 0 0 0-14.4-14.44z"/><circle cx="30.87" cy="32.57" r="13.83" fill="url(#e)" stroke="#010101"/><path d="M36.68 22.55l1.32.93a4.48 4.48 0 0 1 1.58 1.94 8.14 8.14 0 0 1 .52 5.3 3.31 3.31 0 0 1-.47 1.09 2 2 0 0 0-.31 1.1v1.52a2.19 2.19 0 0 1-.38 1.26 19.46 19.46 0 0 0-1.36 2.22 3.67 3.67 0 0 0-.37 1.56 15.78 15.78 0 0 1-.07 2 2 2 0 0 1-1 1.54 6.51 6.51 0 0 1-3 .82l-.69.17a15.78 15.78 0 0 1-3.37-.08 9.66 9.66 0 0 1-2.83-.81l-.25-.23a2.08 2.08 0 0 1-.83-1.81v-1.55a4 4 0 0 0-.68-2.22c-.19-.31-.4-.61-.59-.91s-.31-.52-.49-.77A2 2 0 0 1 23 34.5v-2a1.49 1.49 0 0 0-.26-.64 4.25 4.25 0 0 1-.69-2 10.2 10.2 0 0 1 .31-3.24 6.77 6.77 0 0 1 4-4.37 12.15 12.15 0 0 1 5.23-1.07 13.44 13.44 0 0 1 5.09 1.37z" opacity=".4" style="mix-blend-mode:hard-light"/><path fill="#faf2e5" d="M36 22.14l1.34 1a4.56 4.56 0 0 1 1.62 2 8.28 8.28 0 0 1 .53 5.4 3.37 3.37 0 0 1-.49 1.05 2 2 0 0 0-.32 1.12v1.54a2.23 2.23 0 0 1-.39 1.29 19.83 19.83 0 0 0-1.39 2.26 3.74 3.74 0 0 0-.38 1.59 16.07 16.07 0 0 1-.07 2.08A2 2 0 0 1 35.37 43a6.64 6.64 0 0 1-3.07.84l-.65.16a16.1 16.1 0 0 1-3.44-.09 9.86 9.86 0 0 1-2.88-.91l-.33-.14a2.12 2.12 0 0 1-.8-1.86v-1.58a4 4 0 0 0-.69-2.26c-.19-.32-.4-.62-.61-.93s-.32-.53-.5-.79a2.06 2.06 0 0 1-.4-1.12v-2.08a1.51 1.51 0 0 0-.26-.66 4.33 4.33 0 0 1-.7-2.09 10.39 10.39 0 0 1 .32-3.31 6.9 6.9 0 0 1 4.12-4.46 12.4 12.4 0 0 1 5.33-1.09A13.71 13.71 0 0 1 36 22.14z"/><path fill="#d2c3b4" d="M37.41 29.56a1.64 1.64 0 0 1-.52 1.86.75.75 0 0 0-.18.89 6.52 6.52 0 0 0 .37 1.34 3.93 3.93 0 0 1-.45 3.68 7.54 7.54 0 0 1-2.11 2.21 1.86 1.86 0 0 0-.78 1.52 3.15 3.15 0 0 1-3.09.29c-.22-.25-.43-.3-.65 0a1.88 1.88 0 0 1-1 .25 5.38 5.38 0 0 1-1.71-.29.72.72 0 0 1-.38-.25 1.76 1.76 0 0 0-.79-1.48 7 7 0 0 1-2.65-3.22 3.55 3.55 0 0 1-.07-2.48 6 6 0 0 0 .48-2 .45.45 0 0 0-.21-.43 1.62 1.62 0 0 1-.52-1.86.18.18 0 0 1 .07.08 1.51 1.51 0 0 0 1.63 1.09 7.19 7.19 0 0 0 2.84-1.17 1.37 1.37 0 0 0 .27-1.7l-.09-.12a1 1 0 0 0-.31-.24 3 3 0 0 0-3.33.53 5.39 5.39 0 0 0-.81 1 .08.08 0 0 1-.1 0 4.39 4.39 0 0 1 2.3-3.12 4 4 0 0 1 3.27.09 3.38 3.38 0 0 0 2.81 0 3.84 3.84 0 0 1 3.83.22A4.45 4.45 0 0 1 37 28.27a1.83 1.83 0 0 1 .23.71.08.08 0 0 1-.1 0 3.86 3.86 0 0 0-1.48-1.42 2.77 2.77 0 0 0-2.7-.05 1.06 1.06 0 0 0-.27.22.79.79 0 0 0-.16.25 1.25 1.25 0 0 0 .48 1.58 6.88 6.88 0 0 0 2.48 1.09 1.91 1.91 0 0 0 1.28-.21 1 1 0 0 0 .57-.81.17.17 0 0 1 .08-.07z"/><path fill="#e7dbcf" d="M22.31 27.35a2.9 2.9 0 0 1 .58-1.63 8 8 0 0 1 4.65-3.3 5.32 5.32 0 0 1 2.18-.07 6.69 6.69 0 0 0 1.85-.06 4.77 4.77 0 0 1 1.89.2 8 8 0 0 1 3 1.75 6.4 6.4 0 0 1 1.65 2.09 2.72 2.72 0 0 1 .26 1c-.23-.32-.38-.61-.6-.85a9.58 9.58 0 0 0-3.68-2.57 1.47 1.47 0 0 0-1.6.21 2.58 2.58 0 0 1-1.8.56 4.36 4.36 0 0 1-2.1-.29 2.44 2.44 0 0 1-.52-.31 1.3 1.3 0 0 0-1.4-.22 7.84 7.84 0 0 0-2.54 1.43 6.37 6.37 0 0 0-1.56 1.55z"/><path fill="#81776d" d="M32.66 27.7a.4.4 0 0 1 .22-.2.09.09 0 0 1 .06 0 1.34 1.34 0 0 0 1 .79 11.81 11.81 0 0 1 1.48.63 1.79 1.79 0 0 0 1.35.08.42.42 0 0 1 .4 0h.06l.08.28a.26.26 0 0 1-.17.37 2.2 2.2 0 0 1-1.82.26 10.63 10.63 0 0 1-2.28-1 .87.87 0 0 1-.38-1.21z"/><path fill="#80776d" d="M27.64 27.46a.45.45 0 0 1 .28.23.94.94 0 0 1-.6 1.22 11.41 11.41 0 0 1-2.23 1 2.16 2.16 0 0 1-1.71-.32.2.2 0 0 1-.13-.29l.07-.3h.06a.32.32 0 0 1 .34 0 1.82 1.82 0 0 0 1.52-.12 10.83 10.83 0 0 1 1.41-.61 1.25 1.25 0 0 0 .99-.81z"/><path fill="#988d82" d="M23.24 29.28a2 2 0 0 0 1.67.55 11.58 11.58 0 0 0 2.43-1 .78.78 0 0 0 .5-.86.63.63 0 0 1 .06-.24l.1.04a1.19 1.19 0 0 1-.72 1.69c-.54.28-1.1.52-1.66.75a2.16 2.16 0 0 1-2-.14.85.85 0 0 1-.41-.43v-.07a.43.43 0 0 1 .03-.29z"/><path fill="#9e9387" d="M32.66 27.7a1.09 1.09 0 0 0 .66 1.21 9 9 0 0 0 2.48 1 2.24 2.24 0 0 0 1.48-.43.39.39 0 0 0 .06-.2.43.43 0 0 1 .08.29v.08a1.58 1.58 0 0 1-1.62.76 6.05 6.05 0 0 1-2.59-1 1.85 1.85 0 0 1-.44-.31 1.21 1.21 0 0 1-.24-1.2.22.22 0 0 1 .13-.2z"/><path fill="#685f57" d="M37.19 29a6.81 6.81 0 0 1-.89.23 3.2 3.2 0 0 1-1.51-.46c-.43-.16-.86-.35-1.3-.5a.88.88 0 0 1-.61-.76 2.29 2.29 0 0 1 2-.3A3.19 3.19 0 0 1 37.19 29z"/><path fill="#675f57" d="M27.64 27.46a.64.64 0 0 1-.49.73c-.73.27-1.44.58-2.14.91a2 2 0 0 1-1.63-.1 3.27 3.27 0 0 1 2.73-1.87 2 2 0 0 1 1.53.33z"/><path fill="#b5a89b" d="M23.18 29.63a2.18 2.18 0 0 0 2.58.41c.52-.24 1-.46 1.56-.72a1 1 0 0 0 .68-1.09 3.39 3.39 0 0 1 0-.47 1.4 1.4 0 0 1-.35 2 8.13 8.13 0 0 1-2.73 1.11 1.81 1.81 0 0 1-1.7-.85.63.63 0 0 1-.04-.39z"/><path fill="#b6a99c" d="M32.51 27.91a1.51 1.51 0 0 1 0 .52.76.76 0 0 0 .41.74 8.81 8.81 0 0 0 2.26 1.06 2 2 0 0 0 2.17-.6.87.87 0 0 1-.57.9 1.93 1.93 0 0 1-1.52.18 6.19 6.19 0 0 1-2.67-1.36 1.29 1.29 0 0 1-.08-1.44z"/><path fill="#faf2e5" d="M30.26 27.69a1.49 1.49 0 0 1 1.64 1.21c.07.31.16.62.23.93a.62.62 0 0 1 0 .39c-.08.19-.18.25-.34.07a2.33 2.33 0 0 1-.32-.43 1.23 1.23 0 0 0-2.32 0 2.53 2.53 0 0 1-.32.43c-.17.2-.28.12-.36-.08a.19.19 0 0 1 0-.07A3.62 3.62 0 0 1 29 28.2a1.59 1.59 0 0 1 1.26-.51z"/><path fill="#b7aa9c" d="M32.15 31.65a4.19 4.19 0 0 1 .22 1.35c0 .17-.07.2-.23.14a1.12 1.12 0 0 1-.6-.63 1.23 1.23 0 0 0-2.25-.08c-.12.19-.23.39-.35.58a.4.4 0 0 1-.48.16c-.18 0-.11-.22-.1-.34a3.33 3.33 0 0 1 .14-.94c.15.18.3.08.43 0a3.21 3.21 0 0 1 1.28-.59 4.14 4.14 0 0 1 1.54.22 2.78 2.78 0 0 0 .4.13z"/><path fill="#696058" d="M28.83 30.84a2.29 2.29 0 0 1 .69-1 1.12 1.12 0 0 1 1.64 0 1.65 1.65 0 0 1 .49.61c0 .25-.25.18-.4.18a6.36 6.36 0 0 0-1.35.1c-.25.06-.47.18-.71.25s-.3.12-.36-.14z"/><path fill="#7f756c" d="M28.83 30.84c.11.16.25.06.35 0a4.17 4.17 0 0 1 2.07-.35.44.44 0 0 0 .4-.08 1.53 1.53 0 0 1 .28.58c-.05.25-.26.19-.4.17a4.32 4.32 0 0 0-2.57.42.33.33 0 0 1-.4 0 2.1 2.1 0 0 1 .27-.74z"/><path fill="#968b80" d="M28.57 31.58a.7.7 0 0 0 .41-.1 4 4 0 0 1 2.45-.41.56.56 0 0 0 .51-.07 1.53 1.53 0 0 1 .21.65c0 .15-.1.13-.2.08a5.26 5.26 0 0 0-1.07-.29 2 2 0 0 0-1.56.32l-.54.35c-.22.14-.33.1-.3-.18z"/><path fill="#e6dacc" d="M26.91 41.06a5.71 5.71 0 0 0 2.18.44c.32 0 .6-.16.91-.15a2 2 0 0 1-1.8.7 3.91 3.91 0 0 1-.66-.12c-.54-.1-.64-.23-.63-.87z"/><path fill="#e5dacc" d="M30.64 41.35c.47.07.93.17 1.4.2a2.81 2.81 0 0 0 1.29-.36.86.86 0 0 1 .4-.13c0 .65 0 .64-.59.86A2.77 2.77 0 0 1 31 41.7a.57.57 0 0 1-.36-.35z"/><path fill="#fef8ee" d="M26.48 35.67l.43-.39a4.09 4.09 0 0 1 2.29-.81 8.93 8.93 0 0 1 3.38.2 3.06 3.06 0 0 1 1.24.61l.43.39a.73.73 0 0 1 .34.56 5.47 5.47 0 0 1-.06 1.92.57.57 0 0 1-.62.49 2.86 2.86 0 0 1-.72-.23 6.73 6.73 0 0 0-2.59-.62 6.89 6.89 0 0 0-2.9.53c-.2.05-.38.17-.58.24a.63.63 0 0 1-.85-.21 3.67 3.67 0 0 1-.14-.84 4.74 4.74 0 0 1 0-1.29.75.75 0 0 1 .35-.55z"/><path fill="#655d55" d="M34.45 38.19a11.29 11.29 0 0 0 .06-1.64 1.45 1.45 0 0 0-.27-.87c.08 0 .11 0 .14.06a.44.44 0 0 0 .69 0 8 8 0 0 1 1.21-.95.38.38 0 0 1 .4-.09.35.35 0 0 1 .06.43 9.82 9.82 0 0 1-1.36 3.13 1 1 0 0 1-.73.17c-.12-.03-.28-.04-.2-.24zm-7.97-2.52a1.9 1.9 0 0 0-.28 1.25v.6c0 .41 0 .5-.4.54a.71.71 0 0 1-.7-.16 10.72 10.72 0 0 1-1.1-2.77.35.35 0 0 1 0-.43.41.41 0 0 1 .43.1 4.21 4.21 0 0 1 .93.73.7.7 0 0 0 1.12.14z"/><path fill="#b3a699" d="M34.45 38.19c.1.27.32.14.48.13s.3-.06.45-.06a1.31 1.31 0 0 1-.73.52 5.39 5.39 0 0 1-2.75 0 9.58 9.58 0 0 0-3.54.11 3 3 0 0 1-1.8-.12 2.74 2.74 0 0 0-.89-.26.45.45 0 0 1-.35-.28 1.79 1.79 0 0 1 1 .07.6.6 0 0 0 .79.15 2.16 2.16 0 0 0 1.13.07 13.43 13.43 0 0 1 2.13-.26c.66 0 1.31.1 2 .2a3.83 3.83 0 0 0 1.52.07.54.54 0 0 0 .56-.34z"/><path fill="#80786f" d="M33.81 35.28a7.38 7.38 0 0 0-6.9 0 .72.72 0 0 1 .49-.38 8 8 0 0 1 5.92 0 .71.71 0 0 1 .49.38z"/><path fill="#82796f" d="M26.33 38.33a3.12 3.12 0 0 1-1-.07.87.87 0 0 1-.23-.35 1.46 1.46 0 0 0 .63.06.37.37 0 0 0 .47-.44 6.56 6.56 0 0 0 .13.8z"/><path fill="#797066" d="M27.63 38.27a6.46 6.46 0 0 1 3.3-.55 5.83 5.83 0 0 1 2.31.63c.07.2-.08.19-.19.19a5.1 5.1 0 0 1-.68-.06 8.78 8.78 0 0 0-3.79 0 1.67 1.67 0 0 1-.81 0c-.11 0-.33-.01-.14-.21z"/><path fill="#988c81" d="M27.63 38.27c-.06.12 0 .13.11.14a2.55 2.55 0 0 0 1-.08 8.42 8.42 0 0 1 3.7 0 4.93 4.93 0 0 1 .71.08c.07 0 .09-.05.1-.12l.64.22a.48.48 0 0 1-.5.17 20 20 0 0 0-3.5-.32c-.54 0-1.08.17-1.61.25a2.53 2.53 0 0 1-1 0c-.09 0-.17 0-.1-.16z"/></g></svg>