<svg xmlns="http://www.w3.org/2000/svg" xmlns:xlink="http://www.w3.org/1999/xlink" viewBox="0 0 60.55 60.55"><defs><linearGradient id="a" x1="391.6" x2="418.09" y1="276.02" y2="332.64" gradientUnits="userSpaceOnUse"><stop offset="0" stop-color="#fff"/><stop offset="0.48" stop-color="#dad8e5"/><stop offset="1" stop-color="#9599c6"/></linearGradient><linearGradient id="b" x1="385.18" x2="404.14" y1="298.41" y2="338.93" xlink:href="#a"/><linearGradient id="c" x1="395.18" x2="418.91" y1="279.88" y2="330.61" xlink:href="#a"/><linearGradient id="d" x1="383.93" x2="410.41" y1="279.62" y2="336.22" xlink:href="#a"/><linearGradient id="e" x1="369.12" x2="392.81" y1="316.46" y2="372.67" xlink:href="#a"/><linearGradient id="f" x1="383.42" x2="400.31" y1="311.18" y2="351.25" xlink:href="#a"/><linearGradient id="g" x1="378.05" x2="401.74" y1="312.7" y2="368.9" xlink:href="#a"/><linearGradient id="h" x1="369.28" x2="390.29" y1="318.46" y2="368.3" xlink:href="#a"/><linearGradient id="i" x1="369.17" x2="395.65" y1="286.51" y2="343.13" xlink:href="#a"/><linearGradient id="j" x1="398.21" x2="416.96" y1="310.79" y2="355.29" xlink:href="#a"/><linearGradient id="k" x1="358.21" x2="384.69" y1="291.65" y2="348.26" xlink:href="#a"/><linearGradient id="l" x1="355.23" x2="381.71" y1="293.04" y2="349.65" xlink:href="#a"/><linearGradient id="m" x1="391.91" x2="415.6" y1="306.86" y2="363.06" xlink:href="#a"/><linearGradient id="n" x1="369.44" x2="390.33" y1="294.44" y2="339.08" xlink:href="#a"/><linearGradient id="o" x1="407.05" x2="430.74" y1="300.48" y2="356.69" xlink:href="#a"/><linearGradient id="p" x1="403.51" x2="427.2" y1="301.97" y2="358.17" xlink:href="#a"/><linearGradient id="q" x1="21.13" x2="39.22" y1="15.62" y2="45.07" xlink:href="#a"/><linearGradient id="r" x1="-127.08" x2="-110.64" y1="534.88" y2="561.63" gradientTransform="rotate(-90 -303.3 214.7)" xlink:href="#a"/><linearGradient id="s" x1="166.15" x2="177.08" y1="279.72" y2="311.75" gradientTransform="translate(220 20)" gradientUnits="userSpaceOnUse"><stop offset="0" stop-color="#fff"/><stop offset="0.39" stop-color="#d6d1bb"/><stop offset="1" stop-color="#c7b674"/></linearGradient><linearGradient id="t" x1="170.02" x2="188.91" y1="295.21" y2="337.51" gradientTransform="translate(220 20)" gradientUnits="userSpaceOnUse"><stop offset="0" stop-color="#fff"/><stop offset="0.39" stop-color="#d6d1bb"/><stop offset="1" stop-color="#c7ab74"/></linearGradient><radialGradient id="u" cx="173.79" cy="302.22" r="14.82" gradientTransform="translate(220 20)" gradientUnits="userSpaceOnUse"><stop offset="0" stop-color="#e07d7d"/><stop offset="0.47" stop-color="#b22726"/><stop offset="1" stop-color="#4b1212"/></radialGradient></defs><g style="isolation:isolate"><path fill="url(#a)" d="M408.91 333.46l15.43-7.87h-13.43a17.06 17.06 0 0 1-2 7.87z" transform="translate(-363.8 -295.3)"/><path fill="url(#b)" d="M399.28 341.65l13.49 2.64-6.77-6.8a16.93 16.93 0 0 1-6.72 4.16z" transform="translate(-363.8 -295.3)"/><path fill="url(#c)" d="M412.78 306.89l-6.78 6.77a15 15 0 0 1 4.06 6.91z" transform="translate(-363.8 -295.3)"/><path fill="url(#d)" d="M394.07 295.31v13.33a16.93 16.93 0 0 1 7.84 2.07z" transform="translate(-363.8 -295.3)"/><path fill="url(#e)" d="M363.79 325.59h13.33a16.81 16.81 0 0 1 1.78-7.69z" transform="translate(-363.8 -295.3)"/><path fill="url(#f)" d="M375.36 306.89l6.71 6.71a15.38 15.38 0 0 1 6.88-4.13z" transform="translate(-363.8 -295.3)"/><path fill="url(#g)" d="M386.39 340.74l7.68 15.13v-13.43a17.24 17.24 0 0 1-7.68-1.7z" transform="translate(-363.8 -295.3)"/><path fill="url(#h)" d="M377.92 331l-2.56 13.3 6.77-6.76a14.8 14.8 0 0 1-4.21-6.54z" transform="translate(-363.8 -295.3)"/><path fill="url(#i)" d="M394.05 342.44v13.43l7.87-15.43a17.08 17.08 0 0 1-7.87 2z" transform="translate(-363.8 -295.3)"/><path fill="url(#j)" d="M406 337.49l6.81 6.81-2.64-13.49a16.94 16.94 0 0 1-4.17 6.68z" transform="translate(-363.8 -295.3)"/><path fill="url(#k)" d="M389 341.6a15.06 15.06 0 0 1-6.91-4.06l-6.78 6.76z" transform="translate(-363.8 -295.3)"/><path fill="url(#l)" d="M379.2 333.44a16.93 16.93 0 0 1-2.07-7.84h-13.34z" transform="translate(-363.8 -295.3)"/><path fill="url(#m)" d="M386.39 310.43a16.77 16.77 0 0 1 7.69-1.78v-13.34z" transform="translate(-363.8 -295.3)"/><path fill="url(#n)" d="M377.95 320.48a15.37 15.37 0 0 1 4.13-6.88l-6.72-6.71z" transform="translate(-363.8 -295.3)"/><path fill="url(#o)" d="M410.92 325.58h13.43l-15.13-7.68a17.27 17.27 0 0 1 1.7 7.68z" transform="translate(-363.8 -295.3)"/><path fill="url(#p)" d="M406 313.66l6.76-6.77-13.3 2.56a14.84 14.84 0 0 1 6.54 4.21z" transform="translate(-363.8 -295.3)"/><circle cx="30.15" cy="30.31" r="17.91" fill="url(#q)"/><circle cx="30.15" cy="30.31" r="16.26" fill="url(#r)"/><path fill="url(#s)" d="M408.45 319.83c-2.89-3.79-8.8-6-14.11-5.68-5.31-.29-11.22 1.88-14.11 5.68a6.07 6.07 0 0 0-1.35 5.12 5.41 5.41 0 0 0 1.5 2.49c.62.6 2.65 1.23 2.49 2.2-.09.59-1 .65-1.22 1.19s.22 1.46.59 2c1.88 3 2.29.59 4.22 1.16a3.84 3.84 0 0 1 2.48 3.09c.19 1.25.26 2.08 2 2.3a7.19 7.19 0 0 1 0-1.83 1.17 1.17 0 0 1 .67.1c0 .86.08 2.93 1.8 2.54 1.34-.31-.37-2.06.9-2.14 1.27.08-.44 1.84.9 2.14 1.72.39 1.81-1.68 1.8-2.54a1.16 1.16 0 0 1 .67-.1 7.28 7.28 0 0 1 0 1.83c1.74-.22 1.82-1.05 2-2.3a3.84 3.84 0 0 1 2.48-3.09c1.93-.58 2.34 1.87 4.22-1.16.37-.58.91-1.37.59-2s-1.13-.6-1.22-1.19c-.15-1 1.88-1.6 2.5-2.2a5.44 5.44 0 0 0 1.5-2.49 6.07 6.07 0 0 0-1.3-5.12zm-20 11.15c-2.29-.29-4-.4-4.56-1.94h.11c-1.65-1.35 2.12-2.28 3.82-1.88a8.73 8.73 0 0 1 2.26 1.39 22.43 22.43 0 0 1 2.67 1.15c.94 1.1-3.13 1.43-4.31 1.3zm5 4.63c-1.42-.48-.42-2.47.07-3.11-.12.5 1.07 3.24-.05 3.11zm2 0c-1.12.13.07-2.58-.07-3.11.5.64 1.5 2.63.08 3.11zM405 329c-.58 1.54-2.27 1.65-4.56 1.94-1.18.15-5.25-.18-4.35-1.28a22 22 0 0 1 2.67-1.15 8.66 8.66 0 0 1 2.26-1.39c1.7-.39 5.47.53 3.82 1.88h.16z" transform="translate(-363.8 -295.3)" style="mix-blend-mode:multiply"/><path fill="url(#t)" d="M407.69 319.06c-2.89-3.8-8.8-6-14.11-5.68-5.31-.29-11.22 1.88-14.11 5.68a6.07 6.07 0 0 0-1.35 5.12 5.43 5.43 0 0 0 1.5 2.49c.62.6 2.65 1.23 2.49 2.2-.09.59-1 .65-1.22 1.19s.22 1.46.59 2c1.88 3 2.29.59 4.22 1.17a3.84 3.84 0 0 1 2.48 3.09c.19 1.25.26 2.08 2 2.3a7.2 7.2 0 0 1 0-1.83 1.17 1.17 0 0 1 .67.1c0 .86.08 2.93 1.8 2.54 1.34-.31-.37-2.06.9-2.14 1.27.08-.44 1.84.9 2.14 1.72.39 1.81-1.68 1.8-2.54a1.16 1.16 0 0 1 .67-.1 7 7 0 0 1 0 1.83c1.74-.22 1.82-1.05 2-2.3a3.84 3.84 0 0 1 2.48-3.09c1.93-.58 2.34 1.87 4.22-1.17.36-.58.91-1.37.59-2s-1.13-.6-1.22-1.19c-.15-1 1.88-1.6 2.49-2.2a5.45 5.45 0 0 0 1.51-2.49 6.07 6.07 0 0 0-1.3-5.12zm-20 11.15c-2.29-.29-4-.4-4.56-1.94h.16c-1.65-1.35 2.12-2.28 3.82-1.88a8.72 8.72 0 0 1 2.26 1.39 22.3 22.3 0 0 1 2.67 1.15c.88 1.07-3.19 1.43-4.36 1.28zm5 4.63c-1.42-.48-.42-2.47.07-3.11-.13.54 1.06 3.27-.05 3.11zm2 0c-1.12.13.07-2.58-.07-3.11.49.64 1.49 2.63.07 3.11zm9.59-6.57c-.58 1.54-2.27 1.65-4.56 1.94-1.18.15-5.25-.18-4.34-1.28a22 22 0 0 1 2.67-1.15 8.69 8.69 0 0 1 2.26-1.39c1.7-.39 5.47.53 3.82 1.88h.16z" transform="translate(-363.8 -295.3)"/><path fill="url(#u)" d="M408.07 319.45c-2.89-3.8-8.8-6-14.11-5.68-5.31-.29-11.22 1.88-14.11 5.68a6.08 6.08 0 0 0-1.35 5.12 5.41 5.41 0 0 0 1.5 2.49c.62.6 2.65 1.23 2.49 2.2-.09.59-1 .65-1.22 1.18s.22 1.46.59 2c1.88 3 2.29.59 4.22 1.16a3.84 3.84 0 0 1 2.48 3.09c.19 1.25.26 2.08 2 2.3a7.19 7.19 0 0 1 0-1.83 1.12 1.12 0 0 1 .67.1c0 .86.08 2.93 1.8 2.54 1.34-.31-.37-2.06.9-2.14 1.27.08-.44 1.83.9 2.14 1.72.39 1.81-1.68 1.8-2.54a1.11 1.11 0 0 1 .67-.1 7.19 7.19 0 0 1 0 1.83c1.74-.22 1.82-1.06 2-2.3a3.85 3.85 0 0 1 2.47-3.09c1.93-.58 2.34 1.87 4.22-1.16.36-.58.91-1.37.59-2s-1.13-.6-1.22-1.18c-.15-1 1.88-1.6 2.49-2.2a5.41 5.41 0 0 0 1.5-2.49 6.06 6.06 0 0 0-1.28-5.12zm-20 11.15c-2.29-.29-4-.4-4.56-1.94h.16c-1.65-1.35 2.12-2.28 3.82-1.89a8.7 8.7 0 0 1 2.26 1.39 21.9 21.9 0 0 1 2.67 1.15c.89 1.1-3.18 1.43-4.36 1.28zm5 4.63c-1.42-.49-.42-2.47.07-3.11-.14.53 1.07 3.23-.05 3.1zm2 0c-1.12.13.07-2.57-.07-3.11.5.64 1.5 2.62.07 3.1zm9.59-6.57c-.58 1.54-2.27 1.65-4.56 1.94-1.18.15-5.25-.18-4.35-1.28a21.6 21.6 0 0 1 2.67-1.15 8.7 8.7 0 0 1 2.26-1.39c1.7-.39 5.47.54 3.82 1.89h.16z" transform="translate(-363.8 -295.3)"/><path fill="none" stroke="#010101" stroke-width="0.39" d="M44.28 24.14c-2.89-3.8-8.8-6-14.11-5.68-5.31-.29-11.22 1.88-14.11 5.68a6.08 6.08 0 0 0-1.35 5.12 5.41 5.41 0 0 0 1.5 2.49c.62.6 2.65 1.23 2.49 2.2-.09.59-1 .65-1.22 1.18s.22 1.46.59 2c1.88 3 2.29.59 4.22 1.16a3.84 3.84 0 0 1 2.48 3.09c.19 1.25.26 2.08 2 2.3a7.19 7.19 0 0 1 0-1.83 1.12 1.12 0 0 1 .67.1c0 .86.08 2.93 1.8 2.54 1.34-.31-.37-2.06.9-2.14 1.27.08-.44 1.83.9 2.14 1.72.39 1.81-1.68 1.8-2.54a1.11 1.11 0 0 1 .67-.1 7.19 7.19 0 0 1 0 1.83c1.74-.22 1.82-1.06 2-2.3a3.85 3.85 0 0 1 2.47-3.09c1.93-.58 2.34 1.87 4.22-1.16.36-.58.91-1.37.59-2s-1.13-.6-1.22-1.18c-.15-1 1.88-1.6 2.49-2.2a5.41 5.41 0 0 0 1.5-2.49 6.06 6.06 0 0 0-1.28-5.12zm-20 11.15c-2.29-.29-4-.4-4.56-1.94h.16C18.23 32 22 31.07 23.7 31.46a8.7 8.7 0 0 1 2.26 1.39A21.9 21.9 0 0 1 28.63 34c.89 1.1-3.18 1.43-4.36 1.28zm5 4.63c-1.42-.49-.42-2.47.07-3.11-.14.53 1.07 3.23-.05 3.1zm2 0c-1.12.13.07-2.57-.07-3.11.5.64 1.5 2.62.07 3.1zm9.59-6.57c-.58 1.54-2.27 1.65-4.56 1.94-1.18.15-5.25-.18-4.35-1.28a21.6 21.6 0 0 1 2.67-1.15 8.7 8.7 0 0 1 2.26-1.39c1.7-.39 5.47.54 3.82 1.89h.16z"/></g></svg>