<svg xmlns="http://www.w3.org/2000/svg" xmlns:xlink="http://www.w3.org/1999/xlink" viewBox="0 0 61.86 58.83"><defs><linearGradient id="a" x1="29.07" x2="33.57" y1="5.62" y2="46.33" gradientUnits="userSpaceOnUse"><stop offset="0" stop-color="#e0c77c"/><stop offset="0.47" stop-color="#b2732a"/><stop offset="1" stop-color="#4d1a0d"/></linearGradient><linearGradient id="e" x1="291.01" x2="352.87" y1="180.63" y2="180.63" xlink:href="#a"/><linearGradient id="f" x1="24.62" x2="41.22" y1="15.5" y2="61.71" xlink:href="#a"/><linearGradient id="g" x1="317.6" x2="344.9" y1="174.1" y2="236.52" xlink:href="#a"/><linearGradient id="b" x1="1.56" x2="14.53" y1="13.34" y2="24.96" gradientUnits="userSpaceOnUse"><stop offset="0" stop-color="#fff"/><stop offset="0.39" stop-color="#48a3da"/><stop offset="1" stop-color="#404ca0"/></linearGradient><linearGradient id="h" x1="5.03" x2="18" y1="9.46" y2="21.08" xlink:href="#b"/><linearGradient id="i" x1="8.5" x2="21.47" y1="5.59" y2="17.21" xlink:href="#b"/><linearGradient id="d" x1="20.27" x2="25.49" y1="29.6" y2="29.6" gradientUnits="userSpaceOnUse"><stop offset="0" stop-color="#217e3e"/><stop offset="0.31" stop-color="#7cc24a"/><stop offset="0.62" stop-color="#74c15d"/><stop offset="0.99" stop-color="#157e3f"/></linearGradient><linearGradient id="c" x1="20.35" x2="25.45" y1="37.02" y2="37.02" gradientUnits="userSpaceOnUse"><stop offset="0.01" stop-color="#4d1a0d"/><stop offset="0.29" stop-color="#e0c77c"/><stop offset="0.69" stop-color="#b2732a"/><stop offset="1" stop-color="#4d1a0d"/></linearGradient><linearGradient id="j" x1="18.1" x2="27.82" y1="39.47" y2="39.47" xlink:href="#c"/><linearGradient id="k" x1="28.06" x2="33.28" y1="29.6" y2="29.6" xlink:href="#d"/><linearGradient id="l" x1="28.14" x2="33.24" y1="37.02" y2="37.02" xlink:href="#c"/><linearGradient id="m" x1="25.89" x2="35.61" y1="39.47" y2="39.47" xlink:href="#c"/><linearGradient id="n" x1="35.85" x2="41.08" y1="29.6" y2="29.6" xlink:href="#d"/><linearGradient id="o" x1="35.94" x2="41.03" y1="37.02" y2="37.02" xlink:href="#c"/><linearGradient id="p" x1="33.69" x2="43.41" y1="39.47" y2="39.47" xlink:href="#c"/></defs><path fill="url(#a)" d="M30.93 0l7.3 22.47h23.63L42.74 36.36l7.31 22.47-19.12-13.88-19.12 13.88 7.3-22.47L0 22.47h23.63L30.93 0"/><path fill="url(#e)" d="M352.4 173.55l-.2.2.67-.2h-.47zm-28.16 7.07l5-7.07-7.24-22.2v28.11a3.94 3.94 0 0 0-.54 0 3.76 3.76 0 0 0-2 .56l-4.81-6.66-.08.24H291l.17.13 26.74 8.27a3.73 3.73 0 0 0-.21 1.22 3.79 3.79 0 0 0 .28 1.42l-7.88 2.89-7.28 22.4.46-.34 16.27-23.12a3.77 3.77 0 0 0 1.93.53h.31l-.12 9.23.25-.18 19.12 13.89-17.13-23.82a3.78 3.78 0 0 0 1.19-1.81c2.55.92 6.08 2.24 8.66 3.22v-.06l17.41-12.65 1-1c-3.51 1.07-20 6.09-27.09 8.35a3.78 3.78 0 0 0-.84-1.55z" transform="translate(-291 -151.1)"/><circle cx="30.66" cy="32.31" r="15.04" fill="url(#f)"/><path fill="url(#g)" d="M337.52 183.39a15.85 15.85 0 1 1-15.85-15.85 15.85 15.85 0 0 1 15.85 15.85zM321.66 169a14.43 14.43 0 1 0 14.43 14.43A14.43 14.43 0 0 0 321.66 169z" transform="translate(-291 -151.1)"/><path fill="url(#b)" d="M26.02 39.62v-4.16h.01V24.82H20.8v10.64h.01v4.16h-.71v.78h6.64v-.78h-.72" opacity="0.58"/><path fill="url(#h)" d="M33.82 39.62v-14.8H28.6v14.8h-.71v.78h6.64v-.78h-.71" opacity="0.58"/><path fill="url(#i)" d="M41.61 39.62v-4.16h.01V24.82h-5.23v10.64h.01v4.16h-.72v.78h6.64v-.78h-.71" opacity="0.58"/><path fill="#fff" d="M24.95 38.53v-14.8h-5.22v14.8h-.71v.79h6.64v-.79h-.71m7.79 0v-14.8h-5.22v14.8h-.71v.79h6.64v-.79h-.71m7.79 0v-14.8h-5.22v10.65h.01v4.15h-.72v.79h6.64v-.79h-.71" opacity="0.49"/><path fill="none" stroke="#010101" stroke-width="0.81" d="M25.48 39.07v-4.15h.01V24.27h-5.22v14.8h-.71v.79h6.64v-.79h-.72z"/><path fill="url(#d)" stroke="#000" stroke-width="0.58" d="M20.27 24.27h5.23v10.64h-5.23z"/><path fill="url(#c)" d="M20.27 34.92h5.21v4.2h-5.21z"/><path fill="url(#j)" d="M19.56 39.07h6.64v.78h-6.64z"/><path fill="none" stroke="#010101" stroke-width="0.41" d="M20.27 34.92h5.21"/><path fill="none" stroke="#010101" stroke-width="0.81" d="M33.28 39.07v-14.8h-5.22v14.8h-.71v.79h6.64v-.79h-.71z"/><path fill="url(#k)" stroke="#000" stroke-width="0.58" d="M28.06 24.27h5.23v10.64h-5.23z"/><path fill="url(#l)" d="M28.06 34.92h5.22v4.2h-5.22z"/><path fill="url(#m)" d="M27.35 39.07h6.64v.78h-6.64z"/><path fill="none" stroke="#010101" stroke-width="0.41" d="M28.06 34.92h5.22"/><path fill="none" stroke="#010101" stroke-width="0.81" d="M41.07 39.07v-4.15h.01V24.27h-5.23v10.65h.01v4.15h-.72v.79h6.64v-.79h-.71z"/><path fill="url(#n)" stroke="#000" stroke-width="0.58" d="M35.85 24.27h5.23v10.64h-5.23z"/><path fill="url(#o)" d="M35.86 34.92h5.21v4.2h-5.21z"/><path fill="url(#p)" d="M35.14 39.07h6.64v.78h-6.64z"/><path fill="none" stroke="#010101" stroke-width="0.41" d="M35.86 34.92h5.21"/></svg>