<svg xmlns="http://www.w3.org/2000/svg" xmlns:xlink="http://www.w3.org/1999/xlink" viewBox="0 0 60.53 60.53"><defs><linearGradient id="a" x1="39.54" x2="15.76" y1="68.21" y2="-29.07" gradientUnits="userSpaceOnUse"><stop offset="0" stop-color="#e0c77c"/><stop offset="0.47" stop-color="#b2732a"/><stop offset="1" stop-color="#4d1a0d"/></linearGradient><linearGradient id="b" x1="160.57" x2="192.32" y1="227.23" y2="276.55" xlink:href="#a"/><linearGradient id="c" x1="161.76" x2="179.96" y1="231.7" y2="278.87" xlink:href="#a"/><linearGradient id="d" x1="182.07" x2="200.27" y1="223.87" y2="271.04" xlink:href="#a"/><linearGradient id="e" x1="155.24" x2="173.44" y1="234.22" y2="281.39" xlink:href="#a"/><linearGradient id="f" x1="175.54" x2="193.75" y1="226.38" y2="273.55" xlink:href="#a"/></defs><circle cx="30.27" cy="30.27" r="30" fill="url(#a)"/><path fill="#fffffb" d="M30.4 56.79a1.55 1.55 0 0 1 1.46-1.63h.36a1.55 1.55 0 0 1 1.67 1.42 1.55 1.55 0 0 1-1.44 1.65h-.49a1.55 1.55 0 0 1-1.54-1.46zm-4.89 1l-.4-.08a1.54 1.54 0 0 1-1.22-1.81 1.54 1.54 0 0 1 1.82-1.22l.36.07a1.54 1.54 0 0 1 1.24 1.8 1.54 1.54 0 0 1-1.52 1.27h-.28zm11.4-1.82a1.54 1.54 0 0 1 1-1.94l.34-.11a1.55 1.55 0 0 1 2 1 1.55 1.55 0 0 1-1 2l-.39.12a1.54 1.54 0 0 1-.46.07 1.54 1.54 0 0 1-1.47-1.08zm-18-.27l-.37-.18a1.54 1.54 0 0 1-.72-2.06 1.55 1.55 0 0 1 2.06-.72l.33.16a1.55 1.55 0 0 1 .76 2.05 1.55 1.55 0 0 1-1.4.9 1.53 1.53 0 0 1-.65-.14zm24.13-2.1a1.54 1.54 0 0 1 .5-2.13l.31-.19a1.55 1.55 0 0 1 2.13.47 1.55 1.55 0 0 1-.47 2.13l-.34.22a1.54 1.54 0 0 1-.81.23 1.54 1.54 0 0 1-1.31-.73zm-30-1.57l-.32-.26a1.55 1.55 0 0 1-.19-2.18 1.55 1.55 0 0 1 2.18-.19l.28.23a1.54 1.54 0 0 1 .22 2.17 1.54 1.54 0 0 1-1.2.57 1.53 1.53 0 0 1-1-.35zm35.34-2.24a1.55 1.55 0 0 1 0-2.19l.25-.26a1.55 1.55 0 0 1 2.18-.07 1.55 1.55 0 0 1 .07 2.18l-.28.3a1.54 1.54 0 0 1-1.11.47 1.54 1.54 0 0 1-1.07-.43zM8.25 47.02l-.24-.33a1.54 1.54 0 0 1 .35-2.15 1.54 1.54 0 0 1 2.16.35l.21.29a1.55 1.55 0 0 1-.32 2.16 1.54 1.54 0 0 1-.92.3 1.54 1.54 0 0 1-1.24-.63zm44.35-2.25a1.54 1.54 0 0 1-.58-2.11l.18-.32a1.54 1.54 0 0 1 2.1-.61 1.54 1.54 0 0 1 .61 2.1l-.2.36a1.55 1.55 0 0 1-1.35.78 1.54 1.54 0 0 1-.76-.2zM4.84 40.98l-.15-.38a1.55 1.55 0 0 1 .88-2 1.54 1.54 0 0 1 2 .87l.14.34a1.55 1.55 0 0 1-.85 2 1.54 1.54 0 0 1-.58.11 1.54 1.54 0 0 1-1.43-1zm50.61-2.12a1.55 1.55 0 0 1-1.09-1.9l.09-.35a1.54 1.54 0 0 1 1.88-1.12 1.55 1.55 0 0 1 1.12 1.88l-.1.4a1.55 1.55 0 0 1-1.49 1.14 1.54 1.54 0 0 1-.4-.05zm-52.4-4.58c0-.13 0-.27-.05-.41a1.54 1.54 0 0 1 1.35-1.72 1.55 1.55 0 0 1 1.72 1.35v.36a1.55 1.55 0 0 1-1.32 1.74h-.21a1.54 1.54 0 0 1-1.53-1.34zm53.67-1.8a1.54 1.54 0 0 1-1.52-1.57v-.92a1.54 1.54 0 0 1 1.51-1.58 1.55 1.55 0 0 1 1.58 1.51v1.05a1.55 1.55 0 0 1-1.55 1.52zM4.31 29.11a1.54 1.54 0 0 1-1.36-1.71v-.41a1.54 1.54 0 0 1 1.73-1.33 1.54 1.54 0 0 1 1.34 1.73v.36a1.55 1.55 0 0 1-1.54 1.37h-.17zm50.07-4.87l-.09-.35a1.54 1.54 0 0 1 1.07-1.9 1.54 1.54 0 0 1 1.9 1.07l.11.39a1.54 1.54 0 0 1-1.1 1.89 1.53 1.53 0 0 1-.4.05 1.55 1.55 0 0 1-1.49-1.15zm-48.9-1.59a1.54 1.54 0 0 1-.89-2l.15-.38a1.55 1.55 0 0 1 2-.86 1.54 1.54 0 0 1 .86 2l-.13.34a1.55 1.55 0 0 1-1.44 1 1.54 1.54 0 0 1-.55-.1zm46.6-4.12l-.18-.32a1.54 1.54 0 0 1 .56-2.11 1.55 1.55 0 0 1 2.11.56l.2.35a1.54 1.54 0 0 1-.59 2.1 1.54 1.54 0 0 1-.75.2 1.54 1.54 0 0 1-1.35-.79zM8.23 16.69a1.55 1.55 0 0 1-.34-2.21l.24-.33a1.54 1.54 0 0 1 2.16-.34 1.54 1.54 0 0 1 .34 2.16l-.21.3a1.55 1.55 0 0 1-1.27.65 1.54 1.54 0 0 1-.89-.28zm40.2-3.12l-.25-.26a1.55 1.55 0 0 1 0-2.19 1.55 1.55 0 0 1 2.19 0l.28.29a1.55 1.55 0 0 1-.06 2.19 1.54 1.54 0 0 1-1.06.42 1.55 1.55 0 0 1-1.12-.48zm-36.07-2a1.54 1.54 0 0 1 .17-2.18l.31-.26a1.55 1.55 0 0 1 2.18.2 1.55 1.55 0 0 1-.2 2.18l-.28.23a1.54 1.54 0 0 1-1 .37 1.54 1.54 0 0 1-1.18-.54zm31.3-1.94l-.31-.19a1.54 1.54 0 0 1-.51-2.12 1.54 1.54 0 0 1 2.12-.52l.35.22a1.54 1.54 0 0 1 .48 2.13 1.54 1.54 0 0 1-1.31.72 1.54 1.54 0 0 1-.82-.24zm-26-2a1.54 1.54 0 0 1 .71-2.07l.37-.18a1.55 1.55 0 0 1 2.06.74 1.54 1.54 0 0 1-.74 2.06l-.33.16a1.54 1.54 0 0 1-.68.16 1.54 1.54 0 0 1-1.39-.86zM38.12 7l-.35-.11a1.55 1.55 0 0 1-1-1.93 1.54 1.54 0 0 1 1.93-1l.39.12a1.54 1.54 0 0 1 1 1.94 1.54 1.54 0 0 1-1.47 1.07 1.53 1.53 0 0 1-.47-.07zM23.69 5.18a1.54 1.54 0 0 1 1.2-1.83l.4-.08A1.55 1.55 0 0 1 27.1 4.5a1.55 1.55 0 0 1-1.23 1.81l-.36.07a1.55 1.55 0 0 1-.32 0 1.55 1.55 0 0 1-1.51-1.23zm8.33.73h-.36a1.54 1.54 0 0 1-1.47-1.61 1.54 1.54 0 0 1 1.61-1.47h.41a1.54 1.54 0 0 1 1.45 1.63 1.55 1.55 0 0 1-1.54 1.45h-.09z" opacity="0.36"/><path fill="url(#b)" d="M146.11 251.79a30.27 30.27 0 1 0 30.27-30.27 30.3 30.3 0 0 0-30.27 30.27zm.92 0a29.35 29.35 0 1 1 29.35 29.35A29.38 29.38 0 0 1 147 251.79z" transform="translate(-146.1 -221.5)"/><path fill="#010101" d="M18.75 9.76l2.57 7.91h8.33l-6.74 4.9 2.58 7.91-6.74-4.89-6.73 4.89 2.57-7.91-6.74-4.9h8.33l2.57-7.91" style="isolation:isolate"/><path fill="url(#c)" d="M164.24 231.07l-2.43 7.46h-9.87l8 5.8-3.05 9.39 8-5.8 8 5.8-3.05-9.39 8-5.8h-9.87l-3.05-9.39z" transform="translate(-146.1 -221.5)"/><path fill="#74c15d" stroke="#000" stroke-width="0.58" d="M18.75 9.76l2.57 7.91h8.33l-6.74 4.9 2.58 7.91-6.74-4.89-6.73 4.89 2.57-7.91-6.74-4.9h8.33l2.57-7.91z"/><path fill="#010101" d="M42.07 9.73l2.58 7.92h8.32l-6.73 4.89 2.57 7.92-6.74-4.89-6.73 4.89 2.57-7.92-6.74-4.89h8.33l2.57-7.92" style="isolation:isolate"/><path fill="url(#d)" d="M187.56 231l-2.42 7.46h-9.87l8 5.8-3.05 9.39 8-5.8 8 5.8-3.05-9.39 8-5.8h-9.87l-3-9.39z" transform="translate(-146.1 -221.5)"/><path fill="#74c15d" stroke="#000" stroke-width="0.58" d="M42.07 9.73l2.58 7.92h8.32l-6.73 4.89 2.57 7.92-6.74-4.89-6.73 4.89 2.57-7.92-6.74-4.89h8.33l2.57-7.92z"/><path fill="#010101" d="M18.75 29.18l2.57 7.92h8.33l-6.74 4.89 2.58 7.92-6.74-4.89-6.73 4.89 2.57-7.92-6.74-4.89h8.33l2.57-7.92" style="isolation:isolate"/><path fill="url(#e)" d="M164.24 250.5l-2.43 7.5h-9.87l8 5.8-3.05 9.39 8-5.8 8 5.8-3.05-9.39 8-5.8h-9.87l-3.05-9.39z" transform="translate(-146.1 -221.5)"/><path fill="#74c15d" stroke="#000" stroke-width="0.58" d="M18.75 29.18l2.57 7.92h8.33l-6.74 4.89 2.58 7.92-6.74-4.89-6.73 4.89 2.57-7.92-6.74-4.89h8.33l2.57-7.92z"/><path fill="#010101" d="M42.07 29.16l2.58 7.92h8.32l-6.73 4.89 2.57 7.92-6.74-4.9-6.73 4.9 2.57-7.92-6.74-4.89h8.33l2.57-7.92" style="isolation:isolate"/><path fill="url(#f)" d="M187.56 250.48l-2.42 7.46h-9.87l8 5.8-3.05 9.39 8-5.8 8 5.8-3.05-9.39 8-5.8h-9.87l-3-9.39z" transform="translate(-146.1 -221.5)"/><path fill="#74c15d" stroke="#000" stroke-width="0.58" d="M42.07 29.16l2.58 7.92h8.32l-6.73 4.89 2.57 7.92-6.74-4.9-6.73 4.9 2.57-7.92-6.74-4.89h8.33l2.57-7.92z"/></svg>