<svg xmlns="http://www.w3.org/2000/svg" xmlns:xlink="http://www.w3.org/1999/xlink" viewBox="0 0 60.63 52.51"><defs><linearGradient id="a" x1="298.94" x2="251.11" y1="194.35" y2="168.91" gradientTransform="translate(307.44 209) rotate(180)" gradientUnits="userSpaceOnUse"><stop offset="0" stop-color="#f7fbff"/><stop offset="0.15" stop-color="#f5faff"/><stop offset="0.23" stop-color="#edf7fd"/><stop offset="0.28" stop-color="#e0f2fb"/><stop offset="0.33" stop-color="#ceeaf7"/><stop offset="0.37" stop-color="#b6e0f3"/><stop offset="0.4" stop-color="#a6d9f0"/><stop offset="1" stop-color="#2c98d4"/></linearGradient><linearGradient id="c" x1="6.63" x2="31.12" y1="12.66" y2="24.61" gradientTransform="matrix(1, 0, 0, 1, 0, 0)" xlink:href="#a"/><linearGradient id="d" x1="0" x2="30.32" y1="39.38" y2="39.38" gradientTransform="matrix(1, 0, 0, 1, 0, 0)" xlink:href="#a"/><linearGradient id="b" x1="30.32" x2="30.32" y1="26.26" y2="52.51" gradientUnits="userSpaceOnUse"><stop offset="0.46" stop-color="#f7fbff"/><stop offset="0.5" stop-color="#f5faff"/><stop offset="0.58" stop-color="#edf7fd"/><stop offset="0.67" stop-color="#e0f2fb"/><stop offset="0.72" stop-color="#ceeaf7"/><stop offset="0.81" stop-color="#b6e0f3"/><stop offset="0.89" stop-color="#a6d9f0"/><stop offset="1" stop-color="#2c98d4"/></linearGradient><linearGradient id="e" x1="28.63" x2="57.64" y1="34.19" y2="40.36" gradientTransform="matrix(1, 0, 0, 1, 0, 0)" xlink:href="#a"/><linearGradient id="f" x1="56.1" x2="42.35" y1="5.41" y2="32.39" gradientTransform="matrix(1, 0, 0, 1, 0, 0)" xlink:href="#a"/><linearGradient id="g" x1="28.54" x2="38.75" y1="-4.87" y2="23.18" gradientTransform="matrix(1, 0, 0, 1, 0, 0)" xlink:href="#a"/><linearGradient id="h" x1="292.41" x2="258.89" y1="198.04" y2="164.51" gradientTransform="translate(307.44 209) rotate(180)" gradientUnits="userSpaceOnUse"><stop offset="0" stop-color="#657175"/><stop offset="0.56" stop-color="#3c4344"/><stop offset="1" stop-color="#020202"/></linearGradient><linearGradient id="i" x1="281.76" x2="271.59" y1="185.21" y2="179.81" xlink:href="#a"/><linearGradient id="j" x1="25.28" x2="30.49" y1="23.37" y2="25.91" gradientTransform="matrix(1, 0, 0, 1, 0, 0)" xlink:href="#a"/><linearGradient id="k" x1="23.87" x2="30.32" y1="29.04" y2="29.04" gradientTransform="matrix(1, 0, 0, 1, 0, 0)" xlink:href="#a"/><linearGradient id="l" x1="30.32" x2="30.32" y1="26.26" y2="31.83" xlink:href="#b"/><linearGradient id="m" x1="29.96" x2="36.12" y1="27.94" y2="29.25" gradientTransform="matrix(1, 0, 0, 1, 0, 0)" xlink:href="#a"/><linearGradient id="n" x1="35.79" x2="32.87" y1="21.83" y2="27.56" gradientTransform="matrix(1, 0, 0, 1, 0, 0)" xlink:href="#a"/><linearGradient id="o" x1="29.94" x2="32.11" y1="19.64" y2="25.6" gradientTransform="matrix(1, 0, 0, 1, 0, 0)" xlink:href="#a"/><linearGradient id="p" x1="26.8" x2="33.84" y1="22.73" y2="29.78" gradientUnits="userSpaceOnUse"><stop offset="0" stop-color="#e9f5f8"/><stop offset="0.56" stop-color="#bbe5f5"/><stop offset="1" stop-color="#8ccbe8"/></linearGradient></defs><path fill="url(#a)" d="M45.48 0l15.15 26.25-15.15 26.26H15.16L0 26.25 15.16 0h30.32"/><path fill="url(#c)" d="M15.16 0l15.16 26.25H0L15.16 0"/><path fill="url(#d)" d="M15.16 52.51l15.16-26.26H0l15.16 26.26"/><path fill="url(#b)" d="M30.32 26.25l15.16 26.26H15.16l15.16-26.26"/><path fill="url(#e)" d="M45.48 52.51l15.15-26.26H30.32l15.16 26.26"/><path fill="url(#f)" d="M45.48 0l15.15 26.25H30.32L45.48 0"/><path fill="url(#g)" d="M30.32 26.25L45.48 0H15.16l15.16 26.25"/><path fill="url(#h)" d="M42.44 5.25l12.13 21-12.13 21.01H18.19L6.06 26.25l12.13-21h24.25"/><path fill="url(#i)" d="M33.54 20.68l3.22 5.57-3.22 5.58h-6.45l-3.22-5.58 3.22-5.57h6.45"/><path fill="url(#j)" d="M27.09 20.68l3.23 5.57h-6.45l3.22-5.57"/><path fill="url(#k)" d="M27.09 31.83l3.23-5.58h-6.45l3.22 5.58"/><path fill="url(#l)" d="M30.32 26.25l3.22 5.58h-6.45l3.23-5.58"/><path fill="url(#m)" d="M33.54 31.83l3.22-5.58h-6.44l3.22 5.58"/><path fill="url(#n)" d="M33.54 20.68l3.22 5.57h-6.44l3.22-5.57"/><path fill="url(#o)" d="M30.32 26.25l3.22-5.57h-6.45l3.23 5.57"/><path fill="url(#p)" d="M32.89 21.79l2.58 4.46-2.58 4.47h-5.15l-2.58-4.47 2.58-4.46h5.15"/></svg>