<svg xmlns="http://www.w3.org/2000/svg" xmlns:xlink="http://www.w3.org/1999/xlink" viewBox="0 0 58.04 57.99"><defs><linearGradient id="a" x1="16.16" x2="41.52" y1="67.54" y2="108.95" gradientTransform="translate(0.52 -58.66)" gradientUnits="userSpaceOnUse"><stop offset="0" stop-color="#fff"/><stop offset="0.39" stop-color="#ffe300"/><stop offset="1" stop-color="#c67a29"/></linearGradient><linearGradient id="c" x1="228.26" x2="270.96" y1="95.67" y2="120.77" gradientTransform="matrix(1, 0, 0, 1, 0, 0)" xlink:href="#a"/><linearGradient id="d" x1="23.06" x2="39.66" y1="12.12" y2="58.33" gradientTransform="matrix(1, 0, 0, 1, 0, 0)" xlink:href="#a"/><linearGradient id="e" x1="239.76" x2="276.47" y1="94.75" y2="148.22" gradientTransform="matrix(1, 0, 0, 1, 0, 0)" xlink:href="#a"/><linearGradient id="f" x1="223.49" x2="242.95" y1="71.18" y2="99.14" gradientTransform="matrix(1, 0, 0, 1, 0, 0)" xlink:href="#a"/><linearGradient id="g" x1="4.01" x2="23.47" y1="-7.48" y2="20.49" gradientTransform="matrix(1, 0, 0, 1, 0, 0)" xlink:href="#a"/><linearGradient id="h" x1="255.13" x2="279.18" y1="113.92" y2="137.56" gradientTransform="matrix(1, 0, 0, 1, 0, 0)" xlink:href="#a"/><linearGradient id="i" x1="35.65" x2="59.7" y1="35.26" y2="58.9" gradientTransform="matrix(1, 0, 0, 1, 0, 0)" xlink:href="#a"/><linearGradient id="b" x1="231.66" x2="271.29" y1="89.8" y2="131.23" gradientUnits="userSpaceOnUse"><stop offset="0" stop-color="#e39e4f"/><stop offset="0.99" stop-color="#8f4f21"/></linearGradient><linearGradient id="j" x1="12.18" x2="51.81" y1="11.14" y2="52.57" xlink:href="#b"/></defs><path fill="url(#a)" d="M58 29l-13.02-6.62L49.5 8.49l-13.88 4.53L29 0l-6.62 13.02L8.49 8.49l4.53 13.89L0 29l13.02 6.62L8.49 49.5l13.89-4.52L29 57.99l6.62-13.01L49.5 49.5l-4.52-13.88L58 29"/><path fill="url(#c)" d="M252 109l12.43 5.23 13.08-6.51s-17.42-.19-25.23-.2a3.67 3.67 0 0 0-.29-1.38l12.48-5.14 4.59-13.87s-12.4 12.24-17.9 17.78a3.69 3.69 0 0 0-1.18-.77c1.91-4.68 5.12-12.48 5.12-12.48l-6.62-13v25.23a3.69 3.69 0 0 0-1.36.29c-2-4.67-5.18-12.45-5.18-12.45l-13.88-4.54S240.34 99.54 245.9 105a3.67 3.67 0 0 0-.76 1.16L232.69 101l-13 6.57s17.42.11 25.23.08a3.67 3.67 0 0 0 .29 1.38l-12.45 5.19-4.53 13.88s12.35-12.28 17.83-17.85a3.7 3.7 0 0 0 1.15.75c-1.94 4.68-5.18 12.45-5.18 12.45l6.56 13.05s.13-17.42.1-25.23A3.7 3.7 0 0 0 250 111c1.9 4.69 5 12.51 5 12.51l13.83 4.7s-12.13-12.5-17.62-18.05A3.72 3.72 0 0 0 252 109z" transform="translate(-219.48 -78.66)"/><circle cx="29.1" cy="28.93" r="15.05" fill="url(#d)"/><path fill="url(#e)" d="M264.43 107.59a15.85 15.85 0 1 1-15.85-15.85 15.85 15.85 0 0 1 15.85 15.85zm-15.85-14.43A14.43 14.43 0 1 0 263 107.59a14.43 14.43 0 0 0-14.42-14.43z" transform="translate(-219.48 -78.66)"/><path fill="url(#f)" d="M249.15 100c-4.83 0-8.74 3.6-8.74 8s3.91 8 8.74 8 8.74-3.6 8.74-8-3.89-8-8.74-8zm0 20.44c-7.44 0-13.48-5.55-13.48-12.4s6-12.4 13.48-12.4 13.47 5.55 13.47 12.4-6.03 12.42-13.47 12.42z" transform="translate(-219.48 -78.66)"/><ellipse cx="29.67" cy="29.4" fill="url(#g)" rx="4.85" ry="4.46"/><path fill="url(#h)" d="M248.07 98.94c-4.83 0-8.74 3.6-8.74 8s3.91 8 8.74 8 8.74-3.6 8.74-8-3.92-8-8.74-8zm0 20.44c-7.45 0-13.48-5.55-13.48-12.4s6-12.4 13.48-12.4 13.48 5.55 13.48 12.4-6.04 12.4-13.48 12.4z" transform="translate(-219.48 -78.66)"/><ellipse cx="28.59" cy="28.32" fill="url(#i)" rx="4.85" ry="4.46"/><path fill="url(#b)" stroke="#000" stroke-width="0.58" d="M248.61 99.48c-4.83 0-8.74 3.6-8.74 8s3.91 8 8.74 8 8.74-3.6 8.74-8-3.92-8-8.74-8zm0 20.44c-7.44 0-13.48-5.55-13.48-12.4s6-12.4 13.48-12.4 13.48 5.55 13.48 12.4-6.04 12.4-13.48 12.4z" transform="translate(-219.48 -78.66)"/><ellipse cx="29.13" cy="28.86" fill="url(#j)" stroke="#000" stroke-width="0.58" rx="4.85" ry="4.46"/></svg>