<svg xmlns="http://www.w3.org/2000/svg" xmlns:xlink="http://www.w3.org/1999/xlink" viewBox="0 0 49.96 57.69"><defs><linearGradient id="a" x1="18.97" x2="31.58" y1="8.67" y2="51" gradientUnits="userSpaceOnUse"><stop offset="0" stop-color="#fff"/><stop offset="0.39" stop-color="#baced6"/><stop offset="1" stop-color="#749dc7"/></linearGradient><linearGradient id="c" x1="166.46" x2="196" y1="125.2" y2="87.9" xlink:href="#a"/><linearGradient id="d" x1="18.46" x2="35.05" y1="11.4" y2="57.61" xlink:href="#a"/><linearGradient id="e" x1="169.27" x2="205.98" y1="96.25" y2="149.72" xlink:href="#a"/><linearGradient id="f" x1="153.34" x2="173.2" y1="77.88" y2="102.74" xlink:href="#a"/><linearGradient id="g" x1="-0.25" x2="19.62" y1="-3" y2="21.86" xlink:href="#a"/><linearGradient id="h" x1="182.97" x2="203.65" y1="113.53" y2="132.85" xlink:href="#a"/><linearGradient id="i" x1="29.38" x2="50.06" y1="32.65" y2="51.97" xlink:href="#a"/><linearGradient id="b" x1="157.27" x2="191.86" y1="87.74" y2="123.05" gradientUnits="userSpaceOnUse"><stop offset="0" stop-color="#9783bd"/><stop offset="0.99" stop-color="#7a2675"/></linearGradient><linearGradient id="j" x1="3.68" x2="38.27" y1="6.86" y2="42.17" xlink:href="#b"/></defs><path fill="url(#a)" d="M24.98 0l7.21 16.36 17.77-1.94L39.4 28.84l10.56 14.43-17.77-1.93-7.21 16.35-7.21-16.35L0 43.27l10.56-14.43L0 14.42l17.77 1.94L24.98 0"/><path fill="url(#c)" d="M181.51 111.11a3.38 3.38 0 0 0 .48-1.67l11 .24 10.48-14.32-22 12.33a3.44 3.44 0 0 0-1.18-1.23l5.74-9.26h-.33l-7.21-16.35-.17.39.15 24.67a3.41 3.41 0 0 0-1.68.45L171.47 97l-.12.27-17.43-1.9 21.67 12.33a3.4 3.4 0 0 0-.45 1.69l-11.15.12.15.2-9.67 13.2-.67 1.19.48-.05 21.35-12.93a3.46 3.46 0 0 0 1.18 1.17l-5.89 10h.42l7.18 16.28v-25.71a3.42 3.42 0 0 0 1.65-.42l5.49 10 .07-.16 17.7 1.92z" transform="translate(-153.6 -80.9)"/><circle cx="24.49" cy="28.21" r="15.05" fill="url(#d)"/><path fill="url(#e)" d="M193.94 109.09a15.85 15.85 0 1 1-15.85-15.85 15.85 15.85 0 0 1 15.85 15.85zm-15.86-14.43a14.43 14.43 0 1 0 14.43 14.43 14.43 14.43 0 0 0-14.43-14.43z" transform="translate(-153.6 -80.9)"/><path fill="url(#f)" d="M178.65 101.52c-4.83 0-8.74 3.6-8.74 8s3.91 8 8.74 8 8.74-3.6 8.74-8-3.91-8-8.74-8zm0 20.44c-7.44 0-13.48-5.55-13.48-12.4s6-12.4 13.48-12.4 13.48 5.55 13.48 12.4S186.09 122 178.65 122z" transform="translate(-153.6 -80.9)"/><ellipse cx="25.06" cy="28.68" fill="url(#g)" rx="4.85" ry="4.46"/><path fill="url(#h)" d="M177.57 100.44c-4.83 0-8.74 3.6-8.74 8s3.91 8 8.74 8 8.74-3.6 8.74-8-3.91-8-8.74-8zm0 20.44c-7.44 0-13.48-5.55-13.48-12.4s6-12.4 13.48-12.4 13.43 5.55 13.43 12.4-6 12.4-13.43 12.4z" transform="translate(-153.6 -80.9)"/><ellipse cx="23.98" cy="27.6" fill="url(#i)" rx="4.85" ry="4.46"/><path fill="url(#b)" stroke="#000" stroke-width="0.58" d="M178.11 101c-4.83 0-8.74 3.6-8.74 8s3.91 8 8.74 8 8.74-3.6 8.74-8-3.91-8-8.74-8zm0 20.44c-7.44 0-13.48-5.55-13.48-12.4s6-12.4 13.48-12.4 13.48 5.55 13.48 12.4-6.04 12.38-13.48 12.38z" transform="translate(-153.6 -80.9)"/><ellipse cx="24.52" cy="28.14" fill="url(#j)" stroke="#000" stroke-width="0.58" rx="4.85" ry="4.46"/></svg>