<svg xmlns="http://www.w3.org/2000/svg" xmlns:xlink="http://www.w3.org/1999/xlink" viewBox="0 0 61.86 58.83"><defs><linearGradient id="a" x1="29.07" x2="33.57" y1="5.62" y2="46.33" gradientUnits="userSpaceOnUse"><stop offset="0" stop-color="#e0c77c"/><stop offset="0.47" stop-color="#b2732a"/><stop offset="1" stop-color="#4d1a0d"/></linearGradient><linearGradient id="c" x1="435.35" x2="497.21" y1="181.69" y2="181.69" xlink:href="#a"/><linearGradient id="d" x1="24.62" x2="41.22" y1="15.5" y2="61.71" xlink:href="#a"/><linearGradient id="e" x1="461.95" x2="489.25" y1="175.15" y2="237.58" xlink:href="#a"/><linearGradient id="f" x1="7.28" x2="20.07" y1="10.38" y2="22.63" xlink:href="#a"/><linearGradient id="g" x1="442.63" x2="455.42" y1="162.51" y2="174.76" xlink:href="#a"/><linearGradient id="b" x1="28.61" x2="32.39" y1="32.6" y2="32.6" gradientUnits="userSpaceOnUse"><stop offset="0" stop-color="#84d1e1"/><stop offset="0.99" stop-color="#077e74"/></linearGradient><linearGradient id="h" x1="452.79" x2="478.92" y1="184.73" y2="184.73" xlink:href="#b"/></defs><path fill="url(#a)" d="M30.93 0l7.3 22.47h23.63L42.74 36.36l7.31 22.47-19.12-13.88-19.12 13.88 7.31-22.47L0 22.47h23.63L30.93 0"/><path fill="url(#c)" d="M496.75 174.6l-.2.2.67-.2h-.47zm-28.16 7.07l5-7.07-7.21-22.2v28.11a4 4 0 0 0-.54 0 3.75 3.75 0 0 0-2 .56l-4.81-6.66-.08.24h-23.6l.18.13 26.73 8.22a3.75 3.75 0 0 0 .07 2.64l-7.88 2.89-7.28 22.47.46-.34 16.27-23.12a3.75 3.75 0 0 0 1.93.53h.31l-.14 9.19.25-.18L485.4 211l-17.13-23.82a3.77 3.77 0 0 0 1.19-1.81c2.55.92 6.08 2.24 8.66 3.22v-.06l17.41-12.65 1-1c-3.52 1.07-20 6.09-27.09 8.35a3.78 3.78 0 0 0-.85-1.56z" transform="translate(-435.4 -152.1)"/><circle cx="30.66" cy="32.31" r="15.05" fill="url(#d)"/><path fill="url(#e)" d="M481.87 184.44A15.85 15.85 0 1 1 466 168.59a15.85 15.85 0 0 1 15.87 15.85zM466 170a14.43 14.43 0 1 0 14.43 14.43A14.43 14.43 0 0 0 466 170z" transform="translate(-435.4 -152.1)"/><circle cx="31.04" cy="33.14" r="1.89" fill="url(#f)" style="isolation:isolate" opacity="0.59"/><path fill="url(#g)" d="M466.39 172.21a13.06 13.06 0 1 0 13.06 13.06 13.08 13.08 0 0 0-13.06-13.06zm1.09 23.88v-7.57a3.39 3.39 0 0 1-2.19 0v7.57a10.9 10.9 0 0 1-9.73-9.72h7.57a3.38 3.38 0 0 1-.18-1.09 3.44 3.44 0 0 1 .18-1.09h-7.57a10.9 10.9 0 0 1 9.73-9.72V182a3.39 3.39 0 0 1 2.19 0v-7.57a10.89 10.89 0 0 1 9.72 9.72h-7.57a3.39 3.39 0 0 1 0 2.19h7.57a10.89 10.89 0 0 1-9.71 9.75z" transform="translate(-435.4 -152.1)" opacity="0.59"/><circle cx="29.96" cy="32.06" r="1.89" fill="#fff" style="isolation:isolate"/><circle cx="29.96" cy="32.06" r="1.89" fill="#fff" opacity="0.66"/><circle cx="30.5" cy="32.6" r="1.89" fill="url(#b)" stroke="#000" stroke-width="0.77" style="isolation:isolate"/><path fill="url(#h)" stroke="#000" stroke-width="0.77" d="M465.85 171.67a13.06 13.06 0 1 0 13.06 13.06 13.08 13.08 0 0 0-13.06-13.06zm1.1 23.88V188a3.4 3.4 0 0 1-2.19 0v7.57a10.9 10.9 0 0 1-9.73-9.72h7.57a3.39 3.39 0 0 1 0-2.19H455a10.9 10.9 0 0 1 9.73-9.73v7.57a3.39 3.39 0 0 1 1.09-.18 3.44 3.44 0 0 1 1.1.18v-7.57a10.9 10.9 0 0 1 9.72 9.73h-7.57a3.42 3.42 0 0 1 0 2.19h7.57a10.9 10.9 0 0 1-9.69 9.7z" transform="translate(-435.4 -152.1)"/><circle cx="30.5" cy="32.6" r="1.89" fill="#74c15d" stroke="#000" stroke-width="0.58"/><path fill="#fff" d="M29.96 19a13.06 13.06 0 1 0 13.06 13.06A13.08 13.08 0 0 0 29.96 19zm1.1 23.87V35.3a3.39 3.39 0 0 1-2.19 0v7.57a10.89 10.89 0 0 1-9.72-9.72h7.57a3.39 3.39 0 0 1 0-2.19h-7.57a10.89 10.89 0 0 1 9.72-9.73v7.57a3.39 3.39 0 0 1 2.19 0v-7.57a10.9 10.9 0 0 1 9.72 9.73h-7.57a3.39 3.39 0 0 1 0 2.19h7.57a10.9 10.9 0 0 1-9.72 9.72z" opacity="0.66"/><path fill="#74c15d" stroke="#000" stroke-width="0.58" d="M30.5 19.54A13.06 13.06 0 1 0 43.56 32.6 13.08 13.08 0 0 0 30.5 19.54zm1.1 23.88v-7.55a3.4 3.4 0 0 1-2.19 0v7.57a10.9 10.9 0 0 1-9.73-9.72h7.57a3.39 3.39 0 0 1 0-2.19h-7.6a10.9 10.9 0 0 1 9.73-9.73v7.57a3.39 3.39 0 0 1 1.09-.18 3.44 3.44 0 0 1 1.1.18V21.8a10.9 10.9 0 0 1 9.72 9.73h-7.57a3.42 3.42 0 0 1 0 2.19h7.57a10.9 10.9 0 0 1-9.69 9.7z"/></svg>