<svg xmlns="http://www.w3.org/2000/svg" xmlns:xlink="http://www.w3.org/1999/xlink" viewBox="0 0 58.05 57.99"><defs><linearGradient id="a" x1="103.95" x2="129.31" y1="213.38" y2="254.78" gradientTransform="translate(111.89 -218.32) rotate(45)" gradientUnits="userSpaceOnUse"><stop offset="0" stop-color="#dce0df"/><stop offset="0.47" stop-color="#9facb3"/><stop offset="1" stop-color="#51595d"/></linearGradient><linearGradient id="e" x1="7.37" x2="64.26" y1="165.02" y2="196.72" gradientTransform="matrix(1, 0, 0, 1, 0, 0)" xlink:href="#a"/><linearGradient id="f" x1="23.02" x2="39.62" y1="12.14" y2="58.35" gradientTransform="matrix(1, 0, 0, 1, 0, 0)" xlink:href="#a"/><linearGradient id="g" x1="27.4" x2="64.11" y1="168.11" y2="221.57" gradientTransform="matrix(1, 0, 0, 1, 0, 0)" xlink:href="#a"/><linearGradient id="b" x1="0.16" x2="13.13" y1="10.02" y2="21.64" gradientUnits="userSpaceOnUse"><stop offset="0" stop-color="#fff"/><stop offset="0.39" stop-color="#48a3da"/><stop offset="1" stop-color="#404ca0"/></linearGradient><linearGradient id="h" x1="3.63" x2="16.6" y1="6.15" y2="17.77" xlink:href="#b"/><linearGradient id="i" x1="7.1" x2="20.07" y1="2.28" y2="13.9" xlink:href="#b"/><linearGradient id="d" x1="18.87" x2="24.1" y1="26.28" y2="26.28" gradientUnits="userSpaceOnUse"><stop offset="0" stop-color="#077e74"/><stop offset="0.32" stop-color="#84d1e1"/><stop offset="0.67" stop-color="#39a1a3"/><stop offset="0.99" stop-color="#077e74"/></linearGradient><linearGradient id="c" x1="18.96" x2="24.06" y1="33.7" y2="33.7" gradientUnits="userSpaceOnUse"><stop offset="0.01" stop-color="#4d1a0d"/><stop offset="0.29" stop-color="#e0c77c"/><stop offset="0.69" stop-color="#b2732a"/><stop offset="1" stop-color="#4d1a0d"/></linearGradient><linearGradient id="j" x1="16.71" x2="26.43" y1="36.15" y2="36.15" xlink:href="#c"/><linearGradient id="k" x1="26.66" x2="31.89" y1="26.28" y2="26.28" xlink:href="#d"/><linearGradient id="l" x1="26.75" x2="31.85" y1="33.7" y2="33.7" xlink:href="#c"/><linearGradient id="m" x1="24.5" x2="34.22" y1="36.15" y2="36.15" xlink:href="#c"/><linearGradient id="n" x1="34.45" x2="39.68" y1="26.28" y2="26.28" xlink:href="#d"/><linearGradient id="o" x1="34.54" x2="39.64" y1="33.7" y2="33.7" xlink:href="#c"/><linearGradient id="p" x1="32.29" x2="42.01" y1="36.15" y2="36.15" xlink:href="#c"/></defs><path fill="url(#a)" d="M44.98 22.38l-5.91-3.53-3.45-5.83L29 0l-6.62 13.02-3.51 6.15-5.85 3.21L0 29l13.02 6.62 5.97 3.63 3.39 5.73L29 57.99l6.62-13.01 3.53-5.45 5.83-3.91L57.99 29l-13.01-6.62"/><path fill="url(#e)" d="M37.69 184.45c1.92 4.68 6.76 4.69 1.24-.84a3.7 3.7 0 0 0 .78-1.18c4.68 1.93 9.71 6.78 9.71 6.78L65.21 181s-17.42-.07-25.21 0a3.67 3.67 0 0 0-.29-1.38c4.67-2 4.63-6.8-.85-1.23a3.7 3.7 0 0 0-1.17-.76c1.92-4.68 6.81-9.53 6.81-9.53l-8.27-16s-.06 17.42 0 25.23a3.7 3.7 0 0 0-1.36.29c-1.94-4.67-6.78-4.65-1.24.85a3.71 3.71 0 0 0-.77 1.18c-4.68-1.92-9.76-6.71-9.76-6.71l-15.76 8.18h25.23a3.64 3.64 0 0 0 .28 1.35c-4.68 1.94-4.66 6.77.85 1.24a3.72 3.72 0 0 0 1.14.75c-2 4.66-6.65 10-6.65 10L36 210s.27-17.41.31-25.23a3.69 3.69 0 0 0 1.38-.32z" transform="translate(-7.16 -152)"/><circle cx="29.06" cy="28.95" r="15.05" fill="url(#f)"/><path fill="url(#g)" d="M52.07 180.95a15.85 15.85 0 1 1-15.85-15.85 15.85 15.85 0 0 1 15.85 15.85zm-15.85-14.43a14.43 14.43 0 1 0 14.43 14.43 14.43 14.43 0 0 0-14.43-14.43z" transform="translate(-7.16 -152)"/><path fill="url(#b)" d="M24.63 36.3v-4.16h.01V21.5h-5.23v10.64h.01v4.16h-.72v.78h6.64v-.78h-.71" opacity="0.58"/><path fill="url(#h)" d="M32.42 36.3v-4.16h.01V21.5H27.2v10.64h.01v4.16h-.71v.78h6.64v-.78h-.72" opacity="0.58"/><path fill="url(#i)" d="M40.22 36.3V21.5h-5.23v10.64H35v4.16h-.71v.78h6.64v-.78h-.71" opacity="0.58"/><path fill="#fff" d="M23.55 35.22v-4.16h.01V20.42h-5.23v10.64h.01v4.16h-.72V36h6.64v-.78h-.71m7.79 0v-4.16h.01V20.42h-5.23v10.64h.01v4.16h-.71V36h6.64v-.78h-.72m7.79 0v-4.16h.01V20.42h-5.23v10.64h.01v4.16h-.71V36h6.64v-.78h-.72" opacity="0.49"/><path fill="none" stroke="#010101" stroke-width="0.81" d="M24.09 35.76V31.6h.01V20.96h-5.23V31.6h.01v4.16h-.72v.78h6.64v-.78h-.71z"/><path fill="url(#d)" stroke="#000" stroke-width="0.77" d="M18.87 20.96h5.23V31.6h-5.23z"/><path fill="url(#c)" d="M18.88 31.6h5.21v4.2h-5.21z"/><path fill="url(#j)" d="M18.17 35.76h6.64v.78h-6.64z"/><path fill="none" stroke="#010101" stroke-width="0.41" d="M18.88 31.6h5.21"/><path fill="none" stroke="#010101" stroke-width="0.81" d="M31.88 35.76V31.6h.01V20.96h-5.23V31.6h.01v4.16h-.71v.78h6.63v-.78h-.71z"/><path fill="url(#k)" stroke="#000" stroke-width="0.77" d="M26.66 20.96h5.23V31.6h-5.23z"/><path fill="url(#l)" d="M26.67 31.6h5.21v4.2h-5.21z"/><path fill="url(#m)" d="M25.96 35.76h6.64v.78h-6.64z"/><path fill="none" stroke="#010101" stroke-width="0.41" d="M26.67 31.6h5.21"/><path fill="none" stroke="#010101" stroke-width="0.81" d="M39.67 35.76V31.6h.01V20.96h-5.23V31.6h.01v4.16h-.71v.78h6.64v-.78h-.72z"/><path fill="url(#n)" stroke="#000" stroke-width="0.77" d="M34.45 20.96h5.23V31.6h-5.23z"/><path fill="url(#o)" d="M34.46 31.6h5.21v4.2h-5.21z"/><path fill="url(#p)" d="M33.75 35.76h6.64v.78h-6.64z"/><path fill="none" stroke="#010101" stroke-width="0.41" d="M34.46 31.6h5.21"/></svg>