<svg xmlns="http://www.w3.org/2000/svg" xmlns:xlink="http://www.w3.org/1999/xlink" viewBox="0 0 65.14 67.25"><defs><linearGradient id="b" x1="382.38" x2="395.14" y1="373.9" y2="404.16" gradientUnits="userSpaceOnUse"><stop offset="0" stop-color="#e1b824"/><stop offset="0.47" stop-color="#b65e27"/><stop offset="1" stop-color="#52160b"/></linearGradient><linearGradient id="a" x1="22.11" x2="56.7" y1="32.29" y2="45.7" gradientUnits="userSpaceOnUse"><stop offset="0" stop-color="#e0c77c"/><stop offset="0.47" stop-color="#b2732a"/><stop offset="1" stop-color="#4d1a0d"/></linearGradient><linearGradient id="c" x1="32.72" x2="47.22" y1="8.75" y2="14.37" xlink:href="#a"/><linearGradient id="d" x1="35.58" x2="44.15" y1="51.01" y2="51.01" xlink:href="#a"/><linearGradient id="e" x1="-11.52" x2="11.35" y1="44.41" y2="44.41" xlink:href="#a"/><linearGradient id="f" x1="33.64" x2="33.64" y1="20.35" y2="40.48" gradientUnits="userSpaceOnUse"><stop offset="0" stop-color="#e4c121"/><stop offset="0.47" stop-color="#ae5726"/><stop offset="1" stop-color="#52160b"/></linearGradient><linearGradient id="g" x1="33.64" x2="33.64" y1="61.63" y2="31.47" gradientUnits="userSpaceOnUse"><stop offset="0" stop-color="#e0c77c"/><stop offset="0.47" stop-color="#bc6528"/><stop offset="1" stop-color="#37150e"/></linearGradient><linearGradient id="h" x1="24.05" x2="44.02" y1="-0.5" y2="67.83" gradientUnits="userSpaceOnUse"><stop offset="0" stop-color="#ddb326"/><stop offset="0.47" stop-color="#945624"/><stop offset="1" stop-color="#752c15"/></linearGradient><linearGradient id="i" x1="71.43" x2="32.5" y1="2.9" y2="41.82" gradientUnits="userSpaceOnUse"><stop offset="0" stop-color="#b0882e"/><stop offset="0.47" stop-color="#ae5726"/><stop offset="1" stop-color="#52160b"/></linearGradient><linearGradient id="j" x1="369.53" x2="413.55" y1="397.33" y2="397.33" gradientUnits="userSpaceOnUse"><stop offset="0" stop-color="#fffeef"/><stop offset="0.05" stop-color="#fffde8"/><stop offset="0.13" stop-color="#fffbd4"/><stop offset="0.23" stop-color="#fff6b3"/><stop offset="0.33" stop-color="#fef186"/><stop offset="0.45" stop-color="#fee94c"/><stop offset="0.5" stop-color="#fee631"/><stop offset="1" stop-color="#cd8229"/></linearGradient><linearGradient id="k" x1="372.22" x2="411.17" y1="397.08" y2="397.08" gradientUnits="userSpaceOnUse"><stop offset="0" stop-color="#53514b"/><stop offset="0.2" stop-color="#4c4a45"/><stop offset="0.5" stop-color="#383835"/><stop offset="1" stop-color="#202020"/></linearGradient></defs><path fill="url(#b)" d="M416.08 394.73a24.91 24.91 0 1 1-24.91-24.91 24.91 24.91 0 0 1 24.91 24.91z" transform="translate(-357.5 -362.5)"/><path fill="url(#a)" d="M49.77 42.85l5.69 1.06-.84 1.6-5.69-1.52.84-1.14"/><path fill="url(#c)" d="M45.29 10.22l1.52.84-1.44 5.99-1.22-.84 1.14-5.99"/><path fill="url(#d)" d="M44.31 48.47l.98-.69 1.52 5.54-1.67.91-.83-5.76"/><path fill="url(#e)" d="M17.59 43.08l-5.84.91.99 1.74 5.69-1.67-.84-.98"/><path fill="url(#f)" d="M33.48 23.45l30.43-5.07-2.54 14.08 2.54 13.82-30.26-5.08-30.27 5.08 2.54-13.63-2.54-14.27 30.1 5.07"/><path fill="url(#g)" d="M5.92 32.65L3.38 46.28l30.27-5.08 30.26 5.08-2.52-13.72H5.9l.02.09"/><path fill="url(#h)" d="M24.77 32.5L19.7 2.06 33.77 4.6l13.82-2.54-5.07 30.27 5.07 30.26-13.63-2.54-14.26 2.54 5.07-30.09"/><path fill="url(#i)" d="M33.96 60.05l13.63 2.54-5.07-30.26 5.07-30.27-13.71 2.52v55.49l.08-.02"/><path fill="none" d="M0 0h65.14v67.25H0z"/><path fill="#231f20" d="M10.81 19.84l22.67-6.66 23.75 6.67s-2.58 14-3.92 18-19.83 18.66-19.83 18.66-16.92-15.08-19.25-18.75-3.42-17.92-3.42-17.92z"/><path fill="url(#j)" d="M369.53 383.11l21.47-6.32 22.52 6.32s-2.45 13.28-3.71 17.07-18.81 17.7-18.81 17.7-16-14.3-18.25-17.78-3.22-16.99-3.22-16.99z" transform="translate(-357.5 -362.5)"/><path fill="url(#k)" d="M380.83 389.67c1 0 2.67-1.5 2.5-2.33s-11-4.17-11-4.17c2.84 4.66 7.5 6.5 8.5 6.5zm-1.67 4.67a4.4 4.4 0 0 0 3.33-3s-9.17 1-10.17.83 5.01 2.5 6.85 2.16zm4-.17s-5.83 3.17-7 3.33 4.33.83 5.5-.17 1.67-1.5 1.51-3.16zm1 1.83c.5.67-2.17 4-.67 3.67 4.68-2.5.68-3.67.68-3.67zm13 3.67a12.1 12.1 0 0 0 3.17 2.33 19.36 19.36 0 0 1-3.17-4.83 3 3 0 0 0 .01 2.5zm0-6.67s-.5 4.17 7.33 2.17c-2.66-.34-6.49-3.67-7.32-2.17zm4.67-2.33s-.5 2.17 2.67 2.67a7.56 7.56 0 0 0 6.67-2c-3.5.49-9.17-1.67-9.34-.67zM400.5 389c3.17 1.24 7.83-3.34 9-4.57-.78.56-2.64 1-5.38.57-3.17-.5-5.83 2-5.83 2s-1.62.5 2.21 2zm9-4.57a1.35 1.35 0 0 0 .29-.26c.13-.12.01 0-.24.26zm-13.21 2.07c-.67-.67-2.17 2-3.17 2s-1.67-1-.33-2.67a2.07 2.07 0 0 0-1.33-3.5c-1.4 0-4.33 2.5-3 2.5s1.67 1.33 1.33 2.67-1 1.83-1.83.67-3.17-1-3.17-1 .83 9.17 2.17 10.17a6.74 6.74 0 0 1 2.17 4.5c0 1.17-2.5 6.83-2.5 6.83l4.33 3.17 4.33-4s-1.83-5.17-2.17-6.67-1-1.5.17-3.17c2.54-2.17 3.71-10.83 3.04-11.5z" transform="translate(-357.5 -362.5)"/></svg>