<svg xmlns="http://www.w3.org/2000/svg" xmlns:xlink="http://www.w3.org/1999/xlink" viewBox="0 0 61.86 58.83"><defs><linearGradient id="a" x1="29.07" x2="33.57" y1="5.62" y2="46.33" gradientUnits="userSpaceOnUse"><stop offset="0" stop-color="#e0c77c"/><stop offset="0.47" stop-color="#b2732a"/><stop offset="1" stop-color="#4d1a0d"/></linearGradient><linearGradient id="c" x1="363.51" x2="425.37" y1="178.8" y2="178.8" xlink:href="#a"/><linearGradient id="d" x1="24.62" x2="41.22" y1="15.5" y2="61.71" xlink:href="#a"/><linearGradient id="e" x1="390.1" x2="417.4" y1="172.26" y2="234.69" xlink:href="#a"/><linearGradient id="f" x1="20.93" x2="37.13" y1="26.49" y2="35.84" gradientUnits="userSpaceOnUse"><stop offset="0" stop-color="#7ec358"/><stop offset="0.47" stop-color="#54a245"/><stop offset="1" stop-color="#2c783b"/></linearGradient><linearGradient id="g" x1="394.21" x2="394.21" y1="185.42" y2="189.55" gradientUnits="userSpaceOnUse"><stop offset="0" stop-color="#bdcbd1"/><stop offset="0.47" stop-color="#9fb1b8"/><stop offset="1" stop-color="#697479"/></linearGradient><linearGradient id="b" x1="387.28" x2="394.17" y1="174.13" y2="186.06" gradientUnits="userSpaceOnUse"><stop offset="0" stop-color="#d0e3f5"/><stop offset="0.05" stop-color="#cadff3"/><stop offset="0.13" stop-color="#b8d4ef"/><stop offset="0.21" stop-color="#9ac2e7"/><stop offset="0.28" stop-color="#7cb0df"/><stop offset="0.41" stop-color="#9dc4e7"/><stop offset="0.57" stop-color="#bcd7f0"/><stop offset="0.72" stop-color="#d2e5f5"/><stop offset="0.87" stop-color="#dfedf9"/><stop offset="1" stop-color="#e4f0fa"/></linearGradient><linearGradient id="h" x1="-638.56" x2="-631.67" y1="174.13" y2="186.06" gradientTransform="matrix(-1 0 0 1 -237.1 0)" xlink:href="#b"/></defs><path fill="url(#a)" d="M30.93 0l7.3 22.47h23.63L42.74 36.36l7.31 22.47-19.12-13.88-19.12 13.88 7.3-22.47L0 22.47h23.63L30.93 0"/><path fill="url(#c)" d="M424.9 171.71l-.21.2.67-.2h-.46zm-28.16 7.07l5-7.07-7.21-22.2v28.11a3.94 3.94 0 0 0-.54 0 3.76 3.76 0 0 0-2 .56l-4.81-6.66-.08.24h-23.59l.17.13 26.73 8.31a3.73 3.73 0 0 0-.21 1.22 3.79 3.79 0 0 0 .28 1.42l-7.88 2.89-7.28 22.4.46-.34 16.27-23.12a3.76 3.76 0 0 0 1.93.53h.31l-.12 9.23.25-.18 19.12 13.89-17.13-23.81a3.78 3.78 0 0 0 1.19-1.81c2.55.92 6.08 2.25 8.66 3.22v-.06l17.4-12.68 1-1c-3.51 1.07-20 6.09-27.09 8.35a3.78 3.78 0 0 0-.83-1.57z" transform="translate(-363.5 -149.2)"/><circle cx="30.66" cy="32.31" r="15.04" fill="url(#d)"/><path fill="url(#e)" d="M410 181.55a15.85 15.85 0 1 1-15.85-15.85A15.85 15.85 0 0 1 410 181.55zm-15.85-14.43a14.43 14.43 0 1 0 14.43 14.43 14.43 14.43 0 0 0-14.41-14.43z" transform="translate(-363.5 -149.2)"/><circle cx="30.78" cy="32.18" r="13.83" fill="url(#f)" stroke="#010101"/><path fill="url(#g)" d="M394.61 184.91s2 1.56 2 2.79 1.89-1.81 2.38-1.07.33 4 .33 4-2.3-.16-2.3-1-1.31 1.31-2.55 1.31-2.14-1.4-2.63-1.4-1.15 1.07-2.22.9-.08-4.6.33-4.11a3.43 3.43 0 0 0 1.81 1.23c.63.14 1.7-3.06 2.85-2.65z" transform="translate(-363.5 -149.2)"/><path fill="url(#b)" d="M393.46 168.47v13.24s-5.58 2.71-5.42 5.83 2.55 5.34 2.79 5.91-4.52-1.64-4.52-6.57 4.43-8 4.68-9.28 2.47-9.13 2.47-9.13z" transform="translate(-363.5 -149.2)"/><path fill="url(#h)" d="M395.31 168.47v13.24s5.58 2.71 5.42 5.83-2.55 5.34-2.79 5.91 4.52-1.64 4.52-6.57-4.43-8-4.68-9.28-2.47-9.13-2.47-9.13z" transform="translate(-363.5 -149.2)"/></svg>