<svg xmlns="http://www.w3.org/2000/svg" xmlns:xlink="http://www.w3.org/1999/xlink" viewBox="0 0 58.05 57.99"><defs><linearGradient id="a" x1="202.57" x2="227.93" y1="109.43" y2="150.83" gradientTransform="translate(-31.35 -214.55) rotate(45)" gradientUnits="userSpaceOnUse"><stop offset="0" stop-color="#dce0df"/><stop offset="0.47" stop-color="#9facb3"/><stop offset="1" stop-color="#51595d"/></linearGradient><linearGradient id="d" x1="150.61" x2="207.49" y1="161.25" y2="192.95" gradientTransform="matrix(1, 0, 0, 1, 0, 0)" xlink:href="#a"/><linearGradient id="e" x1="23.02" x2="39.62" y1="12.14" y2="58.35" gradientTransform="matrix(1, 0, 0, 1, 0, 0)" xlink:href="#a"/><linearGradient id="f" x1="170.64" x2="207.35" y1="164.34" y2="217.8" gradientTransform="matrix(1, 0, 0, 1, 0, 0)" xlink:href="#a"/><linearGradient id="b" x1="5.74" x2="18.54" y1="6.75" y2="19" gradientUnits="userSpaceOnUse"><stop offset="0" stop-color="#fff"/><stop offset="0.39" stop-color="#48a3da"/><stop offset="1" stop-color="#404ca0"/></linearGradient><linearGradient id="g" x1="156.14" x2="168.93" y1="154.98" y2="167.23" xlink:href="#b"/><linearGradient id="c" x1="27.08" x2="30.86" y1="28.97" y2="28.97" gradientUnits="userSpaceOnUse"><stop offset="0" stop-color="#84d1e1"/><stop offset="0.99" stop-color="#077e74"/></linearGradient><linearGradient id="h" x1="166.3" x2="192.42" y1="177.2" y2="177.2" xlink:href="#c"/><linearGradient id="i" x1="34.6" x2="22.5" y1="40.45" y2="15.78" xlink:href="#c"/></defs><path fill="url(#a)" d="M44.98 22.38l-5.91-3.53-3.45-5.83L29 0l-6.62 13.02-3.51 6.15-5.85 3.21L0 29l13.02 6.62 5.97 3.63 3.39 5.73L29 57.99l6.62-13.01 3.53-5.45 5.83-3.91L57.99 29l-13.01-6.62"/><path fill="url(#d)" d="M180.93 180.68c1.92 4.68 6.76 4.69 1.24-.84a3.7 3.7 0 0 0 .78-1.18c4.67 1.93 9.71 6.78 9.71 6.78l15.79-8.17s-17.42-.11-25.23-.09a3.69 3.69 0 0 0-.29-1.38c4.67-2 4.63-6.8-.85-1.23a3.69 3.69 0 0 0-1.17-.76c1.92-4.68 6.8-9.53 6.8-9.53l-8.27-16s-.06 17.42 0 25.23a3.69 3.69 0 0 0-1.35.29c-1.94-4.67-6.78-4.65-1.24.85a3.72 3.72 0 0 0-.77 1.18c-4.68-1.92-9.76-6.71-9.76-6.71l-15.73 8.19h25.23a3.72 3.72 0 0 0 .28 1.35c-4.67 1.94-4.66 6.77.85 1.24a3.71 3.71 0 0 0 1.14.75c-2 4.66-6.66 10-6.66 10l7.82 15.56s.27-17.41.31-25.23a3.7 3.7 0 0 0 1.37-.3z" transform="translate(-150.39 -148.23)"/><circle cx="29.06" cy="28.95" r="15.05" fill="url(#e)"/><path fill="url(#f)" d="M195.31 177.18a15.85 15.85 0 1 1-15.85-15.85 15.85 15.85 0 0 1 15.85 15.85zm-15.85-14.43a14.43 14.43 0 1 0 14.43 14.43 14.43 14.43 0 0 0-14.44-14.43z" transform="translate(-150.39 -148.23)"/><circle cx="29.51" cy="29.51" r="1.89" fill="url(#b)" style="isolation:isolate" opacity="0.58"/><path fill="url(#g)" d="M179.9 164.67a13.06 13.06 0 1 0 13.1 13.07 13.08 13.08 0 0 0-13.1-13.07zm1.1 23.89V181a3.38 3.38 0 0 1-2.19 0v7.57a10.9 10.9 0 0 1-9.73-9.72h7.57a3.39 3.39 0 0 1 0-2.19h-7.57a10.9 10.9 0 0 1 9.73-9.73v7.57a3.39 3.39 0 0 1 2.19 0v-7.57a10.89 10.89 0 0 1 9.73 9.73h-7.57a3.39 3.39 0 0 1 0 2.19h7.57a10.89 10.89 0 0 1-9.73 9.71z" transform="translate(-150.39 -148.23)" opacity="0.58"/><circle cx="28.43" cy="28.43" r="1.89" fill="#fff" style="isolation:isolate" opacity="0.64"/><path fill="#fff" d="M28.43 15.36a13.06 13.06 0 1 0 13.06 13.06 13.08 13.08 0 0 0-13.06-13.06zm1.09 23.88v-7.57a3.41 3.41 0 0 1-2.19 0v7.57a10.89 10.89 0 0 1-9.72-9.72h7.57a3.39 3.39 0 0 1 0-2.19h-7.57a10.89 10.89 0 0 1 9.72-9.73v7.57a3.39 3.39 0 0 1 2.19 0V17.6a10.89 10.89 0 0 1 9.72 9.73h-7.57a3.39 3.39 0 0 1 0 2.19h7.57a10.89 10.89 0 0 1-9.72 9.73z" opacity="0.62"/><circle cx="28.97" cy="28.97" r="1.89" fill="url(#c)" stroke="#000" stroke-width="0.77" style="isolation:isolate"/><path fill="url(#h)" stroke="#000" stroke-width="0.77" d="M179.36 164.13a13.06 13.06 0 1 0 13.06 13.06 13.08 13.08 0 0 0-13.06-13.06zm1.1 23.88v-7.57a3.4 3.4 0 0 1-2.19 0V188a10.89 10.89 0 0 1-9.72-9.73h7.57a3.39 3.39 0 0 1 0-2.19h-7.57a10.89 10.89 0 0 1 9.72-9.72v7.57a3.39 3.39 0 0 1 2.19 0v-7.57a10.89 10.89 0 0 1 9.72 9.72h-7.57a3.39 3.39 0 0 1 0 2.19h7.57a10.89 10.89 0 0 1-9.73 9.73z" transform="translate(-150.39 -148.23)"/><circle cx="28.97" cy="28.97" r="1.89" fill="url(#i)" stroke="#000" stroke-width="0.77"/><path fill="url(#h)" stroke="#000" stroke-width="0.77" d="M179.36 164.13a13.06 13.06 0 1 0 13.06 13.06 13.08 13.08 0 0 0-13.06-13.06zm1.1 23.88v-7.57a3.4 3.4 0 0 1-2.19 0V188a10.89 10.89 0 0 1-9.72-9.73h7.57a3.39 3.39 0 0 1 0-2.19h-7.57a10.89 10.89 0 0 1 9.72-9.72v7.57a3.39 3.39 0 0 1 2.19 0v-7.57a10.89 10.89 0 0 1 9.72 9.72h-7.57a3.39 3.39 0 0 1 0 2.19h7.57a10.89 10.89 0 0 1-9.73 9.73z" transform="translate(-150.39 -148.23)"/></svg>