<svg xmlns="http://www.w3.org/2000/svg" xmlns:xlink="http://www.w3.org/1999/xlink" viewBox="0 0 49.96 57.69"><defs><linearGradient id="a" x1="18.97" x2="31.58" y1="8.67" y2="51.01" gradientUnits="userSpaceOnUse"><stop offset="0" stop-color="#ecce53"/><stop offset="0.39" stop-color="#d2b34e"/><stop offset="1" stop-color="#804f20"/></linearGradient><linearGradient id="d" x1="1447.25" x2="1476.79" y1="46.98" y2="9.69" xlink:href="#a"/><linearGradient id="e" x1="16.35" x2="33.29" y1="15.1" y2="42.66" xlink:href="#a"/><radialGradient id="f" cx="20.66" cy="23.44" r="20.76" gradientUnits="userSpaceOnUse"><stop offset="0" stop-color="#ebe5cf"/><stop offset="0.4" stop-color="#d1d2d2"/><stop offset="1" stop-color="#8a6fa3"/></radialGradient><linearGradient id="b" x1="1451.52" x2="1467.37" y1="18.28" y2="45.66" gradientUnits="userSpaceOnUse"><stop offset="0" stop-color="#fff"/><stop offset="0.39" stop-color="#ffe300"/><stop offset="1" stop-color="#c67a29"/></linearGradient><linearGradient id="g" x1="1450.97" x2="1467.97" y1="17.32" y2="46.68" xlink:href="#b"/><linearGradient id="c" x1="31.26" x2="17.38" y1="42.01" y2="13.72" gradientUnits="userSpaceOnUse"><stop offset="0" stop-color="#b75fa5"/><stop offset="0.52" stop-color="#6f2c91"/><stop offset="1" stop-color="#37144e"/></linearGradient><radialGradient id="h" cx="1453.96" cy="25.92" r="22.55" xlink:href="#c"/></defs><path fill="url(#a)" d="M24.98 0L32.19 16.35 49.96 14.42 39.4 28.85 49.96 43.27 32.19 41.34 24.98 57.69 17.77 41.34 0 43.27 10.56 28.85 0 14.42 17.77 16.35 24.98 0"/><path fill="url(#d)" d="M1462.3,32.89a3.42,3.42,0,0,0,.48-1.67l11,0.24,10.48-14.32-22,12.33a3.44,3.44,0,0,0-1.18-1.23l5.74-9.26-0.34,0-7.21-16.35-0.17.39,0.15,24.67a3.39,3.39,0,0,0-1.68.45l-5.39-9.43-0.12.26-17.43-1.89,21.67,12.33a3.4,3.4,0,0,0-.45,1.69v0l-11.15.12,0.14,0.2-9.67,13.2-0.67,1.19,0.48-.05,21.35-12.94a3.42,3.42,0,0,0,1.18,1.17l-5.89,10,0.42,0,7.18,16.28,0-25.71h0a3.39,3.39,0,0,0,1.65-.42l5.49,10,0.07-.16,17.7,1.92Z" transform="translate(-1434.4 -2.7)"/><circle cx="24.8" cy="28.85" r="16.75" fill="url(#e)"/><circle cx="24.8" cy="28.85" r="14.83" fill="url(#f)"/><path fill="#010101" d="M1459.18,16.53a15,15,0,1,0,15,15A15,15,0,0,0,1459.18,16.53Zm1.26,27.39V35.24a3.91,3.91,0,0,1-2.51,0v8.68a12.49,12.49,0,0,1-11.15-11.15h8.68a3.87,3.87,0,0,1,0-2.51h-8.68a12.49,12.49,0,0,1,11.15-11.15v8.68a3.9,3.9,0,0,1,2.51,0V19.1a12.49,12.49,0,0,1,11.15,11.15h-8.68a3.91,3.91,0,0,1,0,2.51h8.68A12.49,12.49,0,0,1,1460.44,43.92Z" transform="translate(-1434.4 -2.7)" style="isolation:isolate"/><path fill="url(#b)" d="M1443.66,31.51A15.52,15.52,0,1,0,1459.18,16,15.54,15.54,0,0,0,1443.66,31.51Zm1.08,0a14.44,14.44,0,1,1,14.44,14.44A14.46,14.46,0,0,1,1444.74,31.51Z" transform="translate(-1434.4 -2.7)"/><path fill="url(#g)" d="M1459.89,19.1v8a2.23,2.23,0,0,0-1.43,0V18.5l-0.6.06a13,13,0,0,0-11.63,11.64l-0.06.6h8.64a4.25,4.25,0,0,0-.12.71,4.29,4.29,0,0,0,.12.71h-8.64l0.06,0.59a13,13,0,0,0,11.63,11.63l0.6,0.06V35.87a2.2,2.2,0,0,0,1.43,0v8.64l0.6-.06a13,13,0,0,0,11.63-11.63l0.06-.59h-8.64a4.73,4.73,0,0,0,.12-0.71,4.68,4.68,0,0,0-.12-0.71h8.64l-0.06-.6a13,13,0,0,0-11.63-11.64l-0.6-.06v0.6Zm-2.82-1.38V28l0.83-.28a3.93,3.93,0,0,1,2.54,0l0.84,0.28V17.72A14,14,0,0,1,1473,29.4h-10.29l0.28,0.84a3.93,3.93,0,0,1,0,2.54l-0.28.83H1473a14,14,0,0,1-11.68,11.68V35l-0.84.28a3.95,3.95,0,0,1-2.54,0l-0.83-.28V45.29a14,14,0,0,1-11.68-11.68h10.29l-0.28-.83a3.93,3.93,0,0,1,0-2.54l0.28-.84H1445.4A14,14,0,0,1,1457.08,17.72Z" transform="translate(-1434.4 -2.7)"/><circle cx="24.8" cy="28.85" r="2.17" fill="url(#c)"/><path fill="url(#h)" d="M1459.18,16.53a15,15,0,1,0,15,15A15,15,0,0,0,1459.18,16.53Zm1.26,27.39V35.24a3.91,3.91,0,0,1-2.51,0v8.68a12.49,12.49,0,0,1-11.15-11.15h8.68a3.87,3.87,0,0,1,0-2.51h-8.68a12.49,12.49,0,0,1,11.15-11.15v8.68a3.9,3.9,0,0,1,2.51,0V19.1a12.49,12.49,0,0,1,11.15,11.15h-8.68a3.91,3.91,0,0,1,0,2.51h8.68A12.49,12.49,0,0,1,1460.44,43.92Z" transform="translate(-1434.4 -2.7)"/></svg>