<svg xmlns="http://www.w3.org/2000/svg" xmlns:xlink="http://www.w3.org/1999/xlink" viewBox="0 0 389.37 389"><defs><linearGradient id="a" x1="406.05" x2="576.17" y1="-258.78" y2="18.96" gradientTransform="translate(-238.63 -63.47) rotate(45)" gradientUnits="userSpaceOnUse"><stop offset="0" stop-color="#dbdfde"/><stop offset="0.47" stop-color="#9eacb2"/><stop offset="1" stop-color="#50595c"/></linearGradient><linearGradient id="c" x1="62.78" x2="444.32" y1="148.82" y2="361.44" gradientTransform="matrix(1, 0, 0, 1, 0, 0)" xlink:href="#a"/><linearGradient id="d" x1="215.75" x2="327.09" y1="142.92" y2="452.85" gradientTransform="matrix(1, 0, 0, 1, 0, 0)" xlink:href="#a"/><linearGradient id="e" x1="197.12" x2="443.34" y1="169.54" y2="528.16" gradientTransform="matrix(1, 0, 0, 1, 0, 0)" xlink:href="#a"/><linearGradient id="b" x1="198.24" x2="196.79" y1="173.38" y2="158.17" gradientUnits="userSpaceOnUse"><stop offset="0" stop-color="#dcf1f7"/><stop offset="0.49" stop-color="#82d1e1"/><stop offset="0.99" stop-color="#005852"/></linearGradient><linearGradient id="f" x1="225.73" x2="206.9" y1="183.04" y2="189.2" xlink:href="#b"/><linearGradient id="g" x1="221.15" x2="202.36" y1="231.83" y2="207.44" xlink:href="#b"/><linearGradient id="h" x1="176.36" x2="192.65" y1="222.85" y2="206.56" xlink:href="#b"/><linearGradient id="i" x1="180.15" x2="156.62" y1="189.03" y2="182.52" xlink:href="#b"/><linearGradient id="j" x1="257.12" x2="257.12" y1="154.7" y2="344.71" gradientUnits="userSpaceOnUse"><stop offset="0" stop-color="#989590"/><stop offset="0.49" stop-color="#535352"/><stop offset="1"/></linearGradient><radialGradient id="k" cx="193.09" cy="194.58" r="35.11" gradientUnits="userSpaceOnUse"><stop offset="0" stop-color="#fff"/><stop offset="0.28" stop-color="#82d1e1"/><stop offset="0.99" stop-color="#024d48"/></radialGradient><linearGradient id="l" x1="282.53" x2="233.7" y1="284.38" y2="233.43" xlink:href="#b"/></defs><path fill="url(#a)" d="M301.68 150.1l-39.62-23.67-23.16-39.11L194.5 0l-44.4 87.32-23.53 41.25-39.25 21.53L0 194.5l87.32 44.4 40.05 24.37 22.73 38.41L194.5 389l44.4-87.32 23.7-36.54 39.08-26.25L389 194.5l-87.32-44.4"/><path fill="url(#c)" d="M266.12 279.19c12.88 31.41 45.33 31.43 8.31-5.65a24.94 24.94 0 0 0 5.21-7.91c31.35 13 65.16 45.48 65.16 45.48l105.89-54.78s-116.83-.77-169.22-.59a25 25 0 0 0-2-9.25c31.3-13.14 31-45.59-5.73-8.26a24.66 24.66 0 0 0-7.8-5.09c12.87-31.41 45.63-64 45.63-64L256.14 62.12s-.42 116.84-.08 169.22a24.82 24.82 0 0 0-9.08 1.92c-13-31.35-45.47-31.22-8.29 5.69a24.94 24.94 0 0 0-5.16 7.91c-31.42-12.86-65.46-45-65.46-45l-105.54 55s116.83.32 169.22-.06a24.81 24.81 0 0 0 1.91 9c-31.36 13-31.24 45.44 5.69 8.29a24.84 24.84 0 0 0 7.64 5c-13.26 31.25-44.65 66.78-44.65 66.78l52.46 104.35s1.79-116.81 2.06-169.2a24.74 24.74 0 0 0 9.26-1.83z" transform="translate(-61.31 -61.5)"/><path fill="url(#d)" d="M357.17 255.67a100.92 100.92 0 1 1-100.92-100.92 100.92 100.92 0 0 1 100.92 100.92z" transform="translate(-61.31 -61.5)"/><path fill="url(#e)" d="M362.6 255.67a106.34 106.34 0 1 1-106.35-106.34A106.34 106.34 0 0 1 362.6 255.67zM256.25 158.9A96.77 96.77 0 1 0 353 255.67a96.77 96.77 0 0 0-96.75-96.77z" transform="translate(-61.31 -61.5)"/><path fill="url(#b)" d="M204.48 189.48h-17.2l-3.44-45.57h24.08l-3.44 45.57"/><path fill="url(#f)" d="M205.44 201.85l-6.41-15.95 41.01-20.17 8.96 22.34-43.56 13.78"/><path fill="url(#g)" d="M192.84 207.06l13.91-10.11 29.57 34.84-19.5 14.15-23.98-38.88"/><path fill="url(#h)" d="M184.73 196.37l13.44 10.71-25.69 37.78-18.84-15 31.09-33.49"/><path fill="url(#i)" d="M192.02 185.96l-5.46 16.3-44.29-11.25 7.66-22.82 42.09 17.77"/><path fill="url(#j)" d="M344 257.88A86.84 86.84 0 1 1 257.12 171 86.84 86.84 0 0 1 344 257.88zm-86.83-45.32a45.32 45.32 0 1 0 45.32 45.32 45.31 45.31 0 0 0-45.37-45.32z" transform="translate(-61.31 -61.5)"/><circle cx="195.81" cy="196.38" r="18.05" fill="url(#k)"/><path fill="url(#l)" d="M211.49 257.88a45.63 45.63 0 1 0 45.63-45.63 45.69 45.69 0 0 0-45.63 45.63zm9.33 0a36.3 36.3 0 1 1 36.3 36.3 36.35 36.35 0 0 1-36.3-36.3z" transform="translate(-61.31 -61.5)"/><path fill="#82d1e1" d="M117.56 193.8a1.73 1.73 0 0 0 3.45 0 74.87 74.87 0 0 1 74.8-74.8 1.72 1.72 0 0 0 0-3.44 78.34 78.34 0 0 0-78.25 78.24zm128.13 2.58a49.92 49.92 0 0 1-49.86 49.87 1.72 1.72 0 0 0 0 3.44 53.38 53.38 0 0 0 53.31-53.3 1.72500725 1.72500725 0 1 0-3.45-.01z" opacity="0.43"/><text fill="#fff" transform="translate(199.32 133.54) rotate(6.14)" opacity="0.63" font-size="10.32" font-family="Arial">R</text><text fill="#fff" transform="translate(207.11 134.34) rotate(13.53)" opacity="0.63" font-size="10.32" font-family="Arial">O</text><text fill="#fff" transform="translate(215.15 136.27) rotate(20.8)" opacity="0.63" font-size="10.32" font-family="Arial">A</text><text fill="#fff" transform="translate(222.66 139.13) rotate(28.16)" opacity="0.63" font-size="10.32" font-family="Arial">D</text><text fill="#fff" transform="matrix(0.83, 0.55, -0.55, 0.83, 229.68, 143.01)" opacity="0.63" font-size="10.32" font-family="Arial"></text><text fill="#fff" transform="translate(232.63 144.81) rotate(39)" opacity="0.63" font-size="10.32" font-family="Arial">K</text><text fill="#fff" transform="matrix(0.71, 0.7, -0.7, 0.71, 239.23, 150.3)" opacity="0.63" font-size="10.32" font-family="Arial">I</text><text fill="#fff" transform="matrix(0.64, 0.76, -0.76, 0.64, 242.13, 153.1)" opacity="0.63" font-size="10.32" font-family="Arial">L</text><text fill="#fff" transform="matrix(0.56, 0.83, -0.83, 0.56, 246.55, 158.37)" opacity="0.63" font-size="10.32" font-family="Arial">L</text><text fill="#fff" transform="translate(250.36 164.12) rotate(60.73)" opacity="0.63" font-size="10.32" font-family="Arial"></text><text fill="#fff" transform="translate(252.12 167.09) rotate(65.72)" opacity="0.63" font-size="10.32" font-family="Arial">T</text><text fill="#fff" transform="translate(255.11 173.9) rotate(70.99)" opacity="0.63" font-size="10.32" font-family="Arial">I</text><text fill="#fff" transform="translate(256.51 177.68) rotate(76.57)" opacity="0.63" font-size="10.32" font-family="Arial">R</text><text fill="#fff" transform="matrix(0.11, 0.99, -0.99, 0.11, 258.36, 185.51)" opacity="0.63" font-size="10.32" font-family="Arial">E</text><text fill="#fff" transform="translate(259.18 192.92) rotate(90.55)" opacity="0.63" font-size="10.32" font-family="Arial">S</text><text fill="#fff" transform="translate(194.01 258.64) rotate(-173.86)" opacity="0.63" font-size="10.32" font-family="Arial">R</text><text fill="#fff" transform="matrix(-0.97, -0.23, 0.23, -0.97, 186.22, 257.84)" opacity="0.63" font-size="10.32" font-family="Arial">O</text><text fill="#fff" transform="translate(178.18 255.9) rotate(-159.2)" opacity="0.63" font-size="10.32" font-family="Arial">A</text><text fill="#fff" transform="translate(170.67 253.05) rotate(-151.84)" opacity="0.63" font-size="10.32" font-family="Arial">D</text><text fill="#fff" transform="matrix(-0.83, -0.55, 0.55, -0.83, 163.65, 249.17)" opacity="0.63" font-size="10.32" font-family="Arial"></text><text fill="#fff" transform="matrix(-0.78, -0.63, 0.63, -0.78, 160.7, 247.37)" opacity="0.63" font-size="10.32" font-family="Arial">K</text><text fill="#fff" transform="translate(154.1 241.88) rotate(-135.19)" opacity="0.63" font-size="10.32" font-family="Arial">I</text><text fill="#fff" transform="translate(151.19 239.08) rotate(-130.17)" opacity="0.63" font-size="10.32" font-family="Arial">L</text><text fill="#fff" transform="translate(146.77 233.81) rotate(-124.24)" opacity="0.63" font-size="10.32" font-family="Arial">L</text><text fill="#fff" transform="translate(142.98 228.08) rotate(-119.3)" opacity="0.63" font-size="10.32" font-family="Arial"></text><text fill="#fff" transform="translate(141.21 225.11) rotate(-114.3)" opacity="0.63" font-size="10.32" font-family="Arial">T</text><text fill="#fff" transform="translate(138.21 218.28) rotate(-109.01)" opacity="0.63" font-size="10.32" font-family="Arial">I</text><text fill="#fff" transform="translate(136.81 214.5) rotate(-103.43)" opacity="0.63" font-size="10.32" font-family="Arial">R</text><text fill="#fff" transform="translate(134.96 206.7) rotate(-96.3)" opacity="0.63" font-size="10.32" font-family="Arial">E</text><text fill="#fff" transform="matrix(0.01, -1, 1, 0.01, 134.14, 199.28)" opacity="0.63" font-size="10.32" font-family="Arial">S</text></svg>