<svg xmlns="http://www.w3.org/2000/svg" xmlns:xlink="http://www.w3.org/1999/xlink" viewBox="0 0 59.57 59.57"><defs><linearGradient id="a" x1="530.97" x2="543.53" y1="306.6" y2="336.39" gradientUnits="userSpaceOnUse"><stop offset="0" stop-color="#e0c77c"/><stop offset="0.47" stop-color="#b2732a"/><stop offset="1" stop-color="#4d1a0d"/></linearGradient><linearGradient id="c" x1="18.43" x2="52.47" y1="29.75" y2="42.94" xlink:href="#a"/><linearGradient id="d" x1="28.88" x2="43.14" y1="6.58" y2="12.11" xlink:href="#a"/><linearGradient id="e" x1="31.69" x2="40.13" y1="48.17" y2="48.17" xlink:href="#a"/><linearGradient id="f" x1="-14.67" x2="7.84" y1="41.67" y2="41.67" xlink:href="#a"/><linearGradient id="g" x1="29.78" x2="29.78" y1="17.99" y2="37.81" xlink:href="#a"/><linearGradient id="h" x1="29.78" x2="29.78" y1="58.62" y2="28.94" xlink:href="#a"/><linearGradient id="b" x1="555.72" x2="564.25" y1="338.38" y2="327.54" gradientUnits="userSpaceOnUse"><stop offset="0" stop-color="#fffffc"/><stop offset="1" stop-color="#4d1a0d"/></linearGradient><linearGradient id="i" x1="20.34" x2="40" y1="-2.52" y2="64.73" xlink:href="#a"/><linearGradient id="j" x1="66.97" x2="28.66" y1="0.82" y2="39.13" xlink:href="#a"/><linearGradient id="k" x1="549.38" x2="540.27" y1="345.26" y2="351.69" xlink:href="#b"/><linearGradient id="l" x1="543.46" x2="550.62" y1="299.42" y2="318.5" xlink:href="#a"/><linearGradient id="m" x1="14.94" x2="37.84" y1="23.43" y2="44.86" gradientUnits="userSpaceOnUse"><stop offset="0" stop-color="#6b6962"/><stop offset="1" stop-color="#292929"/></linearGradient><linearGradient id="n" x1="528.32" x2="551.53" y1="305.23" y2="345.43" gradientUnits="userSpaceOnUse"><stop offset="0" stop-color="#fef8bf"/><stop offset="0.49" stop-color="#feef68"/><stop offset="1" stop-color="#fdd619"/></linearGradient><linearGradient id="o" x1="22.41" x2="37.58" y1="20.18" y2="35.34" gradientUnits="userSpaceOnUse"><stop offset="0" stop-color="#f48173"/><stop offset="0.49" stop-color="#f04b46"/><stop offset="1" stop-color="#d5363e"/></linearGradient></defs><g style="isolation:isolate"><path fill="url(#a)" d="M564.13 327.11a24.51 24.51 0 1 1-24.51-24.51 24.52 24.52 0 0 1 24.51 24.51z" transform="translate(-509.8 -297.4)"/><path fill="url(#c)" d="M45.65 40.14l5.6 1.05-.82 1.56-5.6-1.49.82-1.12" opacity="0.8"/><path fill="url(#d)" d="M41.25 8.03l1.49.82-1.42 5.9-1.19-.82 1.12-5.9" opacity="0.43" style="mix-blend-mode:multiply"/><path fill="url(#e)" d="M40.28 45.67l.97-.68 1.49 5.45-1.64.9-.82-5.67"/><path fill="url(#f)" d="M13.99 40.36l-5.75.9.97 1.72 5.6-1.65-.82-.97" opacity="0.35"/><path fill="url(#g)" d="M29.62 21.05l29.95-4.99-2.5 13.85 2.5 13.6-29.78-4.99L0 43.51 2.5 30.1 0 16.06l29.62 4.99"/><path fill="url(#h)" d="M2.5 30.1L0 43.51l29.79-4.99 29.78 4.99-2.48-13.5H2.48l.02.09"/><path fill="url(#b)" d="M557.81 338.64l5.1-6.68s2-3.37 2-3.57a4.07 4.07 0 0 0-.07-1L562 328l-7.87 9.53" transform="translate(-509.8 -297.4)" opacity="0.43" style="mix-blend-mode:multiply"/><path fill="url(#i)" d="M21.05 29.95L16.06 0l13.85 2.5L43.51 0l-4.99 29.78 4.99 29.79-13.41-2.5-14.04 2.5 4.99-29.62"/><path fill="url(#j)" d="M30.1 57.07l13.41 2.5-4.99-29.79L43.51 0l-13.5 2.48v54.61l.09-.02"/><path fill="url(#k)" d="M551.18 346.14l-8.11 5.18a7.14 7.14 0 0 1-3.18 1.19l.06-1.88 8.86-7.11" transform="translate(-509.8 -297.4)" opacity="0.91" style="mix-blend-mode:multiply"/><path fill="url(#l)" d="M541 302.79a3.82 3.82 0 0 1 2.25.93c.86.86 7.94 6.41 7.94 6.41l-.46 2.52z" transform="translate(-509.8 -297.4)" opacity="0.43" style="mix-blend-mode:multiply"/><path fill="url(#m)" d="M23.64 39.28l-6.77-9.09h13.54l-6.77 9.09"/><path fill="url(#n)" d="M566.09 324.32a1.43 1.43 0 0 1 0 2l-25.15 25.15a1.43 1.43 0 0 1-2 0l-25.15-25.15a1.43 1.43 0 0 1 0-2l25.15-25.15a1.43 1.43 0 0 1 2 0z" transform="translate(-509.8 -297.4)"/><path fill="#56554f" d="M29.05 5.46L7.64 26.87a1.49 1.49 0 0 0 0 2.1l21.41 21.41a1.48 1.48 0 0 0 2.1 0l21.41-21.41a1.49 1.49 0 0 0 0-2.1L31.17 5.46a1.49 1.49 0 0 0-2.12 0zm.42 43.06l-20-20a.88.88 0 0 1 0-1.25l20-20a.88.88 0 0 1 1.25 0l20 20a.89.89 0 0 1 0 1.25l-20 20a.89.89 0 0 1-1.25 0z"/><path fill="url(#o)" d="M22.85 22.32l-.16-2.42 2.68.63.74-3.1 1.84 1.05 2.99-.95.9 1.53 2.52-1.42.63 2.94 2.84-.31-.53 2.68 2.68.94-1.47 2.37 2.16 1.89-2.42 1.42 1.52 2.58-2.89.63.32 2.94-2.84-.58-.84 2.79-2.32-1.53-1.84 2.11-1.52-2.16-2.63 1.11-.57-2.79-2.84.21.52-2.79-2.68-.99 1.68-2.26L19.17 27l2.26-1.58-1.32-2.37 2.74-.73"/><path fill="#010101" d="M29.02 19.43a2.35 2.35 0 1 0-2.35-2.35 2.35 2.35 0 0 0 2.35 2.35zm5.3 5c-.62.41-1.45 1.71-1.86 1.86s-.63.51-1.21-1.52l.07-.08.83.52.26-.67.78.46-.26-2 6.67-5.43-1.34-1.65s-5.43 4.5-5.89 4.81a5.17 5.17 0 0 0-2.89-.46 3.93 3.93 0 0 0-2.43 1.24l-6.72-3.1-.88 2 7.7 3.46.31 1.91.77-.57.52.83.72-1 1.1.45a6.2 6.2 0 0 0 .24.95 1.42 1.42 0 0 0 1.55.93c.93-.15 1.71-1.6 2.07-2a.83.83 0 0 1 .83-.31.41.41 0 0 1 .62-.36 1.28 1.28 0 0 0-1.56-.31zm-1.6 5.48l-.52-.83-1.08.41-.47-.56a2 2 0 0 1 0-.32c.05-.62.16-2-.77-2.33a3.55 3.55 0 0 0-2.58.47c-.36.26-1 .77-1.5-.16 0 0-1.08-.05-.72.57a1.69 1.69 0 0 0 2.22.67c1.14-.41 2.33-1.19 2.48-.36a4.12 4.12 0 0 1-.21 1.55.89.89 0 0 0 .11.21l-.37.15-.31-.93-.83.14s-1 3.62-1 3.83a1.58 1.58 0 0 1-.05.67c-.1.31-3.46 9.1-3.46 9.1l1.91.93 3.52-8.84 1.19.36-1 9.3 2.12.26 1.08-9.77s.26.26.42-.47.88-3.93.88-3.93l-.62-.77z"/></g></svg>