<svg xmlns="http://www.w3.org/2000/svg" xmlns:xlink="http://www.w3.org/1999/xlink" viewBox="0 0 60.63 60.63"><defs><linearGradient id="b" x1="57.36" x2="-11.98" y1="57.36" y2="-11.98" gradientUnits="userSpaceOnUse"><stop offset="0" stop-color="#c06b28"/><stop offset="0.15" stop-color="#d69527"/><stop offset="0.36" stop-color="#f3ce26"/><stop offset="0.47" stop-color="#ffe525"/><stop offset="0.69" stop-color="#fffce9"/></linearGradient><linearGradient id="c" x1="38.85" x2="16.97" y1="65.22" y2="-24.28" gradientUnits="userSpaceOnUse"><stop offset="0" stop-color="#edba1d"/><stop offset="0.48" stop-color="#ffe525"/><stop offset="1" stop-color="#fff186"/></linearGradient><linearGradient id="d" x1="1282.34" x2="1319.51" y1="11.73" y2="48.89" gradientUnits="userSpaceOnUse"><stop offset="0" stop-color="#fdd718"/><stop offset="0" stop-color="#fcd518"/><stop offset="0.09" stop-color="#eab51e"/><stop offset="0.18" stop-color="#db9c23"/><stop offset="0.27" stop-color="#d18b26"/><stop offset="0.37" stop-color="#cb8028"/><stop offset="0.48" stop-color="#c97d29"/><stop offset="1" stop-color="#bf6728"/><stop offset="1" stop-color="#fff186"/></linearGradient><linearGradient id="a" x1="1281.65" x2="1292.13" y1="26.37" y2="26.37" gradientUnits="userSpaceOnUse"><stop offset="0" stop-color="#fef8bc"/><stop offset="0.05" stop-color="#fdf09c"/><stop offset="0.11" stop-color="#fce675"/><stop offset="0.18" stop-color="#fbde55"/><stop offset="0.26" stop-color="#fbd73c"/><stop offset="0.33" stop-color="#fad32b"/><stop offset="0.41" stop-color="#fad020"/><stop offset="0.51" stop-color="#facf1d"/><stop offset="1" stop-color="#c87929"/></linearGradient><linearGradient id="e" x1="21.69" x2="40.19" y1="45.81" y2="45.81" xlink:href="#a"/><linearGradient id="f" x1="1286.32" x2="1314.82" y1="37.31" y2="37.31" xlink:href="#a"/><linearGradient id="g" x1="19.94" x2="23.32" y1="39.49" y2="39.49" xlink:href="#a"/><linearGradient id="h" x1="1285.94" x2="1290.74" y1="29.49" y2="29.49" xlink:href="#a"/><linearGradient id="i" x1="1285.07" x2="1292.14" y1="25.49" y2="25.49" xlink:href="#a"/><linearGradient id="j" x1="-1701.75" x2="-1712.23" y1="26.37" y2="26.37" gradientTransform="matrix(-1 0 0 1 -393.1 0)" xlink:href="#a"/><linearGradient id="k" x1="-1703.13" x2="-1707.94" y1="29.55" y2="29.55" gradientTransform="matrix(-1 0 0 1 -393.1 0)" xlink:href="#a"/><linearGradient id="l" x1="-1701.73" x2="-1708.81" y1="25.49" y2="25.49" gradientTransform="matrix(-1 0 0 1 -393.1 0)" xlink:href="#a"/><linearGradient id="m" x1="36.94" x2="40.32" y1="39.49" y2="39.49" xlink:href="#a"/><linearGradient id="n" x1="20.07" x2="41.07" y1="27.74" y2="27.74" xlink:href="#a"/></defs><circle cx="30.31" cy="30.31" r="29.38" fill="url(#b)"/><circle cx="30.31" cy="30.31" r="27.59" fill="url(#c)"/><path fill="url(#d)" d="M1299.68 56.59h-.09a1.24 1.24 0 0 1-1.18-1.3 1.24 1.24 0 0 1 1.3-1.18h.09a1.24 1.24 0 0 1 1.18 1.29 1.24 1.24 0 0 1-1.24 1.18h-.06zm2.78-1.23a1.24 1.24 0 0 1 1.09-1.37h.08a1.24 1.24 0 0 1 1.37 1.09 1.24 1.24 0 0 1-1.09 1.37h-.23a1.23 1.23 0 0 1-1.23-1.1zm-7 .69h-.09a1.24 1.24 0 0 1-1-1.47 1.24 1.24 0 0 1 1.47-1h.08a1.24 1.24 0 0 1 1 1.47 1.24 1.24 0 0 1-1.21 1h-.25zm11-1.27a1.24 1.24 0 0 1 .86-1.53h.08a1.24 1.24 0 0 1 1.53.86 1.24 1.24 0 0 1-.86 1.53h-.09a1.26 1.26 0 0 1-.33 0 1.24 1.24 0 0 1-1.19-.91zm-15.08.06h-.09a1.24 1.24 0 0 1-.7-1.61 1.24 1.24 0 0 1 1.6-.7h.08a1.24 1.24 0 0 1 .71 1.6 1.24 1.24 0 0 1-1.16.79 1.24 1.24 0 0 1-.45-.08zm18.95-1.27a1.24 1.24 0 0 1 .6-1.65h.08a1.24 1.24 0 0 1 1.65.6 1.24 1.24 0 0 1-.59 1.65h-.09a1.22 1.22 0 0 1-.52.12 1.24 1.24 0 0 1-1.12-.72zm-22.77-.57h-.08a1.24 1.24 0 0 1-.43-1.7 1.24 1.24 0 0 1 1.7-.43h.07a1.24 1.24 0 0 1 .44 1.7 1.24 1.24 0 0 1-1.07.61 1.23 1.23 0 0 1-.63-.17zm26.44-1.25a1.24 1.24 0 0 1 .33-1.72h.07a1.24 1.24 0 0 1 1.72.32 1.24 1.24 0 0 1-.32 1.72l-.08.05a1.23 1.23 0 0 1-.7.21 1.24 1.24 0 0 1-1-.54zm-29.87-1.2l-.07-.06a1.24 1.24 0 0 1-.15-1.75 1.24 1.24 0 0 1 1.75-.15l.07.05a1.24 1.24 0 0 1 .16 1.75 1.24 1.24 0 0 1-1 .45 1.24 1.24 0 0 1-.79-.29zm33.14-1.18a1.24 1.24 0 0 1 0-1.75l.06-.06a1.24 1.24 0 0 1 1.75 0 1.24 1.24 0 0 1 0 1.75l-.07.07a1.23 1.23 0 0 1-.85.34 1.24 1.24 0 0 1-.9-.39zm-36.18-1.79l-.09-.08a1.24 1.24 0 0 1 .13-1.75 1.24 1.24 0 0 1 1.75.13l.05.06a1.24 1.24 0 0 1-.12 1.75 1.23 1.23 0 0 1-.81.3 1.24 1.24 0 0 1-.94-.42zm39-1.09a1.24 1.24 0 0 1-.23-1.74l.05-.07a1.24 1.24 0 0 1 1.74-.24 1.24 1.24 0 0 1 .24 1.74l-.05.07a1.24 1.24 0 0 1-1 .49 1.24 1.24 0 0 1-.75-.25zm-41.55-2.33v-.08a1.24 1.24 0 0 1 .4-1.7 1.24 1.24 0 0 1 1.71.41v.07a1.24 1.24 0 0 1-.4 1.7 1.25 1.25 0 0 1-.65.19 1.24 1.24 0 0 1-1.05-.59zm43.91-1a1.24 1.24 0 0 1-.51-1.68v-.07a1.23 1.23 0 0 1 1.67-.52 1.24 1.24 0 0 1 .52 1.67v.08a1.24 1.24 0 0 1-1.09.66 1.25 1.25 0 0 1-.58-.14zm-45.84-2.81v-.09a1.24 1.24 0 0 1 .67-1.62 1.24 1.24 0 0 1 1.62.68v.08a1.24 1.24 0 0 1-.67 1.62 1.23 1.23 0 0 1-.47.09 1.24 1.24 0 0 1-1.15-.77zm47.64-.83a1.24 1.24 0 0 1-.78-1.57v-.08a1.24 1.24 0 0 1 1.57-.78 1.24 1.24 0 0 1 .78 1.57v.09a1.24 1.24 0 0 1-1.17.84 1.23 1.23 0 0 1-.4-.07zm-48.94-3.22v-.09a1.24 1.24 0 0 1 .93-1.49 1.24 1.24 0 0 1 1.48.93v.08a1.24 1.24 0 0 1-.92 1.49 1.24 1.24 0 0 1-.28 0 1.24 1.24 0 0 1-1.21-1zm50.12-.66a1.24 1.24 0 0 1-1-1.43v-.05a1.24 1.24 0 0 1 1.42-1 1.24 1.24 0 0 1 1 1.42v.09a1.24 1.24 0 0 1-1.22 1h-.2zm-50.75-3.54V32a1.24 1.24 0 0 1 1.16-1.32 1.24 1.24 0 0 1 1.32 1.16V32a1.24 1.24 0 0 1-1.15 1.32h-.09a1.24 1.24 0 0 1-1.23-1.16zm50-1.72v-.05a1.24 1.24 0 0 1 1.24-1.24 1.24 1.24 0 0 1 1.24 1.24v.09a1.24 1.24 0 0 1-1.24 1.24 1.24 1.24 0 0 1-1.24-1.24zm-48.87-1.18a1.24 1.24 0 0 1-1.12-1.35v-.09a1.24 1.24 0 0 1 1.35-1.12 1.24 1.24 0 0 1 1.16 1.36v.09a1.24 1.24 0 0 1-1.23 1.12h-.12zm48.66-2.08v-.08a1.24 1.24 0 0 1 1.06-1.4 1.24 1.24 0 0 1 1.39 1.06v.09a1.24 1.24 0 0 1-1.06 1.39h-.16a1.24 1.24 0 0 1-1.23-1.08zm-48.17-1.94a1.24 1.24 0 0 1-.89-1.51v-.09a1.24 1.24 0 0 1 1.51-.88 1.24 1.24 0 0 1 .88 1.52v.08a1.24 1.24 0 0 1-1.2.93 1.23 1.23 0 0 1-.31 0zm47.35-1.82v-.08a1.24 1.24 0 0 1 .82-1.55 1.24 1.24 0 0 1 1.55.82v.09a1.24 1.24 0 0 1-.82 1.54 1.29 1.29 0 0 1-.36.05 1.24 1.24 0 0 1-1.18-.88zm-46.21-2.07a1.24 1.24 0 0 1-.63-1.64v-.09a1.24 1.24 0 0 1 1.64-.62 1.24 1.24 0 0 1 .62 1.64v.08a1.24 1.24 0 0 1-1.13.74 1.23 1.23 0 0 1-.5-.11zm44.79-1.5v-.08a1.24 1.24 0 0 1 .56-1.66 1.24 1.24 0 0 1 1.66.56v.08a1.24 1.24 0 0 1-.56 1.66 1.25 1.25 0 0 1-.55.13 1.24 1.24 0 0 1-1.11-.69zm-43-2.15a1.24 1.24 0 0 1-.36-1.71l.05-.08a1.24 1.24 0 0 1 1.72-.35 1.24 1.24 0 0 1 .35 1.72v.07a1.24 1.24 0 0 1-1 .56 1.23 1.23 0 0 1-.68-.2zm41.06-1.15v-.07a1.23 1.23 0 0 1 .28-1.73 1.24 1.24 0 0 1 1.73.28l.05.08a1.24 1.24 0 0 1-.29 1.73 1.23 1.23 0 0 1-.72.23 1.24 1.24 0 0 1-1-.52zm-38.73-2.17a1.24 1.24 0 0 1-.08-1.75l.06-.07a1.24 1.24 0 0 1 1.75-.07 1.24 1.24 0 0 1 .07 1.75l-.06.06a1.24 1.24 0 0 1-.92.4 1.23 1.23 0 0 1-.83-.32zm36.25-.77l-.06-.06a1.24 1.24 0 0 1 0-1.75 1.24 1.24 0 0 1 1.75 0l.07.07a1.24 1.24 0 0 1 0 1.75 1.23 1.23 0 0 1-.87.36 1.23 1.23 0 0 1-.88-.37zm-33.43-2.13a1.24 1.24 0 0 1 .2-1.74l.07-.06a1.24 1.24 0 0 1 1.74.21 1.25 1.25 0 0 1-.21 1.74l-.07.05a1.23 1.23 0 0 1-.77.27 1.24 1.24 0 0 1-1-.47zm30.51-.38l-.07-.05a1.24 1.24 0 0 1-.28-1.73 1.24 1.24 0 0 1 1.73-.28l.07.06a1.24 1.24 0 0 1 .27 1.73 1.23 1.23 0 0 1-1 .51 1.24 1.24 0 0 1-.73-.24zm-27.25-2a1.24 1.24 0 0 1 .48-1.68h.08a1.24 1.24 0 0 1 1.68.49 1.24 1.24 0 0 1-.49 1.69h-.07a1.23 1.23 0 0 1-.6.16 1.24 1.24 0 0 1-1.08-.64zm24 0h-.08a1.24 1.24 0 0 1-.55-1.66 1.24 1.24 0 0 1 1.66-.55h.08a1.24 1.24 0 0 1 .55 1.66 1.24 1.24 0 0 1-1.11.68 1.24 1.24 0 0 1-.56-.13zm-20.37-1.89a1.24 1.24 0 0 1 .75-1.58h.09a1.24 1.24 0 0 1 1.58.75 1.24 1.24 0 0 1-.75 1.58h-.08a1.21 1.21 0 0 1-.42.07 1.24 1.24 0 0 1-1.17-.82zm16.81.44h-.08a1.24 1.24 0 0 1-.81-1.55 1.24 1.24 0 0 1 1.55-.82h.09a1.23 1.23 0 0 1 .81 1.55 1.24 1.24 0 0 1-1.18.87 1.25 1.25 0 0 1-.37-.06zm-13-1.69a1.24 1.24 0 0 1 1-1.44h.09a1.24 1.24 0 0 1 1.44 1 1.24 1.24 0 0 1-1 1.44h-.31a1.24 1.24 0 0 1-1.22-1zm9.2.84h-.09a1.24 1.24 0 0 1-1.05-1.4 1.24 1.24 0 0 1 1.4-1.06h.09a1.24 1.24 0 0 1 1.05 1.4 1.24 1.24 0 0 1-1.23 1.06h-.17zm-5.19-1.45a1.24 1.24 0 0 1 1.23-1.29h.09a1.24 1.24 0 0 1 1.26 1.22 1.24 1.24 0 0 1-1.22 1.26h-.11a1.24 1.24 0 0 1-1.24-1.21z" transform="translate(-1270.4)" opacity="0.79"/><path fill="url(#a)" stroke="#885d24" d="M1289.94 24.81s-6.37-3-7.87-2.37 1.38 6.63 4 7.5 5.25.38 5.88-.5-.38-4.13-2.01-4.63z" transform="translate(-1270.4)"/><ellipse cx="30.94" cy="45.81" fill="url(#e)" stroke="#885d24" rx="9.25" ry="3.25"/><path fill="url(#f)" stroke="#885d24" d="M1314.82 39.81c0 6-6.38 5.88-14.25 5.88s-14.25.13-14.25-5.87 6.38-10.87 14.25-10.87 14.25 4.85 14.25 10.86z" transform="translate(-1270.4)"/><ellipse cx="21.63" cy="39.49" fill="url(#g)" stroke="#885d24" rx="1.69" ry="1.56"/><path fill="url(#h)" stroke="#885d24" stroke-width="0.75" d="M1285.94 29.18s4-1.25 4.63-.25-.44 1.94-2.56 1.31-1.32.94-2.07-1.06z" transform="translate(-1270.4)" opacity="0.59"/><path fill="url(#i)" stroke="#885d24" stroke-width="0.75" d="M1285.07 23.56s5.88 1.13 6.38 2 1.75 2.63-1.12 1.5-4.76-2.25-5.26-3.5z" transform="translate(-1270.4)" opacity="0.59"/><path fill="url(#j)" stroke="#885d24" d="M1310.86 24.81s6.38-3 7.88-2.37-1.37 6.63-4 7.5-5.25.38-5.87-.5.36-4.13 1.99-4.63z" transform="translate(-1270.4)"/><path fill="url(#k)" stroke="#885d24" stroke-width="0.75" d="M1314.86 29.18s-4-1.25-4.62-.25.4 2.06 2.52 1.44 1.35.81 2.1-1.19z" transform="translate(-1270.4)" opacity="0.59"/><path fill="url(#l)" stroke="#885d24" stroke-width="0.75" d="M1315.73 23.56s-5.87 1.13-6.37 2-1.75 2.63 1.13 1.5 4.74-2.25 5.24-3.5z" transform="translate(-1270.4)" opacity="0.59"/><ellipse cx="38.63" cy="39.49" fill="url(#m)" stroke="#885d24" rx="1.69" ry="1.56"/><ellipse cx="30.57" cy="27.74" fill="url(#n)" stroke="#885d24" rx="10.5" ry="7.06"/><ellipse cx="26.07" cy="28.68" fill="none" stroke="#885d24" rx="1.75" ry="1.13"/><ellipse cx="35.07" cy="28.68" fill="none" stroke="#885d24" rx="1.75" ry="1.13"/><path fill="#fff" stroke="#885d24" d="M23.2 11.68s-6 2.5-6.12 5.38a6.7 6.7 0 0 0 5.13 6.25c2.5.38 9.62.88 2.13-2.87s-1.14-8.76-1.14-8.76zm13.34 0s6 2.5 6.13 5.38a6.7 6.7 0 0 1-5.12 6.25c-2.5.38-9.62.88-2.12-2.87s1.11-8.76 1.11-8.76z"/><path fill="#855723" d="M0 30.31A30.31 30.31 0 1 0 30.32 0 30.35 30.35 0 0 0 0 30.31zm.92 0a29.4 29.4 0 1 1 29.4 29.4 29.43 29.43 0 0 1-29.4-29.4z"/><path fill="#855723" d="M2.39 30.31A27.93 27.93 0 1 0 30.32 2.38 28 28 0 0 0 2.39 30.31zm.84 0a27.08 27.08 0 1 1 27.08 27.08A27.11 27.11 0 0 1 3.23 30.31z"/></svg>