<svg xmlns="http://www.w3.org/2000/svg" xmlns:xlink="http://www.w3.org/1999/xlink" viewBox="0 0 58.05 57.99"><defs><linearGradient id="a" x1="151.97" x2="177.34" y1="163.93" y2="205.33" gradientTransform="translate(42.96 -217.31) rotate(45)" gradientUnits="userSpaceOnUse"><stop offset="0" stop-color="#dce0df"/><stop offset="0.47" stop-color="#9facb3"/><stop offset="1" stop-color="#51595d"/></linearGradient><linearGradient id="c" x1="76.3" x2="133.19" y1="164.01" y2="195.71" gradientTransform="matrix(1, 0, 0, 1, 0, 0)" xlink:href="#a"/><linearGradient id="d" x1="23.02" x2="39.62" y1="12.14" y2="58.34" gradientTransform="matrix(1, 0, 0, 1, 0, 0)" xlink:href="#a"/><linearGradient id="e" x1="96.33" x2="133.04" y1="167.1" y2="220.56" gradientTransform="matrix(1, 0, 0, 1, 0, 0)" xlink:href="#a"/><linearGradient id="f" x1="19.27" x2="35.47" y1="22.99" y2="32.34" gradientUnits="userSpaceOnUse"><stop offset="0" stop-color="#5bbccc"/><stop offset="0.47" stop-color="#279696"/><stop offset="1" stop-color="#046c61"/></linearGradient><linearGradient id="g" x1="104.96" x2="104.96" y1="183.17" y2="187.3" gradientUnits="userSpaceOnUse"><stop offset="0" stop-color="#bdcbd1"/><stop offset="0.47" stop-color="#9fb1b8"/><stop offset="1" stop-color="#697479"/></linearGradient><linearGradient id="b" x1="98.03" x2="104.92" y1="171.88" y2="183.81" gradientUnits="userSpaceOnUse"><stop offset="0" stop-color="#d0e3f5"/><stop offset="0.05" stop-color="#cadff3"/><stop offset="0.13" stop-color="#b8d4ef"/><stop offset="0.21" stop-color="#9ac2e7"/><stop offset="0.28" stop-color="#7cb0df"/><stop offset="0.41" stop-color="#9dc4e7"/><stop offset="0.57" stop-color="#bcd7f0"/><stop offset="0.72" stop-color="#d2e5f5"/><stop offset="0.87" stop-color="#dfedf9"/><stop offset="1" stop-color="#e4f0fa"/></linearGradient><linearGradient id="h" x1="-349.31" x2="-342.42" y1="171.88" y2="183.81" gradientTransform="matrix(-1, 0, 0, 1, -237.07, 0)" xlink:href="#b"/></defs><path fill="url(#a)" d="M44.98 22.38l-5.91-3.53-3.45-5.83L29 0l-6.62 13.02-3.51 6.15-5.85 3.21L0 29l13.02 6.62 5.97 3.63 3.39 5.73L29 57.99l6.62-13.01 3.53-5.45 5.83-3.91L57.99 29l-13.01-6.62"/><path fill="url(#c)" d="M106.62 183.44c1.92 4.68 6.76 4.69 1.24-.84a3.7 3.7 0 0 0 .78-1.18c4.68 1.93 9.71 6.78 9.71 6.78l15.78-8.2s-17.42-.11-25.23-.09a3.67 3.67 0 0 0-.29-1.38c4.67-2 4.63-6.8-.85-1.23a3.7 3.7 0 0 0-1.17-.76c1.92-4.68 6.81-9.54 6.81-9.54l-8.27-16s-.06 17.42 0 25.23a3.7 3.7 0 0 0-1.36.29c-1.94-4.67-6.78-4.65-1.24.85a3.71 3.71 0 0 0-.77 1.18c-4.68-1.92-9.76-6.71-9.76-6.71l-15.74 8.19h25.23a3.64 3.64 0 0 0 .28 1.35c-4.68 1.94-4.66 6.77.85 1.24a3.71 3.71 0 0 0 1.14.75c-2 4.66-6.65 10-6.65 10l7.82 15.63s.27-17.42.31-25.23a3.69 3.69 0 0 0 1.38-.33z" transform="translate(-76.08 -150.99)"/><circle cx="29.06" cy="28.95" r="15.05" fill="url(#d)"/><path fill="url(#e)" d="M121 179.94a15.85 15.85 0 1 1-15.85-15.85A15.85 15.85 0 0 1 121 179.94zm-15.85-14.43a14.43 14.43 0 1 0 14.43 14.43 14.43 14.43 0 0 0-14.43-14.43z" transform="translate(-76.08 -150.99)"/><circle cx="29.12" cy="28.68" r="13.83" fill="url(#f)" stroke="#010101"/><path fill="url(#g)" d="M105.36 182.66s2 1.56 2 2.79 1.89-1.81 2.38-1.07.33 4 .33 4-2.3-.16-2.3-1-1.31 1.31-2.55 1.31-2.14-1.4-2.63-1.4-1.15 1.07-2.22.9-.08-4.6.33-4.11a3.43 3.43 0 0 0 1.81 1.23c.63.14 1.7-3.06 2.85-2.65z" transform="translate(-76.08 -150.99)"/><path fill="url(#b)" d="M104.21 166.22v13.24s-5.58 2.71-5.42 5.83 2.55 5.34 2.79 5.91-4.52-1.64-4.52-6.57 4.43-8 4.68-9.28 2.47-9.13 2.47-9.13z" transform="translate(-76.08 -150.99)"/><path fill="url(#h)" d="M106.06 166.22v13.24s5.58 2.71 5.42 5.83-2.55 5.34-2.79 5.91 4.52-1.64 4.52-6.57-4.43-8-4.68-9.28-2.47-9.13-2.47-9.13z" transform="translate(-76.08 -150.99)"/></svg>