<svg xmlns="http://www.w3.org/2000/svg" xmlns:xlink="http://www.w3.org/1999/xlink" viewBox="0 0 60.53 60.53"><defs><linearGradient id="c" x1="39.54" x2="15.76" y1="68.21" y2="-29.07" gradientUnits="userSpaceOnUse"><stop offset="0" stop-color="#dce0df"/><stop offset="0.47" stop-color="#82a1b2"/><stop offset="1" stop-color="#3c535d"/></linearGradient><linearGradient id="a" x1="90.34" x2="122.09" y1="226.28" y2="275.6" gradientUnits="userSpaceOnUse"><stop offset="0" stop-color="#fff"/><stop offset="0.39" stop-color="#baced6"/><stop offset="1" stop-color="#749dc7"/></linearGradient><linearGradient id="d" x1="84.59" x2="102.78" y1="235.6" y2="275.06" xlink:href="#a"/><linearGradient id="e" x1="105.24" x2="123.43" y1="226.08" y2="265.53" xlink:href="#a"/><linearGradient id="b" x1="10.49" x2="22.65" y1="5.75" y2="51.15" gradientUnits="userSpaceOnUse"><stop offset="0" stop-color="#84d1e1"/><stop offset="0.99" stop-color="#077e74"/></linearGradient><linearGradient id="f" x1="33.85" x2="46.02" y1="-0.5" y2="44.89" xlink:href="#b"/><linearGradient id="g" x1="101.79" x2="119.98" y1="227.67" y2="267.12" xlink:href="#a"/><linearGradient id="h" x1="26.7" x2="38.86" y1="1.41" y2="46.81" xlink:href="#b"/></defs><circle cx="30.27" cy="30.27" r="30" fill="url(#c)"/><path fill="#fafdff" d="M30.39 56.79a1.55 1.55 0 0 1 1.46-1.63h.36a1.54 1.54 0 0 1 1.64 1.44 1.55 1.55 0 0 1-1.44 1.64h-.5a1.55 1.55 0 0 1-1.54-1.46zm-4.89 1l-.4-.07a1.55 1.55 0 0 1-1.21-1.82 1.54 1.54 0 0 1 1.82-1.21l.36.07a1.55 1.55 0 0 1 1.24 1.8 1.55 1.55 0 0 1-1.52 1.27h-.28zm11.4-1.82a1.54 1.54 0 0 1 1-1.94l.35-.11a1.55 1.55 0 0 1 2 1 1.55 1.55 0 0 1-1 2l-.39.12a1.54 1.54 0 0 1-.46.07 1.54 1.54 0 0 1-1.47-1.08zm-18-.27l-.37-.18a1.54 1.54 0 0 1-.72-2.06 1.54 1.54 0 0 1 2.06-.72l.33.16a1.54 1.54 0 0 1 .75 2 1.55 1.55 0 0 1-1.4.9 1.55 1.55 0 0 1-.65-.14zm24.13-2.1a1.54 1.54 0 0 1 .5-2.13l.31-.19a1.54 1.54 0 0 1 2.13.47 1.55 1.55 0 0 1-.47 2.13l-.34.22a1.54 1.54 0 0 1-.81.23 1.54 1.54 0 0 1-1.31-.73zm-30-1.57l-.32-.26a1.54 1.54 0 0 1-.19-2.18 1.55 1.55 0 0 1 2.18-.19l.28.23a1.55 1.55 0 0 1 .22 2.17 1.54 1.54 0 0 1-1.2.57 1.54 1.54 0 0 1-1-.35zm35.34-2.25a1.54 1.54 0 0 1 0-2.18l.25-.27a1.54 1.54 0 0 1 2.18-.07 1.54 1.54 0 0 1 .08 2.18l-.28.3a1.54 1.54 0 0 1-1.11.47 1.54 1.54 0 0 1-1.07-.43zM8.24 47.01L8 46.68a1.54 1.54 0 0 1 .35-2.16 1.54 1.54 0 0 1 2.15.35l.21.29a1.54 1.54 0 0 1-.32 2.16 1.54 1.54 0 0 1-.92.3A1.54 1.54 0 0 1 8.23 47zm44.35-2.25a1.54 1.54 0 0 1-.58-2.11l.18-.32a1.54 1.54 0 0 1 2.1-.61 1.54 1.54 0 0 1 .61 2.1l-.2.36a1.54 1.54 0 0 1-1.34.78 1.54 1.54 0 0 1-.76-.2zM4.84 40.97l-.15-.38a1.55 1.55 0 0 1 .88-2 1.55 1.55 0 0 1 2 .88l.14.34a1.55 1.55 0 0 1-.85 2 1.54 1.54 0 0 1-.58.11 1.54 1.54 0 0 1-1.43-1zm50.61-2.12a1.55 1.55 0 0 1-1.09-1.9l.09-.35a1.54 1.54 0 0 1 1.88-1.12 1.54 1.54 0 0 1 1.11 1.88l-.1.39a1.54 1.54 0 0 1-1.49 1.14 1.55 1.55 0 0 1-.41-.05zm-52.4-4.58c0-.14 0-.27-.05-.41a1.55 1.55 0 0 1 1.35-1.72 1.55 1.55 0 0 1 1.72 1.35v.36a1.55 1.55 0 0 1-1.32 1.74h-.19a1.55 1.55 0 0 1-1.53-1.34zm53.67-1.84a1.55 1.55 0 0 1-1.52-1.57v-.91a1.54 1.54 0 0 1 1.51-1.58 1.54 1.54 0 0 1 1.58 1.51v1.04a1.54 1.54 0 0 1-1.54 1.52zM4.31 29.09a1.55 1.55 0 0 1-1.36-1.66c0-.14 0-.27.05-.41a1.54 1.54 0 0 1 1.73-1.34 1.54 1.54 0 0 1 1.38 1.69v.36a1.54 1.54 0 0 1-1.53 1.37h-.27zm50.07-4.87l-.1-.35a1.55 1.55 0 0 1 1.07-1.9 1.54 1.54 0 0 1 1.9 1.07c0 .13.07.26.11.4a1.54 1.54 0 0 1-1.1 1.89 1.55 1.55 0 0 1-.39.05 1.55 1.55 0 0 1-1.49-1.15zm-48.9-1.59a1.54 1.54 0 0 1-.89-2l.15-.38a1.54 1.54 0 0 1 2-.86 1.55 1.55 0 0 1 .86 2l-.13.34a1.54 1.54 0 0 1-1.44 1 1.55 1.55 0 0 1-.55-.1zm46.6-4.12l-.18-.32a1.55 1.55 0 0 1 .56-2.11 1.54 1.54 0 0 1 2.11.57l.2.35a1.54 1.54 0 0 1-.6 2.1 1.54 1.54 0 0 1-.75.2 1.54 1.54 0 0 1-1.35-.79zM8.23 16.67a1.54 1.54 0 0 1-.37-2.15l.24-.33a1.54 1.54 0 0 1 2.16-.34 1.55 1.55 0 0 1 .34 2.16l-.21.3a1.54 1.54 0 0 1-1.26.65 1.53 1.53 0 0 1-.89-.28zm40.2-3.12l-.25-.26a1.55 1.55 0 0 1 0-2.19 1.54 1.54 0 0 1 2.19 0l.28.29a1.55 1.55 0 0 1-.06 2.18 1.54 1.54 0 0 1-1.06.42 1.54 1.54 0 0 1-1.12-.48zm-36.07-2a1.55 1.55 0 0 1 .17-2.18l.31-.26a1.55 1.55 0 0 1 2.17.21 1.54 1.54 0 0 1-.21 2.17l-.28.23a1.54 1.54 0 0 1-1 .37 1.55 1.55 0 0 1-1.18-.54zm31.3-1.94l-.31-.19a1.55 1.55 0 0 1-.52-2.12 1.54 1.54 0 0 1 2.12-.51l.35.21a1.55 1.55 0 0 1 .48 2.13 1.54 1.54 0 0 1-1.31.72 1.53 1.53 0 0 1-.82-.24zm-26-2a1.54 1.54 0 0 1 .71-2.07l.37-.18a1.55 1.55 0 0 1 2.06.74 1.55 1.55 0 0 1-.74 2.06l-.33.16a1.54 1.54 0 0 1-.68.16 1.54 1.54 0 0 1-1.39-.86zm20.46-.63l-.35-.11a1.55 1.55 0 0 1-1-1.93 1.55 1.55 0 0 1 1.93-1l.39.12a1.55 1.55 0 0 1 1 1.94 1.55 1.55 0 0 1-1.47 1.07 1.55 1.55 0 0 1-.47-.07zM23.73 5.12a1.54 1.54 0 0 1 1.2-1.82l.4-.08a1.55 1.55 0 0 1 1.81 1.23 1.55 1.55 0 0 1-1.23 1.81l-.36.07a1.53 1.53 0 0 1-.31 0 1.55 1.55 0 0 1-1.51-1.23zm8.33.73h-.36a1.55 1.55 0 0 1-1.47-1.61 1.54 1.54 0 0 1 1.61-1.47h.41A1.54 1.54 0 0 1 33.7 4.4a1.55 1.55 0 0 1-1.54 1.45h-.09z" opacity="0.36"/><path fill="url(#a)" d="M75.89 250.83a30.27 30.27 0 1 0 30.27-30.27 30.3 30.3 0 0 0-30.27 30.27zm.91 0a29.35 29.35 0 1 1 29.35 29.35 29.38 29.38 0 0 1-29.35-29.35z" transform="translate(-75.9 -220.6)"/><path fill="#010101" d="M17.78 24.29l2.83 8.69h9.14l-7.39 5.38 2.82 8.7-7.4-5.38-7.39 5.38 2.82-8.7-7.4-5.38h9.15l2.82-8.69" style="isolation:isolate"/><path fill="url(#d)" d="M93 244.63l-2.66 8.2H79.48l8.77 6.37-3.35 10.32 8.77-6.37 8.77 6.37-3.35-10.32 8.77-6.37H97l-3.35-10.31z" transform="translate(-75.9 -220.6)"/><path fill="#010101" d="M42.83 24.29l2.82 8.69h9.15l-7.4 5.38 2.82 8.7-7.39-5.38-7.4 5.38 2.82-8.7-7.39-5.38H40l2.83-8.69" style="isolation:isolate"/><path fill="url(#e)" d="M118 244.63l-2.66 8.2h-10.82l8.77 6.37-3.35 10.31 8.77-6.37 8.77 6.37-3.35-10.31 8.77-6.37h-10.84l-3.35-10.31z" transform="translate(-75.9 -220.6)"/><path fill="url(#b)" stroke="#000" stroke-width="0.77" d="M17.78 24.29l2.83 8.69h9.14l-7.39 5.38 2.82 8.7-7.4-5.38-7.39 5.38 2.82-8.7-7.4-5.38h9.15l2.82-8.69z"/><path fill="url(#f)" stroke="#000" stroke-width="0.77" d="M42.83 24.29l2.82 8.69h9.15l-7.4 5.38 2.82 8.7-7.39-5.38-7.4 5.38 2.82-8.7-7.39-5.38H40l2.83-8.69z"/><path fill="#010101" d="M30.33 6.26l2.83 8.7h9.14l-7.39 5.37 2.82 8.7-7.4-5.38-7.4 5.38 2.83-8.7-7.4-5.37h9.15l2.82-8.7" style="isolation:isolate"/><path fill="url(#g)" d="M105.53 226.61l-2.66 8.2H92l8.77 6.37-3.35 10.31 8.77-6.37 8.77 6.37-3.35-10.31 8.77-6.37h-10.81l-3.35-10.31z" transform="translate(-75.9 -220.6)"/><path fill="url(#h)" stroke="#000" stroke-width="0.77" d="M30.33 6.26l2.83 8.7h9.14l-7.39 5.37 2.82 8.7-7.4-5.38-7.4 5.38 2.83-8.7-7.4-5.37h9.15l2.82-8.7z"/></svg>