<svg xmlns="http://www.w3.org/2000/svg" xmlns:xlink="http://www.w3.org/1999/xlink" viewBox="0 0 61.86 58.83"><defs><linearGradient id="a" x1="29.07" x2="33.57" y1="5.62" y2="46.33" gradientUnits="userSpaceOnUse"><stop offset="0" stop-color="#e0c77c"/><stop offset="0.47" stop-color="#b2732a"/><stop offset="1" stop-color="#4d1a0d"/></linearGradient><linearGradient id="c" x1="506.26" x2="568.12" y1="539" y2="539" xlink:href="#a"/><linearGradient id="d" x1="24.62" x2="41.22" y1="15.5" y2="61.71" xlink:href="#a"/><linearGradient id="e" x1="532.86" x2="560.15" y1="532.46" y2="594.89" xlink:href="#a"/><linearGradient id="f" x1="523.75" x2="550.75" y1="541.33" y2="541.33" gradientUnits="userSpaceOnUse"><stop offset="0" stop-color="#fff"/><stop offset="0.39" stop-color="#48a3da"/><stop offset="1" stop-color="#404ca0"/></linearGradient><linearGradient id="b" x1="523.33" x2="550.34" y1="541.83" y2="541.83" gradientUnits="userSpaceOnUse"><stop offset="0" stop-color="#217e3e"/><stop offset="0.31" stop-color="#7cc24a"/><stop offset="0.62" stop-color="#74c15d"/><stop offset="0.99" stop-color="#157e3f"/></linearGradient><linearGradient id="g" x1="530" x2="543.97" y1="541.54" y2="541.54" xlink:href="#b"/></defs><path fill="url(#a)" d="M30.93 0l7.3 22.47h23.63L42.74 36.36l7.31 22.47-19.12-13.88-19.12 13.88 7.3-22.47L0 22.47h23.63L30.93 0"/><path fill="url(#c)" d="M567.65 531.91l-.21.21.67-.21h-.47zM539.5 539l5-7.07-7.21-22.2v28.11a3.79 3.79 0 0 0-.54 0 3.75 3.75 0 0 0-2 .56l-4.75-6.72-.07.24h-23.67l.17.13 26.73 8.31a3.73 3.73 0 0 0-.21 1.22 3.79 3.79 0 0 0 .28 1.42l-7.88 2.88-7.28 22.4.46-.34 16.27-23.12a3.76 3.76 0 0 0 1.93.53h.31l-.12 9.23.25-.18 19.12 13.89-17.13-23.81a3.78 3.78 0 0 0 1.19-1.81c2.55.92 6.08 2.25 8.66 3.22v-.06l17.41-12.65 1-1c-3.51 1.07-20 6.09-27.09 8.35a3.78 3.78 0 0 0-.83-1.53z" transform="translate(-506.3 -509.4)"/><circle cx="30.66" cy="32.31" r="15.05" fill="url(#d)"/><path fill="url(#e)" d="M552.77 541.75a15.85 15.85 0 1 1-15.85-15.85 15.85 15.85 0 0 1 15.85 15.85zm-15.85-14.43a14.43 14.43 0 1 0 14.43 14.43 14.43 14.43 0 0 0-14.43-14.43z" transform="translate(-506.3 -509.4)"/><path fill="#fff" d="M21.25 30.95l-4.26.92 4.22 1.43zm6.15-7.87l-2.66-3.47.49 4.43zm-3.05 1.8l-3.74-2.23 2.13 3.91zm-2 2.53l-4.28-.82 3.33 3zm7.9-9l-1.36 4.24h2.35zm4.77.76l-2.45 3.61 2.17.78zm4.36 10.08l3.38-2.9-4.3.74zm.36 3.85l4.27-1.28-4.27-1.09zm-.12-11.13l-3.66 2.36 1.69 1.63zm-2.15 10.8l-.81-.72.09-4-1-.9s-.72-2.44-1.17-2.62a28.05 28.05 0 0 0-4.25-.72s-3.61.18-4 1-1.17 2.17-1.17 2.17l-1 .72v4.37l-.67.75.06 2.2 5.1 5.05h3.33l5.29-5.14zm-1.71-.44l-2 2.75-2.08.92h-2.84l-2-.67-1.92-3.17v-1.6L26 29.23h8.92l.82 1.33v1.75zm.65 6.74l4 2-2.36-3.66zm-3.13 1.69l3 3.33-.82-4.28zm5.24-4.14l4.43.49-3.47-2.64zm-16.9-1.79L18.1 37.4l4.44-.41zm4.22 9.73l2.79-3.48-2.19-.84zm-4.6-2.8l3.92-2.11-1.69-1.63zm9.54 3.64l1-4.24h-2.35z" opacity="0.49"/><path fill="url(#f)" d="M528 540.39l-4.26.92 4.22 1.43zm6.15-7.87l-2.63-3.47.49 4.43zm-3.05 1.8l-3.74-2.23 2.11 3.92zm-2 2.53l-4.28-.82 3.33 3zm7.9-9l-1.36 4.24H538zm4.77.76l-2.45 3.61 2.19.84zm4.36 10.08l3.38-2.9-4.3.74zm.36 3.85l4.27-1.28-4.23-1.07zm-.12-11.13l-3.66 2.36 1.69 1.63zm-2.15 10.8l-.81-.72.09-4-1-.9s-.72-2.44-1.17-2.62a28.05 28.05 0 0 0-4.25-.72s-3.61.18-4 1-1.17 2.17-1.17 2.17l-1 .72v4.37l-.67.75.06 2.2 5.1 5.05h3.33l5.29-5.14zm-1.71-.44l-2 2.75-2.08.92h-2.83l-2-.67-1.92-3.17V540l1.08-1.33h8.92l.83 1.33v1.75zm.65 6.74l4 2-2.36-3.66zm-3.16 1.66l3 3.33-.82-4.28zm5.24-4.14l4.43.49-3.47-2.64zm-16.9-1.79l-3.52 2.57 4.44-.41zm4.26 9.76l2.79-3.48-2.19-.84zm-4.6-2.8l3.92-2.11-1.69-1.63zm9.54 3.64l1-4.24h-2.35z" transform="translate(-506.3 -509.4)" opacity="0.58"/><path fill="url(#b)" d="M527.59 540.89l-4.26.92 4.22 1.43zm6.15-7.87l-2.63-3.47.49 4.45zm-3.05 1.8l-3.74-2.23 2.11 3.92zm-2 2.53l-4.28-.82 3.32 3zm7.9-9l-1.36 4.24h2.35zm4.77.76l-2.45 3.61 2.19.84zm4.36 10.08l3.38-2.9-4.3.74zm.36 3.85l4.27-1.28-4.23-1.07zm-.08-11.15l-3.66 2.36 1.69 1.63zm-2.15 10.8L543 542l.09-4-1-.9s-.72-2.44-1.17-2.62a28 28 0 0 0-4.24-.72s-3.61.18-4 1-1.17 2.17-1.17 2.17l-1 .72v4.37l-.67.75.06 2.2L535 550h3.33l5.29-5.14zm-1.7-.44l-2 2.75-2.08.92h-2.83l-2-.67-1.92-3.17v-1.58l1.08-1.33h8.92l.83 1.33v1.75zm.65 6.74l4 2-2.36-3.66zm-3.13 1.69l3 3.33-.82-4.28zm5.24-4.14l4.43.49-3.47-2.64zm-16.91-1.8l-3.52 2.57 4.44-.41zm4.22 9.75L535 551l-2.19-.84zm-4.6-2.8l3.92-2.11-1.69-1.63zm9.54 3.64l1-4.24h-2.35z" transform="translate(-506.3 -509.4)"/><path fill="url(#g)" stroke="#000" stroke-width="0.25" d="M544 542.36l-.81-.72.09-4-1-.9s-.72-2.44-1.17-2.62a28.1 28.1 0 0 0-4.25-.72s-3.61.18-4 1-1.17 2.17-1.17 2.17l-1 .72v4.37l-.67.75.06 2.2 5.1 5.05h3.33l5.29-5.14zm-1.71-.44l-2 2.75-2.08.92h-2.83l-2-.67-1.92-3.17v-1.58l1.08-1.33h8.92l.83 1.33v1.75z" transform="translate(-506.3 -509.4)"/></svg>