<svg xmlns="http://www.w3.org/2000/svg" xmlns:xlink="http://www.w3.org/1999/xlink" viewBox="0 0 58.41 58.36"><defs><linearGradient id="a" x1="29.66" x2="28.94" y1="7.3" y2="44.06" gradientUnits="userSpaceOnUse"><stop offset="0" stop-color="#fff"/><stop offset="0.48" stop-color="#dad8e5"/><stop offset="1" stop-color="#9599c6"/></linearGradient><linearGradient id="c" x1="306.2" x2="332.54" y1="88.45" y2="126.89" xlink:href="#a"/><linearGradient id="d" x1="23.08" x2="39.68" y1="12.31" y2="58.51" xlink:href="#a"/><linearGradient id="e" x1="311.78" x2="348.49" y1="96.65" y2="150.12" xlink:href="#a"/><linearGradient id="f" x1="298.18" x2="312.37" y1="79.75" y2="98.39" xlink:href="#a"/><linearGradient id="g" x1="6.7" x2="20.89" y1="-0.62" y2="18.02" xlink:href="#a"/><linearGradient id="h" x1="328.35" x2="342.8" y1="119.6" y2="138.38" xlink:href="#a"/><linearGradient id="i" x1="36.86" x2="51.32" y1="39.23" y2="58.01" xlink:href="#a"/><linearGradient id="b" x1="307.15" x2="334.1" y1="109.41" y2="109.41" gradientUnits="userSpaceOnUse"><stop offset="0" stop-color="#fff"/><stop offset="0.39" stop-color="#ffe300"/><stop offset="1" stop-color="#c67a29"/></linearGradient><linearGradient id="j" x1="24.29" x2="33.99" y1="29.04" y2="29.04" xlink:href="#b"/></defs><path fill="url(#a)" d="M29.23 0l3.68 10.7 7.49-8.48-.7 11.3 10.16-4.97-4.97 10.16 11.3-.7-8.48 7.49 10.7 3.68-10.7 3.68 8.48 7.49-11.3-.7 4.97 10.16-10.16-4.97.7 11.3-7.49-8.48-3.68 10.7-3.68-10.7-7.49 8.48.7-11.3L8.6 49.81l4.97-10.16-11.3.7 8.48-7.49-10.7-3.68 10.7-3.68-8.48-7.49 11.3.7L8.6 8.55l10.16 4.97-.7-11.3 7.49 8.48L29.23 0"/><path fill="url(#c)" d="M336.32 120l11.3.67-24.78-10.25a2.35 2.35 0 0 0 .16-.42l16.18 3.15 10.68-3.75-26.81.13a2.71 2.71 0 0 0 0-.44l16.11-3.09 8.49-7.48-24.81 10.17a2.25 2.25 0 0 0-.22-.42L336.3 99l4.91-10.2-18.88 19a2.37 2.37 0 0 0-.35-.29l9.15-13.7.67-11.3-10.23 24.78a2.26 2.26 0 0 0-.43-.13l3.26-16.15-3.68-10.7v26.81a2.37 2.37 0 0 0-.46 0L317 91.06l-7.51-8.47 10.26 24.77a2.34 2.34 0 0 0-.4.21l-9.09-13.75-10.16-5 18.89 19a2.39 2.39 0 0 0-.3.36L305 99l-11.3-.7 24.75 10.31a2.31 2.31 0 0 0-.14.45l-16.17-3.21-10.69 3.71h26.81a2.3 2.3 0 0 0 0 .46l-16.16 3.22-8.46 7.52 24.75-10.3a2.35 2.35 0 0 0 .22.41L305 120.06l-4.92 10.19 18.89-19a2.4 2.4 0 0 0 .36.29l-9.12 13.73-.64 11.3 10.17-24.81a2.29 2.29 0 0 0 .44.13L317 128l3.72 10.69-.06-26.81a2.24 2.24 0 0 0 .45 0l3.2 16.12 7.5 8.47-10.24-24.78a2.42 2.42 0 0 0 .41-.22l9.15 13.71 10.18 4.95-19-19a2.33 2.33 0 0 0 .29-.36z" transform="translate(-291.5 -80.4)"/><circle cx="29.11" cy="29.11" r="15.05" fill="url(#d)"/><path fill="url(#e)" d="M336.45 109.49a15.85 15.85 0 1 1-15.85-15.85 15.85 15.85 0 0 1 15.85 15.85zM320.6 95.06a14.43 14.43 0 1 0 14.4 14.43 14.43 14.43 0 0 0-14.4-14.43z" transform="translate(-291.5 -80.4)"/><path fill="url(#f)" d="M321.17 101.92c-4.83 0-8.74 3.6-8.74 8s3.91 8 8.74 8 8.74-3.6 8.74-8-3.91-8-8.74-8zm0 20.44c-7.44 0-13.48-5.55-13.48-12.4s6-12.4 13.48-12.4 13.48 5.55 13.48 12.4-6.04 12.39-13.48 12.39z" transform="translate(-291.5 -80.4)"/><ellipse cx="29.68" cy="29.58" fill="url(#g)" rx="4.85" ry="4.46"/><path fill="url(#h)" d="M320.09 100.84c-4.83 0-8.74 3.6-8.74 8s3.91 8 8.74 8 8.74-3.6 8.74-8-3.92-8-8.74-8zm0 20.44c-7.44 0-13.48-5.55-13.48-12.4s6-12.4 13.48-12.4 13.47 5.55 13.47 12.4-6.03 12.39-13.47 12.39z" transform="translate(-291.5 -80.4)"/><ellipse cx="28.6" cy="28.5" fill="url(#i)" rx="4.85" ry="4.46"/><path fill="url(#b)" stroke="#010101" stroke-width="0.77" d="M320.63 101.38c-4.83 0-8.74 3.6-8.74 8s3.91 8 8.74 8 8.73-3.6 8.73-8-3.9-8-8.73-8zm0 20.44c-7.45 0-13.48-5.55-13.48-12.4s6-12.4 13.48-12.4 13.47 5.55 13.47 12.4-6.03 12.39-13.47 12.39z" transform="translate(-291.5 -80.4)"/><ellipse cx="29.14" cy="29.04" fill="url(#j)" stroke="#010101" stroke-width="0.77" rx="4.85" ry="4.46"/></svg>