<svg xmlns="http://www.w3.org/2000/svg" xmlns:xlink="http://www.w3.org/1999/xlink" viewBox="0 0 511.29 486.3"><defs><linearGradient id="a" x1="240.23" x2="277.46" y1="46.44" y2="382.97" gradientUnits="userSpaceOnUse"><stop offset="0" stop-color="#e0c67c"/><stop offset=".47" stop-color="#b2732a"/><stop offset="1" stop-color="#4d1b0d"/></linearGradient><linearGradient id="c" x1="-.51" x2="510.78" y1="257.54" y2="257.54" xlink:href="#a"/><linearGradient id="d" x1="202.98" x2="340.18" y1="141.36" y2="523.29" xlink:href="#a"/><linearGradient id="e" x1="219.33" x2="444.93" y1="203.54" y2="719.51" xlink:href="#a"/><linearGradient id="b" x1="256.01" x2="254.22" y1="238.79" y2="220.05" gradientUnits="userSpaceOnUse"><stop offset="0" stop-color="#dcf1f7"/><stop offset=".49" stop-color="#8ecc98"/><stop offset=".99" stop-color="#15582d"/></linearGradient><linearGradient id="f" x1="289.89" x2="266.69" y1="250.7" y2="258.28" xlink:href="#b"/><linearGradient id="g" x1="284.24" x2="261.09" y1="310.81" y2="280.76" xlink:href="#b"/><linearGradient id="h" x1="229.05" x2="249.13" y1="299.75" y2="279.66" xlink:href="#b"/><linearGradient id="i" x1="233.73" x2="204.72" y1="258.08" y2="250.05" xlink:href="#b"/><linearGradient id="j" x1="252.5" x2="252.5" y1="153.23" y2="387.38" gradientUnits="userSpaceOnUse"><stop offset="0" stop-color="#989590"/><stop offset=".49" stop-color="#535352"/><stop offset="1"/></linearGradient><radialGradient id="k" cx="249.15" cy="278.16" r="43.28" gradientUnits="userSpaceOnUse"><stop offset="0" stop-color="#fff"/><stop offset=".28" stop-color="#8dcc9c"/><stop offset=".99" stop-color="#204d25"/></radialGradient><linearGradient id="l" x1="283.81" x2="223.64" y1="313.04" y2="250.26" xlink:href="#b"/></defs><path fill="url(#a)" d="M255.64 0l60.34 185.75h195.31L353.31 300.54l60.32 185.76-157.99-114.81-158 114.81 60.37-185.76L0 185.75h195.29L255.64 0"/><path fill="url(#c)" d="M506.94 199l-1.7 1.69 5.54-1.69h-3.84zm-232.76 58.43l41.4-58.43h-.11L255.89 15.54v232.35a32.79 32.79 0 0 0-4.47-.35 31 31 0 0 0-16.26 4.59L195.43 197l-.65 2H-.51l1.44 1 220.93 68.65a30.88 30.88 0 0 0-1.71 10.11 31.49 31.49 0 0 0 2.28 11.71l-65.13 23.85-60.17 185.22 3.84-2.79 134.51-191.08a31 31 0 0 0 15.93 4.4c.87 0 1.72-.06 2.57-.13l-.98 76.32 2.09-1.52 158 114.8L271.58 302.7a31.4 31.4 0 0 0 9.8-15c21.12 7.6 50.27 18.55 71.58 26.62l-.16-.53 143.88-104.53 8.56-8.57c-29 8.84-165.23 50.36-223.91 69a31.28 31.28 0 0 0-7.15-12.26z" transform="translate(0.51 -13.25)"/><path fill="url(#d)" d="M377.26 280.3A124.37 124.37 0 1 1 252.9 155.94 124.37 124.37 0 0 1 377.26 280.3z" transform="translate(0.51 -13.25)"/><path fill="url(#e)" d="M383.94 280.3a131 131 0 1 1-131-131 131 131 0 0 1 131 131zm-131-119.25A119.25 119.25 0 1 0 372.15 280.3 119.23 119.23 0 0 0 252.9 161.06z" transform="translate(0.51 -13.25)"/><path fill="url(#b)" d="M263.71 258.63h-21.2l-4.23-56.15h29.66l-4.23 56.15"/><path fill="url(#f)" d="M264.88 273.88l-7.89-19.67 50.52-24.85 11.07 27.53-53.7 16.99"/><path fill="url(#g)" d="M249.35 280.29l17.15-12.46 36.42 42.94-23.99 17.43-29.58-47.91"/><path fill="url(#h)" d="M239.35 267.12l16.59 13.2-31.69 46.55-23.2-18.48 38.3-41.27"/><path fill="url(#i)" d="M248.37 254.29l-6.75 20.08-54.59-13.85 9.46-28.12 51.88 21.89"/><path fill="url(#j)" d="M359.51 280.38a107 107 0 1 1-107-107 107 107 0 0 1 107 107zm-107-55.85a55.84 55.84 0 1 0 55.82 55.85 55.84 55.84 0 0 0-55.82-55.85z" transform="translate(0.51 -13.25)"/><path fill="#8ecc98" d="M316.42 267.13a61.52 61.52 0 0 1-61.46 61.45 2.12 2.12 0 0 0 0 4.24 65.78 65.78 0 0 0 65.71-65.69 2.125 2.125 0 0 0-4.25 0z" opacity=".43"/><path fill="url(#k)" d="M274.76 280.38a22.25 22.25 0 1 1-22.25-22.25 22.25 22.25 0 0 1 22.25 22.25z" transform="translate(0.51 -13.25)"/><path fill="url(#l)" d="M196.28 280.38a56.22 56.22 0 1 0 56.23-56.23 56.29 56.29 0 0 0-56.23 56.23zm11.48 0a44.73 44.73 0 1 1 44.75 44.73 44.8 44.8 0 0 1-44.75-44.73z" transform="translate(0.51 -13.25)"/><path fill="#8ecc98" d="M156.61 263.95a2.11 2.11 0 1 0 4.22 0 92.28 92.28 0 0 1 92.19-92.2 2.12 2.12 0 0 0 0-4.24 96.51 96.51 0 0 0-96.41 96.44z" opacity=".43"/><text fill="#fff" transform="translate(257.32 189.69) rotate(6.12)" opacity=".63" font-size="12.71" font-family="Arial">R</text><text fill="#fff" transform="matrix(0.97, 0.23, -0.23, 0.97, 266.95, 190.69)" opacity=".63" font-size="12.71" font-family="Arial">O</text><text fill="#fff" transform="translate(276.86 193.07) rotate(20.8)" opacity=".63" font-size="12.71" font-family="Arial">A</text><text fill="#fff" transform="translate(286.11 196.58) rotate(28.16)" opacity=".63" font-size="12.71" font-family="Arial">D</text><text fill="#fff" transform="matrix(0.83, 0.55, -0.55, 0.83, 294.77, 201.36)" opacity=".63" font-size="12.71" font-family="Arial"></text><text fill="#fff" transform="matrix(0.78, 0.63, -0.63, 0.78, 298.4, 203.58)" opacity=".63" font-size="12.71" font-family="Arial">K</text><text fill="#fff" transform="translate(306.54 210.35) rotate(44.81)" opacity=".63" font-size="12.71" font-family="Arial">I</text><text fill="#fff" transform="matrix(0.65, 0.76, -0.76, 0.65, 310.11, 213.8)" opacity=".63" font-size="12.71" font-family="Arial">L</text><text fill="#fff" transform="matrix(0.56, 0.83, -0.83, 0.56, 315.57, 220.29)" opacity=".63" font-size="12.71" font-family="Arial">L</text><text fill="#fff" transform="translate(320.25 227.37) rotate(60.76)" opacity=".63" font-size="12.71" font-family="Arial"></text><text fill="#fff" transform="translate(322.41 231.01) rotate(65.72)" opacity=".63" font-size="12.71" font-family="Arial">T</text><text fill="#fff" transform="translate(326.1 239.43) rotate(71.02)" opacity=".63" font-size="12.71" font-family="Arial">I</text><text fill="#fff" transform="matrix(0.23, 0.97, -0.97, 0.23, 327.83, 244.09)" opacity=".63" font-size="12.71" font-family="Arial">R</text><text fill="#fff" transform="matrix(0.11, 0.99, -0.99, 0.11, 330.1, 253.71)" opacity=".63" font-size="12.71" font-family="Arial">E</text><text fill="#fff" transform="matrix(-0.01, 1, -1, -0.01, 331.11, 262.84)" opacity=".63" font-size="12.71" font-family="Arial">S</text><text fill="#fff" transform="translate(250.83 343.86) rotate(-173.88)" opacity=".63" font-size="12.71" font-family="Arial">R</text><text fill="#fff" transform="translate(241.2 342.86) rotate(-166.47)" opacity=".63" font-size="12.71" font-family="Arial">O</text><text fill="#fff" transform="matrix(-0.93, -0.36, 0.36, -0.93, 231.3, 340.48)" opacity=".63" font-size="12.71" font-family="Arial">A</text><text fill="#fff" transform="matrix(-0.88, -0.47, 0.47, -0.88, 222.04, 336.97)" opacity=".63" font-size="12.71" font-family="Arial">D</text><text fill="#fff" transform="translate(213.38 332.19) rotate(-146.56)" opacity=".63" font-size="12.71" font-family="Arial"></text><text fill="#fff" transform="translate(209.75 329.97) rotate(-141.01)" opacity=".63" font-size="12.71" font-family="Arial">K</text><text fill="#fff" transform="matrix(-0.71, -0.7, 0.7, -0.71, 201.62, 323.2)" opacity=".63" font-size="12.71" font-family="Arial">I</text><text fill="#fff" transform="translate(198.04 319.76) rotate(-130.17)" opacity=".63" font-size="12.71" font-family="Arial">L</text><text fill="#fff" transform="translate(192.59 313.26) rotate(-124.24)" opacity=".63" font-size="12.71" font-family="Arial">L</text><text fill="#fff" transform="translate(187.9 306.18) rotate(-119.26)" opacity=".63" font-size="12.71" font-family="Arial"></text><text fill="#fff" transform="translate(185.74 302.54) rotate(-114.29)" opacity=".63" font-size="12.71" font-family="Arial">T</text><text fill="#fff" transform="matrix(-0.33, -0.95, 0.95, -0.33, 182.05, 294.12)" opacity=".63" font-size="12.71" font-family="Arial">I</text><text fill="#fff" transform="translate(180.32 289.46) rotate(-103.42)" opacity=".63" font-size="12.71" font-family="Arial">R</text><text fill="#fff" transform="translate(178.04 279.84) rotate(-96.3)" opacity=".63" font-size="12.71" font-family="Arial">E</text><text fill="#fff" transform="translate(177.03 270.68) rotate(-89.44)" opacity=".63" font-size="12.71" font-family="Arial">S</text></svg>