<svg xmlns="http://www.w3.org/2000/svg" xmlns:xlink="http://www.w3.org/1999/xlink" viewBox="0 0 59.57 59.57"><defs><linearGradient id="b" x1="56.48" x2="11.64" y1="34.18" y2="34.18" gradientUnits="userSpaceOnUse"><stop offset="0.87" stop-color="#5e5d63"/><stop offset="0.94" stop-color="#979899"/><stop offset="0.99" stop-color="#86878d"/></linearGradient><linearGradient id="a" x1="3.26" x2="48.1" y1="26.05" y2="26.05" gradientUnits="userSpaceOnUse"><stop offset="0.01" stop-color="#c5c6c8"/><stop offset="0.36" stop-color="#939598"/><stop offset="0.58" stop-color="#a2a4a7"/><stop offset="0.65" stop-color="#a8aaad"/><stop offset="0.87" stop-color="#aaabaf"/><stop offset="1" stop-color="#a8aaad"/><stop offset="1" stop-color="#d2d3d4"/></linearGradient><linearGradient id="c" x1="3.26" x2="48.1" y1="34.18" y2="34.18" xlink:href="#a"/><linearGradient id="d" x1="20.71" x2="47.42" y1="38.95" y2="13.15" gradientUnits="userSpaceOnUse"><stop offset="0.01" stop-color="#86878d"/><stop offset="0.12" stop-color="#979899"/><stop offset="0.35" stop-color="#5e5d63"/></linearGradient><linearGradient id="e" x1="303.76" x2="306.74" y1="562.42" y2="538.17" gradientTransform="matrix(1 0 0 -1 -275.8 577.9)" gradientUnits="userSpaceOnUse"><stop offset="0" stop-color="#fff"/><stop offset="0.3" stop-color="#979899"/><stop offset="0.46" stop-color="#757677"/><stop offset="1" stop-color="#010101"/></linearGradient><linearGradient id="f" x1="401.99" x2="271.03" y1="541.18" y2="541.18" gradientTransform="matrix(1 0 0 -1 -275.8 577.9)" gradientUnits="userSpaceOnUse"><stop offset="0.46" stop-color="#010101"/><stop offset="0.55" stop-color="#4e4f4f"/><stop offset="0.64" stop-color="#979899"/><stop offset="0.8" stop-color="#999a9b"/><stop offset="0.86" stop-color="#a0a1a1"/><stop offset="0.9" stop-color="#abacad"/><stop offset="0.93" stop-color="#bcbdbe"/><stop offset="0.96" stop-color="#d2d3d3"/><stop offset="0.99" stop-color="#ededed"/><stop offset="1" stop-color="#fff"/></linearGradient><linearGradient id="g" x1="323.49" x2="286.42" y1="546.27" y2="550.17" gradientTransform="matrix(1 0 0 -1 -275.8 577.9)" gradientUnits="userSpaceOnUse"><stop offset="0.26" stop-color="#010101"/><stop offset="0.47" stop-color="#757677"/><stop offset="0.53" stop-color="#979899"/><stop offset="1" stop-color="#fff"/></linearGradient><linearGradient id="h" x1="295.5" x2="318.93" y1="551.57" y2="548.28" gradientTransform="matrix(1 0 0 -1 -275.8 577.9)" gradientUnits="userSpaceOnUse"><stop offset="0.22" stop-color="#010101"/><stop offset="0.55" stop-color="#757677"/><stop offset="0.65" stop-color="#979899"/><stop offset="1" stop-color="#5e5d63"/></linearGradient></defs><path fill="url(#b)" d="M37.6 56.42l18.88-18.73-25.96-25.76-18.88 18.74L37.6 56.42"/><path fill="url(#a)" d="M29.22 48.29L48.1 29.56 22.14 3.8 3.26 22.54l25.96 25.75"/><path fill="url(#c)" d="M22.14 56.42L3.26 37.69l25.96-25.76L48.1 30.67 22.14 56.42"/><path fill="url(#d)" d="M30.53 48.29L11.64 29.56 37.6 3.8l18.88 18.74-25.95 25.75"/><path fill="url(#e)" d="M29.62 21.42l29.95-4.87-2.5 13.52 2.5 13.26-29.78-4.86L0 43.33l2.5-13.08L0 16.55l29.62 4.87"/><path fill="url(#f)" d="M2.5 30.25L0 43.33l29.79-4.86 29.78 4.86-2.48-13.17H2.48l.02.09"/><path fill="url(#g)" d="M20.88 29.95L15.71 0l14.35 2.5L44.15 0l-5.17 29.78 5.17 29.79-13.89-2.5-14.55 2.5 5.17-29.62"/><path fill="url(#h)" d="M30.26 57.07l13.89 2.5-5.17-29.79L44.15 0 30.16 2.48v54.61l.1-.02"/><ellipse cx="29.82" cy="30.06" fill="#ae2425" stroke="#381312" stroke-width="1.01" stroke-miterlimit="10" rx="21.89" ry="21.72"/><rect width="36.5" height="12.08" x="11.57" y="24.01" fill="#fff" rx="1.03" ry="1.03"/></svg>