<svg xmlns="http://www.w3.org/2000/svg" xmlns:xlink="http://www.w3.org/1999/xlink" viewBox="0 0 58.92 59.21"><defs><linearGradient id="a" x1="29.01" x2="29.01" y1="3.36" y2="57.27" gradientUnits="userSpaceOnUse"><stop offset="0" stop-color="#fff"/><stop offset=".39" stop-color="#baced6"/><stop offset="1" stop-color="#749dc7"/></linearGradient><linearGradient id="c" x1="238.66" x2="265.41" y1="437.97" y2="508.5" gradientUnits="userSpaceOnUse"><stop offset="0" stop-color="#e3af24"/><stop offset="1" stop-color="#c67a29"/></linearGradient><linearGradient id="d" x1="238.34" x2="265.09" y1="437.37" y2="507.89" gradientUnits="userSpaceOnUse"><stop offset="0" stop-color="#fff"/><stop offset=".39" stop-color="#ffe300"/><stop offset="1" stop-color="#c67a29"/></linearGradient><linearGradient id="e" x1="14.93" x2="74.1" y1="13.97" y2="83.34" xlink:href="#a"/><linearGradient id="f" x1="235.33" x2="294.5" y1="451.11" y2="520.48" xlink:href="#a"/><linearGradient id="g" x1="10.71" x2="48.58" y1="28.37" y2="28.37" xlink:href="#a"/><linearGradient id="h" x1="226.05" x2="273.55" y1="467.07" y2="467.07" xlink:href="#a"/><linearGradient id="b" x1="10.1" x2="47.97" y1="27.76" y2="27.76" gradientUnits="userSpaceOnUse"><stop offset="0" stop-color="#be684d"/><stop offset=".39" stop-color="#91201d"/><stop offset="1" stop-color="#44151d"/></linearGradient><linearGradient id="i" x1="225.44" x2="272.94" y1="466.46" y2="466.46" xlink:href="#b"/><linearGradient id="j" x1="241.73" x2="256.66" y1="466.99" y2="466.99" gradientUnits="userSpaceOnUse"><stop offset="0" stop-color="#fff"/><stop offset="1" stop-color="#bdbdbd"/></linearGradient><linearGradient id="k" x1="26.36" x2="31.73" y1="29.63" y2="29.63" gradientUnits="userSpaceOnUse"><stop offset="0" stop-color="#ee3d3c"/><stop offset="1" stop-color="#ba2f2d"/></linearGradient></defs><g style="isolation:isolate"><path fill="url(#a)" d="M17.38 57.39L.93 40.94V17.67L17.38 1.22h23.27L57.1 17.67v23.27L40.65 57.39H17.38"/><path fill="url(#c)" d="M261.4 438h-23.77l-17.17 17.17v24.27l17.17 17.17h24.27l17.16-17.17v-24.3L261.91 438h-.5zm-.5 2.43l15.74 15.74v22.23l-15.74 15.74h-22.26L222.9 478.4v-22.26l15.74-15.74h22.26z" transform="translate(-220.2 -437.4)" style="mix-blend-mode:multiply"/><path fill="url(#d)" d="M261.08 437.36h-23.77l-17.16 17.17v24.27l17.16 17.2h24.27l17.16-17.17v-24.3l-17.16-17.17h-.5zm-.5 2.43l15.74 15.74v22.26l-15.74 15.74h-22.26l-15.74-15.74v-22.26l15.74-15.74h22.26z" transform="translate(-220.2 -437.4)"/><path fill="none" stroke="#fff" stroke-width=".77" d="M17.89 56.17h22.25l15.74-15.74V18.17" opacity=".43"/><path fill="url(#e)" d="M28.43 9.15l4.47 13.76h14.46l-11.7 8.5 4.47 13.75-11.7-8.5-11.7 8.5 4.47-13.75-11.7-8.5h14.46l4.47-13.76"/><path fill="url(#f)" d="M239.54 488.44h18.07l-9-6.57zm-9.12-6.6l3.45-10.62-9-6.57zm12.47-38.54l-14.62 10.63h11.17zm20.41 27.88l3.45 10.62 5.58-17.19zm5.53-17.28l-14.62-10.62 3.45 10.62h11.17z" transform="translate(-220.2 -437.4)"/><g style="mix-blend-mode:multiply"><path fill="url(#g)" d="M29.64 10.36l4.47 13.76h14.47l-11.7 8.5 4.46 13.76-11.7-8.5-11.7 8.5 4.47-13.76-11.7-8.5h14.46l4.47-13.76"/><path fill="url(#h)" d="M240.76 489.66h18.07l-9-6.57zm-9.12-6.6l3.45-10.62-9-6.57zm12.47-38.54l-14.62 10.62h11.17zm20.41 27.88L268 483l5.58-17.19zm5.48-17.28l-14.62-10.62 3.45 10.62H270z" transform="translate(-220.2 -437.4)"/></g><path fill="url(#b)" stroke="#010101" stroke-width=".39" d="M29.04 9.76l4.47 13.75h14.46l-11.7 8.5 4.47 13.76-11.7-8.5-11.7 8.5 4.46-13.76-11.7-8.5h14.47l4.47-13.75z"/><path fill="url(#i)" stroke="#010101" stroke-width=".39" d="M240.15 489h18.07l-9-6.57zm-9.12-6.6l3.45-10.62-9-6.57zm12.47-38.54l-14.62 10.63H240zm20.41 27.88l3.45 10.63 5.58-17.19zm5.53-17.28l-14.62-10.63 3.45 10.63h11.17z" transform="translate(-220.2 -437.4)"/><path fill="url(#j)" d="M249.19 462.53A4.47 4.47 0 1 0 254 467a4.66 4.66 0 0 0-4.81-4.47zm0 11.32c-4.12 0-7.46-3.08-7.46-6.86s3.34-6.87 7.46-6.87 7.46 3.08 7.46 6.87-3.34 6.86-7.46 6.86z" transform="translate(-220.2 -437.4)"/><ellipse cx="29.04" cy="29.63" fill="url(#k)" rx="2.69" ry="2.47"/></g></svg>