<svg xmlns="http://www.w3.org/2000/svg" xmlns:xlink="http://www.w3.org/1999/xlink" viewBox="0 0 61.86 58.83"><defs><linearGradient id="b" x1="29.06" x2="33.57" y1="5.62" y2="46.33" gradientUnits="userSpaceOnUse"><stop offset="0" stop-color="#fff"/><stop offset="0.47" stop-color="#f8ca1e"/><stop offset="1" stop-color="#bf6728"/></linearGradient><linearGradient id="c" x1="291.71" x2="353.57" y1="393.92" y2="393.92" gradientUnits="userSpaceOnUse"><stop offset="0" stop-color="#fef6a4"/><stop offset="0.47" stop-color="#f3c41d"/><stop offset="1" stop-color="#ca7a29"/></linearGradient><linearGradient id="a" x1="24.62" x2="41.22" y1="15.5" y2="61.7" gradientUnits="userSpaceOnUse"><stop offset="0" stop-color="#e0c77c"/><stop offset="0.47" stop-color="#b2732a"/><stop offset="1" stop-color="#4d1a0d"/></linearGradient><linearGradient id="d" x1="318.31" x2="345.61" y1="387.38" y2="449.81" xlink:href="#a"/><linearGradient id="e" x1="31.06" x2="30.79" y1="28.1" y2="25.31" gradientUnits="userSpaceOnUse"><stop offset="0" stop-color="#969696"/><stop offset="0.49" stop-color="#737373"/><stop offset="0.99" stop-color="#616262"/></linearGradient><linearGradient id="f" x1="36.1" x2="32.65" y1="29.87" y2="31" gradientUnits="userSpaceOnUse"><stop offset="0" stop-color="#c7c6c6"/><stop offset="0.49" stop-color="#bcbdbe"/><stop offset="0.99" stop-color="#616262"/></linearGradient><linearGradient id="g" x1="35.26" x2="31.81" y1="38.81" y2="34.34" gradientUnits="userSpaceOnUse"><stop offset="0" stop-color="#fdfeff"/><stop offset="0.49" stop-color="#e8e8e8"/><stop offset="0.99" stop-color="#d0d3d3"/></linearGradient><linearGradient id="h" x1="22.88" x2="31.05" y1="36.76" y2="36.76" gradientUnits="userSpaceOnUse"><stop offset="0" stop-color="#bfbebe"/><stop offset="0.49" stop-color="#b2b6b8"/><stop offset="0.99" stop-color="#e0e0df"/></linearGradient><linearGradient id="i" x1="27.74" x2="23.43" y1="30.97" y2="29.78" gradientUnits="userSpaceOnUse"><stop offset="0" stop-color="#969696"/><stop offset="0.49" stop-color="#848484"/><stop offset="0.99" stop-color="#737373"/></linearGradient><linearGradient id="j" x1="322.33" x2="322.33" y1="377.76" y2="412.6" gradientUnits="userSpaceOnUse"><stop offset="0" stop-color="#989490"/><stop offset="0.49" stop-color="#535353"/><stop offset="1" stop-color="#010101"/></linearGradient><radialGradient id="k" cx="30.11" cy="31.99" r="6.44" gradientUnits="userSpaceOnUse"><stop offset="0" stop-color="#fdfeff"/><stop offset="0.28" stop-color="#c7c6c6"/><stop offset="0.99" stop-color="#b0b1b1"/></radialGradient><linearGradient id="l" x1="326.98" x2="318.03" y1="401.54" y2="392.2" gradientUnits="userSpaceOnUse"><stop offset="0" stop-color="#f7f8f8"/><stop offset="0.49" stop-color="#e2e2e2"/><stop offset="0.99" stop-color="#575858"/></linearGradient></defs><path fill="url(#b)" d="M30.93 0l7.3 22.47h23.63L42.74 36.36l7.31 22.47-19.12-13.89-19.12 13.89 7.31-22.47L0 22.47h23.63L30.93 0"/><path fill="url(#c)" d="M353.11 386.83l-.2.21.67-.21h-.47zm-28.16 7.07l5-7.07-7.21-22.2v28.11a3.84 3.84 0 0 0-.54 0 3.75 3.75 0 0 0-2 .56l-4.81-6.67-.08.24h-23.6l.17.13 26.73 8.3a3.74 3.74 0 0 0-.21 1.22 3.83 3.83 0 0 0 .28 1.42l-7.88 2.88-7.28 22.4.46-.34 16.27-23.12a3.76 3.76 0 0 0 1.93.53h.31l-.12 9.23.25-.18 19.12 13.89-17.13-23.82a3.78 3.78 0 0 0 1.19-1.81c2.55.92 6.08 2.25 8.66 3.22v-.06l17.41-12.65 1-1c-3.51 1.07-20 6.09-27.09 8.35a3.79 3.79 0 0 0-.83-1.56z" transform="translate(-291.71 -364.36)"/><circle cx="30.66" cy="32.31" r="15.05" fill="url(#a)"/><path fill="url(#d)" d="M338.23 396.67a15.85 15.85 0 1 1-15.85-15.85 15.85 15.85 0 0 1 15.85 15.85zm-15.85-14.43a14.43 14.43 0 1 0 14.43 14.43 14.43 14.43 0 0 0-14.44-14.43z" transform="translate(-291.71 -364.36)"/><path fill="url(#e)" d="M32.2 31.05h-3.15l-.63-8.35h4.41l-.63 8.35"/><path fill="url(#f)" d="M32.38 33.32L31.2 30.4l7.52-3.7 1.65 4.1-7.99 2.52"/><path fill="url(#g)" d="M30.07 34.27l2.55-1.85 5.42 6.39-3.57 2.59-4.4-7.13"/><path fill="url(#h)" d="M28.58 32.31l2.47 1.97-4.72 6.92-3.45-2.75 5.7-6.14"/><path fill="url(#i)" d="M29.92 30.41l-1 2.99-8.12-2.07 1.4-4.18 7.72 3.26"/><path fill="url(#j)" d="M338.25 396.68a15.92 15.92 0 1 1-15.92-15.92 15.92 15.92 0 0 1 15.92 15.92zm-15.92-8.31a8.31 8.31 0 1 0 8.31 8.31 8.31 8.31 0 0 0-8.31-8.31z" transform="translate(-291.71 -364.36)"/><path fill="#e2e2e2" d="M40.05 32.32a9.15 9.15 0 0 1-9.14 9.14.32.32 0 0 0 0 .63 9.79 9.79 0 0 0 9.78-9.77.32.32 0 0 0-.64 0z" opacity="0.43"/><circle cx="30.61" cy="32.32" r="3.31" fill="url(#k)"/><path fill="url(#l)" d="M314 396.68a8.36 8.36 0 1 0 8.37-8.37 8.37 8.37 0 0 0-8.37 8.37zm1.71 0a6.66 6.66 0 1 1 6.66 6.65 6.66 6.66 0 0 1-6.7-6.65z" transform="translate(-291.71 -364.36)"/><path fill="#e2e2e2" d="M16.29 31.85a.315.315 0 1 0 .63 0 13.73 13.73 0 0 1 13.71-13.71.32.32 0 0 0 0-.63 14.36 14.36 0 0 0-14.34 14.34z" opacity="0.43"/><text fill="#fff" transform="translate(31.33 20.82) rotate(6.39)" opacity="0.63" font-size="1.89" font-family="Arial">R</text><text fill="#fff" transform="translate(32.78 20.98) rotate(13.91)" opacity="0.63" font-size="1.89" font-family="Arial">O</text><text fill="#fff" transform="translate(34.24 21.34) rotate(21.1)" opacity="0.63" font-size="1.89" font-family="Arial">A</text><text fill="#fff" transform="translate(35.62 21.87) rotate(28.53)" opacity="0.63" font-size="1.89" font-family="Arial">D</text><text fill="#fff" transform="translate(36.9 22.59) rotate(33.77)" opacity="0.63" font-size="1.89" font-family="Arial"></text><text fill="#fff" transform="translate(37.45 22.93) rotate(39.42)" opacity="0.63" font-size="1.89" font-family="Arial">K</text><text fill="#fff" transform="translate(38.64 23.93) rotate(45.13)" opacity="0.63" font-size="1.89" font-family="Arial">I</text><text fill="#fff" transform="translate(39.17 24.46) rotate(50.18)" opacity="0.63" font-size="1.89" font-family="Arial">L</text><text fill="#fff" transform="translate(39.97 25.43) rotate(55.77)" opacity="0.63" font-size="1.89" font-family="Arial">L</text><text fill="#fff" transform="translate(40.66 26.48) rotate(61.04)" opacity="0.63" font-size="1.89" font-family="Arial"></text><text fill="#fff" transform="translate(40.99 27.03) rotate(66.1)" opacity="0.63" font-size="1.89" font-family="Arial">T</text><text fill="#fff" transform="matrix(0.32, 0.95, -0.95, 0.32, 41.52, 28.27)" opacity="0.63" font-size="1.89" font-family="Arial">I</text><text fill="#fff" transform="translate(41.78 28.99) rotate(76.98)" opacity="0.63" font-size="1.89" font-family="Arial">R</text><text fill="#fff" transform="matrix(0.1, 0.99, -0.99, 0.1, 42.11, 30.4)" opacity="0.63" font-size="1.89" font-family="Arial">E</text><text fill="#fff" transform="matrix(-0.02, 1, -1, -0.02, 42.25, 31.77)" opacity="0.63" font-size="1.89" font-family="Arial">S</text><text fill="#fff" transform="translate(30.25 43.75) rotate(-173.6)" opacity="0.63" font-size="1.89" font-family="Arial">R</text><text fill="#fff" transform="translate(28.8 43.59) rotate(-166.09)" opacity="0.63" font-size="1.89" font-family="Arial">O</text><text fill="#fff" transform="matrix(-0.93, -0.36, 0.36, -0.93, 27.34, 43.23)" opacity="0.63" font-size="1.89" font-family="Arial">A</text><text fill="#fff" transform="translate(25.96 42.7) rotate(-151.47)" opacity="0.63" font-size="1.89" font-family="Arial">D</text><text fill="#fff" transform="matrix(-0.83, -0.56, 0.56, -0.83, 24.68, 41.98)" opacity="0.63" font-size="1.89" font-family="Arial"></text><text fill="#fff" transform="translate(24.13 41.64) rotate(-140.58)" opacity="0.63" font-size="1.89" font-family="Arial">K</text><text fill="#fff" transform="translate(22.94 40.64) rotate(-134.87)" opacity="0.63" font-size="1.89" font-family="Arial">I</text><text fill="#fff" transform="translate(22.4 40.12) rotate(-129.83)" opacity="0.63" font-size="1.89" font-family="Arial">L</text><text fill="#fff" transform="translate(21.6 39.14) rotate(-124.24)" opacity="0.63" font-size="1.89" font-family="Arial">L</text><text fill="#fff" transform="translate(20.91 38.1) rotate(-118.97)" opacity="0.63" font-size="1.89" font-family="Arial"></text><text fill="#fff" transform="translate(20.59 37.54) rotate(-113.91)" opacity="0.63" font-size="1.89" font-family="Arial">T</text><text fill="#fff" transform="matrix(-0.32, -0.95, 0.95, -0.32, 20.05, 36.3)" opacity="0.63" font-size="1.89" font-family="Arial">I</text><text fill="#fff" transform="translate(19.79 35.58) rotate(-103.03)" opacity="0.63" font-size="1.89" font-family="Arial">R</text><text fill="#fff" transform="translate(19.47 34.17) rotate(-96.01)" opacity="0.63" font-size="1.89" font-family="Arial">E</text><text fill="#fff" transform="translate(19.32 32.8) rotate(-89.09)" opacity="0.63" font-size="1.89" font-family="Arial">S</text></svg>