<svg xmlns="http://www.w3.org/2000/svg" viewBox="0 0 58 58"><style>.st0{fill:url(#SVGID_1_);} .st1{fill:url(#SVGID_2_);} .st2{fill:url(#SVGID_3_);} .st3{fill:url(#SVGID_4_);} .st4{fill:url(#SVGID_5_);stroke:#010101;} .st5{opacity:0.4;} .st6{fill:#FAF2E5;} .st7{fill:#D2C3B4;} .st8{fill:#E7DBCF;} .st9{fill:#81776D;} .st10{fill:#80776D;} .st11{fill:#988D82;} .st12{fill:#9E9387;} .st13{fill:#685F57;} .st14{fill:#675F57;} .st15{fill:#B5A89B;} .st16{fill:#B6A99C;} .st17{fill:#B7AA9C;} .st18{fill:#696058;} .st19{fill:#7F756C;} .st20{fill:#968B80;} .st21{fill:#E6DACC;} .st22{fill:#E5DACC;} .st23{fill:#FEF8EE;} .st24{fill:#655D55;} .st25{fill:#B3A699;} .st26{fill:#80786F;} .st27{fill:#82796F;} .st28{fill:#797066;} .st29{fill:#988C81;}</style><g id="Layer_1"><linearGradient id="SVGID_1_" x1="550.3562" x2="575.7162" y1="-80.2937" y2="-121.7037" gradientUnits="userSpaceOnUse" gradientTransform="matrix(0.7071 0.7071 0.7071 -0.7071 -297.8764 -439.8713)"><stop offset="0" stop-color="#DCE0DF"/><stop offset="0.47" stop-color="#9FACB3"/><stop offset="1" stop-color="#51595D"/></linearGradient><path d="M45 22.4l-5.9-3.5-3.5-5.9L29 0l-6.6 13-3.5 6.2-5.9 3.2L0 29l13 6.6 6 3.7 3.4 5.7L29 58l6.6-13 3.6-5.5 5.8-3.9L58 29z" class="st0"/><linearGradient id="SVGID_2_" x1="219.7192" x2="276.6092" y1="-462.5936" y2="-494.2936" gradientUnits="userSpaceOnUse" gradientTransform="matrix(1 0 0 -1 -219.5 -449.59)"><stop offset="0" stop-color="#DCE0DF"/><stop offset="0.47" stop-color="#9FACB3"/><stop offset="1" stop-color="#51595D"/></linearGradient><path d="M30.5 32.4c1.9 4.7 6.8 4.7 1.2-.8.3-.3.6-.7.8-1.2 4.7 1.9 9.7 6.8 9.7 6.8L58 29s-17.4-.1-25.2-.1c0-.5-.1-.9-.3-1.4 4.7-2 4.6-6.8-.9-1.2-.3-.3-.7-.6-1.2-.8 1.9-4.7 6.8-9.5 6.8-9.5L29 0s-.1 17.4 0 25.2c-.5 0-.9.1-1.4.3-1.9-4.7-6.8-4.7-1.2.8-.3.3-.6.7-.8 1.2-4.7-1.9-9.8-6.7-9.8-6.7L.1 29h25.2c0 .5.1.9.3 1.3-4.7 1.9-4.7 6.8.9 1.2.3.3.7.6 1.1.8-2 4.7-6.6 10-6.6 10l7.8 15.6s.3-17.4.3-25.2c.5 0 1-.1 1.4-.3z" class="st1"/><linearGradient id="SVGID_3_" x1="23.02" x2="39.62" y1="47.86" y2="1.66" gradientUnits="userSpaceOnUse" gradientTransform="matrix(1 0 0 -1 0 60)"><stop offset="0" stop-color="#DCE0DF"/><stop offset="0.47" stop-color="#9FACB3"/><stop offset="1" stop-color="#51595D"/></linearGradient><circle cx="29.1" cy="29" r="15.1" class="st2"/><linearGradient id="SVGID_4_" x1="239.7432" x2="276.4532" y1="-465.6978" y2="-519.1678" gradientUnits="userSpaceOnUse" gradientTransform="matrix(1 0 0 -1 -219.5 -449.59)"><stop offset="0" stop-color="#DCE0DF"/><stop offset="0.47" stop-color="#9FACB3"/><stop offset="1" stop-color="#51595D"/></linearGradient><path d="M44.9 28.9c0 8.8-7.1 15.9-15.8 15.9-8.8 0-15.9-7.1-15.9-15.8S20.3 13.1 29 13.1c8.8 0 15.9 7.1 15.9 15.8zM29.1 14.5c-8 0-14.4 6.5-14.4 14.4s6.5 14.4 14.4 14.4c8 0 14.4-6.5 14.4-14.4S37 14.5 29.1 14.5z" class="st3"/><linearGradient id="SVGID_5_" x1="34.6525" x2="25.2925" y1="21.3215" y2="37.5315" gradientUnits="userSpaceOnUse" gradientTransform="matrix(1 0 0 -1 0 60)"><stop offset="0" stop-color="#7BCBDA"/><stop offset="0.17" stop-color="#77C9D7"/><stop offset="0.32" stop-color="#6DC2CE"/><stop offset="0.47" stop-color="#5AB6BE"/><stop offset="0.59" stop-color="#45A9AC"/><stop offset="0.73" stop-color="#42A7A9"/><stop offset="0.84" stop-color="#38A1A1"/><stop offset="0.94" stop-color="#289693"/><stop offset="1" stop-color="#198C86"/></linearGradient><circle cx="29" cy="28.8" r="13.8" class="st4"/></g><g id="Layer_2"><path d="M35.3 19l1.3.9c.7.5 1.2 1.2 1.6 1.9.8 1.7.9 3.5.5 5.3-.1.4-.3.8-.5 1.1-.2.3-.3.7-.3 1.1v1.5c0 .5-.1.9-.4 1.3-.5.7-1 1.4-1.4 2.2-.2.5-.4 1-.4 1.6 0 .7 0 1.4-.1 2-.1.7-.4 1.2-1 1.5-.9.5-2 .8-3 .8l-.6.1c-1.1.1-2.3.1-3.4-.1-1-.1-1.9-.4-2.8-.8-.1-.1-.2-.1-.3-.2-.7-.4-.8-1.1-.8-1.8v-1.6c0-.8-.3-1.5-.7-2.2l-.6-.9c-.2-.3-.3-.5-.5-.8-.2-.3-.3-.7-.4-1.1v-2c0-.2-.1-.5-.3-.6-.4-.6-.6-1.3-.7-2 0-1.1 0-2.2.3-3.2.6-2.1 2.1-3.5 4-4.4 1.6-.7 3.4-1.1 5.2-1.1 2 .3 3.7.7 5.3 1.5z" class="st5"/><path d="M34.6 18.6l1.3 1c.7.5 1.3 1.2 1.6 2 .8 1.7 1 3.5.5 5.4-.1.4-.3.8-.5 1.1-.2.3-.3.7-.3 1.1v1.5c0 .5-.1.9-.4 1.3-.5.7-1 1.5-1.4 2.3-.2.5-.4 1-.4 1.6 0 .7 0 1.4-.1 2.1-.1.7-.4 1.2-1.1 1.6-.9.5-2 .8-3.1.8l-.6.1c-1.1.1-2.3.1-3.4-.1-1-.1-2-.4-2.9-.8-.1-.1-.2-.1-.3-.2-.7-.4-.8-1.1-.8-1.8V36c0-.8-.3-1.6-.7-2.3l-.6-.9c-.2-.3-.3-.5-.5-.8-.2-.3-.3-.7-.4-1.1v-2.1c0-.2-.1-.5-.3-.7-.4-.6-.7-1.3-.7-2.1 0-1.1 0-2.2.3-3.3.6-2.2 2.1-3.6 4.1-4.5 1.7-.8 3.5-1.1 5.3-1.1 2 .2 3.8.7 5.4 1.5z" class="st6"/><path d="M36 26.1c.2.8 0 1.5-.5 1.9-.3.2-.2.6-.2.9.1.5.2.9.4 1.3.5 1.3.2 2.5-.5 3.7-.5.9-1.3 1.6-2.1 2.2-.5.4-.7.9-.8 1.5-.8.6-2.3.8-3.1.3-.2-.3-.4-.3-.6 0-.3.2-.6.3-1 .2-.6 0-1.2-.1-1.7-.3-.2 0-.3-.1-.4-.2 0-.6-.3-1.1-.8-1.5-1.1-.8-2.1-1.8-2.6-3.2-.3-.8-.4-1.6-.1-2.5.2-.7.5-1.3.5-2 0-.2-.1-.3-.2-.4-.6-.4-.7-1.1-.5-1.9 0 0 .1 0 .1.1.2.7.9 1.2 1.6 1.1 1-.2 2-.6 2.8-1.2.5-.3.6-1.1.3-1.7l-.1-.1c-.1-.1-.2-.2-.3-.2-.9-.6-2.4-.3-3.3.5-.3.3-.6.6-.8 1H22c.4-1.3 1-2.5 2.3-3.1 1.1-.5 2.2-.4 3.3.1 1 .4 1.8.4 2.8 0 1.3-.5 2.6-.6 3.8.2.7.5 1.2 1.3 1.5 2.1.1.2.2.4.2.7h-.1c-.4-.6-.8-1.1-1.5-1.4-.9-.4-1.8-.6-2.7-.1-.1.1-.2.1-.3.2-.1.1-.1.2-.2.2-.2.7-.1 1.2.5 1.6.7.5 1.6.9 2.5 1.1.5.1.9 0 1.3-.2.3-.2.5-.5.6-.9z" class="st7"/><path d="M20.9 23.9c0-.7.3-1.2.6-1.6 1.2-1.6 2.7-2.8 4.6-3.3.7-.2 1.4-.2 2.2-.1.6.1 1.2 0 1.9-.1s1.3 0 1.9.2c1.2.3 2.1 1 3 1.7.7.6 1.3 1.3 1.6 2.1.1.3.2.7.3 1l-.6-.9c-1-1.1-2.2-2-3.7-2.6-.6-.2-1.1-.2-1.6.2s-1.1.6-1.8.6-1.4.1-2.1-.3c-.2-.1-.4-.2-.5-.3-.4-.4-.9-.4-1.4-.2-1 .3-1.8.8-2.5 1.4-.6.5-1.2.9-1.6 1.6-.1.2-.1.3-.3.6z" class="st8"/><path d="M31.3 24.2c0-.1.1-.2.2-.2h.1c.2.5.6.6 1 .8l1.5.6c.4.2.9.2 1.4.1.1 0 .3-.1.4 0h.1l.1.3c.1.2 0 .3-.2.4-.6.3-1.2.5-1.8.3-.8-.3-1.6-.6-2.3-1-.6-.4-.7-.8-.5-1.3z" class="st9"/><path d="M26.3 24c.1 0 .2.1.3.2.1.7 0 .9-.6 1.2-.7.4-1.5.7-2.2 1-.6.2-1.2 0-1.7-.3-.1-.1-.2-.1-.1-.3l.1-.3H22c.1-.1.2 0 .3 0 .5.2 1 .2 1.5-.1.5-.2.9-.4 1.4-.6.5-.2.9-.3 1.1-.8z" class="st10"/><path d="M21.9 25.8c.2.4 1.2.7 1.7.6.8-.3 1.7-.6 2.4-1 .3-.2.6-.4.5-.9 0-.1 0-.2.1-.2l.1.1c.3.9.1 1.3-.7 1.7-.5.3-1.1.5-1.7.7-.7.3-1.4.2-2-.1-.2-.1-.3-.2-.4-.4v-.1c-.1-.2-.1-.4 0-.4z" class="st11"/><path d="M31.3 24.2c-.1.6.1.9.7 1.2.8.4 1.6.8 2.5 1 .5.1 1-.2 1.5-.4 0 0 0-.1.1-.2-.1 0-.1.2-.1.3v.1c-.3.7-1 .8-1.6.8-1 0-1.8-.6-2.6-1-.2-.1-.3-.2-.4-.3-.4-.3-.3-.8-.2-1.2-.1-.2 0-.3.1-.3z" class="st12"/><path d="M35.8 25.5c-.3.1-.6.2-.9.2-.6.1-1-.3-1.5-.5-.4-.2-.9-.3-1.3-.5-.4-.1-.5-.4-.6-.8.6-.5 1.3-.5 2-.3 1.1.3 1.9.9 2.3 1.9z" class="st13"/><path d="M26.3 24c0 .4-.1.6-.5.7l-2.1.9c-.5.2-1.1.1-1.6-.1.6-1.1 1.5-1.7 2.7-1.9.5 0 1 0 1.5.4z" class="st14"/><path d="M21.8 26.1c.8.7 1.6.8 2.6.4.5-.2 1-.5 1.6-.7.5-.2.8-.5.7-1.1v-.5c.4.6.3 1.5-.3 2-.8.5-1.8.9-2.7 1.1-.5.1-1.4-.2-1.7-.9-.2 0-.2-.1-.2-.3z" class="st15"/><path d="M31.1 24.4c0 .2.1.3 0 .5 0 .3.2.6.4.7.7.4 1.4.8 2.3 1.1.8.2 1.6.1 2.2-.6.1.5-.2.7-.6.9-.5.3-1 .3-1.5.2-1-.3-1.9-.6-2.7-1.4-.3-.3-.3-1-.1-1.4z" class="st16"/><path d="M28.9 24.2c.9.1 1.5.3 1.6 1.2.1.3.2.6.2.9v.4c-.1.2-.2.3-.3.1-.1-.1-.2-.3-.3-.4-.6-1.1-1.7-1.1-2.3 0-.1.2-.2.3-.3.4-.2.2-.3.1-.4-.1v-.1c0-.7.2-1.4.6-1.9.2-.4.7-.5 1.2-.5z" class="st6"/><path d="M30.8 28.1c.2.4.2.9.2 1.4 0 .2-.1.2-.2.1-.3-.1-.5-.4-.6-.6-.5-1-1.6-1-2.3-.1l-.3.6c-.1.2-.3.2-.5.2s-.1-.2-.1-.3c0-.3 0-.6.1-.9.2.2.3.1.4 0 .4-.3.8-.5 1.3-.6.5-.1 1 .1 1.5.2h.5z" class="st17"/><path d="M27.5 27.3c.1-.4.4-.8.7-1 .6-.5 1.1-.5 1.6 0 .2.2.4.4.5.6 0 .2-.3.2-.4.2-.5 0-.9 0-1.4.1-.2.1-.5.2-.7.2-.1.1-.3.2-.3-.1z" class="st18"/><path d="M27.5 27.3c.1.2.3.1.3 0 .7-.3 1.4-.4 2.1-.4.1 0 .3.1.4-.1l.3.6c-.1.2-.3.2-.4.2-.9-.1-1.8 0-2.6.4-.1.1-.3.1-.4 0 0-.2.1-.4.3-.7z" class="st19"/><path d="M27.2 28.1c.1 0 .3 0 .4-.1.8-.4 1.6-.6 2.5-.4.2 0 .4.1.5-.1.1.2.2.4.2.6 0 .2-.1.1-.2.1-.3-.2-.7-.2-1.1-.3-.6-.1-1.1 0-1.6.3-.2.1-.4.2-.5.3-.2.1-.3.1-.3-.2l.1-.2z" class="st20"/><path d="M25.5 37.6c.7.3 1.4.4 2.2.4.3 0 .6-.2.9-.1-.5.6-1.1.7-1.8.7-.2 0-.4-.1-.7-.1-.5-.2-.6-.3-.6-.9z" class="st21"/><path d="M29.3 37.8c.5.1.9.2 1.4.2.5 0 .9-.2 1.3-.4.1-.1.2-.1.4-.1 0 .6 0 .6-.6.9-.8.3-1.5.1-2.2-.2-.2-.1-.3-.2-.3-.4z" class="st22"/><path d="M25.1 32.2l.4-.4c.7-.6 1.5-.7 2.3-.8 1.1-.1 2.3-.1 3.4.2.5.1.9.3 1.2.6l.4.4c.2.1.3.3.3.6.1.6.1 1.3-.1 1.9-.1.3-.3.5-.6.5s-.5-.2-.7-.2c-.8-.4-1.7-.6-2.6-.6-1 0-2 .1-2.9.5-.2.1-.4.2-.6.2-.3.1-.6.2-.9-.2-.2-.3 0-.6-.1-.8-.1-.4 0-.9 0-1.3.2-.3.3-.5.5-.6z" class="st23"/><path d="M33.1 34.7c.1-.5.1-1.1.1-1.6 0-.3-.1-.6-.3-.9.1 0 .1 0 .1.1.2.2.5.2.7 0 .4-.3.8-.7 1.2-.9.1-.1.3-.2.4-.1.2.1.1.3.1.4-.3 1.1-.6 2.2-1.4 3.1-.2.1-.5.2-.7.2-.1-.1-.3-.1-.2-.3zm-8-2.5c-.3.4-.3.8-.3 1.3v.6c0 .4 0 .5-.4.5-.2 0-.5.1-.7-.2-.6-.9-.8-1.8-1.1-2.8 0-.1-.1-.3.1-.4.2-.1.3 0 .4.1.3.2.7.4.9.7.3.4.7.5 1.1.2z" class="st24"/><path d="M33.1 34.7c.1.3.3.1.5.1.1 0 .3-.1.5-.1-.2.3-.4.4-.7.5-.9.4-1.8.2-2.8 0-1.2-.2-2.4-.2-3.5.1-.6.1-1.2.1-1.8-.1l-.9-.3c-.2 0-.3-.1-.3-.3.3-.1.7 0 1 .1.2.3.5.2.8.1.4.2.7.1 1.1.1.7-.1 1.4-.3 2.1-.3.7 0 1.3.1 2 .2.5.1 1 .2 1.5.1.2.2.3 0 .5-.2z" class="st25"/><path d="M32.4 31.8c-2.3-1.1-4.6-1.1-6.9 0 .1-.2.3-.3.5-.4 2-.8 3.9-.8 5.9 0 .2.1.4.2.5.4z" class="st26"/><path d="M25 34.8c-.3.1-.7 0-1-.1-.1-.1-.2-.2-.2-.4.2.1.4.1.6.1.3 0 .5-.1.5-.4 0 .3-.1.6.1.8z" class="st27"/><path d="M26.2 34.8c1-.5 2.2-.6 3.3-.6.8 0 1.6.3 2.3.6.1.2-.1.2-.2.2-.2 0-.5 0-.7-.1-1.3-.2-2.5-.3-3.8 0-.3.1-.5.1-.8 0 0 .1-.2.1-.1-.1z" class="st28"/><path d="M26.2 34.8c-.1.1 0 .1.1.1.3.1.7 0 1-.1 1.2-.3 2.5-.2 3.7 0 .2 0 .5 0 .7.1.1 0 .1-.1.1-.1l.6.2c-.1.2-.3.2-.5.2-1.2-.1-2.3-.4-3.5-.3-.5 0-1.1.2-1.6.2-.3 0-.7.1-1 0-.1 0-.2 0-.1-.2l.5-.1z" class="st29"/></g></svg>